G04*
G04 #@! TF.GenerationSoftware,Altium Limited,Altium Designer,20.1.8 (145)*
G04*
G04 Layer_Color=8388736*
%FSLAX25Y25*%
%MOIN*%
G70*
G04*
G04 #@! TF.SameCoordinates,6F670A74-5D77-4B1B-A970-1CA094F5BC2F*
G04*
G04*
G04 #@! TF.FilePolarity,Negative*
G04*
G01*
G75*
%ADD22R,0.06100X0.05100*%
%ADD34R,0.05524X0.01981*%
G04:AMPARAMS|DCode=35|XSize=19.81mil|YSize=55.24mil|CornerRadius=6.95mil|HoleSize=0mil|Usage=FLASHONLY|Rotation=90.000|XOffset=0mil|YOffset=0mil|HoleType=Round|Shape=RoundedRectangle|*
%AMROUNDEDRECTD35*
21,1,0.01981,0.04134,0,0,90.0*
21,1,0.00591,0.05524,0,0,90.0*
1,1,0.01391,0.02067,0.00295*
1,1,0.01391,0.02067,-0.00295*
1,1,0.01391,-0.02067,-0.00295*
1,1,0.01391,-0.02067,0.00295*
%
%ADD35ROUNDEDRECTD35*%
%ADD36R,0.09068X0.10642*%
%ADD37R,0.03162X0.09461*%
%ADD38R,0.04737X0.04737*%
%ADD39R,0.04343X0.04737*%
G04:AMPARAMS|DCode=40|XSize=23.68mil|YSize=23.68mil|CornerRadius=4.46mil|HoleSize=0mil|Usage=FLASHONLY|Rotation=0.000|XOffset=0mil|YOffset=0mil|HoleType=Round|Shape=RoundedRectangle|*
%AMROUNDEDRECTD40*
21,1,0.02368,0.01476,0,0,0.0*
21,1,0.01476,0.02368,0,0,0.0*
1,1,0.00892,0.00738,-0.00738*
1,1,0.00892,-0.00738,-0.00738*
1,1,0.00892,-0.00738,0.00738*
1,1,0.00892,0.00738,0.00738*
%
%ADD40ROUNDEDRECTD40*%
%ADD41R,0.01300X0.03300*%
%ADD42R,0.04737X0.04737*%
%ADD43R,0.06706X0.03162*%
%ADD44R,0.05918X0.07887*%
%ADD45R,0.04737X0.04343*%
G04:AMPARAMS|DCode=46|XSize=62.72mil|YSize=39.1mil|CornerRadius=7.89mil|HoleSize=0mil|Usage=FLASHONLY|Rotation=270.000|XOffset=0mil|YOffset=0mil|HoleType=Round|Shape=RoundedRectangle|*
%AMROUNDEDRECTD46*
21,1,0.06272,0.02333,0,0,270.0*
21,1,0.04695,0.03910,0,0,270.0*
1,1,0.01578,-0.01166,-0.02347*
1,1,0.01578,-0.01166,0.02347*
1,1,0.01578,0.01166,0.02347*
1,1,0.01578,0.01166,-0.02347*
%
%ADD46ROUNDEDRECTD46*%
%ADD47R,0.03556X0.06706*%
%ADD48R,0.06706X0.03556*%
%ADD49R,0.06706X0.06706*%
%ADD50C,0.06706*%
%ADD51C,0.02965*%
%ADD52C,0.18800*%
%ADD53C,0.03800*%
%ADD54C,0.05800*%
G36*
X82326Y193050D02*
X82363Y193039D01*
X82407Y193020D01*
X82441Y193002D01*
X82471Y192977D01*
X82505Y192944D01*
X82530Y192914D01*
X82538Y192898D01*
X82548Y192880D01*
X82566Y192836D01*
X82577Y192799D01*
X82581Y192760D01*
Y192736D01*
Y187815D01*
Y187791D01*
D01*
Y187791D01*
X82577Y187753D01*
X82566Y187715D01*
X82548Y187671D01*
X82530Y187637D01*
X82505Y187607D01*
X82471Y187574D01*
X82471Y187574D01*
X82471Y187574D01*
X82465Y187569D01*
X82441Y187549D01*
X82421Y187538D01*
X82407Y187531D01*
X82363Y187513D01*
X82332Y187503D01*
X82326Y187501D01*
X82326D01*
X82326Y187501D01*
X82300Y187499D01*
X82288Y187498D01*
X76846D01*
X76825Y187500D01*
X76808Y187501D01*
X76808Y187501D01*
X76808D01*
X76784Y187508D01*
X76771Y187513D01*
X76771Y187513D01*
X76771D01*
X76771D01*
X76763Y187516D01*
X76763D01*
X76763Y187516D01*
X76743Y187527D01*
X76728Y187534D01*
X76728Y187534D01*
X76728Y187534D01*
X76698Y187559D01*
X76693Y187565D01*
X76668Y187595D01*
X76668Y187595D01*
X76668Y187595D01*
X76658Y187614D01*
X76650Y187629D01*
X76650Y187629D01*
X76650Y187629D01*
X76647Y187637D01*
Y187637D01*
Y187637D01*
X76647Y187637D01*
X76642Y187650D01*
X76635Y187674D01*
Y187674D01*
X76635Y187674D01*
X76634Y187691D01*
X76633Y187692D01*
X76632Y187697D01*
X76621Y187817D01*
X76532Y188030D01*
X76377Y188186D01*
X76164Y188274D01*
X76044Y188286D01*
X76038Y188287D01*
X76038Y188287D01*
X76020Y188289D01*
X76020Y188289D01*
X76020D01*
X75997Y188296D01*
X75983Y188300D01*
X75983Y188300D01*
X75983D01*
X75983D01*
X75975Y188303D01*
X75975D01*
X75975Y188303D01*
X75955Y188314D01*
X75941Y188321D01*
X75941Y188321D01*
X75941Y188321D01*
X75911Y188346D01*
X75905Y188352D01*
X75881Y188382D01*
X75881Y188382D01*
X75880Y188382D01*
X75870Y188401D01*
X75862Y188416D01*
X75862Y188416D01*
X75862Y188416D01*
X75859Y188424D01*
Y188424D01*
Y188424D01*
X75859Y188424D01*
X75855Y188438D01*
X75848Y188461D01*
Y188461D01*
X75848Y188461D01*
X75846Y188479D01*
X75844Y188500D01*
Y188504D01*
Y192736D01*
Y192760D01*
X75845Y192773D01*
X75848Y192799D01*
X75848Y192799D01*
Y192799D01*
X75850Y192805D01*
X75859Y192836D01*
X75877Y192880D01*
X75877Y192880D01*
Y192880D01*
X75896Y192914D01*
X75920Y192944D01*
X75954Y192977D01*
X75984Y193002D01*
X76000Y193011D01*
X76018Y193020D01*
X76062Y193039D01*
X76099Y193050D01*
X76138Y193054D01*
X82288D01*
X82288D01*
D01*
X82326Y193050D01*
D02*
G37*
D22*
X213350Y258858D02*
D03*
Y241142D02*
D03*
X244650D02*
D03*
Y258858D02*
D03*
X256350D02*
D03*
Y241142D02*
D03*
X287650D02*
D03*
Y258858D02*
D03*
D34*
X200200Y195363D02*
D03*
X200198Y197332D02*
D03*
X200200Y199300D02*
D03*
Y201232D02*
D03*
D35*
X200100Y203200D02*
D03*
D36*
X207500Y199300D02*
D03*
D37*
X202000Y180760D02*
D03*
X197000D02*
D03*
X192000D02*
D03*
X187000D02*
D03*
X182000D02*
D03*
X177000D02*
D03*
X172000D02*
D03*
X167000D02*
D03*
X162000D02*
D03*
X157000D02*
D03*
X152000D02*
D03*
X147000D02*
D03*
X142000D02*
D03*
X137000D02*
D03*
X202000Y138240D02*
D03*
X197000D02*
D03*
X192000D02*
D03*
X187000D02*
D03*
X182000D02*
D03*
X177000D02*
D03*
X172000D02*
D03*
X167000D02*
D03*
X162000D02*
D03*
X157000D02*
D03*
X152000D02*
D03*
X147000D02*
D03*
X142000D02*
D03*
X137000D02*
D03*
D38*
X144150Y190500D02*
D03*
X137850D02*
D03*
X161350Y128500D02*
D03*
X167650D02*
D03*
X112150Y188500D02*
D03*
X105850D02*
D03*
X76350Y176500D02*
D03*
X82650D02*
D03*
X182650Y190500D02*
D03*
X176350D02*
D03*
D39*
X229153Y224000D02*
D03*
X235846D02*
D03*
X105654Y203000D02*
D03*
X112346D02*
D03*
X105654Y195500D02*
D03*
X112346D02*
D03*
X198153Y220000D02*
D03*
X204847D02*
D03*
X204847Y213000D02*
D03*
X198153D02*
D03*
X198000Y226000D02*
D03*
X204693D02*
D03*
X224153Y123000D02*
D03*
X230847D02*
D03*
X224153Y130000D02*
D03*
X230847D02*
D03*
X82846Y163000D02*
D03*
X76153D02*
D03*
X82846Y170000D02*
D03*
X76153D02*
D03*
X261347Y144000D02*
D03*
X254654D02*
D03*
X229153Y231500D02*
D03*
X235846D02*
D03*
X204847Y232500D02*
D03*
X198153D02*
D03*
X224153Y144000D02*
D03*
X230847D02*
D03*
X224153Y137000D02*
D03*
X230847D02*
D03*
D40*
X79213Y190276D02*
D03*
D41*
X76850Y195000D02*
D03*
X78425D02*
D03*
X80000D02*
D03*
X81575D02*
D03*
Y185551D02*
D03*
X80000D02*
D03*
X78425D02*
D03*
X76850D02*
D03*
D42*
X130500Y248650D02*
D03*
Y242350D02*
D03*
X130000Y216150D02*
D03*
Y209850D02*
D03*
X188000Y203150D02*
D03*
Y196850D02*
D03*
D43*
X113760Y226500D02*
D03*
X121240Y230240D02*
D03*
Y222760D02*
D03*
X266240Y219000D02*
D03*
X258760Y215260D02*
D03*
Y222740D02*
D03*
D44*
X156291Y266000D02*
D03*
X167709D02*
D03*
X156291Y231500D02*
D03*
X167709D02*
D03*
X279291Y216500D02*
D03*
X290709D02*
D03*
D45*
X228500Y177847D02*
D03*
Y171153D02*
D03*
D46*
X197047Y255465D02*
D03*
X202953D02*
D03*
Y243535D02*
D03*
X197047D02*
D03*
D47*
X320658Y201106D02*
D03*
X316327D02*
D03*
X320658Y155862D02*
D03*
X316327D02*
D03*
X244280D02*
D03*
X248610D02*
D03*
X265933D02*
D03*
X261603D02*
D03*
X257272D02*
D03*
X252941Y201137D02*
D03*
X274595Y155862D02*
D03*
X270264D02*
D03*
X252941D02*
D03*
X265933Y201137D02*
D03*
X257272D02*
D03*
X283256D02*
D03*
X278925Y155862D02*
D03*
X287587Y201137D02*
D03*
X261603D02*
D03*
X278925D02*
D03*
X248610D02*
D03*
X244280D02*
D03*
X274595D02*
D03*
X270264D02*
D03*
X283256Y155862D02*
D03*
X291917Y201137D02*
D03*
D48*
X238177Y191492D02*
D03*
Y182830D02*
D03*
Y178500D02*
D03*
Y174169D02*
D03*
Y187161D02*
D03*
Y169838D02*
D03*
Y165508D02*
D03*
D49*
X297390Y146000D02*
D03*
X283610D02*
D03*
X284000Y124000D02*
D03*
X234000Y110500D02*
D03*
X193833Y110000D02*
D03*
X145500Y239000D02*
D03*
Y205000D02*
D03*
X92000Y211500D02*
D03*
D50*
X284000Y134000D02*
D03*
X274000Y124000D02*
D03*
Y134000D02*
D03*
X264000Y124000D02*
D03*
Y134000D02*
D03*
X284000Y110500D02*
D03*
X274000D02*
D03*
X264000D02*
D03*
X254000D02*
D03*
X244000D02*
D03*
X193833Y120000D02*
D03*
X183833Y110000D02*
D03*
Y120000D02*
D03*
X173833Y110000D02*
D03*
Y120000D02*
D03*
X145500Y259000D02*
D03*
Y249000D02*
D03*
Y225000D02*
D03*
Y215000D02*
D03*
X82000Y211500D02*
D03*
D51*
X209800Y195800D02*
D03*
X209900Y199300D02*
D03*
X207500Y197500D02*
D03*
X209800Y202900D02*
D03*
X207500Y201000D02*
D03*
X205100Y195800D02*
D03*
Y199300D02*
D03*
Y202800D02*
D03*
D52*
X113500Y127500D02*
D03*
Y247500D02*
D03*
X311500D02*
D03*
Y127500D02*
D03*
D53*
X252500Y138000D02*
D03*
X237000Y137000D02*
D03*
X207000Y118500D02*
D03*
X244375Y123125D02*
D03*
X249326Y149673D02*
D03*
X244500Y149705D02*
D03*
X259000Y115500D02*
D03*
X302500Y138500D02*
D03*
X304000Y112500D02*
D03*
X206500Y135000D02*
D03*
X167000Y159500D02*
D03*
X152000Y147500D02*
D03*
X162500Y197000D02*
D03*
X169500Y190500D02*
D03*
X187000Y171500D02*
D03*
X128000Y138500D02*
D03*
X172000Y148000D02*
D03*
X177000Y147500D02*
D03*
X156000Y196500D02*
D03*
X155000Y127000D02*
D03*
X162000Y189500D02*
D03*
X167000Y173500D02*
D03*
X182000Y171500D02*
D03*
X238000Y147500D02*
D03*
X249000Y129500D02*
D03*
X131500Y121500D02*
D03*
Y190500D02*
D03*
X135500Y216000D02*
D03*
X230000Y237000D02*
D03*
X181500Y237500D02*
D03*
X230000Y245000D02*
D03*
X221500Y259000D02*
D03*
X224000Y246000D02*
D03*
X221500Y272000D02*
D03*
X219000Y249500D02*
D03*
X214000Y253000D02*
D03*
Y226000D02*
D03*
X219000Y220000D02*
D03*
X224000Y217500D02*
D03*
X236000Y259000D02*
D03*
X242000Y231500D02*
D03*
X254000Y252500D02*
D03*
X236000Y272000D02*
D03*
X195500Y205000D02*
D03*
X159500Y216000D02*
D03*
X242000Y212500D02*
D03*
X236000Y217500D02*
D03*
X166199Y218500D02*
D03*
X173500Y210500D02*
D03*
X170500Y215000D02*
D03*
X163000Y222000D02*
D03*
X128000Y157500D02*
D03*
X296500Y216500D02*
D03*
X299330Y266000D02*
D03*
X175000Y231500D02*
D03*
Y266000D02*
D03*
X176396Y197400D02*
D03*
X92000Y157500D02*
D03*
X138500Y154000D02*
D03*
X92000Y176500D02*
D03*
X87500Y170000D02*
D03*
Y182500D02*
D03*
X176396Y225104D02*
D03*
X104500Y214000D02*
D03*
X112346Y208846D02*
D03*
X129740Y230240D02*
D03*
X92000Y188500D02*
D03*
X83000Y157500D02*
D03*
X74000Y182500D02*
D03*
X194000Y195000D02*
D03*
D54*
X283000Y164000D02*
D03*
M02*
