G04*
G04 #@! TF.GenerationSoftware,Altium Limited,Altium Designer,20.1.8 (145)*
G04*
G04 Layer_Color=8421504*
%FSLAX25Y25*%
%MOIN*%
G70*
G04*
G04 #@! TF.SameCoordinates,6F670A74-5D77-4B1B-A970-1CA094F5BC2F*
G04*
G04*
G04 #@! TF.FilePolarity,Positive*
G04*
G01*
G75*
%ADD17R,0.04724X0.01181*%
G04:AMPARAMS|DCode=18|XSize=11.81mil|YSize=47.24mil|CornerRadius=2.95mil|HoleSize=0mil|Usage=FLASHONLY|Rotation=90.000|XOffset=0mil|YOffset=0mil|HoleType=Round|Shape=RoundedRectangle|*
%AMROUNDEDRECTD18*
21,1,0.01181,0.04134,0,0,90.0*
21,1,0.00591,0.04724,0,0,90.0*
1,1,0.00591,0.02067,0.00295*
1,1,0.00591,0.02067,-0.00295*
1,1,0.00591,-0.02067,-0.00295*
1,1,0.00591,-0.02067,0.00295*
%
%ADD18ROUNDEDRECTD18*%
%ADD19R,0.08268X0.09843*%
%ADD20R,0.02362X0.08661*%
%ADD21R,0.03937X0.03937*%
%ADD22R,0.06100X0.05100*%
%ADD23R,0.03543X0.03937*%
G04:AMPARAMS|DCode=24|XSize=11.81mil|YSize=11.81mil|CornerRadius=0mil|HoleSize=0mil|Usage=FLASHONLY|Rotation=0.000|XOffset=0mil|YOffset=0mil|HoleType=Round|Shape=RoundedRectangle|*
%AMROUNDEDRECTD24*
21,1,0.01181,0.01181,0,0,0.0*
21,1,0.01181,0.01181,0,0,0.0*
1,1,0.00000,0.00591,-0.00591*
1,1,0.00000,-0.00591,-0.00591*
1,1,0.00000,-0.00591,0.00591*
1,1,0.00000,0.00591,0.00591*
%
%ADD24ROUNDEDRECTD24*%
%ADD25R,0.00900X0.02900*%
%ADD26R,0.03937X0.03937*%
%ADD27R,0.05906X0.02362*%
%ADD28R,0.05118X0.07087*%
%ADD29R,0.03937X0.03543*%
G04:AMPARAMS|DCode=30|XSize=54.72mil|YSize=31.1mil|CornerRadius=3.89mil|HoleSize=0mil|Usage=FLASHONLY|Rotation=270.000|XOffset=0mil|YOffset=0mil|HoleType=Round|Shape=RoundedRectangle|*
%AMROUNDEDRECTD30*
21,1,0.05472,0.02333,0,0,270.0*
21,1,0.04695,0.03110,0,0,270.0*
1,1,0.00778,-0.01166,-0.02347*
1,1,0.00778,-0.01166,0.02347*
1,1,0.00778,0.01166,0.02347*
1,1,0.00778,0.01166,-0.02347*
%
%ADD30ROUNDEDRECTD30*%
%ADD31R,0.02756X0.05906*%
%ADD32R,0.05906X0.02756*%
%ADD33R,0.05906X0.05906*%
G36*
X82332Y192838D02*
X82365Y192804D01*
X82383Y192760D01*
Y192736D01*
Y187815D01*
Y187791D01*
X82365Y187747D01*
X82332Y187714D01*
X82288Y187695D01*
X76846D01*
X76838Y187699D01*
X76832Y187705D01*
X76829Y187712D01*
Y187716D01*
X76815Y187866D01*
X76700Y188142D01*
X76489Y188354D01*
X76213Y188468D01*
X76063Y188483D01*
X76059D01*
X76051Y188486D01*
X76045Y188492D01*
X76042Y188500D01*
Y188504D01*
Y192736D01*
Y192760D01*
X76060Y192804D01*
X76094Y192838D01*
X76138Y192856D01*
X82288D01*
X82332Y192838D01*
D02*
G37*
D17*
X200200Y195363D02*
D03*
X200198Y197332D02*
D03*
X200200Y199300D02*
D03*
Y201232D02*
D03*
D18*
X200100Y203200D02*
D03*
D19*
X207500Y199300D02*
D03*
D20*
X202000Y180760D02*
D03*
X197000D02*
D03*
X192000D02*
D03*
X187000D02*
D03*
X182000D02*
D03*
X177000D02*
D03*
X172000D02*
D03*
X167000D02*
D03*
X162000D02*
D03*
X157000D02*
D03*
X152000D02*
D03*
X147000D02*
D03*
X142000D02*
D03*
X137000D02*
D03*
X202000Y138240D02*
D03*
X197000D02*
D03*
X192000D02*
D03*
X187000D02*
D03*
X182000D02*
D03*
X177000D02*
D03*
X172000D02*
D03*
X167000D02*
D03*
X162000D02*
D03*
X157000D02*
D03*
X152000D02*
D03*
X147000D02*
D03*
X142000D02*
D03*
X137000D02*
D03*
D21*
X144150Y190500D02*
D03*
X137850D02*
D03*
X161350Y128500D02*
D03*
X167650D02*
D03*
X112150Y188500D02*
D03*
X105850D02*
D03*
X76350Y176500D02*
D03*
X82650D02*
D03*
X182650Y190500D02*
D03*
X176350D02*
D03*
D22*
X213350Y258858D02*
D03*
Y241142D02*
D03*
X244650D02*
D03*
Y258858D02*
D03*
X256350D02*
D03*
Y241142D02*
D03*
X287650D02*
D03*
Y258858D02*
D03*
D23*
X229153Y224000D02*
D03*
X235846D02*
D03*
X105654Y203000D02*
D03*
X112346D02*
D03*
X105654Y195500D02*
D03*
X112346D02*
D03*
X198153Y220000D02*
D03*
X204847D02*
D03*
X204847Y213000D02*
D03*
X198153D02*
D03*
X198000Y226000D02*
D03*
X204693D02*
D03*
X224153Y123000D02*
D03*
X230847D02*
D03*
X224153Y130000D02*
D03*
X230847D02*
D03*
X82846Y163000D02*
D03*
X76153D02*
D03*
X82846Y170000D02*
D03*
X76153D02*
D03*
X261347Y144000D02*
D03*
X254654D02*
D03*
X229153Y231500D02*
D03*
X235846D02*
D03*
X204847Y232500D02*
D03*
X198153D02*
D03*
X224153Y144000D02*
D03*
X230847D02*
D03*
X224153Y137000D02*
D03*
X230847D02*
D03*
D24*
X79213Y190276D02*
D03*
D25*
X76850Y195000D02*
D03*
X78425D02*
D03*
X80000D02*
D03*
X81575D02*
D03*
Y185551D02*
D03*
X80000D02*
D03*
X78425D02*
D03*
X76850D02*
D03*
D26*
X130500Y248650D02*
D03*
Y242350D02*
D03*
X130000Y216150D02*
D03*
Y209850D02*
D03*
X188000Y203150D02*
D03*
Y196850D02*
D03*
D27*
X113760Y226500D02*
D03*
X121240Y230240D02*
D03*
Y222760D02*
D03*
X266240Y219000D02*
D03*
X258760Y215260D02*
D03*
Y222740D02*
D03*
D28*
X156291Y266000D02*
D03*
X167709D02*
D03*
X156291Y231500D02*
D03*
X167709D02*
D03*
X279291Y216500D02*
D03*
X290709D02*
D03*
D29*
X228500Y177847D02*
D03*
Y171153D02*
D03*
D30*
X197047Y255465D02*
D03*
X202953D02*
D03*
Y243535D02*
D03*
X197047D02*
D03*
D31*
X320658Y201106D02*
D03*
X316327D02*
D03*
X320658Y155862D02*
D03*
X316327D02*
D03*
X244280D02*
D03*
X248610D02*
D03*
X265933D02*
D03*
X261603D02*
D03*
X257272D02*
D03*
X252941Y201137D02*
D03*
X274595Y155862D02*
D03*
X270264D02*
D03*
X252941D02*
D03*
X265933Y201137D02*
D03*
X257272D02*
D03*
X283256D02*
D03*
X278925Y155862D02*
D03*
X287587Y201137D02*
D03*
X261603D02*
D03*
X278925D02*
D03*
X248610D02*
D03*
X244280D02*
D03*
X274595D02*
D03*
X270264D02*
D03*
X283256Y155862D02*
D03*
X291917Y201137D02*
D03*
D32*
X238177Y191492D02*
D03*
Y182830D02*
D03*
Y178500D02*
D03*
Y174169D02*
D03*
Y187161D02*
D03*
Y169838D02*
D03*
Y165508D02*
D03*
D33*
X297390Y146000D02*
D03*
X283610D02*
D03*
M02*
