G04*
G04 #@! TF.GenerationSoftware,Altium Limited,Altium Designer,20.1.8 (145)*
G04*
G04 Layer_Physical_Order=1*
G04 Layer_Color=255*
%FSLAX25Y25*%
%MOIN*%
G70*
G04*
G04 #@! TF.SameCoordinates,6F670A74-5D77-4B1B-A970-1CA094F5BC2F*
G04*
G04*
G04 #@! TF.FilePolarity,Positive*
G04*
G01*
G75*
%ADD12C,0.01000*%
%ADD14C,0.00600*%
%ADD17R,0.04724X0.01181*%
G04:AMPARAMS|DCode=18|XSize=11.81mil|YSize=47.24mil|CornerRadius=2.95mil|HoleSize=0mil|Usage=FLASHONLY|Rotation=90.000|XOffset=0mil|YOffset=0mil|HoleType=Round|Shape=RoundedRectangle|*
%AMROUNDEDRECTD18*
21,1,0.01181,0.04134,0,0,90.0*
21,1,0.00591,0.04724,0,0,90.0*
1,1,0.00591,0.02067,0.00295*
1,1,0.00591,0.02067,-0.00295*
1,1,0.00591,-0.02067,-0.00295*
1,1,0.00591,-0.02067,0.00295*
%
%ADD18ROUNDEDRECTD18*%
%ADD19R,0.08268X0.09843*%
%ADD20R,0.02362X0.08661*%
%ADD21R,0.03937X0.03937*%
%ADD22R,0.06100X0.05100*%
%ADD23R,0.03543X0.03937*%
%ADD25R,0.00900X0.02900*%
%ADD26R,0.03937X0.03937*%
%ADD27R,0.05906X0.02362*%
%ADD28R,0.05118X0.07087*%
%ADD29R,0.03937X0.03543*%
G04:AMPARAMS|DCode=30|XSize=54.72mil|YSize=31.1mil|CornerRadius=3.89mil|HoleSize=0mil|Usage=FLASHONLY|Rotation=270.000|XOffset=0mil|YOffset=0mil|HoleType=Round|Shape=RoundedRectangle|*
%AMROUNDEDRECTD30*
21,1,0.05472,0.02333,0,0,270.0*
21,1,0.04695,0.03110,0,0,270.0*
1,1,0.00778,-0.01166,-0.02347*
1,1,0.00778,-0.01166,0.02347*
1,1,0.00778,0.01166,0.02347*
1,1,0.00778,0.01166,-0.02347*
%
%ADD30ROUNDEDRECTD30*%
%ADD31R,0.02756X0.05906*%
%ADD32R,0.05906X0.02756*%
%ADD33R,0.05906X0.05906*%
G04:AMPARAMS|DCode=55|XSize=19.68mil|YSize=19.68mil|CornerRadius=2.46mil|HoleSize=0mil|Usage=FLASHONLY|Rotation=0.000|XOffset=0mil|YOffset=0mil|HoleType=Round|Shape=RoundedRectangle|*
%AMROUNDEDRECTD55*
21,1,0.01968,0.01476,0,0,0.0*
21,1,0.01476,0.01968,0,0,0.0*
1,1,0.00492,0.00738,-0.00738*
1,1,0.00492,-0.00738,-0.00738*
1,1,0.00492,-0.00738,0.00738*
1,1,0.00492,0.00738,0.00738*
%
%ADD55ROUNDEDRECTD55*%
%ADD56C,0.01500*%
%ADD57C,0.05906*%
%ADD58C,0.02165*%
%ADD59C,0.18000*%
%ADD60C,0.03000*%
%ADD61C,0.05000*%
G36*
X157672Y270744D02*
X157695Y270487D01*
X157732Y270260D01*
X157785Y270064D01*
X157852Y269897D01*
X157935Y269761D01*
X158032Y269655D01*
X158145Y269580D01*
X158272Y269534D01*
X158415Y269519D01*
X155415D01*
X155557Y269534D01*
X155685Y269580D01*
X155797Y269655D01*
X155895Y269761D01*
X155977Y269897D01*
X156045Y270064D01*
X156097Y270260D01*
X156135Y270487D01*
X156157Y270744D01*
X156165Y271031D01*
X157665D01*
X157672Y270744D01*
D02*
G37*
G36*
X153744Y265000D02*
X153729Y265142D01*
X153684Y265270D01*
X153609Y265383D01*
X153504Y265480D01*
X153369Y265563D01*
X153204Y265630D01*
X153009Y265683D01*
X152784Y265720D01*
X152529Y265742D01*
X152244Y265750D01*
Y267250D01*
X152529Y267257D01*
X152784Y267280D01*
X153009Y267318D01*
X153204Y267370D01*
X153369Y267438D01*
X153504Y267520D01*
X153609Y267618D01*
X153684Y267730D01*
X153729Y267858D01*
X153744Y268000D01*
Y265000D01*
D02*
G37*
G36*
X176135Y266993D02*
X176210Y266942D01*
X176296Y266897D01*
X176393Y266858D01*
X176500Y266825D01*
X176618Y266798D01*
X176747Y266777D01*
X176887Y266762D01*
X177199Y266750D01*
Y265250D01*
X177038Y265247D01*
X176747Y265223D01*
X176618Y265202D01*
X176500Y265175D01*
X176393Y265142D01*
X176296Y265103D01*
X176210Y265058D01*
X176135Y265007D01*
X176071Y264950D01*
Y267050D01*
X176135Y266993D01*
D02*
G37*
G36*
X173929Y264950D02*
X173865Y265007D01*
X173790Y265058D01*
X173704Y265103D01*
X173607Y265142D01*
X173500Y265175D01*
X173382Y265202D01*
X173253Y265223D01*
X173113Y265238D01*
X172801Y265250D01*
X172801Y266750D01*
X172962Y266753D01*
X173253Y266777D01*
X173382Y266798D01*
X173500Y266825D01*
X173607Y266858D01*
X173704Y266897D01*
X173790Y266942D01*
X173865Y266993D01*
X173929Y267050D01*
X173929Y264950D01*
D02*
G37*
G36*
X170259Y267357D02*
X170304Y267230D01*
X170380Y267118D01*
X170486Y267020D01*
X170622Y266937D01*
X170788Y266870D01*
X170985Y266817D01*
X171211Y266780D01*
X171468Y266757D01*
X171756Y266750D01*
Y265250D01*
X171468Y265243D01*
X171211Y265220D01*
X170985Y265182D01*
X170788Y265130D01*
X170622Y265062D01*
X170486Y264980D01*
X170380Y264882D01*
X170304Y264770D01*
X170259Y264643D01*
X170244Y264500D01*
Y267500D01*
X170259Y267357D01*
D02*
G37*
G36*
X146263Y263381D02*
X146303Y263134D01*
X146369Y262885D01*
X146461Y262635D01*
X146579Y262384D01*
X146724Y262131D01*
X146895Y261877D01*
X147093Y261623D01*
X147317Y261366D01*
X147567Y261109D01*
X143433D01*
X143683Y261366D01*
X143907Y261623D01*
X144105Y261877D01*
X144276Y262131D01*
X144421Y262384D01*
X144539Y262635D01*
X144632Y262885D01*
X144697Y263134D01*
X144737Y263381D01*
X144750Y263628D01*
X146250D01*
X146263Y263381D01*
D02*
G37*
G36*
X132455Y249905D02*
X132485Y249820D01*
X132536Y249745D01*
X132606Y249680D01*
X132697Y249625D01*
X132809Y249580D01*
X132940Y249545D01*
X133092Y249520D01*
X133264Y249505D01*
X133457Y249500D01*
Y248500D01*
X133264Y248495D01*
X133092Y248480D01*
X132940Y248455D01*
X132809Y248420D01*
X132697Y248375D01*
X132606Y248320D01*
X132536Y248255D01*
X132485Y248180D01*
X132455Y248095D01*
X132445Y248000D01*
Y250000D01*
X132455Y249905D01*
D02*
G37*
G36*
X128556Y247500D02*
X128545Y247595D01*
X128515Y247680D01*
X128464Y247755D01*
X128394Y247820D01*
X128303Y247875D01*
X128191Y247920D01*
X128060Y247955D01*
X127908Y247980D01*
X127736Y247995D01*
X127543Y248000D01*
Y249000D01*
X127736Y249005D01*
X127908Y249020D01*
X128060Y249045D01*
X128191Y249080D01*
X128303Y249125D01*
X128394Y249180D01*
X128464Y249245D01*
X128515Y249320D01*
X128545Y249405D01*
X128556Y249500D01*
Y247500D01*
D02*
G37*
G36*
X143391Y246933D02*
X143089Y247231D01*
X142515Y247732D01*
X142242Y247936D01*
X141980Y248108D01*
X141728Y248249D01*
X141485Y248359D01*
X141253Y248437D01*
X141031Y248484D01*
X140818Y248500D01*
Y249500D01*
X141031Y249516D01*
X141253Y249563D01*
X141485Y249641D01*
X141728Y249751D01*
X141980Y249892D01*
X142242Y250064D01*
X142515Y250268D01*
X143089Y250769D01*
X143391Y251067D01*
Y246933D01*
D02*
G37*
G36*
X132454Y243510D02*
X132482Y243480D01*
X132529Y243454D01*
X132595Y243431D01*
X132679Y243411D01*
X132782Y243395D01*
X133045Y243374D01*
X133383Y243367D01*
Y241867D01*
X133204Y241865D01*
X132782Y241839D01*
X132679Y241823D01*
X132595Y241804D01*
X132529Y241781D01*
X132482Y241755D01*
X132454Y241724D01*
X132445Y241691D01*
Y243544D01*
X132454Y243510D01*
D02*
G37*
G36*
X148444Y240357D02*
X148489Y240230D01*
X148565Y240118D01*
X148671Y240020D01*
X148807Y239937D01*
X148973Y239870D01*
X149170Y239818D01*
X149396Y239780D01*
X149653Y239757D01*
X149941Y239750D01*
Y238250D01*
X149653Y238243D01*
X149396Y238220D01*
X149170Y238182D01*
X148973Y238130D01*
X148807Y238063D01*
X148671Y237980D01*
X148565Y237882D01*
X148489Y237770D01*
X148444Y237643D01*
X148429Y237500D01*
Y240500D01*
X148444Y240357D01*
D02*
G37*
G36*
X142571Y237500D02*
X142556Y237643D01*
X142511Y237770D01*
X142435Y237882D01*
X142329Y237980D01*
X142193Y238063D01*
X142027Y238130D01*
X141830Y238182D01*
X141604Y238220D01*
X141347Y238243D01*
X141059Y238250D01*
Y239750D01*
X141347Y239757D01*
X141604Y239780D01*
X141830Y239818D01*
X142027Y239870D01*
X142193Y239937D01*
X142329Y240020D01*
X142435Y240118D01*
X142511Y240230D01*
X142556Y240357D01*
X142571Y240500D01*
Y237500D01*
D02*
G37*
G36*
X182714Y238411D02*
X182995Y238172D01*
X183131Y238074D01*
X183262Y237992D01*
X183391Y237925D01*
X183516Y237872D01*
X183637Y237835D01*
X183755Y237812D01*
X183869Y237805D01*
X183871Y237205D01*
X183756Y237197D01*
X183638Y237175D01*
X183517Y237137D01*
X183392Y237085D01*
X183265Y237017D01*
X183133Y236934D01*
X182999Y236837D01*
X182861Y236724D01*
X182574Y236453D01*
X182568Y238553D01*
X182714Y238411D01*
D02*
G37*
G36*
X168466Y236244D02*
X168489Y235987D01*
X168526Y235760D01*
X168579Y235564D01*
X168646Y235397D01*
X168729Y235261D01*
X168826Y235155D01*
X168939Y235080D01*
X169066Y235034D01*
X169209Y235019D01*
X166209D01*
X166351Y235034D01*
X166479Y235080D01*
X166591Y235155D01*
X166689Y235261D01*
X166771Y235397D01*
X166839Y235564D01*
X166891Y235760D01*
X166929Y235987D01*
X166951Y236244D01*
X166959Y236531D01*
X168459D01*
X168466Y236244D01*
D02*
G37*
G36*
X176135Y232493D02*
X176210Y232442D01*
X176296Y232397D01*
X176393Y232358D01*
X176500Y232325D01*
X176618Y232298D01*
X176747Y232277D01*
X176887Y232262D01*
X177199Y232250D01*
X177199Y230750D01*
X177038Y230747D01*
X176747Y230723D01*
X176618Y230702D01*
X176500Y230675D01*
X176393Y230642D01*
X176296Y230603D01*
X176210Y230558D01*
X176135Y230507D01*
X176071Y230450D01*
X175000Y231500D01*
X173929Y230450D01*
X173865Y230507D01*
X173790Y230558D01*
X173704Y230603D01*
X173607Y230642D01*
X173500Y230675D01*
X173382Y230702D01*
X173253Y230723D01*
X172962Y230747D01*
X172801Y230750D01*
X172801Y232250D01*
X173113Y232262D01*
X173253Y232277D01*
X173382Y232298D01*
X173500Y232325D01*
X173607Y232358D01*
X173704Y232397D01*
X173790Y232442D01*
X173865Y232493D01*
X173929Y232550D01*
X175000Y231500D01*
X176071Y232550D01*
X176135Y232493D01*
D02*
G37*
G36*
X125510Y231550D02*
X125540Y231380D01*
X125590Y231230D01*
X125660Y231100D01*
X125750Y230990D01*
X125860Y230900D01*
X125990Y230830D01*
X126140Y230780D01*
X126310Y230750D01*
X126500Y230740D01*
X125000Y229740D01*
X124842Y229737D01*
X124576Y229711D01*
X124468Y229689D01*
X124377Y229660D01*
X124302Y229625D01*
X124244Y229584D01*
X124202Y229536D01*
X124177Y229482D01*
X124169Y229421D01*
Y230294D01*
X123500Y230740D01*
X123690Y230750D01*
X123860Y230780D01*
X124010Y230830D01*
X124140Y230900D01*
X124169Y230924D01*
Y231059D01*
X124177Y230999D01*
X124200Y230949D01*
X124250Y230990D01*
X124340Y231100D01*
X124410Y231230D01*
X124460Y231380D01*
X124490Y231550D01*
X124500Y231740D01*
X125500D01*
X125510Y231550D01*
D02*
G37*
G36*
X170259Y232857D02*
X170304Y232730D01*
X170380Y232617D01*
X170486Y232520D01*
X170622Y232437D01*
X170788Y232370D01*
X170985Y232317D01*
X171211Y232280D01*
X171468Y232258D01*
X171756Y232250D01*
Y230750D01*
X171468Y230743D01*
X171211Y230720D01*
X170985Y230682D01*
X170788Y230630D01*
X170622Y230562D01*
X170486Y230480D01*
X170380Y230382D01*
X170304Y230270D01*
X170259Y230142D01*
X170244Y230000D01*
Y233000D01*
X170259Y232857D01*
D02*
G37*
G36*
X128669Y229190D02*
X128560Y229295D01*
X128447Y229388D01*
X128331Y229471D01*
X128211Y229542D01*
X128089Y229603D01*
X127963Y229652D01*
X127833Y229691D01*
X127701Y229718D01*
X127565Y229735D01*
X127426Y229740D01*
Y230740D01*
X127565Y230746D01*
X127701Y230762D01*
X127833Y230790D01*
X127963Y230828D01*
X128089Y230878D01*
X128211Y230938D01*
X128331Y231010D01*
X128447Y231092D01*
X128560Y231186D01*
X128669Y231290D01*
Y229190D01*
D02*
G37*
G36*
X157092Y227971D02*
X157007Y227940D01*
X156932Y227890D01*
X156867Y227819D01*
X156812Y227728D01*
X156767Y227616D01*
X156732Y227485D01*
X156707Y227333D01*
X156692Y227161D01*
X156687Y226969D01*
X155687D01*
X155682Y227161D01*
X155667Y227333D01*
X155642Y227485D01*
X155607Y227616D01*
X155562Y227728D01*
X155507Y227819D01*
X155442Y227890D01*
X155367Y227940D01*
X155282Y227971D01*
X155187Y227981D01*
X157187D01*
X157092Y227971D01*
D02*
G37*
G36*
X110819Y225500D02*
X110809Y225595D01*
X110779Y225680D01*
X110729Y225755D01*
X110659Y225820D01*
X110569Y225875D01*
X110459Y225920D01*
X110329Y225955D01*
X110179Y225980D01*
X110009Y225995D01*
X109819Y226000D01*
Y227000D01*
X110009Y227005D01*
X110179Y227020D01*
X110329Y227045D01*
X110459Y227080D01*
X110569Y227125D01*
X110659Y227180D01*
X110729Y227245D01*
X110779Y227320D01*
X110809Y227405D01*
X110819Y227500D01*
Y225500D01*
D02*
G37*
G36*
X175324Y224054D02*
X175215Y224159D01*
X175102Y224252D01*
X174986Y224335D01*
X174867Y224406D01*
X174744Y224467D01*
X174618Y224516D01*
X174489Y224555D01*
X174356Y224582D01*
X174221Y224599D01*
X174082Y224604D01*
Y225604D01*
X174221Y225610D01*
X174356Y225626D01*
X174489Y225654D01*
X174618Y225692D01*
X174744Y225742D01*
X174867Y225802D01*
X174986Y225874D01*
X175102Y225956D01*
X175215Y226050D01*
X175324Y226154D01*
Y224054D01*
D02*
G37*
G36*
X147851Y226848D02*
X148449Y226357D01*
X148730Y226157D01*
X148999Y225988D01*
X149256Y225850D01*
X149500Y225743D01*
X149733Y225666D01*
X149953Y225620D01*
X150162Y225604D01*
X150198Y224604D01*
X149982Y224588D01*
X149758Y224540D01*
X149526Y224461D01*
X149286Y224349D01*
X149038Y224205D01*
X148783Y224030D01*
X148519Y223823D01*
X148247Y223583D01*
X147680Y223009D01*
X147534Y227140D01*
X147851Y226848D01*
D02*
G37*
G36*
X164216Y222907D02*
X164497Y222668D01*
X164632Y222570D01*
X164763Y222487D01*
X164892Y222420D01*
X165016Y222368D01*
X165138Y222330D01*
X165255Y222307D01*
X165370Y222300D01*
Y221700D01*
X165255Y221692D01*
X165138Y221670D01*
X165016Y221633D01*
X164892Y221580D01*
X164763Y221513D01*
X164632Y221430D01*
X164497Y221333D01*
X164358Y221220D01*
X164071Y220950D01*
Y223050D01*
X164216Y222907D01*
D02*
G37*
G36*
X123357Y221588D02*
X123230Y221542D01*
X123117Y221467D01*
X123020Y221361D01*
X122938Y221225D01*
X122870Y221058D01*
X122818Y220862D01*
X122780Y220635D01*
X122757Y220378D01*
X122750Y220091D01*
X121250D01*
X121242Y220378D01*
X121220Y220635D01*
X121183Y220862D01*
X121130Y221058D01*
X121063Y221225D01*
X120980Y221361D01*
X120882Y221467D01*
X120770Y221542D01*
X120642Y221588D01*
X120500Y221603D01*
X123500D01*
X123357Y221588D01*
D02*
G37*
G36*
X167415Y219408D02*
X167695Y219167D01*
X167830Y219070D01*
X167962Y218987D01*
X168090Y218920D01*
X168215Y218867D01*
X168336Y218830D01*
X168454Y218808D01*
X168568Y218800D01*
Y218200D01*
X168454Y218193D01*
X168336Y218170D01*
X168215Y218132D01*
X168090Y218080D01*
X167962Y218012D01*
X167830Y217930D01*
X167695Y217832D01*
X167557Y217720D01*
X167270Y217450D01*
Y219550D01*
X167415Y219408D01*
D02*
G37*
G36*
X131960Y217507D02*
X132005Y217380D01*
X132081Y217267D01*
X132186Y217170D01*
X132323Y217087D01*
X132489Y217020D01*
X132685Y216967D01*
X132912Y216930D01*
X133169Y216907D01*
X133435Y216900D01*
X133562Y216902D01*
X133854Y216922D01*
X133984Y216940D01*
X134103Y216963D01*
X134212Y216990D01*
X134309Y217023D01*
X134397Y217061D01*
X134473Y217104D01*
X134539Y217152D01*
X134329Y215062D01*
X134270Y215126D01*
X134199Y215184D01*
X134116Y215234D01*
X134023Y215278D01*
X133918Y215315D01*
X133802Y215346D01*
X133675Y215369D01*
X133536Y215386D01*
X133387Y215396D01*
X133353Y215397D01*
X133169Y215392D01*
X132912Y215370D01*
X132685Y215332D01*
X132489Y215280D01*
X132323Y215212D01*
X132186Y215130D01*
X132081Y215032D01*
X132005Y214920D01*
X131960Y214792D01*
X131945Y214650D01*
Y217650D01*
X131960Y217507D01*
D02*
G37*
G36*
X138167Y215894D02*
X137394Y214546D01*
X137275Y214660D01*
X137061Y214841D01*
X136967Y214906D01*
X136880Y214954D01*
X136802Y214987D01*
X136732Y215002D01*
X136670Y215001D01*
X136617Y214984D01*
X136571Y214950D01*
X136709Y216887D01*
X138167Y215894D01*
D02*
G37*
G36*
X161002Y215781D02*
X161030Y215414D01*
X161057Y215249D01*
X161092Y215098D01*
X161135Y214960D01*
X161186Y214834D01*
X161245Y214722D01*
X161312Y214623D01*
X161388Y214536D01*
X160963Y214112D01*
X160877Y214188D01*
X160778Y214255D01*
X160666Y214314D01*
X160540Y214366D01*
X160402Y214408D01*
X160251Y214443D01*
X160086Y214470D01*
X159909Y214488D01*
X159515Y214500D01*
X161000Y215985D01*
X161002Y215781D01*
D02*
G37*
G36*
X82873Y215179D02*
X82889Y215004D01*
X82917Y214843D01*
X82956Y214695D01*
X83007Y214560D01*
X83068Y214439D01*
X83141Y214331D01*
X83225Y214236D01*
X83319Y214154D01*
X83426Y214086D01*
X81256Y214357D01*
X81372Y214396D01*
X81476Y214449D01*
X81568Y214515D01*
X81647Y214595D01*
X81714Y214689D01*
X81769Y214797D01*
X81812Y214919D01*
X81842Y215054D01*
X81861Y215204D01*
X81867Y215367D01*
X82867D01*
X82873Y215179D01*
D02*
G37*
G36*
X171716Y215908D02*
X171997Y215668D01*
X172132Y215570D01*
X172263Y215488D01*
X172391Y215420D01*
X172516Y215368D01*
X172637Y215330D01*
X172755Y215307D01*
X172870Y215300D01*
Y214700D01*
X172755Y214692D01*
X172637Y214670D01*
X172516Y214633D01*
X172391Y214580D01*
X172263Y214512D01*
X172132Y214430D01*
X171997Y214333D01*
X171858Y214220D01*
X171571Y213950D01*
Y216050D01*
X171716Y215908D01*
D02*
G37*
G36*
X105635Y214993D02*
X105710Y214942D01*
X105796Y214897D01*
X105893Y214858D01*
X106000Y214825D01*
X106118Y214798D01*
X106247Y214777D01*
X106387Y214762D01*
X106699Y214750D01*
Y213250D01*
X106538Y213247D01*
X106247Y213223D01*
X106118Y213202D01*
X106000Y213175D01*
X105893Y213142D01*
X105796Y213103D01*
X105710Y213058D01*
X105635Y213007D01*
X105571Y212950D01*
Y215050D01*
X105635Y214993D01*
D02*
G37*
G36*
X103429Y212950D02*
X103365Y213007D01*
X103290Y213058D01*
X103204Y213103D01*
X103107Y213142D01*
X103000Y213175D01*
X102882Y213202D01*
X102753Y213223D01*
X102613Y213238D01*
X102301Y213250D01*
Y214750D01*
X102462Y214753D01*
X102753Y214777D01*
X102882Y214798D01*
X103000Y214825D01*
X103107Y214858D01*
X103204Y214897D01*
X103290Y214942D01*
X103365Y214993D01*
X103429Y215050D01*
Y212950D01*
D02*
G37*
G36*
X147866Y216817D02*
X148123Y216593D01*
X148378Y216395D01*
X148631Y216224D01*
X148884Y216079D01*
X149135Y215961D01*
X149385Y215868D01*
X149634Y215803D01*
X149881Y215763D01*
X150128Y215750D01*
Y214250D01*
X149881Y214237D01*
X149634Y214197D01*
X149385Y214131D01*
X149135Y214039D01*
X148884Y213921D01*
X148631Y213776D01*
X148378Y213605D01*
X148123Y213407D01*
X147866Y213183D01*
X147609Y212933D01*
Y217067D01*
X147866Y216817D01*
D02*
G37*
G36*
X143391Y212933D02*
X143134Y213183D01*
X142877Y213407D01*
X142622Y213605D01*
X142369Y213776D01*
X142116Y213921D01*
X141865Y214039D01*
X141615Y214131D01*
X141366Y214197D01*
X141119Y214237D01*
X140872Y214250D01*
Y215750D01*
X141119Y215763D01*
X141366Y215803D01*
X141615Y215868D01*
X141865Y215961D01*
X142116Y216079D01*
X142369Y216224D01*
X142622Y216395D01*
X142877Y216593D01*
X143134Y216817D01*
X143391Y217067D01*
Y212933D01*
D02*
G37*
G36*
X122750Y215811D02*
X122761Y215515D01*
X122792Y215228D01*
X122845Y214950D01*
X122920Y214681D01*
X123015Y214421D01*
X123132Y214169D01*
X123270Y213926D01*
X123429Y213692D01*
X123609Y213467D01*
X123811Y213250D01*
X122750Y212189D01*
X122534Y212391D01*
X122308Y212571D01*
X122074Y212730D01*
X121831Y212868D01*
X121580Y212985D01*
X121319Y213080D01*
X121050Y213155D01*
X120772Y213208D01*
X120485Y213239D01*
X120189Y213250D01*
X119750Y214750D01*
X120035Y214765D01*
X120290Y214810D01*
X120515Y214885D01*
X120710Y214990D01*
X120875Y215125D01*
X121010Y215290D01*
X121115Y215485D01*
X121190Y215710D01*
X121235Y215965D01*
X121250Y216250D01*
X122750Y215811D01*
D02*
G37*
G36*
X94944Y212839D02*
X94988Y212716D01*
X95063Y212607D01*
X95167Y212512D01*
X95301Y212432D01*
X95465Y212366D01*
X95659Y212316D01*
X95882Y212279D01*
X96135Y212257D01*
X96418Y212250D01*
Y210750D01*
X96135Y210743D01*
X95882Y210721D01*
X95659Y210684D01*
X95465Y210634D01*
X95301Y210568D01*
X95167Y210488D01*
X95063Y210394D01*
X94988Y210284D01*
X94944Y210161D01*
X94929Y210022D01*
Y212978D01*
X94944Y212839D01*
D02*
G37*
G36*
X174716Y211407D02*
X174997Y211168D01*
X175132Y211070D01*
X175263Y210987D01*
X175391Y210920D01*
X175516Y210868D01*
X175637Y210830D01*
X175755Y210807D01*
X175870Y210800D01*
Y210200D01*
X175755Y210192D01*
X175637Y210170D01*
X175516Y210133D01*
X175391Y210080D01*
X175263Y210013D01*
X175132Y209930D01*
X174997Y209833D01*
X174858Y209720D01*
X174571Y209450D01*
Y211550D01*
X174716Y211407D01*
D02*
G37*
G36*
X128056Y208500D02*
X128040Y208643D01*
X127995Y208770D01*
X127919Y208882D01*
X127814Y208980D01*
X127678Y209063D01*
X127511Y209130D01*
X127315Y209183D01*
X127088Y209220D01*
X126831Y209243D01*
X126543Y209250D01*
Y210750D01*
X126831Y210757D01*
X127088Y210780D01*
X127315Y210818D01*
X127511Y210870D01*
X127678Y210938D01*
X127814Y211020D01*
X127919Y211118D01*
X127995Y211230D01*
X128040Y211357D01*
X128056Y211500D01*
Y208500D01*
D02*
G37*
G36*
X131960Y211208D02*
X132005Y211080D01*
X132081Y210968D01*
X132186Y210870D01*
X132323Y210788D01*
X132489Y210720D01*
X132685Y210668D01*
X132912Y210630D01*
X133169Y210608D01*
X133457Y210600D01*
Y209100D01*
X133169Y209093D01*
X132912Y209070D01*
X132685Y209033D01*
X132489Y208980D01*
X132323Y208913D01*
X132186Y208830D01*
X132081Y208733D01*
X132005Y208620D01*
X131960Y208493D01*
X131945Y208350D01*
Y211350D01*
X131960Y211208D01*
D02*
G37*
G36*
X113292Y207666D02*
X113198Y207553D01*
X113116Y207437D01*
X113045Y207318D01*
X112984Y207195D01*
X112935Y207069D01*
X112896Y206940D01*
X112868Y206807D01*
X112852Y206671D01*
X112847Y206532D01*
X111846D01*
X111841Y206671D01*
X111825Y206807D01*
X111797Y206940D01*
X111758Y207069D01*
X111709Y207195D01*
X111648Y207318D01*
X111577Y207437D01*
X111495Y207553D01*
X111401Y207666D01*
X111296Y207775D01*
X113397D01*
X113292Y207666D01*
D02*
G37*
G36*
X112852Y205764D02*
X112866Y205592D01*
X112891Y205440D01*
X112926Y205309D01*
X112971Y205198D01*
X113026Y205106D01*
X113092Y205036D01*
X113166Y204985D01*
X113251Y204955D01*
X113347Y204944D01*
X111346D01*
X111442Y204955D01*
X111527Y204985D01*
X111601Y205036D01*
X111667Y205106D01*
X111722Y205198D01*
X111767Y205309D01*
X111802Y205440D01*
X111827Y205592D01*
X111841Y205764D01*
X111846Y205957D01*
X112847D01*
X112852Y205764D01*
D02*
G37*
G36*
X148444Y206358D02*
X148489Y206230D01*
X148565Y206118D01*
X148671Y206020D01*
X148807Y205938D01*
X148973Y205870D01*
X149170Y205818D01*
X149396Y205780D01*
X149653Y205757D01*
X149941Y205750D01*
Y204250D01*
X149653Y204242D01*
X149396Y204220D01*
X149170Y204183D01*
X148973Y204130D01*
X148807Y204063D01*
X148671Y203980D01*
X148565Y203883D01*
X148489Y203770D01*
X148444Y203643D01*
X148429Y203500D01*
Y206500D01*
X148444Y206358D01*
D02*
G37*
G36*
X142571Y203500D02*
X142556Y203643D01*
X142511Y203770D01*
X142435Y203883D01*
X142329Y203980D01*
X142193Y204063D01*
X142027Y204130D01*
X141830Y204183D01*
X141604Y204220D01*
X141347Y204242D01*
X141059Y204250D01*
Y205750D01*
X141347Y205757D01*
X141604Y205780D01*
X141830Y205818D01*
X142027Y205870D01*
X142193Y205938D01*
X142329Y206020D01*
X142435Y206118D01*
X142511Y206230D01*
X142556Y206358D01*
X142571Y206500D01*
Y203500D01*
D02*
G37*
G36*
X186056Y201483D02*
X186040Y201625D01*
X185995Y201753D01*
X185919Y201866D01*
X185814Y201963D01*
X185678Y202045D01*
X185511Y202113D01*
X185315Y202166D01*
X185088Y202203D01*
X184831Y202225D01*
X184544Y202233D01*
Y203733D01*
X184831Y203741D01*
X185088Y203763D01*
X185315Y203801D01*
X185511Y203853D01*
X185678Y203921D01*
X185814Y204003D01*
X185919Y204100D01*
X185995Y204213D01*
X186040Y204341D01*
X186056Y204483D01*
Y201483D01*
D02*
G37*
G36*
X146858Y202044D02*
X146730Y201999D01*
X146617Y201924D01*
X146520Y201819D01*
X146438Y201684D01*
X146370Y201519D01*
X146318Y201324D01*
X146280Y201099D01*
X146257Y200844D01*
X146250Y200559D01*
X144750D01*
X144743Y200844D01*
X144720Y201099D01*
X144683Y201324D01*
X144630Y201519D01*
X144562Y201684D01*
X144480Y201819D01*
X144383Y201924D01*
X144270Y201999D01*
X144142Y202044D01*
X144000Y202059D01*
X147000D01*
X146858Y202044D01*
D02*
G37*
G36*
X107228Y201046D02*
X107156Y201018D01*
X107092Y200971D01*
X107036Y200905D01*
X106989Y200821D01*
X106951Y200718D01*
X106921Y200596D01*
X106900Y200455D01*
X106887Y200295D01*
X106883Y200117D01*
X105883D01*
X105878Y200295D01*
X105866Y200455D01*
X105844Y200596D01*
X105815Y200718D01*
X105776Y200821D01*
X105729Y200905D01*
X105674Y200971D01*
X105610Y201018D01*
X105537Y201046D01*
X105456Y201056D01*
X107309D01*
X107228Y201046D01*
D02*
G37*
G36*
X186056Y195350D02*
X186040Y195493D01*
X185995Y195620D01*
X185919Y195733D01*
X185814Y195830D01*
X185678Y195913D01*
X185511Y195980D01*
X185315Y196033D01*
X185088Y196070D01*
X184831Y196093D01*
X184544Y196100D01*
Y197600D01*
X184831Y197608D01*
X185088Y197630D01*
X185315Y197668D01*
X185511Y197720D01*
X185678Y197788D01*
X185814Y197870D01*
X185919Y197968D01*
X185995Y198080D01*
X186040Y198208D01*
X186056Y198350D01*
Y195350D01*
D02*
G37*
G36*
X162485Y195500D02*
X162282Y195498D01*
X161914Y195470D01*
X161749Y195443D01*
X161598Y195408D01*
X161460Y195366D01*
X161334Y195315D01*
X161222Y195255D01*
X161123Y195188D01*
X161037Y195112D01*
X160612Y195536D01*
X160688Y195623D01*
X160755Y195722D01*
X160814Y195834D01*
X160865Y195959D01*
X160908Y196098D01*
X160943Y196249D01*
X160970Y196414D01*
X160988Y196591D01*
X161000Y196985D01*
X162485Y195500D01*
D02*
G37*
G36*
X177341Y196219D02*
X177248Y196107D01*
X177165Y195991D01*
X177094Y195871D01*
X177033Y195748D01*
X176984Y195623D01*
X176945Y195493D01*
X176918Y195361D01*
X176901Y195225D01*
X176896Y195086D01*
X175896D01*
X175890Y195225D01*
X175874Y195361D01*
X175846Y195493D01*
X175808Y195623D01*
X175758Y195748D01*
X175698Y195871D01*
X175626Y195991D01*
X175544Y196107D01*
X175450Y196219D01*
X175346Y196329D01*
X177446D01*
X177341Y196219D01*
D02*
G37*
G36*
X155985Y195000D02*
X155781Y194998D01*
X155414Y194970D01*
X155249Y194943D01*
X155098Y194908D01*
X154959Y194866D01*
X154834Y194815D01*
X154722Y194755D01*
X154623Y194688D01*
X154536Y194612D01*
X154112Y195036D01*
X154188Y195123D01*
X154255Y195222D01*
X154314Y195334D01*
X154366Y195459D01*
X154408Y195598D01*
X154443Y195749D01*
X154470Y195914D01*
X154488Y196091D01*
X154500Y196485D01*
X155985Y195000D01*
D02*
G37*
G36*
X113251Y193545D02*
X113166Y193515D01*
X113092Y193464D01*
X113026Y193394D01*
X112971Y193303D01*
X112926Y193191D01*
X112891Y193060D01*
X112866Y192908D01*
X112852Y192736D01*
X112847Y192543D01*
X111846D01*
X111841Y192736D01*
X111827Y192908D01*
X111802Y193060D01*
X111767Y193191D01*
X111722Y193303D01*
X111667Y193394D01*
X111601Y193464D01*
X111527Y193515D01*
X111442Y193545D01*
X111346Y193555D01*
X113347D01*
X113251Y193545D01*
D02*
G37*
G36*
X183407Y193669D02*
X183430Y193412D01*
X183467Y193185D01*
X183520Y192989D01*
X183587Y192823D01*
X183670Y192686D01*
X183767Y192581D01*
X183880Y192505D01*
X184007Y192460D01*
X184150Y192445D01*
X181150D01*
X181292Y192460D01*
X181420Y192505D01*
X181532Y192581D01*
X181630Y192686D01*
X181712Y192823D01*
X181780Y192989D01*
X181832Y193185D01*
X181870Y193412D01*
X181892Y193669D01*
X181900Y193956D01*
X183400D01*
X183407Y193669D01*
D02*
G37*
G36*
X176901Y193264D02*
X176916Y193092D01*
X176941Y192940D01*
X176976Y192809D01*
X177021Y192698D01*
X177076Y192606D01*
X177141Y192536D01*
X177216Y192485D01*
X177301Y192455D01*
X177396Y192445D01*
X175396D01*
X175491Y192455D01*
X175576Y192485D01*
X175651Y192536D01*
X175716Y192606D01*
X175771Y192698D01*
X175816Y192809D01*
X175851Y192940D01*
X175876Y193092D01*
X175891Y193264D01*
X175896Y193456D01*
X176896D01*
X176901Y193264D01*
D02*
G37*
G36*
X144757Y193669D02*
X144780Y193412D01*
X144817Y193185D01*
X144870Y192989D01*
X144938Y192823D01*
X145020Y192686D01*
X145117Y192581D01*
X145230Y192505D01*
X145358Y192460D01*
X145500Y192445D01*
X142500D01*
X142642Y192460D01*
X142770Y192505D01*
X142883Y192581D01*
X142980Y192686D01*
X143062Y192823D01*
X143130Y192989D01*
X143183Y193185D01*
X143220Y193412D01*
X143243Y193669D01*
X143250Y193956D01*
X144750D01*
X144757Y193669D01*
D02*
G37*
G36*
X107011Y193540D02*
X106884Y193495D01*
X106771Y193419D01*
X106674Y193314D01*
X106591Y193177D01*
X106524Y193011D01*
X106471Y192815D01*
X106433Y192588D01*
X106411Y192331D01*
X106404Y192043D01*
X104903D01*
X104896Y192331D01*
X104874Y192588D01*
X104836Y192815D01*
X104783Y193011D01*
X104716Y193177D01*
X104633Y193314D01*
X104536Y193419D01*
X104424Y193495D01*
X104296Y193540D01*
X104154Y193555D01*
X107153D01*
X107011Y193540D01*
D02*
G37*
G36*
X112852Y191264D02*
X112866Y191092D01*
X112891Y190940D01*
X112926Y190809D01*
X112971Y190698D01*
X113026Y190606D01*
X113092Y190536D01*
X113166Y190485D01*
X113251Y190455D01*
X113347Y190445D01*
X111346D01*
X111442Y190455D01*
X111527Y190485D01*
X111601Y190536D01*
X111667Y190606D01*
X111722Y190698D01*
X111767Y190809D01*
X111802Y190940D01*
X111827Y191092D01*
X111841Y191264D01*
X111846Y191456D01*
X112847D01*
X112852Y191264D01*
D02*
G37*
G36*
X106411Y191669D02*
X106433Y191412D01*
X106471Y191185D01*
X106524Y190989D01*
X106591Y190823D01*
X106674Y190686D01*
X106771Y190581D01*
X106884Y190505D01*
X107011Y190460D01*
X107153Y190445D01*
X104154D01*
X104296Y190460D01*
X104424Y190505D01*
X104536Y190581D01*
X104633Y190686D01*
X104716Y190823D01*
X104783Y190989D01*
X104836Y191185D01*
X104874Y191412D01*
X104896Y191669D01*
X104903Y191956D01*
X106404D01*
X106411Y191669D01*
D02*
G37*
G36*
X135894Y191016D02*
X136620Y191031D01*
Y189969D01*
X136599Y189975D01*
X136549Y189980D01*
X136360Y189989D01*
X135894Y189993D01*
Y189500D01*
X135884Y189595D01*
X135854Y189680D01*
X135804Y189755D01*
X135734Y189820D01*
X135644Y189875D01*
X135534Y189920D01*
X135404Y189955D01*
X135254Y189980D01*
X135084Y189995D01*
X134894Y190000D01*
Y191000D01*
X135084Y191005D01*
X135254Y191020D01*
X135404Y191045D01*
X135534Y191080D01*
X135644Y191125D01*
X135734Y191180D01*
X135804Y191245D01*
X135854Y191320D01*
X135884Y191405D01*
X135894Y191500D01*
Y191016D01*
D02*
G37*
G36*
X132681Y191446D02*
X132793Y191352D01*
X132910Y191270D01*
X133029Y191198D01*
X133151Y191138D01*
X133277Y191088D01*
X133407Y191050D01*
X133539Y191022D01*
X133675Y191006D01*
X133814Y191000D01*
Y190000D01*
X133675Y189995D01*
X133539Y189978D01*
X133407Y189951D01*
X133277Y189912D01*
X133151Y189863D01*
X133029Y189802D01*
X132910Y189731D01*
X132793Y189648D01*
X132681Y189555D01*
X132571Y189450D01*
Y191550D01*
X132681Y191446D01*
D02*
G37*
G36*
X171002Y190281D02*
X171030Y189914D01*
X171057Y189749D01*
X171092Y189598D01*
X171134Y189460D01*
X171186Y189334D01*
X171245Y189222D01*
X171312Y189123D01*
X171388Y189037D01*
X170964Y188612D01*
X170877Y188688D01*
X170778Y188755D01*
X170666Y188814D01*
X170540Y188865D01*
X170402Y188908D01*
X170251Y188943D01*
X170086Y188970D01*
X169909Y188988D01*
X169515Y189000D01*
X171000Y190485D01*
X171002Y190281D01*
D02*
G37*
G36*
X177028Y188550D02*
X176984Y188533D01*
X176945Y188504D01*
X176911Y188464D01*
X176882Y188412D01*
X176859Y188349D01*
X176840Y188275D01*
X176827Y188189D01*
X176820Y188092D01*
X176817Y187983D01*
X176217D01*
X176214Y188092D01*
X176207Y188189D01*
X176194Y188275D01*
X176175Y188349D01*
X176152Y188412D01*
X176123Y188464D01*
X176089Y188504D01*
X176050Y188533D01*
X176006Y188550D01*
X175956Y188556D01*
X177078D01*
X177028Y188550D01*
D02*
G37*
G36*
X82332Y192838D02*
X82365Y192804D01*
X82383Y192760D01*
Y192736D01*
Y187815D01*
Y187791D01*
X82365Y187747D01*
X82332Y187714D01*
X82288Y187695D01*
X76846D01*
X76838Y187699D01*
X76832Y187705D01*
X76829Y187712D01*
Y187716D01*
X76815Y187866D01*
X76700Y188142D01*
X76489Y188354D01*
X76213Y188468D01*
X76063Y188483D01*
X76059D01*
X76051Y188486D01*
X76045Y188492D01*
X76042Y188500D01*
Y188504D01*
Y192736D01*
Y192760D01*
X76060Y192804D01*
X76094Y192838D01*
X76138Y192856D01*
X82288D01*
X82332Y192838D01*
D02*
G37*
G36*
X138025Y189599D02*
X138020Y189549D01*
X138011Y189360D01*
X138004Y188556D01*
X138500D01*
X138405Y188545D01*
X138320Y188515D01*
X138245Y188464D01*
X138180Y188394D01*
X138125Y188303D01*
X138080Y188191D01*
X138045Y188060D01*
X138020Y187908D01*
X138005Y187736D01*
X138000Y187543D01*
X137000D01*
X136995Y187736D01*
X136980Y187908D01*
X136955Y188060D01*
X136920Y188191D01*
X136875Y188303D01*
X136820Y188394D01*
X136755Y188464D01*
X136680Y188515D01*
X136595Y188545D01*
X136500Y188556D01*
X136991D01*
X136969Y189620D01*
X138031D01*
X138025Y189599D01*
D02*
G37*
G36*
X93135Y189493D02*
X93210Y189442D01*
X93296Y189397D01*
X93393Y189358D01*
X93500Y189325D01*
X93618Y189298D01*
X93747Y189277D01*
X93887Y189262D01*
X94199Y189250D01*
Y187750D01*
X94038Y187747D01*
X93747Y187723D01*
X93618Y187702D01*
X93500Y187675D01*
X93393Y187642D01*
X93296Y187603D01*
X93210Y187558D01*
X93135Y187507D01*
X93071Y187450D01*
Y189550D01*
X93135Y189493D01*
D02*
G37*
G36*
X162908Y188284D02*
X162668Y188003D01*
X162570Y187868D01*
X162487Y187737D01*
X162420Y187609D01*
X162367Y187484D01*
X162330Y187363D01*
X162308Y187245D01*
X162300Y187130D01*
X161700D01*
X161693Y187245D01*
X161670Y187363D01*
X161633Y187484D01*
X161580Y187609D01*
X161512Y187737D01*
X161430Y187868D01*
X161332Y188003D01*
X161220Y188142D01*
X160950Y188429D01*
X163050D01*
X162908Y188284D01*
D02*
G37*
G36*
X103906Y187000D02*
X103891Y187143D01*
X103845Y187270D01*
X103770Y187382D01*
X103664Y187480D01*
X103528Y187563D01*
X103362Y187630D01*
X103165Y187682D01*
X102938Y187720D01*
X102681Y187742D01*
X102394Y187750D01*
Y189250D01*
X102681Y189258D01*
X102938Y189280D01*
X103165Y189318D01*
X103362Y189370D01*
X103528Y189437D01*
X103664Y189520D01*
X103770Y189618D01*
X103845Y189730D01*
X103891Y189857D01*
X103906Y190000D01*
Y187000D01*
D02*
G37*
G36*
X113055Y186545D02*
X112970Y186515D01*
X112895Y186464D01*
X112830Y186394D01*
X112775Y186302D01*
X112730Y186191D01*
X112695Y186060D01*
X112670Y185908D01*
X112655Y185736D01*
X112650Y185544D01*
X111650D01*
X111645Y185736D01*
X111630Y185908D01*
X111605Y186060D01*
X111570Y186191D01*
X111525Y186302D01*
X111470Y186394D01*
X111405Y186464D01*
X111330Y186515D01*
X111245Y186545D01*
X111150Y186556D01*
X113150D01*
X113055Y186545D01*
D02*
G37*
G36*
X177803Y185562D02*
X177812Y185458D01*
X177827Y185366D01*
X177848Y185287D01*
X177875Y185220D01*
X177908Y185164D01*
X177947Y185122D01*
X177992Y185091D01*
X178043Y185073D01*
X178100Y185066D01*
X176900D01*
X176957Y185073D01*
X177008Y185091D01*
X177053Y185122D01*
X177092Y185164D01*
X177125Y185220D01*
X177152Y185287D01*
X177173Y185366D01*
X177188Y185458D01*
X177197Y185562D01*
X177200Y185679D01*
X177800D01*
X177803Y185562D01*
D02*
G37*
G36*
X172303D02*
X172312Y185458D01*
X172327Y185366D01*
X172348Y185287D01*
X172375Y185220D01*
X172408Y185164D01*
X172447Y185122D01*
X172492Y185091D01*
X172543Y185073D01*
X172600Y185066D01*
X171400D01*
X171457Y185073D01*
X171508Y185091D01*
X171553Y185122D01*
X171592Y185164D01*
X171625Y185220D01*
X171652Y185287D01*
X171673Y185366D01*
X171688Y185458D01*
X171697Y185562D01*
X171700Y185679D01*
X172300D01*
X172303Y185562D01*
D02*
G37*
G36*
X162303D02*
X162312Y185458D01*
X162327Y185366D01*
X162348Y185287D01*
X162375Y185220D01*
X162408Y185164D01*
X162447Y185122D01*
X162492Y185091D01*
X162543Y185073D01*
X162600Y185066D01*
X161400D01*
X161457Y185073D01*
X161508Y185091D01*
X161553Y185122D01*
X161592Y185164D01*
X161625Y185220D01*
X161652Y185287D01*
X161673Y185366D01*
X161688Y185458D01*
X161697Y185562D01*
X161700Y185679D01*
X162300D01*
X162303Y185562D01*
D02*
G37*
G36*
X157303D02*
X157312Y185458D01*
X157327Y185366D01*
X157348Y185287D01*
X157375Y185220D01*
X157408Y185164D01*
X157447Y185122D01*
X157492Y185091D01*
X157543Y185073D01*
X157600Y185066D01*
X156400D01*
X156457Y185073D01*
X156508Y185091D01*
X156553Y185122D01*
X156592Y185164D01*
X156625Y185220D01*
X156652Y185287D01*
X156673Y185366D01*
X156688Y185458D01*
X156697Y185562D01*
X156700Y185679D01*
X157300D01*
X157303Y185562D01*
D02*
G37*
G36*
X152303D02*
X152312Y185458D01*
X152327Y185366D01*
X152348Y185287D01*
X152375Y185220D01*
X152408Y185164D01*
X152447Y185122D01*
X152492Y185091D01*
X152543Y185073D01*
X152600Y185066D01*
X151400D01*
X151457Y185073D01*
X151508Y185091D01*
X151553Y185122D01*
X151592Y185164D01*
X151625Y185220D01*
X151652Y185287D01*
X151673Y185366D01*
X151688Y185458D01*
X151697Y185562D01*
X151700Y185679D01*
X152300D01*
X152303Y185562D01*
D02*
G37*
G36*
X137505Y185886D02*
X137520Y185714D01*
X137545Y185562D01*
X137580Y185431D01*
X137625Y185319D01*
X137680Y185229D01*
X137745Y185158D01*
X137820Y185107D01*
X137905Y185077D01*
X138000Y185066D01*
X136000D01*
X136095Y185077D01*
X136180Y185107D01*
X136255Y185158D01*
X136320Y185229D01*
X136375Y185319D01*
X136420Y185431D01*
X136455Y185562D01*
X136480Y185714D01*
X136495Y185886D01*
X136500Y186079D01*
X137500D01*
X137505Y185886D01*
D02*
G37*
G36*
X86429Y181450D02*
X86283Y181593D01*
X86003Y181833D01*
X85868Y181930D01*
X85737Y182012D01*
X85609Y182080D01*
X85484Y182132D01*
X85362Y182170D01*
X85245Y182193D01*
X85130Y182200D01*
Y182800D01*
X85245Y182808D01*
X85362Y182830D01*
X85484Y182868D01*
X85609Y182920D01*
X85737Y182987D01*
X85868Y183070D01*
X86003Y183168D01*
X86142Y183280D01*
X86429Y183550D01*
Y181450D01*
D02*
G37*
G36*
X82420Y178940D02*
X82429Y178836D01*
X82444Y178744D01*
X82465Y178665D01*
X82492Y178597D01*
X82525Y178542D01*
X82564Y178500D01*
X82609Y178469D01*
X82660Y178451D01*
X82717Y178445D01*
X81517D01*
X81574Y178451D01*
X81625Y178469D01*
X81670Y178500D01*
X81709Y178542D01*
X81742Y178597D01*
X81769Y178665D01*
X81790Y178744D01*
X81805Y178836D01*
X81814Y178940D01*
X81817Y179057D01*
X82417D01*
X82420Y178940D01*
D02*
G37*
G36*
X76803D02*
X76812Y178836D01*
X76827Y178744D01*
X76848Y178665D01*
X76875Y178597D01*
X76908Y178542D01*
X76947Y178500D01*
X76992Y178469D01*
X77043Y178451D01*
X77100Y178445D01*
X75900D01*
X75957Y178451D01*
X76008Y178469D01*
X76053Y178500D01*
X76092Y178542D01*
X76125Y178597D01*
X76152Y178665D01*
X76173Y178744D01*
X76188Y178836D01*
X76197Y178940D01*
X76200Y179057D01*
X76800D01*
X76803Y178940D01*
D02*
G37*
G36*
X187543Y176447D02*
X187492Y176429D01*
X187447Y176398D01*
X187408Y176355D01*
X187375Y176300D01*
X187348Y176233D01*
X187327Y176153D01*
X187312Y176061D01*
X187303Y175957D01*
X187300Y175841D01*
X186700D01*
X186697Y175957D01*
X186688Y176061D01*
X186673Y176153D01*
X186652Y176233D01*
X186625Y176300D01*
X186592Y176355D01*
X186553Y176398D01*
X186508Y176429D01*
X186457Y176447D01*
X186400Y176453D01*
X187600D01*
X187543Y176447D01*
D02*
G37*
G36*
X182543D02*
X182492Y176429D01*
X182447Y176398D01*
X182408Y176355D01*
X182375Y176300D01*
X182348Y176233D01*
X182327Y176153D01*
X182312Y176061D01*
X182303Y175957D01*
X182300Y175841D01*
X181700D01*
X181697Y175957D01*
X181688Y176061D01*
X181673Y176153D01*
X181652Y176233D01*
X181625Y176300D01*
X181592Y176355D01*
X181553Y176398D01*
X181508Y176429D01*
X181457Y176447D01*
X181400Y176453D01*
X182600D01*
X182543Y176447D01*
D02*
G37*
G36*
X90929Y175450D02*
X90865Y175507D01*
X90790Y175558D01*
X90704Y175603D01*
X90607Y175642D01*
X90500Y175675D01*
X90382Y175702D01*
X90253Y175723D01*
X90113Y175738D01*
X89801Y175750D01*
Y177250D01*
X89962Y177253D01*
X90253Y177277D01*
X90382Y177298D01*
X90500Y177325D01*
X90607Y177358D01*
X90704Y177397D01*
X90790Y177442D01*
X90865Y177493D01*
X90929Y177550D01*
Y175450D01*
D02*
G37*
G36*
X147905Y176443D02*
X147820Y176413D01*
X147745Y176362D01*
X147680Y176291D01*
X147625Y176200D01*
X147580Y176089D01*
X147545Y175957D01*
X147520Y175805D01*
X147505Y175633D01*
X147500Y175441D01*
X146500D01*
X146495Y175633D01*
X146480Y175805D01*
X146455Y175957D01*
X146420Y176089D01*
X146375Y176200D01*
X146320Y176291D01*
X146255Y176362D01*
X146180Y176413D01*
X146095Y176443D01*
X146000Y176453D01*
X148000D01*
X147905Y176443D01*
D02*
G37*
G36*
X84609Y177857D02*
X84655Y177730D01*
X84730Y177618D01*
X84836Y177520D01*
X84972Y177437D01*
X85138Y177370D01*
X85335Y177318D01*
X85562Y177280D01*
X85819Y177258D01*
X86106Y177250D01*
Y175750D01*
X85819Y175742D01*
X85562Y175720D01*
X85335Y175682D01*
X85138Y175630D01*
X84972Y175563D01*
X84836Y175480D01*
X84730Y175382D01*
X84655Y175270D01*
X84609Y175143D01*
X84594Y175000D01*
Y178000D01*
X84609Y177857D01*
D02*
G37*
G36*
X167543Y176447D02*
X167492Y176429D01*
X167447Y176398D01*
X167408Y176355D01*
X167375Y176300D01*
X167348Y176233D01*
X167327Y176153D01*
X167312Y176061D01*
X167303Y175957D01*
X167300Y175862D01*
X167307Y175755D01*
X167330Y175637D01*
X167367Y175516D01*
X167420Y175391D01*
X167488Y175263D01*
X167570Y175132D01*
X167667Y174997D01*
X167780Y174858D01*
X168050Y174571D01*
X165950D01*
X166093Y174716D01*
X166332Y174997D01*
X166430Y175132D01*
X166513Y175263D01*
X166580Y175391D01*
X166632Y175516D01*
X166670Y175637D01*
X166692Y175755D01*
X166700Y175862D01*
X166697Y175957D01*
X166688Y176061D01*
X166673Y176153D01*
X166652Y176233D01*
X166625Y176300D01*
X166592Y176355D01*
X166553Y176398D01*
X166508Y176429D01*
X166457Y176447D01*
X166400Y176453D01*
X167600D01*
X167543Y176447D01*
D02*
G37*
G36*
X76696Y174549D02*
X76645Y174531D01*
X76600Y174500D01*
X76561Y174458D01*
X76529Y174402D01*
X76502Y174335D01*
X76481Y174256D01*
X76465Y174164D01*
X76456Y174060D01*
X76454Y173943D01*
X75854D01*
X75850Y174060D01*
X75841Y174164D01*
X75827Y174256D01*
X75805Y174335D01*
X75779Y174402D01*
X75745Y174458D01*
X75706Y174500D01*
X75661Y174531D01*
X75611Y174549D01*
X75554Y174556D01*
X76753D01*
X76696Y174549D01*
D02*
G37*
G36*
X187308Y173755D02*
X187330Y173637D01*
X187367Y173516D01*
X187420Y173391D01*
X187487Y173263D01*
X187570Y173132D01*
X187668Y172997D01*
X187780Y172858D01*
X188050Y172571D01*
X185950D01*
X186092Y172716D01*
X186332Y172997D01*
X186430Y173132D01*
X186512Y173263D01*
X186580Y173391D01*
X186633Y173516D01*
X186670Y173637D01*
X186693Y173755D01*
X186700Y173870D01*
X187300D01*
X187308Y173755D01*
D02*
G37*
G36*
X182308D02*
X182330Y173637D01*
X182368Y173516D01*
X182420Y173391D01*
X182487Y173263D01*
X182570Y173132D01*
X182668Y172997D01*
X182780Y172858D01*
X183050Y172571D01*
X180950D01*
X181093Y172716D01*
X181333Y172997D01*
X181430Y173132D01*
X181512Y173263D01*
X181580Y173391D01*
X181632Y173516D01*
X181670Y173637D01*
X181693Y173755D01*
X181700Y173870D01*
X182300D01*
X182308Y173755D01*
D02*
G37*
G36*
X76456Y172440D02*
X76465Y172336D01*
X76481Y172244D01*
X76502Y172165D01*
X76529Y172098D01*
X76561Y172042D01*
X76600Y172000D01*
X76645Y171969D01*
X76696Y171951D01*
X76753Y171944D01*
X75554D01*
X75611Y171951D01*
X75661Y171969D01*
X75706Y172000D01*
X75745Y172042D01*
X75779Y172098D01*
X75805Y172165D01*
X75827Y172244D01*
X75841Y172336D01*
X75850Y172440D01*
X75854Y172556D01*
X76454D01*
X76456Y172440D01*
D02*
G37*
G36*
X180929Y170450D02*
X180783Y170592D01*
X180503Y170833D01*
X180368Y170930D01*
X180237Y171012D01*
X180108Y171080D01*
X179984Y171133D01*
X179862Y171170D01*
X179745Y171193D01*
X179630Y171200D01*
Y171800D01*
X179745Y171808D01*
X179862Y171830D01*
X179984Y171868D01*
X180108Y171920D01*
X180237Y171987D01*
X180368Y172070D01*
X180503Y172168D01*
X180642Y172280D01*
X180929Y172550D01*
Y170450D01*
D02*
G37*
G36*
X86429Y168950D02*
X86283Y169093D01*
X86003Y169333D01*
X85868Y169430D01*
X85737Y169512D01*
X85609Y169580D01*
X85484Y169632D01*
X85362Y169670D01*
X85245Y169693D01*
X85152Y169699D01*
X85090Y169697D01*
X84986Y169688D01*
X84894Y169673D01*
X84814Y169652D01*
X84747Y169625D01*
X84692Y169592D01*
X84649Y169553D01*
X84619Y169508D01*
X84600Y169457D01*
X84594Y169400D01*
Y170600D01*
X84600Y170543D01*
X84619Y170492D01*
X84649Y170447D01*
X84692Y170408D01*
X84747Y170375D01*
X84814Y170348D01*
X84894Y170327D01*
X84986Y170312D01*
X85090Y170303D01*
X85152Y170301D01*
X85245Y170308D01*
X85362Y170330D01*
X85484Y170368D01*
X85609Y170420D01*
X85737Y170487D01*
X85868Y170570D01*
X86003Y170668D01*
X86142Y170780D01*
X86429Y171050D01*
Y168950D01*
D02*
G37*
G36*
X187908Y170283D02*
X187668Y170003D01*
X187570Y169868D01*
X187487Y169737D01*
X187420Y169608D01*
X187367Y169484D01*
X187330Y169362D01*
X187308Y169245D01*
X187300Y169130D01*
X186700D01*
X186693Y169245D01*
X186670Y169362D01*
X186633Y169484D01*
X186580Y169608D01*
X186512Y169737D01*
X186430Y169868D01*
X186332Y170003D01*
X186220Y170142D01*
X185950Y170429D01*
X188050D01*
X187908Y170283D01*
D02*
G37*
G36*
X88717Y170907D02*
X88997Y170668D01*
X89132Y170570D01*
X89263Y170487D01*
X89391Y170420D01*
X89516Y170368D01*
X89638Y170330D01*
X89755Y170308D01*
X89870Y170300D01*
Y169700D01*
X89755Y169693D01*
X89638Y169670D01*
X89516Y169632D01*
X89391Y169580D01*
X89263Y169512D01*
X89132Y169430D01*
X88997Y169333D01*
X88858Y169220D01*
X88571Y168950D01*
Y171050D01*
X88717Y170907D01*
D02*
G37*
G36*
X76696Y168049D02*
X76645Y168031D01*
X76600Y168000D01*
X76561Y167958D01*
X76529Y167903D01*
X76502Y167835D01*
X76481Y167756D01*
X76465Y167664D01*
X76456Y167560D01*
X76454Y167444D01*
X75854D01*
X75850Y167560D01*
X75841Y167664D01*
X75827Y167756D01*
X75805Y167835D01*
X75779Y167903D01*
X75745Y167958D01*
X75706Y168000D01*
X75661Y168031D01*
X75611Y168049D01*
X75554Y168055D01*
X76753D01*
X76696Y168049D01*
D02*
G37*
G36*
X76456Y165440D02*
X76465Y165336D01*
X76481Y165244D01*
X76502Y165165D01*
X76529Y165097D01*
X76561Y165042D01*
X76600Y165000D01*
X76645Y164969D01*
X76696Y164951D01*
X76753Y164945D01*
X75554D01*
X75611Y164951D01*
X75661Y164969D01*
X75706Y165000D01*
X75745Y165042D01*
X75779Y165097D01*
X75805Y165165D01*
X75827Y165244D01*
X75841Y165336D01*
X75850Y165440D01*
X75854Y165557D01*
X76454D01*
X76456Y165440D01*
D02*
G37*
G36*
X84600Y163543D02*
X84619Y163492D01*
X84649Y163447D01*
X84692Y163408D01*
X84747Y163375D01*
X84814Y163348D01*
X84894Y163327D01*
X84986Y163312D01*
X85090Y163303D01*
X85206Y163300D01*
Y162700D01*
X85090Y162697D01*
X84986Y162688D01*
X84894Y162673D01*
X84814Y162652D01*
X84747Y162625D01*
X84692Y162592D01*
X84649Y162553D01*
X84619Y162508D01*
X84600Y162457D01*
X84594Y162400D01*
Y163600D01*
X84600Y163543D01*
D02*
G37*
G36*
X83389Y161049D02*
X83338Y161031D01*
X83293Y161000D01*
X83254Y160958D01*
X83222Y160903D01*
X83194Y160835D01*
X83174Y160756D01*
X83158Y160664D01*
X83149Y160560D01*
X83147Y160443D01*
X82547D01*
X82543Y160560D01*
X82534Y160664D01*
X82519Y160756D01*
X82499Y160835D01*
X82472Y160903D01*
X82438Y160958D01*
X82399Y161000D01*
X82354Y161031D01*
X82303Y161049D01*
X82247Y161056D01*
X83447D01*
X83389Y161049D01*
D02*
G37*
G36*
X76696D02*
X76645Y161031D01*
X76600Y161000D01*
X76561Y160958D01*
X76529Y160903D01*
X76502Y160835D01*
X76481Y160756D01*
X76465Y160664D01*
X76456Y160560D01*
X76454Y160443D01*
X75854D01*
X75850Y160560D01*
X75841Y160664D01*
X75827Y160756D01*
X75805Y160835D01*
X75779Y160903D01*
X75745Y160958D01*
X75706Y161000D01*
X75661Y161031D01*
X75611Y161049D01*
X75554Y161056D01*
X76753D01*
X76696Y161049D01*
D02*
G37*
G36*
X83154Y159774D02*
X83178Y159655D01*
X83217Y159535D01*
X83273Y159414D01*
X83343Y159292D01*
X83430Y159170D01*
X83533Y159047D01*
X83651Y158923D01*
X83785Y158798D01*
X83935Y158673D01*
X81846Y158458D01*
X81979Y158624D01*
X82203Y158936D01*
X82294Y159083D01*
X82371Y159223D01*
X82434Y159357D01*
X82483Y159485D01*
X82518Y159606D01*
X82539Y159721D01*
X82547Y159830D01*
X83147Y159893D01*
X83154Y159774D01*
D02*
G37*
G36*
X168217Y160407D02*
X168497Y160168D01*
X168632Y160070D01*
X168763Y159987D01*
X168892Y159920D01*
X169016Y159868D01*
X169138Y159830D01*
X169255Y159808D01*
X169370Y159800D01*
Y159200D01*
X169255Y159193D01*
X169138Y159170D01*
X169016Y159133D01*
X168892Y159080D01*
X168763Y159012D01*
X168632Y158930D01*
X168497Y158833D01*
X168358Y158720D01*
X168071Y158450D01*
Y160550D01*
X168217Y160407D01*
D02*
G37*
G36*
X126954Y156425D02*
X126889Y156480D01*
X126814Y156529D01*
X126727Y156572D01*
X126630Y156610D01*
X126522Y156642D01*
X126404Y156668D01*
X126275Y156688D01*
X126135Y156703D01*
X125822Y156714D01*
X125781Y158214D01*
X125942Y158217D01*
X126232Y158242D01*
X126361Y158264D01*
X126479Y158292D01*
X126585Y158326D01*
X126681Y158366D01*
X126767Y158413D01*
X126841Y158465D01*
X126904Y158524D01*
X126954Y156425D01*
D02*
G37*
G36*
X93159Y158465D02*
X93234Y158413D01*
X93319Y158366D01*
X93415Y158326D01*
X93521Y158292D01*
X93639Y158264D01*
X93768Y158242D01*
X93907Y158227D01*
X94219Y158214D01*
X94178Y156714D01*
X94016Y156711D01*
X93726Y156688D01*
X93596Y156668D01*
X93478Y156642D01*
X93370Y156610D01*
X93273Y156572D01*
X93186Y156529D01*
X93111Y156480D01*
X93046Y156425D01*
X93096Y158524D01*
X93159Y158465D01*
D02*
G37*
G36*
X137429Y152950D02*
X137284Y153093D01*
X137003Y153332D01*
X136868Y153430D01*
X136737Y153513D01*
X136609Y153580D01*
X136484Y153632D01*
X136363Y153670D01*
X136245Y153692D01*
X136130Y153700D01*
Y154300D01*
X136245Y154307D01*
X136363Y154330D01*
X136484Y154367D01*
X136609Y154420D01*
X136737Y154488D01*
X136868Y154570D01*
X137003Y154667D01*
X137142Y154780D01*
X137429Y155050D01*
Y152950D01*
D02*
G37*
G36*
X172907Y146783D02*
X172668Y146503D01*
X172570Y146368D01*
X172487Y146237D01*
X172420Y146108D01*
X172368Y145984D01*
X172330Y145862D01*
X172308Y145745D01*
X172300Y145630D01*
X171700D01*
X171693Y145745D01*
X171670Y145862D01*
X171633Y145984D01*
X171580Y146108D01*
X171512Y146237D01*
X171430Y146368D01*
X171333Y146503D01*
X171220Y146642D01*
X170950Y146929D01*
X173050D01*
X172907Y146783D01*
D02*
G37*
G36*
X177908Y146283D02*
X177667Y146003D01*
X177570Y145868D01*
X177488Y145737D01*
X177420Y145608D01*
X177367Y145484D01*
X177330Y145362D01*
X177307Y145245D01*
X177300Y145130D01*
X176700D01*
X176692Y145245D01*
X176670Y145362D01*
X176632Y145484D01*
X176580Y145608D01*
X176513Y145737D01*
X176430Y145868D01*
X176332Y146003D01*
X176220Y146142D01*
X175950Y146429D01*
X178050D01*
X177908Y146283D01*
D02*
G37*
G36*
X152908D02*
X152667Y146003D01*
X152570Y145868D01*
X152488Y145737D01*
X152420Y145608D01*
X152367Y145484D01*
X152330Y145362D01*
X152307Y145245D01*
X152300Y145130D01*
X151700D01*
X151692Y145245D01*
X151670Y145362D01*
X151632Y145484D01*
X151580Y145608D01*
X151513Y145737D01*
X151430Y145868D01*
X151332Y146003D01*
X151220Y146142D01*
X150950Y146429D01*
X153050D01*
X152908Y146283D01*
D02*
G37*
G36*
X187303Y143043D02*
X187312Y142938D01*
X187327Y142847D01*
X187348Y142767D01*
X187375Y142700D01*
X187408Y142645D01*
X187447Y142602D01*
X187492Y142571D01*
X187543Y142553D01*
X187600Y142547D01*
X186400D01*
X186457Y142553D01*
X186508Y142571D01*
X186553Y142602D01*
X186592Y142645D01*
X186625Y142700D01*
X186652Y142767D01*
X186673Y142847D01*
X186688Y142938D01*
X186697Y143043D01*
X186700Y143159D01*
X187300D01*
X187303Y143043D01*
D02*
G37*
G36*
X177303D02*
X177312Y142938D01*
X177327Y142847D01*
X177348Y142767D01*
X177375Y142700D01*
X177408Y142645D01*
X177447Y142602D01*
X177492Y142571D01*
X177543Y142553D01*
X177600Y142547D01*
X176400D01*
X176457Y142553D01*
X176508Y142571D01*
X176553Y142602D01*
X176592Y142645D01*
X176625Y142700D01*
X176652Y142767D01*
X176673Y142847D01*
X176688Y142938D01*
X176697Y143043D01*
X176700Y143159D01*
X177300D01*
X177303Y143043D01*
D02*
G37*
G36*
X172303D02*
X172312Y142938D01*
X172327Y142847D01*
X172348Y142767D01*
X172375Y142700D01*
X172408Y142645D01*
X172447Y142602D01*
X172492Y142571D01*
X172543Y142553D01*
X172600Y142547D01*
X171400D01*
X171457Y142553D01*
X171508Y142571D01*
X171553Y142602D01*
X171592Y142645D01*
X171625Y142700D01*
X171652Y142767D01*
X171673Y142847D01*
X171688Y142938D01*
X171697Y143043D01*
X171700Y143159D01*
X172300D01*
X172303Y143043D01*
D02*
G37*
G36*
X152303D02*
X152312Y142938D01*
X152327Y142847D01*
X152348Y142767D01*
X152375Y142700D01*
X152408Y142645D01*
X152447Y142602D01*
X152492Y142571D01*
X152543Y142553D01*
X152600Y142547D01*
X151400D01*
X151457Y142553D01*
X151508Y142571D01*
X151553Y142602D01*
X151592Y142645D01*
X151625Y142700D01*
X151652Y142767D01*
X151673Y142847D01*
X151688Y142938D01*
X151697Y143043D01*
X151700Y143159D01*
X152300D01*
X152303Y143043D01*
D02*
G37*
G36*
X142303D02*
X142312Y142938D01*
X142327Y142847D01*
X142348Y142767D01*
X142375Y142700D01*
X142408Y142645D01*
X142447Y142602D01*
X142492Y142571D01*
X142543Y142553D01*
X142600Y142547D01*
X141400D01*
X141457Y142553D01*
X141508Y142571D01*
X141553Y142602D01*
X141592Y142645D01*
X141625Y142700D01*
X141652Y142767D01*
X141673Y142847D01*
X141688Y142938D01*
X141697Y143043D01*
X141700Y143159D01*
X142300D01*
X142303Y143043D01*
D02*
G37*
G36*
X129135Y139493D02*
X129210Y139442D01*
X129296Y139397D01*
X129393Y139358D01*
X129500Y139325D01*
X129618Y139298D01*
X129747Y139277D01*
X129887Y139262D01*
X130199Y139250D01*
Y137750D01*
X130038Y137747D01*
X129747Y137723D01*
X129618Y137702D01*
X129500Y137675D01*
X129393Y137642D01*
X129296Y137603D01*
X129210Y137558D01*
X129135Y137507D01*
X129071Y137450D01*
Y139550D01*
X129135Y139493D01*
D02*
G37*
G36*
X135831Y137000D02*
X135816Y137143D01*
X135771Y137270D01*
X135696Y137382D01*
X135591Y137480D01*
X135456Y137563D01*
X135291Y137630D01*
X135096Y137682D01*
X134871Y137720D01*
X134616Y137742D01*
X134331Y137750D01*
Y139250D01*
X134616Y139258D01*
X134871Y139280D01*
X135096Y139318D01*
X135291Y139370D01*
X135456Y139437D01*
X135591Y139520D01*
X135696Y139618D01*
X135771Y139730D01*
X135816Y139857D01*
X135831Y140000D01*
Y137000D01*
D02*
G37*
G36*
X157372Y133928D02*
X157328Y133911D01*
X157289Y133882D01*
X157255Y133842D01*
X157226Y133790D01*
X157203Y133727D01*
X157184Y133653D01*
X157171Y133567D01*
X157164Y133470D01*
X157161Y133361D01*
X156561D01*
X156558Y133470D01*
X156551Y133567D01*
X156537Y133653D01*
X156519Y133727D01*
X156496Y133790D01*
X156467Y133842D01*
X156433Y133882D01*
X156394Y133911D01*
X156350Y133928D01*
X156300Y133933D01*
X157421D01*
X157372Y133928D01*
D02*
G37*
G36*
X167850Y133924D02*
X167778Y133896D01*
X167714Y133849D01*
X167658Y133783D01*
X167611Y133699D01*
X167573Y133596D01*
X167543Y133474D01*
X167522Y133333D01*
X167509Y133174D01*
X167505Y132995D01*
X166505D01*
X166500Y133174D01*
X166488Y133333D01*
X166466Y133474D01*
X166437Y133596D01*
X166398Y133699D01*
X166351Y133783D01*
X166296Y133849D01*
X166232Y133896D01*
X166159Y133924D01*
X166079Y133933D01*
X167931D01*
X167850Y133924D01*
D02*
G37*
G36*
X162905Y133923D02*
X162820Y133893D01*
X162745Y133842D01*
X162680Y133772D01*
X162625Y133680D01*
X162580Y133569D01*
X162545Y133438D01*
X162520Y133286D01*
X162505Y133114D01*
X162500Y132921D01*
X161500D01*
X161495Y133114D01*
X161480Y133286D01*
X161455Y133438D01*
X161420Y133569D01*
X161375Y133680D01*
X161320Y133772D01*
X161255Y133842D01*
X161180Y133893D01*
X161095Y133923D01*
X161000Y133933D01*
X163000D01*
X162905Y133923D01*
D02*
G37*
G36*
X168505Y131264D02*
X168520Y131092D01*
X168545Y130940D01*
X168580Y130809D01*
X168625Y130698D01*
X168680Y130606D01*
X168745Y130536D01*
X168820Y130485D01*
X168905Y130455D01*
X169000Y130445D01*
X167000D01*
X167095Y130455D01*
X167180Y130485D01*
X167255Y130536D01*
X167320Y130606D01*
X167375Y130698D01*
X167420Y130809D01*
X167455Y130940D01*
X167480Y131092D01*
X167495Y131264D01*
X167500Y131456D01*
X168500D01*
X168505Y131264D01*
D02*
G37*
G36*
X161887Y131204D02*
X161900Y131045D01*
X161921Y130904D01*
X161951Y130782D01*
X161989Y130679D01*
X162036Y130595D01*
X162092Y130529D01*
X162155Y130482D01*
X162228Y130454D01*
X162309Y130445D01*
X160457D01*
X160538Y130454D01*
X160610Y130482D01*
X160674Y130529D01*
X160729Y130595D01*
X160776Y130679D01*
X160814Y130782D01*
X160844Y130904D01*
X160866Y131045D01*
X160879Y131204D01*
X160883Y131383D01*
X161883D01*
X161887Y131204D01*
D02*
G37*
G36*
X155307Y129255D02*
X155330Y129138D01*
X155368Y129016D01*
X155420Y128892D01*
X155488Y128763D01*
X155570Y128632D01*
X155667Y128497D01*
X155780Y128358D01*
X156050Y128071D01*
X153950D01*
X154093Y128217D01*
X154332Y128497D01*
X154430Y128632D01*
X154513Y128763D01*
X154580Y128892D01*
X154632Y129016D01*
X154670Y129138D01*
X154692Y129255D01*
X154700Y129370D01*
X155300D01*
X155307Y129255D01*
D02*
G37*
G36*
X169120Y126545D02*
X169035Y126515D01*
X168960Y126464D01*
X168895Y126394D01*
X168840Y126303D01*
X168795Y126191D01*
X168760Y126060D01*
X168735Y125908D01*
X168720Y125736D01*
X168715Y125543D01*
X167715D01*
X167710Y125736D01*
X167695Y125908D01*
X167670Y126060D01*
X167635Y126191D01*
X167590Y126303D01*
X167535Y126394D01*
X167470Y126464D01*
X167395Y126515D01*
X167310Y126545D01*
X167215Y126556D01*
X169215D01*
X169120Y126545D01*
D02*
G37*
G36*
X162288D02*
X162203Y126515D01*
X162128Y126464D01*
X162063Y126394D01*
X162008Y126303D01*
X161963Y126191D01*
X161928Y126060D01*
X161903Y125908D01*
X161888Y125736D01*
X161883Y125543D01*
X160883D01*
X160878Y125736D01*
X160863Y125908D01*
X160838Y126060D01*
X160803Y126191D01*
X160758Y126303D01*
X160703Y126394D01*
X160638Y126464D01*
X160563Y126515D01*
X160478Y126545D01*
X160383Y126556D01*
X162383D01*
X162288Y126545D01*
D02*
G37*
G36*
X132681Y122445D02*
X132793Y122352D01*
X132910Y122269D01*
X133029Y122198D01*
X133151Y122137D01*
X133277Y122088D01*
X133407Y122049D01*
X133539Y122022D01*
X133675Y122005D01*
X133814Y122000D01*
Y121000D01*
X133675Y120994D01*
X133539Y120978D01*
X133407Y120950D01*
X133277Y120912D01*
X133151Y120862D01*
X133029Y120802D01*
X132910Y120730D01*
X132793Y120648D01*
X132681Y120554D01*
X132571Y120450D01*
Y120980D01*
X132030Y120969D01*
Y122031D01*
X132051Y122025D01*
X132101Y122020D01*
X132289Y122011D01*
X132571Y122009D01*
Y122550D01*
X132681Y122445D01*
D02*
G37*
G36*
X170907Y120401D02*
X170561Y120439D01*
Y121439D01*
X171257Y121444D01*
X170907Y120401D01*
D02*
G37*
G36*
X160797Y121000D02*
X160703Y120994D01*
X160618Y120976D01*
X160544Y120946D01*
X160479Y120904D01*
X160424Y120850D01*
X160380Y120784D01*
X160345Y120706D01*
X160320Y120616D01*
X160308Y120532D01*
X160300Y120100D01*
X159700D01*
X159676Y120560D01*
X159660Y120616D01*
X159610Y120706D01*
X159540Y120784D01*
X159450Y120850D01*
X159340Y120904D01*
X159210Y120946D01*
X159060Y120976D01*
X158890Y120994D01*
X158700Y121000D01*
X160000Y122000D01*
X160797Y121000D01*
D02*
G37*
G36*
X132493Y120365D02*
X132442Y120290D01*
X132397Y120204D01*
X132358Y120107D01*
X132325Y120000D01*
X132298Y119882D01*
X132277Y119753D01*
X132262Y119613D01*
X132250Y119301D01*
X130750D01*
X130747Y119462D01*
X130723Y119753D01*
X130702Y119882D01*
X130675Y120000D01*
X130642Y120107D01*
X130603Y120204D01*
X130558Y120290D01*
X130507Y120365D01*
X130450Y120429D01*
X132550D01*
X132493Y120365D01*
D02*
G37*
G36*
X234929Y270950D02*
X234865Y271007D01*
X234790Y271058D01*
X234704Y271103D01*
X234607Y271142D01*
X234500Y271175D01*
X234382Y271202D01*
X234253Y271223D01*
X234113Y271238D01*
X233801Y271250D01*
Y272750D01*
X233962Y272753D01*
X234253Y272777D01*
X234382Y272798D01*
X234500Y272825D01*
X234607Y272858D01*
X234704Y272897D01*
X234790Y272942D01*
X234865Y272993D01*
X234929Y273050D01*
Y270950D01*
D02*
G37*
G36*
X222635Y272993D02*
X222710Y272942D01*
X222796Y272897D01*
X222893Y272858D01*
X223000Y272825D01*
X223118Y272798D01*
X223247Y272777D01*
X223387Y272762D01*
X223699Y272750D01*
Y271250D01*
X223538Y271247D01*
X223247Y271223D01*
X223118Y271202D01*
X223000Y271175D01*
X222893Y271142D01*
X222796Y271103D01*
X222710Y271058D01*
X222635Y271007D01*
X222571Y270950D01*
Y273050D01*
X222635Y272993D01*
D02*
G37*
G36*
X220429Y270950D02*
X220365Y271007D01*
X220290Y271058D01*
X220204Y271103D01*
X220107Y271142D01*
X220000Y271175D01*
X219882Y271202D01*
X219753Y271223D01*
X219613Y271238D01*
X219301Y271250D01*
Y272750D01*
X219462Y272753D01*
X219753Y272777D01*
X219882Y272798D01*
X220000Y272825D01*
X220107Y272858D01*
X220204Y272897D01*
X220290Y272942D01*
X220365Y272993D01*
X220429Y273050D01*
Y270950D01*
D02*
G37*
G36*
X298259Y264950D02*
X298195Y265007D01*
X298120Y265058D01*
X298034Y265103D01*
X297938Y265142D01*
X297830Y265175D01*
X297712Y265202D01*
X297583Y265223D01*
X297443Y265238D01*
X297131Y265250D01*
Y266750D01*
X297293Y266753D01*
X297583Y266777D01*
X297712Y266798D01*
X297830Y266825D01*
X297938Y266858D01*
X298034Y266897D01*
X298120Y266942D01*
X298195Y266993D01*
X298259Y267050D01*
Y264950D01*
D02*
G37*
G36*
X284624Y257858D02*
X284613Y257953D01*
X284583Y258038D01*
X284532Y258113D01*
X284462Y258178D01*
X284371Y258233D01*
X284259Y258278D01*
X284128Y258313D01*
X283976Y258338D01*
X283804Y258353D01*
X283612Y258358D01*
Y259358D01*
X283804Y259363D01*
X283976Y259378D01*
X284128Y259403D01*
X284259Y259438D01*
X284371Y259483D01*
X284462Y259538D01*
X284532Y259603D01*
X284583Y259678D01*
X284613Y259763D01*
X284624Y259858D01*
Y257858D01*
D02*
G37*
G36*
X259386Y259763D02*
X259417Y259678D01*
X259468Y259603D01*
X259538Y259538D01*
X259629Y259483D01*
X259741Y259438D01*
X259872Y259403D01*
X260024Y259378D01*
X260196Y259363D01*
X260388Y259358D01*
Y258358D01*
X260196Y258353D01*
X260024Y258338D01*
X259872Y258313D01*
X259741Y258278D01*
X259629Y258233D01*
X259538Y258178D01*
X259468Y258113D01*
X259417Y258038D01*
X259386Y257953D01*
X259376Y257858D01*
Y259858D01*
X259386Y259763D01*
D02*
G37*
G36*
X237226Y259880D02*
X237297Y259823D01*
X237379Y259773D01*
X237473Y259729D01*
X237578Y259692D01*
X237694Y259662D01*
X237822Y259639D01*
X237960Y259622D01*
X238110Y259612D01*
X238271Y259608D01*
X238106Y258108D01*
X237944Y258106D01*
X237652Y258085D01*
X237522Y258067D01*
X237403Y258045D01*
X237294Y258017D01*
X237197Y257983D01*
X237109Y257945D01*
X237033Y257902D01*
X236967Y257854D01*
X237166Y259944D01*
X237226Y259880D01*
D02*
G37*
G36*
X220533Y257854D02*
X220467Y257902D01*
X220391Y257945D01*
X220303Y257983D01*
X220206Y258017D01*
X220097Y258045D01*
X219978Y258067D01*
X219848Y258085D01*
X219556Y258106D01*
X219394Y258108D01*
X219229Y259608D01*
X219390Y259612D01*
X219678Y259639D01*
X219806Y259662D01*
X219922Y259692D01*
X220027Y259729D01*
X220121Y259773D01*
X220203Y259823D01*
X220274Y259880D01*
X220334Y259944D01*
X220533Y257854D01*
D02*
G37*
G36*
X256857Y258837D02*
X256878Y258803D01*
X256914Y258757D01*
X257026Y258626D01*
X257553Y258081D01*
X257128Y257656D01*
X256350Y258358D01*
X256850Y258859D01*
X256857Y258837D01*
D02*
G37*
G36*
X241624Y257358D02*
X241609Y257501D01*
X241563Y257628D01*
X241488Y257741D01*
X241382Y257838D01*
X241246Y257921D01*
X241079Y257988D01*
X240883Y258041D01*
X240656Y258078D01*
X240399Y258101D01*
X240112Y258108D01*
Y259608D01*
X240399Y259616D01*
X240656Y259638D01*
X240883Y259676D01*
X241079Y259728D01*
X241246Y259796D01*
X241382Y259878D01*
X241488Y259976D01*
X241563Y260088D01*
X241609Y260216D01*
X241624Y260358D01*
Y257358D01*
D02*
G37*
G36*
X216391Y260216D02*
X216437Y260088D01*
X216512Y259976D01*
X216618Y259878D01*
X216754Y259796D01*
X216921Y259728D01*
X217117Y259676D01*
X217344Y259638D01*
X217601Y259616D01*
X217888Y259608D01*
Y258108D01*
X217601Y258101D01*
X217344Y258078D01*
X217117Y258041D01*
X216921Y257988D01*
X216754Y257921D01*
X216618Y257838D01*
X216512Y257741D01*
X216437Y257628D01*
X216391Y257501D01*
X216376Y257358D01*
Y260358D01*
X216391Y260216D01*
D02*
G37*
G36*
X258043Y256314D02*
X257992Y256296D01*
X257947Y256266D01*
X257908Y256224D01*
X257875Y256170D01*
X257848Y256104D01*
X257827Y256026D01*
X257812Y255936D01*
X257803Y255834D01*
X257800Y255720D01*
X257200D01*
X257197Y255834D01*
X257188Y255936D01*
X257173Y256026D01*
X257152Y256104D01*
X257125Y256170D01*
X257092Y256224D01*
X257053Y256266D01*
X257008Y256296D01*
X256957Y256314D01*
X256900Y256320D01*
X258100D01*
X258043Y256314D01*
D02*
G37*
G36*
X204497Y256043D02*
X204516Y255992D01*
X204546Y255947D01*
X204589Y255908D01*
X204644Y255875D01*
X204712Y255848D01*
X204791Y255827D01*
X204883Y255812D01*
X204987Y255803D01*
X205103Y255800D01*
Y255200D01*
X204987Y255197D01*
X204883Y255188D01*
X204791Y255173D01*
X204712Y255152D01*
X204644Y255125D01*
X204589Y255092D01*
X204546Y255053D01*
X204516Y255008D01*
X204497Y254957D01*
X204491Y254900D01*
Y256100D01*
X204497Y256043D01*
D02*
G37*
G36*
X197543Y252739D02*
X197492Y252720D01*
X197447Y252690D01*
X197408Y252647D01*
X197375Y252592D01*
X197348Y252525D01*
X197327Y252445D01*
X197312Y252353D01*
X197303Y252249D01*
X197300Y252133D01*
X196700D01*
X196697Y252249D01*
X196688Y252353D01*
X196673Y252445D01*
X196652Y252525D01*
X196625Y252592D01*
X196592Y252647D01*
X196553Y252690D01*
X196508Y252720D01*
X196457Y252739D01*
X196400Y252745D01*
X197600D01*
X197543Y252739D01*
D02*
G37*
G36*
X212929Y251950D02*
X212784Y252093D01*
X212503Y252332D01*
X212368Y252430D01*
X212237Y252513D01*
X212108Y252580D01*
X211984Y252632D01*
X211862Y252670D01*
X211745Y252693D01*
X211630Y252700D01*
Y253300D01*
X211745Y253308D01*
X211862Y253330D01*
X211984Y253367D01*
X212108Y253420D01*
X212237Y253487D01*
X212368Y253570D01*
X212503Y253667D01*
X212642Y253780D01*
X212929Y254050D01*
Y251950D01*
D02*
G37*
G36*
X255217Y253408D02*
X255497Y253168D01*
X255632Y253070D01*
X255763Y252988D01*
X255891Y252920D01*
X256016Y252868D01*
X256137Y252830D01*
X256255Y252807D01*
X256370Y252800D01*
Y252200D01*
X256255Y252192D01*
X256137Y252170D01*
X256016Y252133D01*
X255891Y252080D01*
X255763Y252012D01*
X255632Y251930D01*
X255497Y251833D01*
X255358Y251720D01*
X255071Y251450D01*
Y253550D01*
X255217Y253408D01*
D02*
G37*
G36*
X217929Y248450D02*
X217783Y248592D01*
X217503Y248833D01*
X217368Y248930D01*
X217237Y249012D01*
X217108Y249080D01*
X216984Y249132D01*
X216863Y249170D01*
X216745Y249193D01*
X216630Y249200D01*
Y249800D01*
X216745Y249808D01*
X216863Y249830D01*
X216984Y249868D01*
X217108Y249920D01*
X217237Y249988D01*
X217368Y250070D01*
X217503Y250167D01*
X217642Y250280D01*
X217929Y250550D01*
Y248450D01*
D02*
G37*
G36*
X197303Y246751D02*
X197312Y246647D01*
X197327Y246555D01*
X197348Y246475D01*
X197375Y246408D01*
X197408Y246353D01*
X197447Y246310D01*
X197492Y246280D01*
X197543Y246261D01*
X197600Y246255D01*
X196400D01*
X196457Y246261D01*
X196508Y246280D01*
X196553Y246310D01*
X196592Y246353D01*
X196625Y246408D01*
X196652Y246475D01*
X196673Y246555D01*
X196688Y246647D01*
X196697Y246751D01*
X196700Y246867D01*
X197300D01*
X197303Y246751D01*
D02*
G37*
G36*
X222929Y244950D02*
X222783Y245093D01*
X222503Y245333D01*
X222368Y245430D01*
X222237Y245513D01*
X222109Y245580D01*
X221984Y245633D01*
X221863Y245670D01*
X221745Y245692D01*
X221630Y245700D01*
Y246300D01*
X221745Y246307D01*
X221863Y246330D01*
X221984Y246368D01*
X222109Y246420D01*
X222237Y246487D01*
X222368Y246570D01*
X222503Y246668D01*
X222642Y246780D01*
X222929Y247050D01*
Y244950D01*
D02*
G37*
G36*
X228713Y244229D02*
X228694Y244253D01*
X228667Y244274D01*
X228632Y244292D01*
X228588Y244308D01*
X228536Y244322D01*
X228476Y244333D01*
X228408Y244342D01*
X228246Y244352D01*
X228153Y244353D01*
Y244953D01*
X228218Y244954D01*
X228276Y244959D01*
X228327Y244967D01*
X228372Y244978D01*
X228411Y244992D01*
X228442Y245009D01*
X228468Y245029D01*
X228486Y245053D01*
X228498Y245079D01*
X228504Y245109D01*
X228713Y244229D01*
D02*
G37*
G36*
X204497Y244061D02*
X204514Y244018D01*
X204542Y243980D01*
X204582Y243948D01*
X204632Y243920D01*
X204695Y243897D01*
X204768Y243879D01*
X204853Y243866D01*
X204949Y243859D01*
X205056Y243856D01*
Y243256D01*
X204949Y243254D01*
X204853Y243246D01*
X204768Y243234D01*
X204695Y243216D01*
X204632Y243193D01*
X204582Y243165D01*
X204542Y243132D01*
X204514Y243094D01*
X204497Y243051D01*
X204491Y243003D01*
Y244110D01*
X204497Y244061D01*
D02*
G37*
G36*
X284624Y239642D02*
X284609Y239784D01*
X284563Y239912D01*
X284488Y240024D01*
X284382Y240122D01*
X284246Y240204D01*
X284079Y240272D01*
X283883Y240324D01*
X283656Y240362D01*
X283399Y240384D01*
X283112Y240392D01*
Y241892D01*
X283399Y241899D01*
X283656Y241922D01*
X283883Y241959D01*
X284079Y242012D01*
X284246Y242079D01*
X284382Y242162D01*
X284488Y242259D01*
X284563Y242372D01*
X284609Y242499D01*
X284624Y242642D01*
Y239642D01*
D02*
G37*
G36*
X259391Y242499D02*
X259437Y242372D01*
X259512Y242259D01*
X259618Y242162D01*
X259754Y242079D01*
X259921Y242012D01*
X260117Y241959D01*
X260344Y241922D01*
X260601Y241899D01*
X260888Y241892D01*
Y240392D01*
X260601Y240384D01*
X260344Y240362D01*
X260117Y240324D01*
X259921Y240272D01*
X259754Y240204D01*
X259618Y240122D01*
X259512Y240024D01*
X259437Y239912D01*
X259391Y239784D01*
X259376Y239642D01*
Y242642D01*
X259391Y242499D01*
D02*
G37*
G36*
X241624Y239642D02*
X241609Y239784D01*
X241563Y239912D01*
X241488Y240024D01*
X241382Y240122D01*
X241246Y240204D01*
X241079Y240272D01*
X240883Y240324D01*
X240656Y240362D01*
X240399Y240384D01*
X240112Y240392D01*
Y241892D01*
X240399Y241899D01*
X240656Y241922D01*
X240883Y241959D01*
X241079Y242012D01*
X241246Y242079D01*
X241382Y242162D01*
X241488Y242259D01*
X241563Y242372D01*
X241609Y242499D01*
X241624Y242642D01*
Y239642D01*
D02*
G37*
G36*
X216391Y242499D02*
X216437Y242372D01*
X216512Y242259D01*
X216618Y242162D01*
X216754Y242079D01*
X216921Y242012D01*
X217117Y241959D01*
X217344Y241922D01*
X217601Y241899D01*
X217888Y241892D01*
Y240392D01*
X217601Y240384D01*
X217344Y240362D01*
X217117Y240324D01*
X216921Y240272D01*
X216754Y240204D01*
X216618Y240122D01*
X216512Y240024D01*
X216437Y239912D01*
X216391Y239784D01*
X216376Y239642D01*
Y242642D01*
X216391Y242499D01*
D02*
G37*
G36*
X213543Y238598D02*
X213492Y238580D01*
X213447Y238550D01*
X213408Y238508D01*
X213375Y238454D01*
X213348Y238388D01*
X213327Y238310D01*
X213312Y238220D01*
X213303Y238118D01*
X213300Y238004D01*
X212700D01*
X212697Y238118D01*
X212688Y238220D01*
X212673Y238310D01*
X212652Y238388D01*
X212625Y238454D01*
X212592Y238508D01*
X212553Y238550D01*
X212508Y238580D01*
X212457Y238598D01*
X212400Y238604D01*
X213600D01*
X213543Y238598D01*
D02*
G37*
G36*
X289007Y238589D02*
X288880Y238544D01*
X288767Y238469D01*
X288670Y238364D01*
X288587Y238229D01*
X288520Y238064D01*
X288467Y237869D01*
X288430Y237644D01*
X288407Y237389D01*
X288400Y237104D01*
X286900D01*
X286892Y237389D01*
X286870Y237644D01*
X286832Y237869D01*
X286780Y238064D01*
X286712Y238229D01*
X286630Y238364D01*
X286532Y238469D01*
X286420Y238544D01*
X286292Y238589D01*
X286150Y238604D01*
X289150D01*
X289007Y238589D01*
D02*
G37*
G36*
X230908Y235784D02*
X230667Y235503D01*
X230570Y235368D01*
X230487Y235237D01*
X230420Y235108D01*
X230367Y234984D01*
X230330Y234862D01*
X230308Y234745D01*
X230300Y234630D01*
X229700D01*
X229693Y234745D01*
X229670Y234862D01*
X229632Y234984D01*
X229580Y235108D01*
X229513Y235237D01*
X229430Y235368D01*
X229332Y235503D01*
X229220Y235642D01*
X228950Y235929D01*
X231050D01*
X230908Y235784D01*
D02*
G37*
G36*
X205149Y234940D02*
X205158Y234836D01*
X205173Y234744D01*
X205194Y234665D01*
X205222Y234597D01*
X205254Y234542D01*
X205293Y234500D01*
X205339Y234469D01*
X205389Y234451D01*
X205447Y234444D01*
X204246D01*
X204303Y234451D01*
X204354Y234469D01*
X204399Y234500D01*
X204438Y234542D01*
X204471Y234597D01*
X204499Y234665D01*
X204520Y234744D01*
X204534Y234836D01*
X204543Y234940D01*
X204546Y235056D01*
X205147D01*
X205149Y234940D01*
D02*
G37*
G36*
X207242Y234472D02*
X207091Y234316D01*
X206752Y233915D01*
X206677Y233804D01*
X206622Y233703D01*
X206586Y233613D01*
X206570Y233535D01*
X206572Y233468D01*
X206594Y233411D01*
X205954Y234444D01*
X205991Y234403D01*
X206039Y234381D01*
X206097Y234377D01*
X206166Y234392D01*
X206245Y234426D01*
X206336Y234479D01*
X206436Y234551D01*
X206548Y234642D01*
X206803Y234881D01*
X207242Y234472D01*
D02*
G37*
G36*
X230303Y233940D02*
X230312Y233836D01*
X230327Y233744D01*
X230348Y233665D01*
X230375Y233597D01*
X230408Y233542D01*
X230447Y233500D01*
X230492Y233469D01*
X230543Y233451D01*
X230600Y233444D01*
X229400D01*
X229457Y233451D01*
X229508Y233469D01*
X229553Y233500D01*
X229592Y233542D01*
X229625Y233597D01*
X229652Y233665D01*
X229673Y233744D01*
X229688Y233836D01*
X229697Y233940D01*
X229700Y234056D01*
X230300D01*
X230303Y233940D01*
D02*
G37*
G36*
X196394Y231000D02*
X196379Y231142D01*
X196334Y231270D01*
X196259Y231382D01*
X196154Y231480D01*
X196019Y231562D01*
X195854Y231630D01*
X195659Y231682D01*
X195434Y231720D01*
X195179Y231743D01*
X194894Y231750D01*
Y233250D01*
X195179Y233258D01*
X195434Y233280D01*
X195659Y233317D01*
X195854Y233370D01*
X196019Y233437D01*
X196154Y233520D01*
X196259Y233617D01*
X196334Y233730D01*
X196379Y233857D01*
X196394Y234000D01*
Y231000D01*
D02*
G37*
G36*
X237612Y232043D02*
X237630Y231992D01*
X237660Y231947D01*
X237702Y231908D01*
X237756Y231875D01*
X237822Y231848D01*
X237900Y231827D01*
X237990Y231812D01*
X238092Y231803D01*
X238206Y231800D01*
Y231200D01*
X238092Y231197D01*
X237990Y231188D01*
X237900Y231173D01*
X237822Y231152D01*
X237756Y231125D01*
X237702Y231092D01*
X237660Y231053D01*
X237630Y231008D01*
X237612Y230957D01*
X237606Y230900D01*
Y232100D01*
X237612Y232043D01*
D02*
G37*
G36*
X240929Y230450D02*
X240784Y230592D01*
X240503Y230833D01*
X240368Y230930D01*
X240237Y231013D01*
X240108Y231080D01*
X239984Y231133D01*
X239862Y231170D01*
X239745Y231192D01*
X239630Y231200D01*
Y231800D01*
X239745Y231807D01*
X239862Y231830D01*
X239984Y231868D01*
X240108Y231920D01*
X240237Y231988D01*
X240368Y232070D01*
X240503Y232168D01*
X240642Y232280D01*
X240929Y232550D01*
Y230450D01*
D02*
G37*
G36*
X229803Y226440D02*
X229812Y226336D01*
X229827Y226244D01*
X229848Y226165D01*
X229875Y226097D01*
X229908Y226042D01*
X229947Y226000D01*
X229992Y225969D01*
X230043Y225951D01*
X230100Y225944D01*
X228900D01*
X228957Y225951D01*
X229008Y225969D01*
X229053Y226000D01*
X229092Y226042D01*
X229125Y226097D01*
X229152Y226165D01*
X229173Y226244D01*
X229188Y226336D01*
X229197Y226440D01*
X229200Y226556D01*
X229800D01*
X229803Y226440D01*
D02*
G37*
G36*
X206459Y226543D02*
X206477Y226492D01*
X206507Y226447D01*
X206549Y226408D01*
X206603Y226375D01*
X206669Y226348D01*
X206747Y226327D01*
X206837Y226312D01*
X206939Y226303D01*
X207053Y226300D01*
Y225700D01*
X206939Y225697D01*
X206837Y225688D01*
X206747Y225673D01*
X206669Y225652D01*
X206603Y225625D01*
X206549Y225592D01*
X206507Y225553D01*
X206477Y225508D01*
X206459Y225457D01*
X206453Y225400D01*
Y226600D01*
X206459Y226543D01*
D02*
G37*
G36*
X196252Y225400D02*
X196246Y225457D01*
X196228Y225508D01*
X196197Y225553D01*
X196154Y225592D01*
X196099Y225625D01*
X196032Y225652D01*
X195952Y225673D01*
X195861Y225688D01*
X195757Y225697D01*
X195640Y225700D01*
Y226300D01*
X195757Y226303D01*
X195861Y226312D01*
X195952Y226327D01*
X196032Y226348D01*
X196099Y226375D01*
X196154Y226408D01*
X196197Y226447D01*
X196228Y226492D01*
X196246Y226543D01*
X196252Y226600D01*
Y225400D01*
D02*
G37*
G36*
X212929Y224950D02*
X212784Y225093D01*
X212503Y225332D01*
X212368Y225430D01*
X212237Y225513D01*
X212108Y225580D01*
X211984Y225633D01*
X211862Y225670D01*
X211745Y225693D01*
X211630Y225700D01*
Y226300D01*
X211745Y226308D01*
X211862Y226330D01*
X211984Y226367D01*
X212108Y226420D01*
X212237Y226487D01*
X212368Y226570D01*
X212503Y226667D01*
X212642Y226780D01*
X212929Y227050D01*
Y224950D01*
D02*
G37*
G36*
X229854Y224700D02*
X229146D01*
X229156Y224720D01*
X229166Y224759D01*
X229174Y224817D01*
X229187Y224988D01*
X229200Y225746D01*
X229800D01*
X229854Y224700D01*
D02*
G37*
G36*
X229670Y223800D02*
X229661Y223761D01*
X229653Y223703D01*
X229640Y223531D01*
X229627Y222773D01*
X229027D01*
X228973Y223820D01*
X229680D01*
X229670Y223800D01*
D02*
G37*
G36*
X255831Y221900D02*
X255825Y221957D01*
X255807Y222008D01*
X255776Y222053D01*
X255733Y222092D01*
X255678Y222125D01*
X255611Y222152D01*
X255531Y222173D01*
X255439Y222188D01*
X255335Y222197D01*
X255219Y222200D01*
Y222800D01*
X255335Y222803D01*
X255439Y222812D01*
X255531Y222827D01*
X255611Y222848D01*
X255678Y222875D01*
X255733Y222908D01*
X255776Y222947D01*
X255807Y222992D01*
X255825Y223043D01*
X255831Y223100D01*
Y221900D01*
D02*
G37*
G36*
X229870Y222049D02*
X229819Y222031D01*
X229774Y222000D01*
X229735Y221958D01*
X229702Y221902D01*
X229675Y221835D01*
X229654Y221756D01*
X229639Y221664D01*
X229630Y221560D01*
X229627Y221444D01*
X229027D01*
X229024Y221560D01*
X229015Y221664D01*
X229000Y221756D01*
X228979Y221835D01*
X228952Y221902D01*
X228919Y221958D01*
X228880Y222000D01*
X228835Y222031D01*
X228784Y222049D01*
X228727Y222056D01*
X229927D01*
X229870Y222049D01*
D02*
G37*
G36*
X237357Y222040D02*
X237230Y221995D01*
X237118Y221919D01*
X237020Y221814D01*
X236937Y221677D01*
X236870Y221511D01*
X236818Y221315D01*
X236780Y221088D01*
X236757Y220831D01*
X236750Y220544D01*
X235250D01*
X235243Y220831D01*
X235220Y221088D01*
X235182Y221315D01*
X235130Y221511D01*
X235063Y221677D01*
X234980Y221814D01*
X234882Y221919D01*
X234770Y221995D01*
X234643Y222040D01*
X234500Y222056D01*
X237500D01*
X237357Y222040D01*
D02*
G37*
G36*
X291258Y221244D02*
X291280Y220987D01*
X291318Y220760D01*
X291370Y220564D01*
X291438Y220397D01*
X291520Y220261D01*
X291617Y220155D01*
X291730Y220080D01*
X291858Y220034D01*
X292000Y220019D01*
X289000D01*
X289142Y220034D01*
X289270Y220080D01*
X289383Y220155D01*
X289480Y220261D01*
X289563Y220397D01*
X289630Y220564D01*
X289683Y220760D01*
X289720Y220987D01*
X289742Y221244D01*
X289750Y221531D01*
X291250D01*
X291258Y221244D01*
D02*
G37*
G36*
X206612Y220543D02*
X206630Y220492D01*
X206660Y220447D01*
X206702Y220408D01*
X206756Y220375D01*
X206822Y220348D01*
X206900Y220327D01*
X206990Y220312D01*
X207092Y220303D01*
X207206Y220300D01*
Y219700D01*
X207092Y219697D01*
X206990Y219688D01*
X206900Y219673D01*
X206822Y219652D01*
X206756Y219625D01*
X206702Y219592D01*
X206660Y219553D01*
X206630Y219508D01*
X206612Y219457D01*
X206606Y219400D01*
Y220600D01*
X206612Y220543D01*
D02*
G37*
G36*
X196406Y219400D02*
X196400Y219457D01*
X196381Y219508D01*
X196351Y219553D01*
X196308Y219592D01*
X196253Y219625D01*
X196186Y219652D01*
X196106Y219673D01*
X196014Y219688D01*
X195910Y219697D01*
X195794Y219700D01*
Y220300D01*
X195910Y220303D01*
X196014Y220312D01*
X196106Y220327D01*
X196186Y220348D01*
X196253Y220375D01*
X196308Y220408D01*
X196351Y220447D01*
X196381Y220492D01*
X196400Y220543D01*
X196406Y220600D01*
Y219400D01*
D02*
G37*
G36*
X217929Y218950D02*
X217783Y219092D01*
X217503Y219333D01*
X217368Y219430D01*
X217237Y219513D01*
X217108Y219580D01*
X216984Y219633D01*
X216863Y219670D01*
X216745Y219692D01*
X216630Y219700D01*
Y220300D01*
X216745Y220307D01*
X216863Y220330D01*
X216984Y220368D01*
X217108Y220420D01*
X217237Y220487D01*
X217368Y220570D01*
X217503Y220668D01*
X217642Y220780D01*
X217929Y221050D01*
Y218950D01*
D02*
G37*
G36*
X236753Y219538D02*
X236777Y219247D01*
X236798Y219118D01*
X236825Y219000D01*
X236858Y218893D01*
X236897Y218796D01*
X236942Y218710D01*
X236993Y218635D01*
X237050Y218571D01*
X234950D01*
X235007Y218635D01*
X235058Y218710D01*
X235103Y218796D01*
X235142Y218893D01*
X235175Y219000D01*
X235202Y219118D01*
X235223Y219247D01*
X235238Y219387D01*
X235250Y219699D01*
X236750D01*
X236753Y219538D01*
D02*
G37*
G36*
X269196Y220090D02*
X269241Y220018D01*
X269316Y219955D01*
X269421Y219901D01*
X269556Y219855D01*
X269721Y219817D01*
X269916Y219788D01*
X270141Y219767D01*
X270681Y219750D01*
Y218250D01*
X270396Y218246D01*
X269916Y218212D01*
X269721Y218183D01*
X269556Y218145D01*
X269421Y218099D01*
X269316Y218045D01*
X269241Y217982D01*
X269196Y217911D01*
X269181Y217831D01*
Y220169D01*
X269196Y220090D01*
D02*
G37*
G36*
X237135Y218493D02*
X237210Y218442D01*
X237296Y218397D01*
X237393Y218358D01*
X237500Y218325D01*
X237618Y218298D01*
X237747Y218277D01*
X237887Y218262D01*
X238199Y218250D01*
Y216750D01*
X238038Y216747D01*
X237747Y216723D01*
X237618Y216702D01*
X237500Y216675D01*
X237393Y216642D01*
X237296Y216603D01*
X237210Y216558D01*
X237135Y216507D01*
X237071Y216450D01*
Y218550D01*
X237135Y218493D01*
D02*
G37*
G36*
X293259Y217858D02*
X293304Y217730D01*
X293380Y217618D01*
X293486Y217520D01*
X293622Y217438D01*
X293788Y217370D01*
X293985Y217318D01*
X294211Y217280D01*
X294468Y217257D01*
X294485Y217257D01*
X294613Y217262D01*
X294753Y217277D01*
X294882Y217298D01*
X295000Y217325D01*
X295107Y217358D01*
X295204Y217397D01*
X295290Y217442D01*
X295365Y217493D01*
X295429Y217550D01*
X296500Y216500D01*
X297571Y217550D01*
X297635Y217493D01*
X297710Y217442D01*
X297796Y217397D01*
X297893Y217358D01*
X298000Y217325D01*
X298118Y217298D01*
X298247Y217277D01*
X298387Y217262D01*
X298699Y217250D01*
X298699Y215750D01*
X298538Y215747D01*
X298247Y215723D01*
X298118Y215702D01*
X298000Y215675D01*
X297893Y215642D01*
X297796Y215603D01*
X297710Y215558D01*
X297635Y215507D01*
X297571Y215450D01*
X296500Y216500D01*
X295429Y215450D01*
X295365Y215507D01*
X295290Y215558D01*
X295204Y215603D01*
X295107Y215642D01*
X295000Y215675D01*
X294882Y215702D01*
X294753Y215723D01*
X294505Y215743D01*
X294468Y215742D01*
X294211Y215720D01*
X293985Y215683D01*
X293788Y215630D01*
X293622Y215563D01*
X293486Y215480D01*
X293380Y215383D01*
X293304Y215270D01*
X293259Y215142D01*
X293244Y215000D01*
Y218000D01*
X293259Y217858D01*
D02*
G37*
G36*
X276744Y214500D02*
X276729Y214643D01*
X276684Y214770D01*
X276609Y214882D01*
X276504Y214980D01*
X276369Y215062D01*
X276204Y215130D01*
X276009Y215182D01*
X275784Y215220D01*
X275529Y215243D01*
X275244Y215250D01*
Y216750D01*
X275529Y216757D01*
X275784Y216780D01*
X276009Y216817D01*
X276204Y216870D01*
X276369Y216937D01*
X276504Y217020D01*
X276609Y217118D01*
X276684Y217230D01*
X276729Y217357D01*
X276744Y217500D01*
Y214500D01*
D02*
G37*
G36*
X196422Y215156D02*
X196643Y214963D01*
X196660Y214954D01*
X196672Y214952D01*
X196678Y214956D01*
X196394Y214279D01*
X196393Y214291D01*
X196382Y214311D01*
X196363Y214339D01*
X196334Y214375D01*
X196193Y214531D01*
X195970Y214760D01*
X196366Y215212D01*
X196422Y215156D01*
D02*
G37*
G36*
X255819Y214091D02*
X255804Y214216D01*
X255759Y214328D01*
X255684Y214427D01*
X255579Y214513D01*
X255444Y214585D01*
X255279Y214645D01*
X255084Y214691D01*
X254859Y214724D01*
X254604Y214743D01*
X254319Y214750D01*
Y216250D01*
X254604Y216252D01*
X255579Y216314D01*
X255684Y216338D01*
X255759Y216365D01*
X255804Y216395D01*
X255819Y216429D01*
Y214091D01*
D02*
G37*
G36*
X206600Y213543D02*
X206619Y213492D01*
X206649Y213447D01*
X206692Y213408D01*
X206747Y213375D01*
X206814Y213348D01*
X206894Y213327D01*
X206986Y213312D01*
X207090Y213303D01*
X207206Y213300D01*
Y212700D01*
X207090Y212697D01*
X206986Y212688D01*
X206894Y212673D01*
X206814Y212652D01*
X206747Y212625D01*
X206692Y212592D01*
X206649Y212553D01*
X206619Y212508D01*
X206600Y212457D01*
X206594Y212400D01*
Y213600D01*
X206600Y213543D01*
D02*
G37*
G36*
X280348Y212967D02*
X280240Y212925D01*
X280144Y212855D01*
X280062Y212757D01*
X279992Y212631D01*
X279934Y212477D01*
X279890Y212296D01*
X279858Y212086D01*
X279839Y211848D01*
X279833Y211583D01*
X278333D01*
X278326Y211848D01*
X278307Y212086D01*
X278275Y212296D01*
X278231Y212477D01*
X278174Y212631D01*
X278104Y212757D01*
X278021Y212855D01*
X277926Y212925D01*
X277818Y212967D01*
X277697Y212981D01*
X280469D01*
X280348Y212967D01*
D02*
G37*
G36*
X292066Y212966D02*
X291939Y212920D01*
X291826Y212845D01*
X291729Y212739D01*
X291646Y212603D01*
X291579Y212436D01*
X291526Y212240D01*
X291489Y212013D01*
X291466Y211756D01*
X291459Y211469D01*
X289959D01*
X289951Y211756D01*
X289929Y212013D01*
X289891Y212240D01*
X289839Y212436D01*
X289771Y212603D01*
X289689Y212739D01*
X289591Y212845D01*
X289479Y212920D01*
X289351Y212966D01*
X289209Y212981D01*
X292209D01*
X292066Y212966D01*
D02*
G37*
G36*
X240929Y211450D02*
X240784Y211593D01*
X240503Y211832D01*
X240368Y211930D01*
X240237Y212013D01*
X240108Y212080D01*
X239984Y212133D01*
X239862Y212170D01*
X239745Y212193D01*
X239630Y212200D01*
Y212800D01*
X239745Y212807D01*
X239862Y212830D01*
X239984Y212867D01*
X240108Y212920D01*
X240237Y212987D01*
X240368Y213070D01*
X240503Y213168D01*
X240642Y213280D01*
X240929Y213550D01*
Y211450D01*
D02*
G37*
G36*
X279765Y209879D02*
X279810Y209624D01*
X279885Y209399D01*
X279990Y209204D01*
X280125Y209039D01*
X280290Y208904D01*
X280485Y208799D01*
X280710Y208724D01*
X280965Y208679D01*
X281250Y208664D01*
Y207164D01*
X280965Y207149D01*
X280710Y207104D01*
X280485Y207029D01*
X280290Y206924D01*
X280125Y206789D01*
X279990Y206624D01*
X279885Y206429D01*
X279810Y206204D01*
X279765Y205949D01*
X279750Y205664D01*
X278250Y207914D01*
X279750Y210164D01*
X279765Y209879D01*
D02*
G37*
G36*
X292674Y205293D02*
X292723Y204813D01*
X292766Y204618D01*
X292822Y204453D01*
X292889Y204318D01*
X292969Y204213D01*
X293062Y204138D01*
X293166Y204093D01*
X293284Y204078D01*
X290552D01*
X290669Y204093D01*
X290773Y204138D01*
X290866Y204213D01*
X290946Y204318D01*
X291014Y204453D01*
X291069Y204618D01*
X291112Y204813D01*
X291143Y205038D01*
X291161Y205293D01*
X291167Y205578D01*
X292668D01*
X292674Y205293D01*
D02*
G37*
G36*
X288343D02*
X288392Y204813D01*
X288435Y204618D01*
X288491Y204453D01*
X288559Y204318D01*
X288639Y204213D01*
X288731Y204138D01*
X288836Y204093D01*
X288953Y204078D01*
X286221D01*
X286338Y204093D01*
X286443Y204138D01*
X286535Y204213D01*
X286615Y204318D01*
X286683Y204453D01*
X286738Y204618D01*
X286781Y204813D01*
X286812Y205038D01*
X286831Y205293D01*
X286837Y205578D01*
X288337D01*
X288343Y205293D01*
D02*
G37*
G36*
X279755D02*
X279799Y204813D01*
X279837Y204618D01*
X279885Y204453D01*
X279945Y204318D01*
X280015Y204213D01*
X280097Y204138D01*
X280188Y204093D01*
X280291Y204078D01*
X277559D01*
X277691Y204093D01*
X277808Y204138D01*
X277912Y204213D01*
X278001Y204318D01*
X278077Y204453D01*
X278139Y204618D01*
X278188Y204813D01*
X278222Y205038D01*
X278243Y205293D01*
X278250Y205578D01*
X279750D01*
X279755Y205293D01*
D02*
G37*
G36*
X275257D02*
X275278Y205038D01*
X275314Y204813D01*
X275364Y204618D01*
X275428Y204453D01*
X275506Y204318D01*
X275598Y204213D01*
X275705Y204138D01*
X275826Y204093D01*
X275961Y204078D01*
X273229D01*
X273328Y204093D01*
X273416Y204138D01*
X273495Y204213D01*
X273562Y204318D01*
X273620Y204453D01*
X273667Y204618D01*
X273703Y204813D01*
X273729Y205038D01*
X273745Y205293D01*
X273750Y205578D01*
X275250D01*
X275257Y205293D01*
D02*
G37*
G36*
X321414Y205262D02*
X321463Y204782D01*
X321506Y204587D01*
X321562Y204422D01*
X321629Y204287D01*
X321709Y204182D01*
X321802Y204107D01*
X321907Y204062D01*
X322024Y204047D01*
X319292D01*
X319409Y204062D01*
X319514Y204107D01*
X319606Y204182D01*
X319686Y204287D01*
X319754Y204422D01*
X319809Y204587D01*
X319852Y204782D01*
X319883Y205007D01*
X319901Y205262D01*
X319908Y205547D01*
X321408D01*
X321414Y205262D01*
D02*
G37*
G36*
X317083D02*
X317132Y204782D01*
X317176Y204587D01*
X317231Y204422D01*
X317299Y204287D01*
X317379Y204182D01*
X317471Y204107D01*
X317576Y204062D01*
X317693Y204047D01*
X314961D01*
X315078Y204062D01*
X315183Y204107D01*
X315275Y204182D01*
X315355Y204287D01*
X315423Y204422D01*
X315478Y204587D01*
X315522Y204782D01*
X315552Y205007D01*
X315571Y205262D01*
X315577Y205547D01*
X317077D01*
X317083Y205262D01*
D02*
G37*
G36*
X197002Y204782D02*
X197030Y204414D01*
X197057Y204249D01*
X197092Y204098D01*
X197134Y203959D01*
X197186Y203834D01*
X197245Y203722D01*
X197312Y203623D01*
X197388Y203537D01*
X196964Y203112D01*
X196877Y203188D01*
X196778Y203255D01*
X196666Y203314D01*
X196540Y203365D01*
X196402Y203408D01*
X196251Y203443D01*
X196086Y203470D01*
X195909Y203488D01*
X195515Y203500D01*
X197000Y204985D01*
X197002Y204782D01*
D02*
G37*
G36*
X189951Y203693D02*
X189969Y203642D01*
X190000Y203597D01*
X190042Y203558D01*
X190097Y203525D01*
X190165Y203498D01*
X190244Y203477D01*
X190336Y203462D01*
X190440Y203453D01*
X190557Y203450D01*
Y202850D01*
X190440Y202847D01*
X190336Y202838D01*
X190244Y202823D01*
X190165Y202802D01*
X190097Y202775D01*
X190042Y202742D01*
X190000Y202703D01*
X189969Y202658D01*
X189951Y202607D01*
X189945Y202550D01*
Y203750D01*
X189951Y203693D01*
D02*
G37*
G36*
X203390Y198700D02*
X203384Y198757D01*
X203366Y198808D01*
X203335Y198853D01*
X203292Y198892D01*
X203237Y198925D01*
X203170Y198952D01*
X203090Y198973D01*
X202998Y198988D01*
X202962Y198991D01*
X202934Y198989D01*
X202844Y198975D01*
X202766Y198955D01*
X202700Y198930D01*
X202646Y198900D01*
X202604Y198863D01*
X202574Y198822D01*
X202556Y198774D01*
X202550Y198722D01*
Y199879D01*
X202556Y199826D01*
X202574Y199778D01*
X202604Y199736D01*
X202646Y199700D01*
X202700Y199670D01*
X202766Y199645D01*
X202844Y199625D01*
X202934Y199611D01*
X202962Y199609D01*
X202998Y199612D01*
X203090Y199627D01*
X203170Y199648D01*
X203237Y199675D01*
X203292Y199708D01*
X203335Y199747D01*
X203366Y199792D01*
X203384Y199843D01*
X203390Y199900D01*
Y198700D01*
D02*
G37*
G36*
X204327Y198542D02*
X204237Y198629D01*
X204147Y198707D01*
X204056Y198776D01*
X203965Y198835D01*
X203873Y198886D01*
X203781Y198927D01*
X203689Y198959D01*
X203596Y198982D01*
X203503Y198995D01*
X203410Y199000D01*
Y199600D01*
X203503Y199605D01*
X203596Y199618D01*
X203689Y199641D01*
X203781Y199673D01*
X203873Y199715D01*
X203965Y199765D01*
X204056Y199824D01*
X204147Y199893D01*
X204237Y199971D01*
X204327Y200058D01*
Y198542D01*
D02*
G37*
G36*
X205771Y198437D02*
X205693Y198346D01*
X205624Y198256D01*
X205565Y198165D01*
X205515Y198073D01*
X205473Y197981D01*
X205441Y197889D01*
X205418Y197796D01*
X205405Y197704D01*
X205400Y197610D01*
X204800D01*
X204795Y197704D01*
X204782Y197796D01*
X204759Y197889D01*
X204727Y197981D01*
X204685Y198073D01*
X204635Y198165D01*
X204576Y198256D01*
X204507Y198346D01*
X204429Y198437D01*
X204342Y198527D01*
X205858D01*
X205771Y198437D01*
D02*
G37*
G36*
X189950Y197528D02*
X189967Y197484D01*
X189996Y197445D01*
X190036Y197411D01*
X190088Y197382D01*
X190151Y197359D01*
X190225Y197341D01*
X190311Y197327D01*
X190408Y197320D01*
X190517Y197317D01*
Y196717D01*
X190408Y196714D01*
X190311Y196707D01*
X190225Y196694D01*
X190151Y196675D01*
X190088Y196652D01*
X190036Y196623D01*
X189996Y196589D01*
X189967Y196550D01*
X189950Y196506D01*
X189945Y196457D01*
Y196706D01*
X189226Y196659D01*
X189073Y196634D01*
X188943Y196604D01*
X188837Y196569D01*
X188755Y196530D01*
X188697Y196486D01*
Y197548D01*
X188755Y197504D01*
X188837Y197465D01*
X188943Y197430D01*
X189073Y197400D01*
X189226Y197375D01*
X189606Y197338D01*
X189945Y197325D01*
Y197578D01*
X189950Y197528D01*
D02*
G37*
G36*
X275826Y198182D02*
X275705Y198137D01*
X275598Y198062D01*
X275506Y197957D01*
X275428Y197822D01*
X275364Y197657D01*
X275314Y197462D01*
X275278Y197237D01*
X275257Y196982D01*
X275250Y196697D01*
X273750D01*
X273745Y196982D01*
X273703Y197462D01*
X273667Y197657D01*
X273620Y197822D01*
X273562Y197957D01*
X273495Y198062D01*
X273416Y198137D01*
X273328Y198182D01*
X273229Y198197D01*
X275961D01*
X275826Y198182D01*
D02*
G37*
G36*
X205983Y197256D02*
X205913Y197179D01*
X205858Y197103D01*
X205816Y197028D01*
X205788Y196953D01*
X205774Y196879D01*
X205775Y196804D01*
X205789Y196731D01*
X205817Y196658D01*
X205859Y196585D01*
X205915Y196513D01*
X205467Y196573D01*
X204342D01*
X204429Y196663D01*
X204507Y196754D01*
X204576Y196844D01*
X204635Y196935D01*
X204685Y197027D01*
X204727Y197119D01*
X204759Y197211D01*
X204782Y197303D01*
X204795Y197397D01*
X204800Y197490D01*
X205367D01*
X205430Y197551D01*
X205983Y197256D01*
D02*
G37*
G36*
X203390Y194763D02*
X203384Y194820D01*
X203366Y194871D01*
X203335Y194916D01*
X203292Y194955D01*
X203237Y194988D01*
X203170Y195015D01*
X203090Y195036D01*
X202998Y195051D01*
X202962Y195054D01*
X202934Y195052D01*
X202844Y195038D01*
X202766Y195018D01*
X202700Y194993D01*
X202646Y194963D01*
X202604Y194927D01*
X202574Y194885D01*
X202556Y194837D01*
X202550Y194784D01*
Y195941D01*
X202556Y195889D01*
X202574Y195841D01*
X202604Y195800D01*
X202646Y195763D01*
X202700Y195733D01*
X202766Y195708D01*
X202844Y195688D01*
X202934Y195674D01*
X202962Y195672D01*
X202998Y195675D01*
X203090Y195690D01*
X203170Y195711D01*
X203237Y195738D01*
X203292Y195771D01*
X203335Y195810D01*
X203366Y195855D01*
X203384Y195906D01*
X203390Y195963D01*
Y194763D01*
D02*
G37*
G36*
X204236Y195148D02*
X204205Y195185D01*
X204172Y195213D01*
X204139Y195234D01*
X204104Y195247D01*
X204069Y195251D01*
X204033Y195247D01*
X203995Y195236D01*
X203957Y195215D01*
X203918Y195187D01*
X203878Y195151D01*
X203645Y195766D01*
X204147Y196313D01*
X204236Y195148D01*
D02*
G37*
G36*
X195888Y196464D02*
X195812Y196377D01*
X195745Y196278D01*
X195686Y196166D01*
X195634Y196040D01*
X195592Y195902D01*
X195557Y195751D01*
X195530Y195586D01*
X195512Y195409D01*
X195500Y195015D01*
X194015Y196500D01*
X194219Y196502D01*
X194586Y196530D01*
X194751Y196557D01*
X194902Y196592D01*
X195041Y196634D01*
X195166Y196686D01*
X195278Y196745D01*
X195377Y196812D01*
X195464Y196888D01*
X195888Y196464D01*
D02*
G37*
G36*
X241133Y179749D02*
X241178Y179644D01*
X241253Y179552D01*
X241358Y179472D01*
X241493Y179404D01*
X241658Y179349D01*
X241853Y179305D01*
X242078Y179275D01*
X242333Y179256D01*
X242618Y179250D01*
Y177750D01*
X242333Y177744D01*
X241853Y177694D01*
X241658Y177651D01*
X241493Y177596D01*
X241358Y177528D01*
X241253Y177448D01*
X241178Y177356D01*
X241133Y177251D01*
X241118Y177134D01*
Y179866D01*
X241133Y179749D01*
D02*
G37*
G36*
X235237Y177134D02*
X235222Y177251D01*
X235177Y177356D01*
X235102Y177448D01*
X234997Y177528D01*
X234862Y177596D01*
X234697Y177651D01*
X234502Y177694D01*
X234277Y177725D01*
X234022Y177744D01*
X233737Y177750D01*
Y179250D01*
X234022Y179256D01*
X234502Y179305D01*
X234697Y179349D01*
X234862Y179404D01*
X234997Y179472D01*
X235102Y179552D01*
X235177Y179644D01*
X235222Y179749D01*
X235237Y179866D01*
Y177134D01*
D02*
G37*
G36*
X230460Y179204D02*
X230505Y179077D01*
X230581Y178964D01*
X230686Y178867D01*
X230822Y178784D01*
X230989Y178717D01*
X231185Y178664D01*
X231412Y178627D01*
X231669Y178604D01*
X231957Y178596D01*
Y177096D01*
X231669Y177089D01*
X231412Y177067D01*
X231185Y177029D01*
X230989Y176977D01*
X230822Y176909D01*
X230686Y176827D01*
X230581Y176729D01*
X230505Y176617D01*
X230460Y176489D01*
X230445Y176347D01*
Y179347D01*
X230460Y179204D01*
D02*
G37*
G36*
X228147Y170800D02*
X228127Y170810D01*
X228088Y170819D01*
X228030Y170827D01*
X227858Y170840D01*
X227100Y170853D01*
Y171453D01*
X228147Y171507D01*
Y170800D01*
D02*
G37*
G36*
X226555Y170554D02*
X226549Y170610D01*
X226531Y170662D01*
X226500Y170706D01*
X226458Y170746D01*
X226402Y170779D01*
X226335Y170806D01*
X226256Y170826D01*
X226164Y170842D01*
X226060Y170851D01*
X225943Y170853D01*
Y171453D01*
X226060Y171457D01*
X226164Y171466D01*
X226256Y171481D01*
X226335Y171502D01*
X226402Y171528D01*
X226458Y171562D01*
X226500Y171600D01*
X226531Y171646D01*
X226549Y171697D01*
X226555Y171754D01*
Y170554D01*
D02*
G37*
G36*
X241133Y171087D02*
X241178Y170983D01*
X241253Y170890D01*
X241358Y170810D01*
X241493Y170742D01*
X241658Y170687D01*
X241853Y170644D01*
X242078Y170613D01*
X242333Y170595D01*
X242618Y170588D01*
Y169088D01*
X242333Y169082D01*
X241853Y169033D01*
X241658Y168990D01*
X241493Y168934D01*
X241358Y168867D01*
X241253Y168787D01*
X241178Y168694D01*
X241133Y168589D01*
X241118Y168472D01*
Y171204D01*
X241133Y171087D01*
D02*
G37*
G36*
X229405Y169396D02*
X229320Y169365D01*
X229245Y169315D01*
X229180Y169244D01*
X229125Y169153D01*
X229080Y169042D01*
X229045Y168910D01*
X229020Y168758D01*
X229005Y168586D01*
X229000Y168394D01*
X228000D01*
X227995Y168586D01*
X227980Y168758D01*
X227955Y168910D01*
X227920Y169042D01*
X227875Y169153D01*
X227820Y169244D01*
X227755Y169315D01*
X227680Y169365D01*
X227595Y169396D01*
X227500Y169406D01*
X229500D01*
X229405Y169396D01*
D02*
G37*
G36*
X235249Y164508D02*
X235239Y164603D01*
X235208Y164688D01*
X235157Y164763D01*
X235087Y164828D01*
X234996Y164883D01*
X234884Y164928D01*
X234753Y164963D01*
X234601Y164988D01*
X234429Y165003D01*
X234237Y165008D01*
Y166008D01*
X234429Y166013D01*
X234601Y166028D01*
X234753Y166053D01*
X234884Y166088D01*
X234996Y166133D01*
X235087Y166188D01*
X235157Y166253D01*
X235208Y166328D01*
X235239Y166413D01*
X235249Y166508D01*
Y164508D01*
D02*
G37*
G36*
X281215Y162250D02*
X281017Y162440D01*
X280817Y162610D01*
X280614Y162760D01*
X280408Y162890D01*
X280200Y163000D01*
X279988Y163090D01*
X279774Y163160D01*
X279557Y163210D01*
X279338Y163240D01*
X279115Y163250D01*
Y164750D01*
X279338Y164760D01*
X279557Y164790D01*
X279774Y164840D01*
X279988Y164910D01*
X280200Y165000D01*
X280408Y165110D01*
X280614Y165240D01*
X280817Y165390D01*
X281017Y165560D01*
X281215Y165750D01*
Y162250D01*
D02*
G37*
G36*
X284749Y162182D02*
X284593Y161962D01*
X284456Y161742D01*
X284336Y161522D01*
X284236Y161303D01*
X284153Y161084D01*
X284089Y160865D01*
X284043Y160647D01*
X284015Y160429D01*
X284007Y160242D01*
X284012Y160018D01*
X284062Y159538D01*
X284105Y159343D01*
X284160Y159178D01*
X284228Y159043D01*
X284308Y158938D01*
X284400Y158863D01*
X284505Y158818D01*
X284622Y158803D01*
X281890D01*
X282007Y158818D01*
X282112Y158863D01*
X282204Y158938D01*
X282284Y159043D01*
X282352Y159178D01*
X282408Y159343D01*
X282451Y159538D01*
X282482Y159763D01*
X282500Y160018D01*
X282502Y160129D01*
X282495Y160276D01*
X282464Y160496D01*
X282410Y160711D01*
X282336Y160919D01*
X282240Y161122D01*
X282123Y161319D01*
X281985Y161509D01*
X281825Y161694D01*
X281644Y161872D01*
X281442Y162045D01*
X284924Y162403D01*
X284749Y162182D01*
D02*
G37*
G36*
X279468Y152927D02*
X279417Y152909D01*
X279372Y152878D01*
X279333Y152835D01*
X279300Y152780D01*
X279273Y152713D01*
X279252Y152633D01*
X279237Y152541D01*
X279228Y152437D01*
X279225Y152321D01*
X278625D01*
X278622Y152437D01*
X278613Y152541D01*
X278598Y152633D01*
X278577Y152713D01*
X278550Y152780D01*
X278517Y152835D01*
X278478Y152878D01*
X278433Y152909D01*
X278382Y152927D01*
X278325Y152933D01*
X279525D01*
X279468Y152927D01*
D02*
G37*
G36*
X249043D02*
X248992Y152909D01*
X248947Y152878D01*
X248908Y152835D01*
X248875Y152780D01*
X248848Y152713D01*
X248827Y152633D01*
X248812Y152541D01*
X248803Y152437D01*
X248800Y152321D01*
X248200D01*
X248197Y152437D01*
X248188Y152541D01*
X248173Y152633D01*
X248152Y152713D01*
X248125Y152780D01*
X248092Y152835D01*
X248053Y152878D01*
X248008Y152909D01*
X247957Y152927D01*
X247900Y152933D01*
X249100D01*
X249043Y152927D01*
D02*
G37*
G36*
X245043D02*
X244992Y152909D01*
X244947Y152878D01*
X244908Y152835D01*
X244875Y152780D01*
X244848Y152713D01*
X244827Y152633D01*
X244812Y152541D01*
X244803Y152437D01*
X244800Y152321D01*
X244200D01*
X244197Y152437D01*
X244188Y152541D01*
X244173Y152633D01*
X244152Y152713D01*
X244125Y152780D01*
X244092Y152835D01*
X244053Y152878D01*
X244008Y152909D01*
X243957Y152927D01*
X243900Y152933D01*
X245100D01*
X245043Y152927D01*
D02*
G37*
G36*
X321907Y152906D02*
X321802Y152861D01*
X321709Y152786D01*
X321629Y152681D01*
X321562Y152546D01*
X321506Y152381D01*
X321463Y152186D01*
X321432Y151961D01*
X321414Y151706D01*
X321408Y151421D01*
X319908D01*
X319901Y151706D01*
X319852Y152186D01*
X319809Y152381D01*
X319754Y152546D01*
X319686Y152681D01*
X319606Y152786D01*
X319514Y152861D01*
X319409Y152906D01*
X319292Y152921D01*
X322024D01*
X321907Y152906D01*
D02*
G37*
G36*
X317576D02*
X317471Y152861D01*
X317379Y152786D01*
X317299Y152681D01*
X317231Y152546D01*
X317176Y152381D01*
X317132Y152186D01*
X317102Y151961D01*
X317083Y151706D01*
X317077Y151421D01*
X315577D01*
X315571Y151706D01*
X315522Y152186D01*
X315478Y152381D01*
X315423Y152546D01*
X315355Y152681D01*
X315275Y152786D01*
X315183Y152861D01*
X315078Y152906D01*
X314961Y152921D01*
X317693D01*
X317576Y152906D01*
D02*
G37*
G36*
X244808Y151961D02*
X244830Y151843D01*
X244867Y151722D01*
X244920Y151597D01*
X244988Y151469D01*
X245070Y151337D01*
X245167Y151202D01*
X245280Y151064D01*
X245550Y150777D01*
X243450D01*
X243593Y150922D01*
X243832Y151202D01*
X243930Y151337D01*
X244012Y151469D01*
X244080Y151597D01*
X244132Y151722D01*
X244170Y151843D01*
X244193Y151961D01*
X244200Y152075D01*
X244800D01*
X244808Y151961D01*
D02*
G37*
G36*
X298142Y149747D02*
X298179Y149299D01*
X298201Y149190D01*
X298228Y149100D01*
X298260Y149030D01*
X298297Y148981D01*
X298339Y148951D01*
X298385Y148941D01*
X296394D01*
X296441Y148951D01*
X296483Y148981D01*
X296519Y149030D01*
X296551Y149100D01*
X296578Y149190D01*
X296601Y149299D01*
X296618Y149429D01*
X296637Y149747D01*
X296640Y149936D01*
X298140D01*
X298142Y149747D01*
D02*
G37*
G36*
X239216Y148407D02*
X239497Y148168D01*
X239632Y148070D01*
X239763Y147987D01*
X239892Y147920D01*
X240016Y147868D01*
X240138Y147830D01*
X240255Y147808D01*
X240370Y147800D01*
Y147200D01*
X240255Y147193D01*
X240138Y147170D01*
X240016Y147133D01*
X239892Y147080D01*
X239763Y147012D01*
X239632Y146930D01*
X239497Y146833D01*
X239358Y146720D01*
X239071Y146450D01*
Y148550D01*
X239216Y148407D01*
D02*
G37*
G36*
X255303Y146440D02*
X255312Y146336D01*
X255327Y146244D01*
X255348Y146165D01*
X255375Y146098D01*
X255408Y146042D01*
X255447Y146000D01*
X255492Y145969D01*
X255543Y145951D01*
X255600Y145944D01*
X254400D01*
X254457Y145951D01*
X254508Y145969D01*
X254553Y146000D01*
X254592Y146042D01*
X254625Y146098D01*
X254652Y146165D01*
X254673Y146244D01*
X254688Y146336D01*
X254697Y146440D01*
X254700Y146556D01*
X255300D01*
X255303Y146440D01*
D02*
G37*
G36*
X280681Y145400D02*
X280675Y145457D01*
X280657Y145508D01*
X280626Y145553D01*
X280584Y145592D01*
X280528Y145625D01*
X280461Y145652D01*
X280382Y145673D01*
X280290Y145688D01*
X280186Y145697D01*
X280069Y145700D01*
Y146300D01*
X280186Y146303D01*
X280290Y146312D01*
X280382Y146327D01*
X280461Y146348D01*
X280528Y146375D01*
X280584Y146408D01*
X280626Y146447D01*
X280657Y146492D01*
X280675Y146543D01*
X280681Y146600D01*
Y145400D01*
D02*
G37*
G36*
X317092Y147965D02*
X317137Y147710D01*
X317212Y147485D01*
X317317Y147290D01*
X317452Y147125D01*
X317617Y146990D01*
X317812Y146885D01*
X318037Y146810D01*
X318292Y146765D01*
X318577Y146750D01*
X316327Y145250D01*
X314077Y146750D01*
X314362Y146765D01*
X314617Y146810D01*
X314842Y146885D01*
X315037Y146990D01*
X315202Y147125D01*
X315337Y147290D01*
X315442Y147485D01*
X315517Y147710D01*
X315562Y147965D01*
X315577Y148250D01*
X317077D01*
X317092Y147965D01*
D02*
G37*
G36*
X252894Y143900D02*
X252888Y143957D01*
X252870Y144008D01*
X252840Y144053D01*
X252798Y144092D01*
X252744Y144125D01*
X252678Y144152D01*
X252600Y144173D01*
X252510Y144188D01*
X252408Y144197D01*
X252294Y144200D01*
Y144800D01*
X252408Y144803D01*
X252510Y144812D01*
X252600Y144827D01*
X252678Y144848D01*
X252744Y144875D01*
X252798Y144908D01*
X252840Y144947D01*
X252870Y144992D01*
X252888Y145043D01*
X252894Y145100D01*
Y143900D01*
D02*
G37*
G36*
X263100Y144543D02*
X263119Y144492D01*
X263149Y144447D01*
X263192Y144408D01*
X263247Y144375D01*
X263314Y144348D01*
X263394Y144327D01*
X263486Y144312D01*
X263590Y144303D01*
X263706Y144300D01*
Y143700D01*
X263590Y143697D01*
X263486Y143688D01*
X263394Y143673D01*
X263314Y143652D01*
X263247Y143625D01*
X263192Y143592D01*
X263149Y143553D01*
X263119Y143508D01*
X263100Y143457D01*
X263094Y143400D01*
Y144600D01*
X263100Y144543D01*
D02*
G37*
G36*
X232612D02*
X232630Y144492D01*
X232660Y144447D01*
X232702Y144408D01*
X232756Y144375D01*
X232822Y144348D01*
X232900Y144327D01*
X232990Y144312D01*
X233092Y144303D01*
X233206Y144300D01*
Y143700D01*
X233092Y143697D01*
X232990Y143688D01*
X232900Y143673D01*
X232822Y143652D01*
X232756Y143625D01*
X232702Y143592D01*
X232660Y143553D01*
X232630Y143508D01*
X232612Y143457D01*
X232606Y143400D01*
Y144600D01*
X232612Y144543D01*
D02*
G37*
G36*
X222406Y143400D02*
X222400Y143457D01*
X222381Y143508D01*
X222351Y143553D01*
X222308Y143592D01*
X222253Y143625D01*
X222186Y143652D01*
X222106Y143673D01*
X222014Y143688D01*
X221910Y143697D01*
X221794Y143700D01*
Y144300D01*
X221910Y144303D01*
X222014Y144312D01*
X222106Y144327D01*
X222186Y144348D01*
X222253Y144375D01*
X222308Y144408D01*
X222351Y144447D01*
X222381Y144492D01*
X222400Y144543D01*
X222406Y144600D01*
Y143400D01*
D02*
G37*
G36*
X305167Y138606D02*
X303710Y137613D01*
X303571Y139550D01*
X303617Y139516D01*
X303670Y139499D01*
X303732Y139498D01*
X303802Y139513D01*
X303880Y139546D01*
X303967Y139594D01*
X304061Y139660D01*
X304164Y139741D01*
X304275Y139840D01*
X304394Y139954D01*
X305167Y138606D01*
D02*
G37*
G36*
X251123Y139812D02*
X251222Y139745D01*
X251334Y139685D01*
X251460Y139635D01*
X251598Y139592D01*
X251749Y139557D01*
X251914Y139530D01*
X252091Y139512D01*
X252485Y139500D01*
X251000Y138015D01*
X250998Y138218D01*
X250970Y138586D01*
X250943Y138751D01*
X250908Y138902D01*
X250866Y139041D01*
X250814Y139166D01*
X250755Y139278D01*
X250688Y139377D01*
X250612Y139463D01*
X251037Y139888D01*
X251123Y139812D01*
D02*
G37*
G36*
X203163Y138783D02*
X203182Y138732D01*
X203212Y138687D01*
X203255Y138648D01*
X203310Y138615D01*
X203377Y138588D01*
X203457Y138567D01*
X203549Y138552D01*
X203653Y138543D01*
X203769Y138540D01*
Y137940D01*
X203653Y137937D01*
X203549Y137928D01*
X203457Y137913D01*
X203377Y137892D01*
X203310Y137865D01*
X203255Y137832D01*
X203212Y137793D01*
X203182Y137748D01*
X203163Y137697D01*
X203157Y137640D01*
Y138840D01*
X203163Y138783D01*
D02*
G37*
G36*
X232612Y137543D02*
X232630Y137492D01*
X232660Y137447D01*
X232702Y137408D01*
X232756Y137375D01*
X232822Y137348D01*
X232900Y137327D01*
X232990Y137312D01*
X233092Y137303D01*
X233206Y137300D01*
Y136700D01*
X233092Y136697D01*
X232990Y136688D01*
X232900Y136673D01*
X232822Y136652D01*
X232756Y136625D01*
X232702Y136592D01*
X232660Y136553D01*
X232630Y136508D01*
X232612Y136457D01*
X232606Y136400D01*
Y137600D01*
X232612Y137543D01*
D02*
G37*
G36*
X222406Y136400D02*
X222400Y136457D01*
X222381Y136508D01*
X222351Y136553D01*
X222308Y136592D01*
X222253Y136625D01*
X222186Y136652D01*
X222106Y136673D01*
X222014Y136688D01*
X221910Y136697D01*
X221794Y136700D01*
Y137300D01*
X221910Y137303D01*
X222014Y137312D01*
X222106Y137327D01*
X222186Y137348D01*
X222253Y137375D01*
X222308Y137408D01*
X222351Y137447D01*
X222381Y137492D01*
X222400Y137543D01*
X222406Y137600D01*
Y136400D01*
D02*
G37*
G36*
X206803Y136904D02*
X206811Y136816D01*
X206825Y136735D01*
X206845Y136662D01*
X206871Y136596D01*
X206902Y136538D01*
X206939Y136488D01*
X206981Y136445D01*
X207030Y136410D01*
X207083Y136382D01*
X205917D01*
X205971Y136410D01*
X206019Y136445D01*
X206061Y136488D01*
X206098Y136538D01*
X206129Y136596D01*
X206155Y136662D01*
X206174Y136735D01*
X206189Y136816D01*
X206197Y136904D01*
X206200Y137000D01*
X206800D01*
X206803Y136904D01*
D02*
G37*
G36*
X235929Y135950D02*
X235784Y136092D01*
X235503Y136332D01*
X235368Y136430D01*
X235237Y136512D01*
X235108Y136580D01*
X234984Y136633D01*
X234862Y136670D01*
X234745Y136693D01*
X234630Y136700D01*
Y137300D01*
X234745Y137308D01*
X234862Y137330D01*
X234984Y137367D01*
X235108Y137420D01*
X235237Y137487D01*
X235368Y137570D01*
X235503Y137668D01*
X235642Y137780D01*
X235929Y138050D01*
Y135950D01*
D02*
G37*
G36*
X271024Y137425D02*
X271202Y137322D01*
X271418Y137231D01*
X271671Y137153D01*
X271961Y137088D01*
X272289Y137035D01*
X273055Y136968D01*
X273494Y136954D01*
X273971Y136953D01*
X271047Y134029D01*
X271046Y134506D01*
X270965Y135711D01*
X270912Y136039D01*
X270847Y136329D01*
X270769Y136582D01*
X270678Y136798D01*
X270574Y136976D01*
X270458Y137118D01*
X270882Y137542D01*
X271024Y137425D01*
D02*
G37*
G36*
X197543Y133927D02*
X197492Y133909D01*
X197447Y133878D01*
X197408Y133835D01*
X197375Y133780D01*
X197348Y133713D01*
X197327Y133634D01*
X197312Y133542D01*
X197303Y133438D01*
X197300Y133321D01*
X196700D01*
X196697Y133438D01*
X196688Y133542D01*
X196673Y133634D01*
X196652Y133713D01*
X196625Y133780D01*
X196592Y133835D01*
X196553Y133878D01*
X196508Y133909D01*
X196457Y133927D01*
X196400Y133933D01*
X197600D01*
X197543Y133927D01*
D02*
G37*
G36*
X192543D02*
X192492Y133909D01*
X192447Y133878D01*
X192408Y133835D01*
X192375Y133780D01*
X192348Y133713D01*
X192327Y133634D01*
X192312Y133542D01*
X192303Y133438D01*
X192300Y133321D01*
X191700D01*
X191697Y133438D01*
X191688Y133542D01*
X191673Y133634D01*
X191652Y133713D01*
X191625Y133780D01*
X191592Y133835D01*
X191553Y133878D01*
X191508Y133909D01*
X191457Y133927D01*
X191400Y133933D01*
X192600D01*
X192543Y133927D01*
D02*
G37*
G36*
X286366Y135817D02*
X286623Y135593D01*
X286877Y135395D01*
X287131Y135224D01*
X287384Y135079D01*
X287635Y134961D01*
X287885Y134869D01*
X288134Y134803D01*
X288381Y134763D01*
X288628Y134750D01*
Y133250D01*
X288381Y133237D01*
X288134Y133197D01*
X287885Y133132D01*
X287635Y133039D01*
X287384Y132921D01*
X287131Y132776D01*
X286877Y132605D01*
X286623Y132407D01*
X286366Y132183D01*
X286109Y131933D01*
Y136067D01*
X286366Y135817D01*
D02*
G37*
G36*
X222406Y129900D02*
X222400Y129957D01*
X222381Y130008D01*
X222351Y130053D01*
X222308Y130092D01*
X222253Y130125D01*
X222186Y130152D01*
X222106Y130173D01*
X222014Y130188D01*
X221910Y130197D01*
X221794Y130200D01*
Y130800D01*
X221910Y130803D01*
X222014Y130812D01*
X222106Y130827D01*
X222186Y130848D01*
X222253Y130875D01*
X222308Y130908D01*
X222351Y130947D01*
X222381Y130992D01*
X222400Y131043D01*
X222406Y131100D01*
Y129900D01*
D02*
G37*
G36*
X218900Y130200D02*
X218786Y130194D01*
X218684Y130176D01*
X218594Y130146D01*
X218516Y130104D01*
X218450Y130050D01*
X218396Y129984D01*
X218354Y129906D01*
X218324Y129816D01*
X218306Y129714D01*
X218300Y129600D01*
X217700D01*
X217694Y129714D01*
X217676Y129816D01*
X217646Y129906D01*
X217604Y129984D01*
X217550Y130050D01*
X217484Y130104D01*
X217406Y130146D01*
X217316Y130176D01*
X217214Y130194D01*
X217100Y130200D01*
X218000Y130800D01*
X218900Y130200D01*
D02*
G37*
G36*
X232612Y130043D02*
X232630Y129992D01*
X232660Y129947D01*
X232702Y129908D01*
X232756Y129875D01*
X232822Y129848D01*
X232900Y129827D01*
X232990Y129812D01*
X233092Y129803D01*
X233206Y129800D01*
Y129200D01*
X233092Y129197D01*
X232990Y129188D01*
X232900Y129173D01*
X232822Y129152D01*
X232756Y129125D01*
X232702Y129092D01*
X232660Y129053D01*
X232630Y129008D01*
X232612Y128957D01*
X232606Y128900D01*
Y130100D01*
X232612Y130043D01*
D02*
G37*
G36*
X247929Y128450D02*
X247783Y128593D01*
X247503Y128832D01*
X247368Y128930D01*
X247237Y129013D01*
X247109Y129080D01*
X246984Y129132D01*
X246863Y129170D01*
X246745Y129192D01*
X246630Y129200D01*
Y129800D01*
X246745Y129807D01*
X246863Y129830D01*
X246984Y129867D01*
X247109Y129920D01*
X247237Y129988D01*
X247368Y130070D01*
X247503Y130167D01*
X247642Y130280D01*
X247929Y130550D01*
Y128450D01*
D02*
G37*
G36*
X284303Y127425D02*
X284312Y127320D01*
X284327Y127229D01*
X284348Y127149D01*
X284375Y127082D01*
X284408Y127027D01*
X284447Y126984D01*
X284492Y126953D01*
X284543Y126935D01*
X284600Y126929D01*
X283400D01*
X283457Y126935D01*
X283508Y126953D01*
X283553Y126984D01*
X283592Y127027D01*
X283625Y127082D01*
X283652Y127149D01*
X283673Y127229D01*
X283688Y127320D01*
X283697Y127425D01*
X283700Y127541D01*
X284300D01*
X284303Y127425D01*
D02*
G37*
G36*
X232612Y123543D02*
X232630Y123492D01*
X232660Y123447D01*
X232702Y123408D01*
X232756Y123375D01*
X232822Y123348D01*
X232900Y123327D01*
X232990Y123312D01*
X233092Y123303D01*
X233206Y123300D01*
Y122700D01*
X233092Y122697D01*
X232990Y122688D01*
X232900Y122673D01*
X232822Y122652D01*
X232756Y122625D01*
X232702Y122592D01*
X232660Y122553D01*
X232630Y122508D01*
X232612Y122457D01*
X232606Y122400D01*
Y123600D01*
X232612Y123543D01*
D02*
G37*
G36*
X222406Y122400D02*
X222400Y122457D01*
X222381Y122508D01*
X222351Y122553D01*
X222308Y122592D01*
X222253Y122625D01*
X222186Y122652D01*
X222106Y122673D01*
X222014Y122688D01*
X221910Y122697D01*
X221794Y122700D01*
Y123300D01*
X221910Y123303D01*
X222014Y123312D01*
X222106Y123327D01*
X222186Y123348D01*
X222253Y123375D01*
X222308Y123408D01*
X222351Y123447D01*
X222381Y123492D01*
X222400Y123543D01*
X222406Y123600D01*
Y122400D01*
D02*
G37*
G36*
X219400Y122700D02*
X219286Y122694D01*
X219184Y122676D01*
X219094Y122646D01*
X219016Y122604D01*
X218950Y122550D01*
X218896Y122484D01*
X218854Y122406D01*
X218824Y122316D01*
X218806Y122214D01*
X218800Y122100D01*
X218200D01*
X218194Y122214D01*
X218176Y122316D01*
X218146Y122406D01*
X218104Y122484D01*
X218050Y122550D01*
X217984Y122604D01*
X217906Y122646D01*
X217816Y122676D01*
X217714Y122694D01*
X217600Y122700D01*
X218500Y123300D01*
X219400Y122700D01*
D02*
G37*
G36*
X243395Y121989D02*
X243233Y122124D01*
X242927Y122352D01*
X242782Y122444D01*
X242644Y122522D01*
X242511Y122586D01*
X242384Y122636D01*
X242262Y122672D01*
X242146Y122693D01*
X242037Y122700D01*
X241985Y123300D01*
X242103Y123308D01*
X242222Y123331D01*
X242343Y123370D01*
X242464Y123425D01*
X242587Y123495D01*
X242711Y123582D01*
X242837Y123683D01*
X242963Y123801D01*
X243091Y123933D01*
X243220Y124082D01*
X243395Y121989D01*
D02*
G37*
G36*
X273971Y121047D02*
X273494Y121046D01*
X272289Y120965D01*
X271961Y120912D01*
X271671Y120847D01*
X271418Y120769D01*
X271202Y120678D01*
X271024Y120574D01*
X270882Y120458D01*
X270458Y120882D01*
X270574Y121024D01*
X270678Y121202D01*
X270769Y121418D01*
X270847Y121671D01*
X270912Y121961D01*
X270965Y122289D01*
X271032Y123055D01*
X271046Y123494D01*
X271047Y123970D01*
X273971Y121047D01*
D02*
G37*
G36*
X208440Y118975D02*
X208525Y118833D01*
X208615Y118708D01*
X208710Y118600D01*
X208810Y118508D01*
X208916Y118433D01*
X209026Y118375D01*
X209141Y118333D01*
X209261Y118308D01*
X209387Y118300D01*
X209169Y117700D01*
X209083Y117694D01*
X208983Y117678D01*
X208868Y117651D01*
X208739Y117613D01*
X208437Y117503D01*
X208078Y117350D01*
X207660Y117153D01*
X208360Y119133D01*
X208440Y118975D01*
D02*
G37*
G36*
X193803Y117047D02*
X193327Y117046D01*
X192121Y116965D01*
X191794Y116912D01*
X191504Y116847D01*
X191251Y116769D01*
X191035Y116678D01*
X190856Y116575D01*
X190715Y116458D01*
X190291Y116882D01*
X190407Y117024D01*
X190511Y117202D01*
X190602Y117418D01*
X190680Y117671D01*
X190745Y117961D01*
X190798Y118289D01*
X190864Y119055D01*
X190878Y119494D01*
X190880Y119971D01*
X193803Y117047D01*
D02*
G37*
G36*
X257623Y117312D02*
X257722Y117245D01*
X257834Y117185D01*
X257960Y117134D01*
X258098Y117092D01*
X258249Y117057D01*
X258414Y117030D01*
X258591Y117012D01*
X258985Y117000D01*
X257500Y115515D01*
X257498Y115718D01*
X257470Y116086D01*
X257443Y116251D01*
X257408Y116402D01*
X257365Y116541D01*
X257314Y116666D01*
X257255Y116778D01*
X257188Y116877D01*
X257112Y116964D01*
X257537Y117388D01*
X257623Y117312D01*
D02*
G37*
D12*
X160000Y121500D02*
X160797D01*
X131500D02*
X160000D01*
X160797D02*
X161383Y122086D01*
Y131383D01*
X168215Y123285D02*
Y127934D01*
X172894Y120939D02*
X173833Y120000D01*
X170561Y120939D02*
X172894D01*
X168215Y123285D02*
X170561Y120939D01*
X167650Y128500D02*
X168215Y127934D01*
X130500Y248650D02*
X130850Y249000D01*
X130350Y248500D02*
X130500Y248650D01*
X125000Y230240D02*
X129740D01*
X121240D02*
X125000D01*
Y247914D01*
X125586Y248500D01*
X130350D01*
X131500Y190500D02*
X137150D01*
X167650Y128500D02*
X168000Y128850D01*
Y132000D01*
X167000Y138240D02*
X167005Y138235D01*
Y132995D02*
Y138235D01*
Y132995D02*
X168000Y132000D01*
X162000D02*
Y138240D01*
X161383Y131383D02*
X162000Y132000D01*
X137500Y187500D02*
Y190150D01*
X137000Y180760D02*
Y187000D01*
X137500Y187500D01*
X229327Y224173D02*
X229500Y224346D01*
X229153Y224000D02*
X229327Y224173D01*
X176396Y190455D02*
Y197400D01*
X112150Y174350D02*
X113500Y173000D01*
X112150Y174350D02*
Y188500D01*
X147000Y173586D02*
Y180760D01*
X146414Y173000D02*
X147000Y173586D01*
X113500Y173000D02*
X146414D01*
X145604Y225104D02*
X176396D01*
X145500Y225000D02*
X145604Y225104D01*
X156187Y231396D02*
X156291Y231500D01*
X156187Y225690D02*
Y231396D01*
X112346Y203000D02*
Y208846D01*
X112500Y209000D01*
X105654Y203000D02*
X106383Y202271D01*
Y200117D02*
Y202271D01*
Y200117D02*
X107000Y199500D01*
X109500D01*
X111075Y196772D02*
X112346Y195500D01*
X111075Y196772D02*
Y197925D01*
X109500Y199500D02*
X111075Y197925D01*
X112346Y188697D02*
Y195500D01*
X112150Y188500D02*
X112346Y188697D01*
X256350Y258858D02*
X287650D01*
X228500Y167000D02*
X229992Y165508D01*
X238177D01*
X228500Y167000D02*
Y171153D01*
X130850Y249000D02*
X145500D01*
X100086Y220000D02*
X106000Y225914D01*
X87000Y220000D02*
X100086D01*
X106000Y225914D02*
Y225914D01*
X106586Y226500D02*
X113760D01*
X106000Y225914D02*
X106586Y226500D01*
X82367Y215367D02*
X87000Y220000D01*
X82000Y211500D02*
X82367Y211867D01*
Y215367D01*
D14*
X147000Y138240D02*
Y150000D01*
X149500Y152500D02*
X209000D01*
X147000Y150000D02*
X149500Y152500D01*
X207051Y117000D02*
X208051Y118000D01*
X205100Y196797D02*
X206652Y198348D01*
X205100Y196797D02*
Y199300D01*
X203666Y195363D02*
X205100Y196797D01*
X160000Y116000D02*
X161000Y115000D01*
X160000Y116000D02*
Y121500D01*
X161000Y115000D02*
X188833D01*
X193833Y120000D01*
X249500Y141000D02*
X252500Y138000D01*
X233962Y144000D02*
X236962Y141000D01*
X249500D01*
X237000Y133000D02*
X253500D01*
X259500Y139000D02*
X269000D01*
X253500Y133000D02*
X259500Y139000D01*
X207000Y117051D02*
Y118500D01*
Y117051D02*
X207051Y117000D01*
X208051Y118000D02*
X256500D01*
X259000Y115500D01*
X230847Y123000D02*
X244500D01*
X244375Y123125D02*
X244500Y123000D01*
X230847Y144000D02*
X233962D01*
X249326Y149673D02*
X249326D01*
X249153Y149847D02*
X249326Y149673D01*
X248500Y155752D02*
X248610Y155862D01*
X248500Y152000D02*
Y155752D01*
X249153Y149847D02*
Y151347D01*
X248500Y152000D02*
X249153Y151347D01*
X244500Y149705D02*
Y155642D01*
X244280Y155862D02*
X244500Y155642D01*
X248610Y155862D02*
X249500Y154972D01*
X236500Y133500D02*
X237000Y133000D01*
X273834Y123834D02*
X274000Y124000D01*
X269500Y119500D02*
X273834Y123834D01*
X218851Y119500D02*
X269500D01*
X218500Y119852D02*
X218851Y119500D01*
X218500Y119852D02*
Y123000D01*
X273834Y134166D02*
X274000Y134000D01*
X269000Y139000D02*
X273834Y134166D01*
X283000Y129000D02*
X284000Y128000D01*
Y124000D02*
Y128000D01*
X257500Y129000D02*
X283000D01*
X255000Y126500D02*
X257500Y129000D01*
X229000Y231653D02*
X230000Y232653D01*
X230847Y137000D02*
X237000D01*
X229327Y217327D02*
Y224173D01*
X254000Y222500D02*
X257000D01*
X248500Y228000D02*
X254000Y222500D01*
X209500Y137500D02*
X213500Y133500D01*
X209500Y137500D02*
Y140500D01*
X213500Y133500D02*
X236500D01*
X204500Y145500D02*
X209500Y140500D01*
X205260Y138240D02*
X205498Y138002D01*
X205498D01*
X206500Y137000D01*
Y135000D02*
Y137000D01*
X202000Y138240D02*
X205260D01*
X204153Y171153D02*
X228500D01*
X192500Y159500D02*
X204153Y171153D01*
X167000Y159500D02*
X192500D01*
X212000Y138500D02*
X213500Y137000D01*
X224153D01*
X212000Y138500D02*
Y149500D01*
X152000Y138240D02*
Y147500D01*
X156861Y138101D02*
X157000Y138240D01*
X172000D02*
Y148000D01*
X157000Y191500D02*
X162500Y197000D01*
X162000Y180760D02*
Y189500D01*
X187000Y171500D02*
Y180760D01*
X155000Y131500D02*
X156861Y133361D01*
Y138101D01*
X152000Y192500D02*
X156000Y196500D01*
X157000Y180760D02*
Y191500D01*
X172000Y180760D02*
Y188000D01*
X155000Y127000D02*
Y131500D01*
X177000Y138240D02*
Y147500D01*
X152000Y180760D02*
Y192500D01*
X167000Y173500D02*
Y180760D01*
X169500Y190500D02*
X172000Y188000D01*
X182000Y171500D02*
Y180760D01*
X209000Y152500D02*
X212000Y149500D01*
X187352Y145500D02*
X204500D01*
X187000Y138240D02*
Y145149D01*
X187352Y145500D01*
X274000Y146000D02*
X283610D01*
X261347Y144000D02*
X272000D01*
X274000Y146000D01*
X255000Y144346D02*
Y148000D01*
X256500Y149500D02*
X276500D01*
X255000Y148000D02*
X256500Y149500D01*
X218352Y126500D02*
X255000D01*
X215000Y146500D02*
Y153000D01*
Y146500D02*
X217500Y144000D01*
X213000Y155000D02*
X215000Y153000D01*
X238000Y147500D02*
X241000D01*
X244000Y144500D01*
X223654Y130500D02*
X224153Y130000D01*
X218000Y130500D02*
X223654D01*
X198000D02*
X218000D01*
X197000Y131500D02*
Y138240D01*
Y131500D02*
X198000Y130500D01*
X218500Y123000D02*
X224153D01*
X200500D02*
X218500D01*
X192000Y131500D02*
Y138240D01*
Y131500D02*
X200500Y123000D01*
X244000Y144500D02*
X254153D01*
X272793Y123126D02*
X273667Y124000D01*
X218000Y126851D02*
X218352Y126500D01*
X218000Y126851D02*
Y130500D01*
X217500Y144000D02*
X224153D01*
X254153Y144500D02*
X254654Y144000D01*
X142000Y150000D02*
X147000Y155000D01*
X213000D01*
X231347Y129500D02*
X249000D01*
X230847Y130000D02*
X231347Y129500D01*
X142000Y138240D02*
Y150000D01*
X254654Y144000D02*
X255000Y144346D01*
X276500Y149500D02*
X278925Y151925D01*
X230000Y232653D02*
Y237000D01*
X229000Y231653D02*
X229153Y231500D01*
X256350Y258858D02*
X257500Y257709D01*
Y253500D02*
Y257709D01*
X256500Y252500D02*
X257500Y253500D01*
X254000Y252500D02*
X256500D01*
X181505Y237505D02*
X204847D01*
X181500Y237500D02*
X181505Y237505D01*
X204847Y232697D02*
Y237505D01*
Y232500D02*
Y232697D01*
X216000Y246000D02*
X219000Y243000D01*
X226500D02*
X228153Y244653D01*
X219000Y243000D02*
X226500D01*
X207500Y246000D02*
X216000D01*
X197352Y247500D02*
X216500D01*
X218000Y246000D02*
X224000D01*
X216500Y247500D02*
X218000Y246000D01*
X197000Y243583D02*
Y247148D01*
X197352Y247500D01*
X229653Y244653D02*
X230000Y245000D01*
X228153Y244653D02*
X229653D01*
X202953Y243535D02*
X202974Y243556D01*
X205056D01*
X207500Y246000D01*
X197000Y243583D02*
X197047Y243535D01*
X197000Y250500D02*
Y255417D01*
Y250500D02*
X198000Y249500D01*
X219000D01*
X197000Y255417D02*
X197047Y255465D01*
X202953D02*
X202988Y255500D01*
X207500D01*
X210000Y253000D02*
X214000D01*
X207500Y255500D02*
X210000Y253000D01*
X208500Y213000D02*
X212500Y217000D01*
X223541Y217041D02*
X224000Y217500D01*
X222489Y217041D02*
X223541D01*
X222448Y217000D02*
X222489Y217041D01*
X212500Y217000D02*
X222448D01*
X208500Y210000D02*
X212500Y214000D01*
X226000D02*
X229327Y217327D01*
X212500Y214000D02*
X226000D01*
X213000Y240791D02*
X213350Y241142D01*
X213000Y237000D02*
Y240791D01*
X208347Y236000D02*
X212148D01*
X212500Y236351D01*
Y236500D01*
X213000Y237000D01*
X204847Y232697D02*
X206318Y234169D01*
X206515D01*
X208347Y236000D01*
X204693Y226000D02*
X214000D01*
X204847Y220000D02*
X219000D01*
X204847Y213000D02*
X208500D01*
X188000Y210000D02*
X208500D01*
X209000Y208000D02*
X213500Y212500D01*
X183500Y208000D02*
X209000D01*
X213500Y212500D02*
X242000D01*
X173500Y210500D02*
X187500D01*
X188000Y210000D01*
X181500Y206000D02*
X183500Y208000D01*
X195500Y205000D02*
X197274Y203226D01*
X169500Y206000D02*
X181500D01*
X159500Y216000D02*
X169500Y206000D01*
X166199Y218500D02*
X188000D01*
X189500Y220000D01*
X170500Y215000D02*
X196153D01*
X198153Y213000D01*
X163000Y222000D02*
X182000D01*
X186000Y226000D01*
X194000Y201852D02*
Y202000D01*
X199932Y201500D02*
X200200Y201232D01*
X194351Y201500D02*
X199932D01*
X194000Y201852D02*
X194351Y201500D01*
X188000Y203150D02*
X192850D01*
X194000Y202000D01*
X205100Y195800D02*
Y196797D01*
X200200Y199300D02*
X205100D01*
X192800D02*
X200200D01*
Y195363D02*
X203666D01*
X189500Y220000D02*
X198153D01*
X186000Y226000D02*
X198000D01*
X77500Y154000D02*
X138500Y154000D01*
X76153Y155346D02*
Y163000D01*
Y155346D02*
X77500Y154000D01*
X76153Y170000D02*
Y177303D01*
X87500Y170000D02*
X177500D01*
X82846D02*
X87500D01*
X235846Y231500D02*
X242000D01*
X82846Y157653D02*
Y163000D01*
Y157653D02*
X83000Y157500D01*
X80000Y182639D02*
Y185551D01*
Y182639D02*
X82117Y180521D01*
X82500Y182500D02*
X87500D01*
X81575Y183425D02*
X82500Y182500D01*
X81575Y183425D02*
Y185551D01*
X74098Y182598D02*
X76402D01*
X74000Y182500D02*
X74098Y182598D01*
X76850Y183047D02*
Y185551D01*
X76402Y182598D02*
X76850Y183047D01*
X76153Y163000D02*
Y170000D01*
X179000Y171500D02*
X182000D01*
X177500Y170000D02*
X179000Y171500D01*
X187000Y166500D02*
Y171500D01*
X183500Y163000D02*
X187000Y166500D01*
X177000Y180760D02*
X177500Y181260D01*
Y187000D01*
X176517Y187983D02*
Y190333D01*
Y187983D02*
X177500Y187000D01*
X190517Y197017D02*
X192800Y199300D01*
X188167Y197017D02*
X190517D01*
X196332Y197332D02*
X200198D01*
X194000Y195000D02*
X196332Y197332D01*
X200074Y203226D02*
X200100Y203200D01*
X197274Y203226D02*
X200074D01*
X199951Y197579D02*
X200198Y197332D01*
X82846Y163000D02*
X183500D01*
X82117Y178032D02*
Y180521D01*
X76153Y177303D02*
X76500Y177650D01*
Y181000D01*
X78425Y182925D02*
Y185551D01*
X76500Y181000D02*
X78425Y182925D01*
X229500Y227000D02*
X230500Y228000D01*
X248500D01*
X229500Y224346D02*
Y227000D01*
X278925Y151925D02*
Y155862D01*
D17*
X200200Y195363D02*
D03*
X200198Y197332D02*
D03*
X200200Y199300D02*
D03*
Y201232D02*
D03*
D18*
X200100Y203200D02*
D03*
D19*
X207500Y199300D02*
D03*
D20*
X202000Y180760D02*
D03*
X197000D02*
D03*
X192000D02*
D03*
X187000D02*
D03*
X182000D02*
D03*
X177000D02*
D03*
X172000D02*
D03*
X167000D02*
D03*
X162000D02*
D03*
X157000D02*
D03*
X152000D02*
D03*
X147000D02*
D03*
X142000D02*
D03*
X137000D02*
D03*
X202000Y138240D02*
D03*
X197000D02*
D03*
X192000D02*
D03*
X187000D02*
D03*
X182000D02*
D03*
X177000D02*
D03*
X172000D02*
D03*
X167000D02*
D03*
X162000D02*
D03*
X157000D02*
D03*
X152000D02*
D03*
X147000D02*
D03*
X142000D02*
D03*
X137000D02*
D03*
D21*
X144150Y190500D02*
D03*
X137850D02*
D03*
X161350Y128500D02*
D03*
X167650D02*
D03*
X112150Y188500D02*
D03*
X105850D02*
D03*
X76350Y176500D02*
D03*
X82650D02*
D03*
X182650Y190500D02*
D03*
X176350D02*
D03*
D22*
X213350Y258858D02*
D03*
Y241142D02*
D03*
X244650D02*
D03*
Y258858D02*
D03*
X256350D02*
D03*
Y241142D02*
D03*
X287650D02*
D03*
Y258858D02*
D03*
D23*
X229153Y224000D02*
D03*
X235846D02*
D03*
X105654Y203000D02*
D03*
X112346D02*
D03*
X105654Y195500D02*
D03*
X112346D02*
D03*
X198153Y220000D02*
D03*
X204847D02*
D03*
X204847Y213000D02*
D03*
X198153D02*
D03*
X198000Y226000D02*
D03*
X204693D02*
D03*
X224153Y123000D02*
D03*
X230847D02*
D03*
X224153Y130000D02*
D03*
X230847D02*
D03*
X82846Y163000D02*
D03*
X76153D02*
D03*
X82846Y170000D02*
D03*
X76153D02*
D03*
X261347Y144000D02*
D03*
X254654D02*
D03*
X229153Y231500D02*
D03*
X235846D02*
D03*
X204847Y232500D02*
D03*
X198153D02*
D03*
X224153Y144000D02*
D03*
X230847D02*
D03*
X224153Y137000D02*
D03*
X230847D02*
D03*
D25*
X76850Y195000D02*
D03*
X78425D02*
D03*
X80000D02*
D03*
X81575D02*
D03*
Y185551D02*
D03*
X80000D02*
D03*
X78425D02*
D03*
X76850D02*
D03*
D26*
X130500Y248650D02*
D03*
Y242350D02*
D03*
X130000Y216150D02*
D03*
Y209850D02*
D03*
X188000Y203150D02*
D03*
Y196850D02*
D03*
D27*
X113760Y226500D02*
D03*
X121240Y230240D02*
D03*
Y222760D02*
D03*
X266240Y219000D02*
D03*
X258760Y215260D02*
D03*
Y222740D02*
D03*
D28*
X156291Y266000D02*
D03*
X167709D02*
D03*
X156291Y231500D02*
D03*
X167709D02*
D03*
X279291Y216500D02*
D03*
X290709D02*
D03*
D29*
X228500Y177847D02*
D03*
Y171153D02*
D03*
D30*
X197047Y255465D02*
D03*
X202953D02*
D03*
Y243535D02*
D03*
X197047D02*
D03*
D31*
X320658Y201106D02*
D03*
X316327D02*
D03*
X320658Y155862D02*
D03*
X316327D02*
D03*
X244280D02*
D03*
X248610D02*
D03*
X265933D02*
D03*
X261603D02*
D03*
X257272D02*
D03*
X252941Y201137D02*
D03*
X274595Y155862D02*
D03*
X270264D02*
D03*
X252941D02*
D03*
X265933Y201137D02*
D03*
X257272D02*
D03*
X283256D02*
D03*
X278925Y155862D02*
D03*
X287587Y201137D02*
D03*
X261603D02*
D03*
X278925D02*
D03*
X248610D02*
D03*
X244280D02*
D03*
X274595D02*
D03*
X270264D02*
D03*
X283256Y155862D02*
D03*
X291917Y201137D02*
D03*
D32*
X238177Y191492D02*
D03*
Y182830D02*
D03*
Y178500D02*
D03*
Y174169D02*
D03*
Y187161D02*
D03*
Y169838D02*
D03*
Y165508D02*
D03*
D33*
X297390Y146000D02*
D03*
X283610D02*
D03*
X284000Y124000D02*
D03*
X234000Y110500D02*
D03*
X193833Y110000D02*
D03*
X145500Y239000D02*
D03*
Y205000D02*
D03*
X92000Y211500D02*
D03*
D55*
X79213Y190276D02*
D03*
D56*
X290709Y216500D02*
X316327D01*
X303250Y137750D02*
X311500Y146000D01*
X168209Y231500D02*
X188500D01*
X167709Y232000D02*
X168209Y231500D01*
X236000Y258858D02*
X244650D01*
X213350D02*
X222000D01*
X166517Y202983D02*
X188000D01*
X130000Y216150D02*
X136850D01*
X137150Y190500D02*
X137500Y190150D01*
X284000Y134000D02*
X291500D01*
X293000Y104879D02*
Y132500D01*
X291500Y134000D02*
X293000Y132500D01*
X273914Y178500D02*
X274500D01*
Y201137D02*
Y207414D01*
Y179086D02*
Y201137D01*
Y178500D02*
X289500D01*
X292500Y154826D02*
Y175500D01*
X289500Y178500D02*
X292500Y175500D01*
X279083Y211583D02*
Y216500D01*
X278583Y216000D02*
X279083Y216500D01*
X274000Y216000D02*
X278583D01*
X266240Y219000D02*
X271000D01*
X274000Y216000D01*
X258520Y215500D02*
X258760Y215260D01*
X253000Y215500D02*
X258520D01*
X251000Y217500D02*
X253000Y215500D01*
X236000Y217500D02*
X251000D01*
X273914Y178500D02*
X274500Y179086D01*
X238178Y178500D02*
X273914D01*
X292121Y104000D02*
X293000Y104879D01*
X139500Y104000D02*
X292121D01*
X131500Y112000D02*
X139500Y104000D01*
X131500Y112000D02*
Y121500D01*
X128000Y138500D02*
X136740D01*
X137000Y138240D01*
X311500Y146000D02*
X316327D01*
X221500Y272000D02*
X236000D01*
X157793D02*
X221500D01*
X213350Y241142D02*
X244650D01*
X236000Y217500D02*
Y223260D01*
X156915Y266623D02*
Y271121D01*
X157793Y272000D01*
X156291Y266000D02*
X156915Y266623D01*
X175000Y266000D02*
X299330D01*
X167709Y266000D02*
X175000D01*
X175000Y266000D01*
X160500Y205000D02*
X165000Y200500D01*
X182650Y197000D02*
Y199914D01*
X165000Y200500D02*
X182064D01*
X182650Y199914D01*
Y190500D02*
Y197000D01*
X182799Y196850D02*
X188000D01*
X182650Y197000D02*
X182799Y196850D01*
X145500Y205000D02*
X160500D01*
X92586Y157464D02*
X126914D01*
X154500Y215000D02*
X166517Y202983D01*
X167709Y231500D02*
X168209D01*
X189500Y232500D02*
X198153D01*
X188500Y231500D02*
X189500Y232500D01*
X82650Y176500D02*
X92000D01*
X145500Y215000D02*
X154500D01*
X138000D02*
X145500D01*
X144000Y190650D02*
X144150Y190500D01*
X144000Y190650D02*
Y195500D01*
X145500Y197000D02*
Y205000D01*
X144000Y195500D02*
X145500Y197000D01*
X96418Y211500D02*
X98918Y214000D01*
X104500D01*
X122000D01*
X92000Y211500D02*
X96418D01*
X122000Y214000D02*
X126000Y210000D01*
X129850D01*
X130000Y209850D01*
X122000Y214000D02*
Y222079D01*
X121319Y222760D02*
X122000Y222079D01*
X121240Y222760D02*
X121319D01*
X92000Y188500D02*
X105850D01*
X105654Y188697D02*
Y195500D01*
Y188697D02*
X105850Y188500D01*
X188000Y196850D02*
X188167Y197017D01*
X316327Y146000D02*
Y155862D01*
Y146000D02*
X320072D01*
X320658Y146586D02*
Y155862D01*
X320072Y146000D02*
X320658Y146586D01*
X276500Y164000D02*
X283000D01*
X238177Y169838D02*
X270662D01*
X276500Y164000D01*
X292500Y154826D02*
X297390Y149936D01*
Y146000D02*
Y149936D01*
X278925Y201137D02*
X279229Y200833D01*
X283256Y155862D02*
Y163744D01*
X283000Y164000D02*
X283256Y163744D01*
X316327Y216500D02*
Y216500D01*
Y201106D02*
Y216500D01*
X316500D01*
Y216500D02*
X320072D01*
X320658Y201106D02*
Y215914D01*
X320072Y216500D02*
X320658Y215914D01*
X290500Y216709D02*
X290709Y216500D01*
X290500Y216709D02*
Y233000D01*
X287650Y235850D02*
Y241142D01*
Y235850D02*
X290500Y233000D01*
X256350Y241142D02*
X287650D01*
X228500Y177847D02*
X232846D01*
X233500Y178500D02*
X238177D01*
X232846Y177847D02*
X233500Y178500D01*
X238177Y178500D02*
X238178Y178500D01*
X279000Y207914D02*
X287001D01*
X287587Y201137D02*
Y207328D01*
X287001Y207914D02*
X287587Y207328D01*
X279000Y207914D02*
Y211500D01*
X279083Y211583D01*
X274500Y207414D02*
X275086Y208000D01*
X278914D02*
X279000Y207914D01*
X275086Y208000D02*
X278914D01*
X279000Y201212D02*
Y207914D01*
X290709Y209791D02*
Y216500D01*
X291917Y201137D02*
Y208582D01*
X290709Y209791D02*
X291917Y208582D01*
X278925Y201137D02*
X279000Y201212D01*
X238177Y178500D02*
X238177Y178500D01*
X167709Y232000D02*
Y239000D01*
X145500D02*
X167709D01*
X136850Y216150D02*
X138000Y215000D01*
X145500Y264000D02*
X148000Y266500D01*
X145500Y259000D02*
Y264000D01*
X155791Y266500D02*
X156291Y266000D01*
X148000Y266500D02*
X155791D01*
X137000Y239000D02*
X145500D01*
X130500Y242850D02*
X130733Y242617D01*
X133383D01*
X137000Y239000D01*
X141000Y205000D02*
X145500D01*
X136150Y209850D02*
X141000Y205000D01*
X130000Y209850D02*
X136150D01*
D57*
X284000Y134000D02*
D03*
X274000Y124000D02*
D03*
Y134000D02*
D03*
X264000Y124000D02*
D03*
Y134000D02*
D03*
X284000Y110500D02*
D03*
X274000D02*
D03*
X264000D02*
D03*
X254000D02*
D03*
X244000D02*
D03*
X193833Y120000D02*
D03*
X183833Y110000D02*
D03*
Y120000D02*
D03*
X173833Y110000D02*
D03*
Y120000D02*
D03*
X145500Y259000D02*
D03*
Y249000D02*
D03*
Y225000D02*
D03*
Y215000D02*
D03*
X82000Y211500D02*
D03*
D58*
X209800Y195800D02*
D03*
X209900Y199300D02*
D03*
X207500Y197500D02*
D03*
X209800Y202900D02*
D03*
X207500Y201000D02*
D03*
X205100Y195800D02*
D03*
Y199300D02*
D03*
Y202800D02*
D03*
D59*
X113500Y127500D02*
D03*
Y247500D02*
D03*
X311500D02*
D03*
Y127500D02*
D03*
D60*
X252500Y138000D02*
D03*
X237000Y137000D02*
D03*
X207000Y118500D02*
D03*
X244375Y123125D02*
D03*
X249326Y149673D02*
D03*
X244500Y149705D02*
D03*
X259000Y115500D02*
D03*
X302500Y138500D02*
D03*
X304000Y112500D02*
D03*
X206500Y135000D02*
D03*
X167000Y159500D02*
D03*
X152000Y147500D02*
D03*
X162500Y197000D02*
D03*
X169500Y190500D02*
D03*
X187000Y171500D02*
D03*
X128000Y138500D02*
D03*
X172000Y148000D02*
D03*
X177000Y147500D02*
D03*
X156000Y196500D02*
D03*
X155000Y127000D02*
D03*
X162000Y189500D02*
D03*
X167000Y173500D02*
D03*
X182000Y171500D02*
D03*
X238000Y147500D02*
D03*
X249000Y129500D02*
D03*
X131500Y121500D02*
D03*
Y190500D02*
D03*
X135500Y216000D02*
D03*
X230000Y237000D02*
D03*
X181500Y237500D02*
D03*
X230000Y245000D02*
D03*
X221500Y259000D02*
D03*
X224000Y246000D02*
D03*
X221500Y272000D02*
D03*
X219000Y249500D02*
D03*
X214000Y253000D02*
D03*
Y226000D02*
D03*
X219000Y220000D02*
D03*
X224000Y217500D02*
D03*
X236000Y259000D02*
D03*
X242000Y231500D02*
D03*
X254000Y252500D02*
D03*
X236000Y272000D02*
D03*
X195500Y205000D02*
D03*
X159500Y216000D02*
D03*
X242000Y212500D02*
D03*
X236000Y217500D02*
D03*
X166199Y218500D02*
D03*
X173500Y210500D02*
D03*
X170500Y215000D02*
D03*
X163000Y222000D02*
D03*
X128000Y157500D02*
D03*
X296500Y216500D02*
D03*
X299330Y266000D02*
D03*
X175000Y231500D02*
D03*
Y266000D02*
D03*
X176396Y197400D02*
D03*
X92000Y157500D02*
D03*
X138500Y154000D02*
D03*
X92000Y176500D02*
D03*
X87500Y170000D02*
D03*
Y182500D02*
D03*
X176396Y225104D02*
D03*
X104500Y214000D02*
D03*
X112346Y208846D02*
D03*
X129740Y230240D02*
D03*
X92000Y188500D02*
D03*
X83000Y157500D02*
D03*
X74000Y182500D02*
D03*
X194000Y195000D02*
D03*
D61*
X283000Y164000D02*
D03*
M02*
