G04*
G04 #@! TF.GenerationSoftware,Altium Limited,Altium Designer,20.1.8 (145)*
G04*
G04 Layer_Physical_Order=2*
G04 Layer_Color=16711680*
%FSLAX25Y25*%
%MOIN*%
G70*
G04*
G04 #@! TF.SameCoordinates,6F670A74-5D77-4B1B-A970-1CA094F5BC2F*
G04*
G04*
G04 #@! TF.FilePolarity,Positive*
G04*
G01*
G75*
%ADD12C,0.01000*%
%ADD14C,0.00600*%
%ADD33R,0.05906X0.05906*%
%ADD56C,0.01500*%
%ADD57C,0.05906*%
%ADD58C,0.02165*%
%ADD59C,0.18000*%
%ADD60C,0.03000*%
%ADD61C,0.05000*%
G36*
X236993Y270865D02*
X236942Y270790D01*
X236897Y270704D01*
X236858Y270607D01*
X236825Y270500D01*
X236798Y270382D01*
X236777Y270253D01*
X236762Y270113D01*
X236750Y269801D01*
X235250D01*
X235247Y269962D01*
X235223Y270253D01*
X235202Y270382D01*
X235175Y270500D01*
X235142Y270607D01*
X235103Y270704D01*
X235058Y270790D01*
X235007Y270865D01*
X234950Y270929D01*
X237050D01*
X236993Y270865D01*
D02*
G37*
G36*
X222493D02*
X222442Y270790D01*
X222397Y270704D01*
X222358Y270607D01*
X222325Y270500D01*
X222298Y270382D01*
X222277Y270253D01*
X222262Y270113D01*
X222250Y269801D01*
X220750D01*
X220747Y269962D01*
X220723Y270253D01*
X220702Y270382D01*
X220675Y270500D01*
X220642Y270607D01*
X220603Y270704D01*
X220558Y270790D01*
X220507Y270865D01*
X220450Y270929D01*
X222550D01*
X222493Y270865D01*
D02*
G37*
G36*
X236753Y261038D02*
X236777Y260747D01*
X236798Y260618D01*
X236825Y260500D01*
X236858Y260393D01*
X236897Y260296D01*
X236942Y260210D01*
X236993Y260135D01*
X237050Y260071D01*
X234950D01*
X235007Y260135D01*
X235058Y260210D01*
X235103Y260296D01*
X235142Y260393D01*
X235175Y260500D01*
X235202Y260618D01*
X235223Y260747D01*
X235238Y260887D01*
X235250Y261199D01*
X236750D01*
X236753Y261038D01*
D02*
G37*
G36*
X222253D02*
X222277Y260747D01*
X222298Y260618D01*
X222325Y260500D01*
X222358Y260393D01*
X222397Y260296D01*
X222442Y260210D01*
X222493Y260135D01*
X222550Y260071D01*
X220450D01*
X220507Y260135D01*
X220558Y260210D01*
X220603Y260296D01*
X220642Y260393D01*
X220675Y260500D01*
X220702Y260618D01*
X220723Y260747D01*
X220738Y260887D01*
X220750Y261199D01*
X222250D01*
X222253Y261038D01*
D02*
G37*
G36*
X222260Y258928D02*
X222290Y258843D01*
X222341Y258743D01*
X222411Y258630D01*
X222502Y258504D01*
X222744Y258209D01*
X223067Y257860D01*
X223259Y257665D01*
X222835Y257241D01*
X222640Y257433D01*
X221996Y257998D01*
X221870Y258088D01*
X221757Y258159D01*
X221657Y258210D01*
X221572Y258240D01*
X221499Y258250D01*
X222250Y259000D01*
X222260Y258928D01*
D02*
G37*
G36*
X236993Y257865D02*
X236942Y257790D01*
X236897Y257704D01*
X236858Y257607D01*
X236825Y257500D01*
X236798Y257382D01*
X236777Y257253D01*
X236762Y257113D01*
X236750Y256801D01*
X235250D01*
X235247Y256962D01*
X235223Y257253D01*
X235202Y257382D01*
X235175Y257500D01*
X235142Y257607D01*
X235103Y257704D01*
X235058Y257790D01*
X235007Y257865D01*
X234950Y257929D01*
X237050D01*
X236993Y257865D01*
D02*
G37*
G36*
X142571Y237500D02*
X142556Y237643D01*
X142511Y237770D01*
X142435Y237882D01*
X142329Y237980D01*
X142193Y238063D01*
X142027Y238130D01*
X141830Y238182D01*
X141604Y238220D01*
X141347Y238243D01*
X141059Y238250D01*
Y239750D01*
X141347Y239757D01*
X141604Y239780D01*
X141830Y239818D01*
X142027Y239870D01*
X142193Y239937D01*
X142329Y240020D01*
X142435Y240118D01*
X142511Y240230D01*
X142556Y240357D01*
X142571Y240500D01*
Y237500D01*
D02*
G37*
G36*
X236753Y219538D02*
X236777Y219247D01*
X236798Y219118D01*
X236825Y219000D01*
X236858Y218893D01*
X236897Y218796D01*
X236942Y218710D01*
X236993Y218635D01*
X237050Y218571D01*
X234950D01*
X235007Y218635D01*
X235058Y218710D01*
X235103Y218796D01*
X235142Y218893D01*
X235175Y219000D01*
X235202Y219118D01*
X235223Y219247D01*
X235238Y219387D01*
X235250Y219699D01*
X236750D01*
X236753Y219538D01*
D02*
G37*
G36*
X105253Y216038D02*
X105277Y215747D01*
X105298Y215618D01*
X105325Y215500D01*
X105358Y215393D01*
X105397Y215296D01*
X105442Y215210D01*
X105493Y215135D01*
X105550Y215071D01*
X103450D01*
X103507Y215135D01*
X103558Y215210D01*
X103603Y215296D01*
X103642Y215393D01*
X103675Y215500D01*
X103702Y215618D01*
X103723Y215747D01*
X103738Y215887D01*
X103750Y216199D01*
X105250D01*
X105253Y216038D01*
D02*
G37*
G36*
X322500Y204000D02*
X236000D01*
Y152000D01*
X242573D01*
X242718Y151522D01*
X242698Y151508D01*
X242145Y150681D01*
X241951Y149705D01*
X242145Y148730D01*
X242698Y147903D01*
X243175Y147584D01*
Y125330D01*
X242573Y124927D01*
X242020Y124100D01*
X241826Y123125D01*
X242020Y122150D01*
X242573Y121323D01*
X243400Y120770D01*
X244375Y120576D01*
X245351Y120770D01*
X246177Y121323D01*
X246730Y122150D01*
X246924Y123125D01*
X246730Y124100D01*
X246177Y124927D01*
X245826Y125163D01*
Y147584D01*
X246302Y147903D01*
X246602Y148351D01*
X247203D01*
X247524Y147871D01*
X248001Y147553D01*
Y131839D01*
X247198Y131302D01*
X246645Y130475D01*
X246451Y129500D01*
X246645Y128524D01*
X247198Y127698D01*
X248025Y127145D01*
X249000Y126951D01*
X249975Y127145D01*
X250802Y127698D01*
X251355Y128524D01*
X251549Y129500D01*
X251355Y130475D01*
X250802Y131302D01*
X250652Y131403D01*
Y135069D01*
X251152Y135353D01*
X251174Y135339D01*
Y133000D01*
X251275Y132493D01*
X251563Y132063D01*
X252675Y130951D01*
Y114229D01*
X252007Y113953D01*
X251181Y113319D01*
X250547Y112493D01*
X250149Y111532D01*
X250013Y110500D01*
X250149Y109468D01*
X250547Y108507D01*
X251181Y107681D01*
X252007Y107047D01*
X252642Y106784D01*
X252542Y106284D01*
X245458D01*
X245358Y106784D01*
X245993Y107047D01*
X246819Y107681D01*
X247453Y108507D01*
X247851Y109468D01*
X247987Y110500D01*
X247851Y111532D01*
X247453Y112493D01*
X246819Y113319D01*
X245993Y113953D01*
X245032Y114351D01*
X244000Y114487D01*
X242968Y114351D01*
X242300Y114074D01*
X238326Y118049D01*
Y134879D01*
X238802Y135198D01*
X239355Y136024D01*
X239549Y137000D01*
X239355Y137976D01*
X238802Y138802D01*
X237976Y139355D01*
X237000Y139549D01*
X236024Y139355D01*
X235198Y138802D01*
X234645Y137976D01*
X234451Y137000D01*
X234645Y136024D01*
X235198Y135198D01*
X235675Y134879D01*
Y117500D01*
X235775Y116993D01*
X236063Y116563D01*
X237673Y114953D01*
X237466Y114453D01*
X230047D01*
Y106784D01*
X230047Y106547D01*
X229656Y106284D01*
X197785D01*
Y113953D01*
X191754D01*
X189770Y115937D01*
X189340Y116225D01*
X188833Y116325D01*
X186358D01*
X186189Y116825D01*
X186652Y117181D01*
X187285Y118007D01*
X187684Y118968D01*
X187819Y120000D01*
X187684Y121032D01*
X187285Y121993D01*
X186652Y122819D01*
X185826Y123453D01*
X184864Y123851D01*
X183833Y123987D01*
X182801Y123851D01*
X181839Y123453D01*
X181013Y122819D01*
X180380Y121993D01*
X179982Y121032D01*
X179846Y120000D01*
X179982Y118968D01*
X180380Y118007D01*
X181013Y117181D01*
X181477Y116825D01*
X181307Y116325D01*
X176358D01*
X176189Y116825D01*
X176652Y117181D01*
X177285Y118007D01*
X177684Y118968D01*
X177754Y119500D01*
X173833D01*
X169912D01*
X169982Y118968D01*
X170380Y118007D01*
X171013Y117181D01*
X171477Y116825D01*
X171307Y116325D01*
X161549D01*
X156325Y121549D01*
Y124879D01*
X156802Y125198D01*
X157355Y126024D01*
X157549Y127000D01*
X157355Y127975D01*
X156802Y128802D01*
X155975Y129355D01*
X155000Y129549D01*
X154025Y129355D01*
X153198Y128802D01*
X152645Y127975D01*
X152451Y127000D01*
X152645Y126024D01*
X153198Y125198D01*
X153674Y124879D01*
Y121000D01*
X153775Y120493D01*
X154063Y120063D01*
X160063Y114063D01*
X160493Y113775D01*
X161000Y113674D01*
X171307D01*
X171477Y113174D01*
X171013Y112819D01*
X170380Y111993D01*
X169982Y111032D01*
X169846Y110000D01*
X169982Y108968D01*
X170380Y108007D01*
X171013Y107181D01*
X171530Y106784D01*
X171361Y106284D01*
X134739D01*
X129784Y111239D01*
Y119109D01*
X130225Y119345D01*
X130525Y119145D01*
X131500Y118951D01*
X132475Y119145D01*
X133302Y119698D01*
X133855Y120525D01*
X134049Y121500D01*
X133855Y122476D01*
X133302Y123302D01*
X133302Y123303D01*
X133299Y123314D01*
X133290Y123372D01*
X133284Y123438D01*
Y188583D01*
X133288Y188616D01*
X133299Y188686D01*
X133302Y188697D01*
X133302Y188698D01*
X133855Y189524D01*
X134049Y190500D01*
X133855Y191475D01*
X133302Y192302D01*
X133302Y192303D01*
X133299Y192314D01*
X133290Y192372D01*
X133284Y192438D01*
Y193761D01*
X136471Y196947D01*
X136971Y196740D01*
Y155985D01*
X136698Y155802D01*
X136145Y154975D01*
X135951Y154000D01*
X136145Y153024D01*
X136698Y152198D01*
X137524Y151645D01*
X138500Y151451D01*
X139476Y151645D01*
X140302Y152198D01*
X140855Y153024D01*
X141049Y154000D01*
X140855Y154975D01*
X140302Y155802D01*
X140029Y155985D01*
Y223366D01*
X140134Y223471D01*
X141855D01*
X142047Y223007D01*
X142681Y222181D01*
X143507Y221547D01*
X144468Y221149D01*
X145500Y221013D01*
X146532Y221149D01*
X147493Y221547D01*
X148319Y222181D01*
X148953Y223007D01*
X149351Y223968D01*
X149487Y225000D01*
X149351Y226032D01*
X148953Y226993D01*
X148319Y227819D01*
X147493Y228453D01*
X146532Y228851D01*
X145500Y228987D01*
X144468Y228851D01*
X143507Y228453D01*
X142681Y227819D01*
X142047Y226993D01*
X141855Y226529D01*
X139500D01*
X138915Y226413D01*
X138419Y226081D01*
X137419Y225081D01*
X137087Y224585D01*
X136971Y224000D01*
Y218554D01*
X136530Y218319D01*
X136476Y218355D01*
X135500Y218549D01*
X134525Y218355D01*
X133698Y217802D01*
X133145Y216975D01*
X132951Y216000D01*
X133145Y215024D01*
X133698Y214198D01*
X133698Y214197D01*
X133701Y214186D01*
X133710Y214128D01*
X133716Y214062D01*
Y199239D01*
X130238Y195762D01*
X129851Y195183D01*
X129716Y194500D01*
Y192417D01*
X129712Y192384D01*
X129701Y192314D01*
X129698Y192303D01*
X129698Y192302D01*
X129145Y191475D01*
X128951Y190500D01*
X129145Y189524D01*
X129698Y188698D01*
X129698Y188697D01*
X129701Y188686D01*
X129710Y188628D01*
X129716Y188562D01*
Y159891D01*
X129275Y159655D01*
X128975Y159855D01*
X128500Y159950D01*
Y157500D01*
X128000D01*
Y157000D01*
X125550D01*
X125645Y156525D01*
X125753Y156363D01*
X125809Y156083D01*
X126195Y155504D01*
X126216Y155483D01*
Y140417D01*
X126212Y140384D01*
X126201Y140314D01*
X126198Y140303D01*
X126198Y140302D01*
X125645Y139476D01*
X125550Y139000D01*
X128000D01*
Y138000D01*
X125550D01*
X125645Y137524D01*
X126198Y136698D01*
X126198Y136697D01*
X126201Y136686D01*
X126210Y136628D01*
X126216Y136562D01*
Y110500D01*
X126351Y109817D01*
X126738Y109238D01*
X132738Y103238D01*
X133095Y103000D01*
X132943Y102500D01*
X102500D01*
Y152500D01*
X72500D01*
Y179965D01*
X72941Y180201D01*
X73024Y180145D01*
X74000Y179951D01*
X74976Y180145D01*
X75802Y180698D01*
X76121Y181175D01*
X77451D01*
X78175Y180451D01*
Y157852D01*
X78275Y157344D01*
X78563Y156914D01*
X78914Y156563D01*
X79344Y156275D01*
X79852Y156175D01*
X80879D01*
X81198Y155698D01*
X82025Y155145D01*
X83000Y154951D01*
X83975Y155145D01*
X84802Y155698D01*
X85355Y156525D01*
X85549Y157500D01*
X85355Y158475D01*
X84802Y159302D01*
X83975Y159855D01*
X83000Y160049D01*
X82025Y159855D01*
X81326Y159388D01*
X80898Y159549D01*
X80826Y159609D01*
Y181000D01*
X80725Y181507D01*
X80437Y181937D01*
X78937Y183437D01*
X78507Y183725D01*
X78000Y183826D01*
X76121D01*
X75802Y184302D01*
X74976Y184855D01*
X74000Y185049D01*
X73024Y184855D01*
X72941Y184799D01*
X72500Y185035D01*
Y222500D01*
X102216D01*
X102500Y222500D01*
X102716Y222089D01*
Y215917D01*
X102712Y215884D01*
X102701Y215814D01*
X102698Y215803D01*
X102698Y215802D01*
X102145Y214976D01*
X102050Y214500D01*
X106949D01*
X106855Y214976D01*
X106302Y215802D01*
X106302Y215803D01*
X106299Y215814D01*
X106290Y215872D01*
X106284Y215938D01*
Y228761D01*
X111239Y233716D01*
X123000D01*
X123683Y233852D01*
X124262Y234238D01*
X127239Y237216D01*
X141384D01*
X141476Y237208D01*
X141547Y237196D01*
Y235047D01*
X145000D01*
Y239000D01*
Y242953D01*
X141547D01*
Y240804D01*
X141476Y240792D01*
X141384Y240784D01*
X126500D01*
X126500Y240784D01*
X125817Y240649D01*
X125238Y240262D01*
X125238Y240262D01*
X122261Y237284D01*
X115995D01*
X115920Y237784D01*
X117345Y238216D01*
X119083Y239145D01*
X120605Y240395D01*
X121855Y241917D01*
X122784Y243655D01*
X123355Y245540D01*
X123499Y247000D01*
X103501D01*
X103645Y245540D01*
X104217Y243655D01*
X105145Y241917D01*
X106395Y240395D01*
X107917Y239145D01*
X109655Y238216D01*
X111080Y237784D01*
X111005Y237284D01*
X110500D01*
X109817Y237148D01*
X109238Y236762D01*
X103238Y230762D01*
X103000Y230405D01*
X102500Y230557D01*
Y272500D01*
X218656D01*
X218974Y272113D01*
X218951Y272000D01*
X219145Y271024D01*
X219698Y270198D01*
X219698Y270197D01*
X219701Y270186D01*
X219710Y270128D01*
X219716Y270062D01*
Y260917D01*
X219712Y260884D01*
X219701Y260814D01*
X219698Y260803D01*
X219698Y260802D01*
X219145Y259976D01*
X218951Y259000D01*
X219145Y258025D01*
X219698Y257198D01*
X220525Y256645D01*
X221500Y256451D01*
X222063Y256563D01*
X228675Y249951D01*
Y247121D01*
X228198Y246802D01*
X227645Y245975D01*
X227451Y245000D01*
X227645Y244024D01*
X228198Y243198D01*
X228675Y242879D01*
Y239121D01*
X228198Y238802D01*
X227645Y237976D01*
X227451Y237000D01*
X227645Y236024D01*
X228198Y235198D01*
X229025Y234645D01*
X230000Y234451D01*
X230976Y234645D01*
X231802Y235198D01*
X232355Y236024D01*
X232549Y237000D01*
X232355Y237976D01*
X231802Y238802D01*
X231326Y239121D01*
Y242879D01*
X231802Y243198D01*
X232355Y244024D01*
X232549Y245000D01*
X232355Y245975D01*
X231802Y246802D01*
X231326Y247121D01*
Y250500D01*
X231225Y251007D01*
X230937Y251437D01*
X223937Y258437D01*
X224049Y259000D01*
X223855Y259976D01*
X223302Y260802D01*
X223302Y260803D01*
X223299Y260814D01*
X223290Y260872D01*
X223284Y260938D01*
Y270083D01*
X223288Y270116D01*
X223299Y270186D01*
X223302Y270197D01*
X223302Y270198D01*
X223855Y271024D01*
X224049Y272000D01*
X224026Y272113D01*
X224344Y272500D01*
X233156D01*
X233474Y272113D01*
X233451Y272000D01*
X233645Y271024D01*
X234198Y270198D01*
X234198Y270197D01*
X234201Y270186D01*
X234210Y270128D01*
X234216Y270062D01*
Y260917D01*
X234212Y260884D01*
X234201Y260814D01*
X234198Y260803D01*
X234198Y260802D01*
X233645Y259976D01*
X233451Y259000D01*
X233645Y258025D01*
X234198Y257198D01*
X234198Y257197D01*
X234201Y257186D01*
X234210Y257128D01*
X234216Y257062D01*
Y219417D01*
X234212Y219384D01*
X234201Y219314D01*
X234198Y219303D01*
X234198Y219302D01*
X233645Y218476D01*
X233451Y217500D01*
X233645Y216525D01*
X234198Y215698D01*
X235024Y215145D01*
X236000Y214951D01*
X236976Y215145D01*
X237802Y215698D01*
X238355Y216525D01*
X238549Y217500D01*
X238355Y218476D01*
X237802Y219302D01*
X237802Y219303D01*
X237799Y219314D01*
X237790Y219372D01*
X237784Y219438D01*
Y257083D01*
X237788Y257116D01*
X237799Y257186D01*
X237802Y257197D01*
X237802Y257198D01*
X238355Y258025D01*
X238549Y259000D01*
X238355Y259976D01*
X237802Y260802D01*
X237802Y260803D01*
X237799Y260814D01*
X237790Y260872D01*
X237784Y260938D01*
Y270083D01*
X237788Y270116D01*
X237799Y270186D01*
X237802Y270197D01*
X237802Y270198D01*
X238355Y271024D01*
X238549Y272000D01*
X238526Y272113D01*
X238844Y272500D01*
X322500D01*
Y204000D01*
D02*
G37*
G36*
X136493Y214865D02*
X136442Y214790D01*
X136397Y214704D01*
X136358Y214607D01*
X136325Y214500D01*
X136298Y214382D01*
X136277Y214253D01*
X136262Y214113D01*
X136250Y213801D01*
X134750D01*
X134747Y213962D01*
X134723Y214253D01*
X134702Y214382D01*
X134675Y214500D01*
X134642Y214607D01*
X134603Y214704D01*
X134558Y214790D01*
X134507Y214865D01*
X134450Y214929D01*
X136550D01*
X136493Y214865D01*
D02*
G37*
G36*
X132253Y192538D02*
X132277Y192247D01*
X132298Y192118D01*
X132325Y192000D01*
X132358Y191893D01*
X132397Y191796D01*
X132442Y191710D01*
X132493Y191635D01*
X132550Y191571D01*
X130450D01*
X130507Y191635D01*
X130558Y191710D01*
X130603Y191796D01*
X130642Y191893D01*
X130675Y192000D01*
X130702Y192118D01*
X130723Y192247D01*
X130738Y192387D01*
X130750Y192699D01*
X132250D01*
X132253Y192538D01*
D02*
G37*
G36*
X132493Y189365D02*
X132442Y189290D01*
X132397Y189204D01*
X132358Y189107D01*
X132325Y189000D01*
X132298Y188882D01*
X132277Y188753D01*
X132262Y188613D01*
X132250Y188301D01*
X130750D01*
X130747Y188462D01*
X130723Y188753D01*
X130702Y188882D01*
X130675Y189000D01*
X130642Y189107D01*
X130603Y189204D01*
X130558Y189290D01*
X130507Y189365D01*
X130450Y189429D01*
X132550D01*
X132493Y189365D01*
D02*
G37*
G36*
X284560Y162017D02*
X284390Y161817D01*
X284240Y161614D01*
X284110Y161408D01*
X284000Y161200D01*
X283910Y160988D01*
X283840Y160774D01*
X283790Y160557D01*
X283760Y160338D01*
X283750Y160115D01*
X282250D01*
X282240Y160338D01*
X282210Y160557D01*
X282160Y160774D01*
X282090Y160988D01*
X282000Y161200D01*
X281890Y161408D01*
X281760Y161614D01*
X281610Y161817D01*
X281440Y162017D01*
X281250Y162215D01*
X284750D01*
X284560Y162017D01*
D02*
G37*
G36*
X128993Y156365D02*
X128942Y156290D01*
X128897Y156204D01*
X128858Y156107D01*
X128825Y156000D01*
X128798Y155882D01*
X128777Y155753D01*
X128762Y155613D01*
X128750Y155301D01*
X127250D01*
X127247Y155462D01*
X127223Y155753D01*
X127202Y155882D01*
X127175Y156000D01*
X127142Y156107D01*
X127103Y156204D01*
X127058Y156290D01*
X127007Y156365D01*
X126950Y156429D01*
X129050D01*
X128993Y156365D01*
D02*
G37*
G36*
X128753Y140538D02*
X128777Y140247D01*
X128798Y140118D01*
X128825Y140000D01*
X128858Y139893D01*
X128897Y139796D01*
X128942Y139710D01*
X128993Y139635D01*
X129050Y139571D01*
X126950D01*
X127007Y139635D01*
X127058Y139710D01*
X127103Y139796D01*
X127142Y139893D01*
X127175Y140000D01*
X127202Y140118D01*
X127223Y140247D01*
X127238Y140387D01*
X127250Y140699D01*
X128750D01*
X128753Y140538D01*
D02*
G37*
G36*
X128993Y137365D02*
X128942Y137290D01*
X128897Y137204D01*
X128858Y137107D01*
X128825Y137000D01*
X128798Y136882D01*
X128777Y136753D01*
X128762Y136613D01*
X128750Y136301D01*
X127250D01*
X127247Y136462D01*
X127223Y136753D01*
X127202Y136882D01*
X127175Y137000D01*
X127142Y137107D01*
X127103Y137204D01*
X127058Y137290D01*
X127007Y137365D01*
X126950Y137429D01*
X129050D01*
X128993Y137365D01*
D02*
G37*
G36*
X264763Y138381D02*
X264803Y138134D01*
X264868Y137885D01*
X264961Y137635D01*
X265079Y137384D01*
X265224Y137131D01*
X265395Y136878D01*
X265593Y136623D01*
X265817Y136366D01*
X266067Y136109D01*
X261933D01*
X262183Y136366D01*
X262407Y136623D01*
X262605Y136878D01*
X262776Y137131D01*
X262921Y137384D01*
X263039Y137635D01*
X263131Y137885D01*
X263197Y138134D01*
X263237Y138381D01*
X263250Y138628D01*
X264750D01*
X264763Y138381D01*
D02*
G37*
G36*
X322500Y102500D02*
X297971D01*
X297819Y103000D01*
X298176Y103238D01*
X298762Y103824D01*
X298762Y103824D01*
X299149Y104403D01*
X299284Y105086D01*
Y109944D01*
X299301Y110039D01*
X299324Y110109D01*
X299341Y110140D01*
X299349Y110151D01*
X299360Y110159D01*
X299391Y110176D01*
X299461Y110199D01*
X299556Y110216D01*
X302439D01*
X302809Y110289D01*
X303025Y110145D01*
X303500Y110050D01*
Y112500D01*
Y114950D01*
X303025Y114855D01*
X302198Y114302D01*
X301851Y113784D01*
X299556D01*
X299461Y113801D01*
X299391Y113824D01*
X299360Y113841D01*
X299349Y113849D01*
X299341Y113860D01*
X299324Y113891D01*
X299301Y113961D01*
X299284Y114056D01*
Y132716D01*
X301121D01*
X301804Y132852D01*
X302383Y133238D01*
X303262Y134117D01*
X303648Y134696D01*
X303784Y135379D01*
Y136351D01*
X304302Y136698D01*
X304855Y137524D01*
X304949Y138000D01*
X300050D01*
X300145Y137524D01*
X300289Y137309D01*
X300216Y136939D01*
Y136284D01*
X297500D01*
X296817Y136149D01*
X296238Y135762D01*
X295851Y135183D01*
X295716Y134500D01*
Y112000D01*
Y106284D01*
X286284D01*
Y107271D01*
X286819Y107681D01*
X287453Y108507D01*
X287851Y109468D01*
X287921Y110000D01*
X280079D01*
X280149Y109468D01*
X280547Y108507D01*
X281181Y107681D01*
X282007Y107047D01*
X282716Y106754D01*
Y106284D01*
X275458D01*
X275359Y106784D01*
X275993Y107047D01*
X276819Y107681D01*
X277453Y108507D01*
X277851Y109468D01*
X277987Y110500D01*
X277851Y111532D01*
X277453Y112493D01*
X276819Y113319D01*
X275993Y113953D01*
X275032Y114351D01*
X274000Y114487D01*
X272968Y114351D01*
X272007Y113953D01*
X271181Y113319D01*
X270547Y112493D01*
X270149Y111532D01*
X270013Y110500D01*
X270149Y109468D01*
X270547Y108507D01*
X271181Y107681D01*
X272007Y107047D01*
X272641Y106784D01*
X272542Y106284D01*
X265458D01*
X265358Y106784D01*
X265993Y107047D01*
X266819Y107681D01*
X267453Y108507D01*
X267851Y109468D01*
X267987Y110500D01*
X267851Y111532D01*
X267453Y112493D01*
X266819Y113319D01*
X265993Y113953D01*
X265032Y114351D01*
X264000Y114487D01*
X263098Y114368D01*
X262851Y114759D01*
X262836Y114813D01*
X264937Y116914D01*
X265225Y117344D01*
X265325Y117851D01*
Y120271D01*
X265993Y120547D01*
X266819Y121181D01*
X267453Y122007D01*
X267851Y122968D01*
X267987Y124000D01*
X267851Y125032D01*
X267453Y125993D01*
X266819Y126819D01*
X265993Y127453D01*
X265032Y127851D01*
X264000Y127987D01*
X262968Y127851D01*
X262007Y127453D01*
X261181Y126819D01*
X260547Y125993D01*
X260149Y125032D01*
X260013Y124000D01*
X260149Y122968D01*
X260547Y122007D01*
X261181Y121181D01*
X262007Y120547D01*
X262674Y120271D01*
Y118401D01*
X261391Y117117D01*
X260894Y117166D01*
X260802Y117302D01*
X259976Y117855D01*
X259000Y118049D01*
X258025Y117855D01*
X257198Y117302D01*
X256645Y116475D01*
X256451Y115500D01*
X256645Y114524D01*
X257198Y113698D01*
X258025Y113145D01*
X259000Y112951D01*
X259976Y113145D01*
X260802Y113698D01*
X261005Y114001D01*
X261224Y113983D01*
X261375Y113469D01*
X261181Y113319D01*
X260547Y112493D01*
X260149Y111532D01*
X260013Y110500D01*
X260149Y109468D01*
X260547Y108507D01*
X261181Y107681D01*
X262007Y107047D01*
X262642Y106784D01*
X262542Y106284D01*
X255458D01*
X255359Y106784D01*
X255993Y107047D01*
X256819Y107681D01*
X257453Y108507D01*
X257851Y109468D01*
X257987Y110500D01*
X257851Y111532D01*
X257453Y112493D01*
X256819Y113319D01*
X255993Y113953D01*
X255326Y114229D01*
Y131500D01*
X255225Y132007D01*
X254937Y132437D01*
X253825Y133549D01*
Y135879D01*
X254302Y136198D01*
X254855Y137024D01*
X255049Y138000D01*
X254855Y138976D01*
X254302Y139802D01*
X253475Y140355D01*
X252500Y140549D01*
X251524Y140355D01*
X251152Y140106D01*
X250652Y140373D01*
Y147553D01*
X251129Y147871D01*
X251681Y148698D01*
X251875Y149673D01*
X251681Y150649D01*
X251129Y151476D01*
X251061Y151522D01*
X251206Y152000D01*
X281216D01*
Y150284D01*
X268500D01*
X267817Y150148D01*
X267238Y149762D01*
X262738Y145262D01*
X262351Y144683D01*
X262216Y144000D01*
Y137539D01*
X262007Y137453D01*
X261181Y136819D01*
X260547Y135993D01*
X260149Y135032D01*
X260079Y134500D01*
X264000D01*
X267921D01*
X267851Y135032D01*
X267453Y135993D01*
X266819Y136819D01*
X265993Y137453D01*
X265784Y137539D01*
Y143261D01*
X269239Y146716D01*
X282121D01*
X282804Y146852D01*
X283383Y147238D01*
X284262Y148117D01*
X284648Y148696D01*
X284784Y149379D01*
Y152000D01*
X322500D01*
Y102500D01*
D02*
G37*
G36*
X132253Y123538D02*
X132277Y123247D01*
X132298Y123118D01*
X132325Y123000D01*
X132358Y122893D01*
X132397Y122796D01*
X132442Y122710D01*
X132493Y122635D01*
X132550Y122571D01*
X130450D01*
X130507Y122635D01*
X130558Y122710D01*
X130603Y122796D01*
X130642Y122893D01*
X130675Y123000D01*
X130702Y123118D01*
X130723Y123247D01*
X130738Y123387D01*
X130750Y123699D01*
X132250D01*
X132253Y123538D01*
D02*
G37*
G36*
X191016Y113245D02*
X191238Y113056D01*
X191336Y112987D01*
X191425Y112935D01*
X191506Y112900D01*
X191577Y112881D01*
X191640Y112880D01*
X191695Y112896D01*
X191740Y112929D01*
X190904Y112092D01*
X190937Y112138D01*
X190952Y112192D01*
X190951Y112255D01*
X190933Y112327D01*
X190898Y112407D01*
X190846Y112497D01*
X190777Y112595D01*
X190691Y112701D01*
X190468Y112941D01*
X190892Y113365D01*
X191016Y113245D01*
D02*
G37*
G36*
X298265Y113965D02*
X298310Y113710D01*
X298385Y113485D01*
X298490Y113290D01*
X298625Y113125D01*
X298790Y112990D01*
X298985Y112885D01*
X299210Y112810D01*
X299465Y112765D01*
X299750Y112750D01*
Y111250D01*
X299465Y111235D01*
X299210Y111190D01*
X298985Y111115D01*
X298790Y111010D01*
X298625Y110875D01*
X298490Y110710D01*
X298385Y110515D01*
X298310Y110290D01*
X298265Y110035D01*
X298250Y109750D01*
X296750Y112000D01*
X298250Y114250D01*
X298265Y113965D01*
D02*
G37*
G36*
X286177Y108459D02*
X285811Y107861D01*
X285662Y107576D01*
X285536Y107300D01*
X285433Y107032D01*
X285353Y106774D01*
X285296Y106525D01*
X285277Y106395D01*
X285310Y106210D01*
X285385Y105985D01*
X285490Y105790D01*
X285625Y105625D01*
X285790Y105490D01*
X285985Y105385D01*
X286210Y105310D01*
X286465Y105265D01*
X286750Y105250D01*
X284500Y103750D01*
X282250Y105250D01*
X282535Y105265D01*
X282790Y105310D01*
X283015Y105385D01*
X283210Y105490D01*
X283375Y105625D01*
X283510Y105790D01*
X283615Y105985D01*
X283690Y106210D01*
X283699Y106259D01*
X283693Y106292D01*
X283621Y106536D01*
X283521Y106774D01*
X283393Y107006D01*
X283235Y107231D01*
X283049Y107450D01*
X282835Y107664D01*
X282592Y107871D01*
X282320Y108072D01*
X286394Y108772D01*
X286177Y108459D01*
D02*
G37*
%LPC*%
G36*
X299830Y268449D02*
Y266500D01*
X301780D01*
X301685Y266975D01*
X301133Y267802D01*
X300306Y268355D01*
X299830Y268449D01*
D02*
G37*
G36*
X298830D02*
X298355Y268355D01*
X297528Y267802D01*
X296975Y266975D01*
X296881Y266500D01*
X298830D01*
Y268449D01*
D02*
G37*
G36*
X175500D02*
Y266500D01*
X177450D01*
X177355Y266975D01*
X176802Y267802D01*
X175976Y268355D01*
X175500Y268449D01*
D02*
G37*
G36*
X174500D02*
X174024Y268355D01*
X173198Y267802D01*
X172645Y266975D01*
X172550Y266500D01*
X174500D01*
Y268449D01*
D02*
G37*
G36*
X254000Y255049D02*
X253025Y254855D01*
X252198Y254302D01*
X251645Y253475D01*
X251451Y252500D01*
X251563Y251937D01*
X250563Y250937D01*
X250275Y250507D01*
X250174Y250000D01*
Y243549D01*
X241063Y234437D01*
X240775Y234007D01*
X240702Y233640D01*
X240198Y233302D01*
X239645Y232475D01*
X239451Y231500D01*
X239645Y230524D01*
X240198Y229698D01*
X240674Y229379D01*
Y214621D01*
X240198Y214302D01*
X239645Y213475D01*
X239451Y212500D01*
X239645Y211525D01*
X240198Y210698D01*
X241024Y210145D01*
X242000Y209951D01*
X242975Y210145D01*
X243802Y210698D01*
X244355Y211525D01*
X244549Y212500D01*
X244355Y213475D01*
X243802Y214302D01*
X243325Y214621D01*
Y229379D01*
X243802Y229698D01*
X244355Y230524D01*
X244549Y231500D01*
X244355Y232475D01*
X243802Y233302D01*
X243791Y233417D01*
X252437Y242063D01*
X252725Y242493D01*
X252825Y243000D01*
Y249451D01*
X253437Y250063D01*
X254000Y249951D01*
X254976Y250145D01*
X255802Y250698D01*
X256355Y251524D01*
X256549Y252500D01*
X256355Y253475D01*
X255802Y254302D01*
X254976Y254855D01*
X254000Y255049D01*
D02*
G37*
G36*
X312000Y257499D02*
Y248000D01*
X321499D01*
X321355Y249460D01*
X320783Y251345D01*
X319855Y253083D01*
X318605Y254605D01*
X317083Y255855D01*
X315345Y256784D01*
X313460Y257355D01*
X312000Y257499D01*
D02*
G37*
G36*
X311000D02*
X309540Y257355D01*
X307655Y256784D01*
X305917Y255855D01*
X304395Y254605D01*
X303145Y253083D01*
X302217Y251345D01*
X301645Y249460D01*
X301501Y248000D01*
X311000D01*
Y257499D01*
D02*
G37*
G36*
X114000D02*
Y248000D01*
X123499D01*
X123355Y249460D01*
X122784Y251345D01*
X121855Y253083D01*
X120605Y254605D01*
X119083Y255855D01*
X117345Y256784D01*
X115460Y257355D01*
X114000Y257499D01*
D02*
G37*
G36*
X113000D02*
X111540Y257355D01*
X109655Y256784D01*
X107917Y255855D01*
X106395Y254605D01*
X105145Y253083D01*
X104217Y251345D01*
X103645Y249460D01*
X103501Y248000D01*
X113000D01*
Y257499D01*
D02*
G37*
G36*
X145500Y252987D02*
X144468Y252851D01*
X143507Y252453D01*
X142681Y251819D01*
X142047Y250993D01*
X141649Y250032D01*
X141513Y249000D01*
X141649Y247968D01*
X142047Y247007D01*
X142681Y246181D01*
X143507Y245547D01*
X144468Y245149D01*
X145500Y245013D01*
X146532Y245149D01*
X147493Y245547D01*
X148319Y246181D01*
X148953Y247007D01*
X149351Y247968D01*
X149487Y249000D01*
X149351Y250032D01*
X148953Y250993D01*
X148319Y251819D01*
X147493Y252453D01*
X146532Y252851D01*
X145500Y252987D01*
D02*
G37*
G36*
X149453Y242953D02*
X146000D01*
Y239500D01*
X149453D01*
Y242953D01*
D02*
G37*
G36*
X321499Y247000D02*
X312000D01*
Y237501D01*
X313460Y237645D01*
X315345Y238216D01*
X317083Y239145D01*
X318605Y240395D01*
X319855Y241917D01*
X320783Y243655D01*
X321355Y245540D01*
X321499Y247000D01*
D02*
G37*
G36*
X311000D02*
X301501D01*
X301645Y245540D01*
X302217Y243655D01*
X303145Y241917D01*
X304395Y240395D01*
X305917Y239145D01*
X307655Y238216D01*
X309540Y237645D01*
X311000Y237501D01*
Y247000D01*
D02*
G37*
G36*
X149453Y238500D02*
X146000D01*
Y235047D01*
X149453D01*
Y238500D01*
D02*
G37*
G36*
X177450Y265500D02*
X172550D01*
X172645Y265024D01*
X173198Y264198D01*
X173198Y264197D01*
X173201Y264186D01*
X173210Y264128D01*
X173216Y264062D01*
Y233417D01*
X173212Y233384D01*
X173201Y233314D01*
X173198Y233303D01*
X173198Y233302D01*
X172645Y232475D01*
X172550Y232000D01*
X177450D01*
X177355Y232475D01*
X176802Y233302D01*
X176802Y233303D01*
X176799Y233314D01*
X176790Y233372D01*
X176784Y233438D01*
Y264083D01*
X176788Y264116D01*
X176799Y264186D01*
X176802Y264197D01*
X176802Y264198D01*
X177355Y265024D01*
X177450Y265500D01*
D02*
G37*
G36*
Y231000D02*
X175500D01*
Y229050D01*
X175976Y229145D01*
X176802Y229698D01*
X177355Y230524D01*
X177450Y231000D01*
D02*
G37*
G36*
X174500D02*
X172550D01*
X172645Y230524D01*
X173198Y229698D01*
X174024Y229145D01*
X174500Y229050D01*
Y231000D01*
D02*
G37*
G36*
X214000Y255549D02*
X213024Y255355D01*
X212198Y254802D01*
X211645Y253976D01*
X211451Y253000D01*
X211645Y252025D01*
X212198Y251198D01*
X212674Y250879D01*
Y228121D01*
X212198Y227802D01*
X211645Y226975D01*
X211451Y226000D01*
X211645Y225025D01*
X212198Y224198D01*
X213024Y223645D01*
X214000Y223451D01*
X214976Y223645D01*
X215802Y224198D01*
X216355Y225025D01*
X216549Y226000D01*
X216355Y226975D01*
X215802Y227802D01*
X215325Y228121D01*
Y250879D01*
X215802Y251198D01*
X216355Y252025D01*
X216549Y253000D01*
X216355Y253976D01*
X215802Y254802D01*
X214976Y255355D01*
X214000Y255549D01*
D02*
G37*
G36*
X219000Y252049D02*
X218024Y251855D01*
X217198Y251302D01*
X216645Y250476D01*
X216451Y249500D01*
X216645Y248524D01*
X217198Y247698D01*
X217674Y247379D01*
Y222121D01*
X217198Y221802D01*
X216645Y220975D01*
X216451Y220000D01*
X216645Y219024D01*
X217198Y218198D01*
X218024Y217645D01*
X219000Y217451D01*
X219975Y217645D01*
X220802Y218198D01*
X221355Y219024D01*
X221549Y220000D01*
X221355Y220975D01*
X220802Y221802D01*
X220325Y222121D01*
Y247379D01*
X220802Y247698D01*
X221355Y248524D01*
X221549Y249500D01*
X221355Y250476D01*
X220802Y251302D01*
X219975Y251855D01*
X219000Y252049D01*
D02*
G37*
G36*
X301780Y265500D02*
X296881D01*
X296975Y265024D01*
X297528Y264198D01*
X297529Y264197D01*
X297531Y264186D01*
X297541Y264128D01*
X297546Y264062D01*
Y260069D01*
X295238Y257762D01*
X294851Y257183D01*
X294716Y256500D01*
Y218417D01*
X294712Y218384D01*
X294701Y218314D01*
X294698Y218303D01*
X294698Y218302D01*
X294145Y217476D01*
X294051Y217000D01*
X298950D01*
X298855Y217476D01*
X298302Y218302D01*
X298302Y218303D01*
X298299Y218314D01*
X298290Y218372D01*
X298284Y218438D01*
Y255761D01*
X300592Y258069D01*
X300979Y258648D01*
X301115Y259330D01*
Y264083D01*
X301118Y264116D01*
X301130Y264186D01*
X301132Y264197D01*
X301133Y264198D01*
X301685Y265024D01*
X301780Y265500D01*
D02*
G37*
G36*
X145500Y262987D02*
X144468Y262851D01*
X143507Y262453D01*
X142681Y261819D01*
X142047Y260993D01*
X141649Y260032D01*
X141513Y259000D01*
X141649Y257968D01*
X142047Y257007D01*
X142681Y256181D01*
X143507Y255547D01*
X144468Y255149D01*
X145500Y255013D01*
X146532Y255149D01*
X147493Y255547D01*
X148319Y256181D01*
X148953Y257007D01*
X149039Y257216D01*
X154716D01*
Y221239D01*
X150261Y216784D01*
X149039D01*
X148953Y216993D01*
X148319Y217819D01*
X147493Y218453D01*
X146532Y218851D01*
X145500Y218987D01*
X144468Y218851D01*
X143507Y218453D01*
X142681Y217819D01*
X142047Y216993D01*
X141649Y216032D01*
X141513Y215000D01*
X141649Y213968D01*
X142047Y213007D01*
X142681Y212181D01*
X143507Y211547D01*
X144468Y211149D01*
X145500Y211013D01*
X146532Y211149D01*
X147493Y211547D01*
X148319Y212181D01*
X148953Y213007D01*
X149039Y213216D01*
X151000D01*
X151683Y213351D01*
X152262Y213738D01*
X157762Y219238D01*
X157762Y219238D01*
X158149Y219817D01*
X158284Y220500D01*
Y258414D01*
X158149Y259097D01*
X157762Y259676D01*
X157762Y259676D01*
X157176Y260262D01*
X156597Y260648D01*
X155914Y260784D01*
X149039D01*
X148953Y260993D01*
X148319Y261819D01*
X147493Y262453D01*
X146532Y262851D01*
X145500Y262987D01*
D02*
G37*
G36*
X224000Y248549D02*
X223025Y248355D01*
X222198Y247802D01*
X221645Y246975D01*
X221451Y246000D01*
X221645Y245024D01*
X222198Y244198D01*
X222674Y243879D01*
Y219621D01*
X222198Y219302D01*
X221645Y218476D01*
X221451Y217500D01*
X221645Y216525D01*
X222198Y215698D01*
X223025Y215145D01*
X224000Y214951D01*
X224975Y215145D01*
X225802Y215698D01*
X226355Y216525D01*
X226549Y217500D01*
X226355Y218476D01*
X225802Y219302D01*
X225325Y219621D01*
Y243879D01*
X225802Y244198D01*
X226355Y245024D01*
X226549Y246000D01*
X226355Y246975D01*
X225802Y247802D01*
X224975Y248355D01*
X224000Y248549D01*
D02*
G37*
G36*
X298950Y216000D02*
X297000D01*
Y214051D01*
X297476Y214145D01*
X298302Y214698D01*
X298855Y215525D01*
X298950Y216000D01*
D02*
G37*
G36*
X296000D02*
X294051D01*
X294145Y215525D01*
X294698Y214698D01*
X295525Y214145D01*
X296000Y214051D01*
Y216000D01*
D02*
G37*
G36*
X176396Y227653D02*
X175420Y227459D01*
X174593Y226907D01*
X174041Y226080D01*
X173847Y225104D01*
X174041Y224129D01*
X174593Y223302D01*
X174866Y223119D01*
Y213149D01*
X174366Y212877D01*
X173500Y213049D01*
X172662Y212882D01*
X172380Y213314D01*
X172855Y214024D01*
X173049Y215000D01*
X172855Y215975D01*
X172302Y216802D01*
X171476Y217355D01*
X170500Y217549D01*
X169525Y217355D01*
X168698Y216802D01*
X168145Y215975D01*
X167951Y215000D01*
X168145Y214024D01*
X168698Y213198D01*
X169175Y212879D01*
Y200049D01*
X165418Y196293D01*
X164957Y196539D01*
X165049Y197000D01*
X164937Y197563D01*
X166937Y199563D01*
X167225Y199993D01*
X167325Y200500D01*
Y216246D01*
X168001Y216698D01*
X168553Y217525D01*
X168747Y218500D01*
X168553Y219476D01*
X168001Y220302D01*
X167174Y220855D01*
X166199Y221049D01*
X165856Y220981D01*
X165431Y221406D01*
X165549Y222000D01*
X165355Y222975D01*
X164802Y223802D01*
X163976Y224355D01*
X163000Y224549D01*
X162024Y224355D01*
X161198Y223802D01*
X160645Y222975D01*
X160451Y222000D01*
X160645Y221024D01*
X161198Y220198D01*
X161674Y219879D01*
Y218077D01*
X161174Y217888D01*
X160476Y218355D01*
X159500Y218549D01*
X158525Y218355D01*
X157698Y217802D01*
X157145Y216975D01*
X156951Y216000D01*
X157145Y215024D01*
X157698Y214198D01*
X158175Y213879D01*
Y206549D01*
X151063Y199437D01*
X150775Y199007D01*
X150674Y198500D01*
Y149621D01*
X150198Y149302D01*
X149645Y148476D01*
X149451Y147500D01*
X149645Y146525D01*
X150198Y145698D01*
X151024Y145145D01*
X152000Y144951D01*
X152975Y145145D01*
X153802Y145698D01*
X154355Y146525D01*
X154549Y147500D01*
X154355Y148476D01*
X153802Y149302D01*
X153325Y149621D01*
Y195103D01*
X153825Y195255D01*
X154198Y194698D01*
X155025Y194145D01*
X156000Y193951D01*
X156975Y194145D01*
X157802Y194698D01*
X158355Y195525D01*
X158549Y196500D01*
X158437Y197063D01*
X159934Y198559D01*
X160322Y198241D01*
X160145Y197976D01*
X159951Y197000D01*
X160145Y196025D01*
X160698Y195198D01*
X161524Y194645D01*
X162500Y194451D01*
X162961Y194543D01*
X163207Y194082D01*
X161410Y192284D01*
X161138Y191877D01*
X161024Y191855D01*
X160198Y191302D01*
X159645Y190475D01*
X159451Y189500D01*
X159645Y188524D01*
X160198Y187698D01*
X161024Y187145D01*
X162000Y186951D01*
X162976Y187145D01*
X163802Y187698D01*
X164355Y188524D01*
X164549Y189500D01*
X164355Y190475D01*
X163952Y191078D01*
X167675Y194800D01*
X168175Y194593D01*
Y192621D01*
X167698Y192302D01*
X167145Y191475D01*
X166951Y190500D01*
X167145Y189524D01*
X167698Y188698D01*
X168525Y188145D01*
X169500Y187951D01*
X170475Y188145D01*
X171302Y188698D01*
X171855Y189524D01*
X172049Y190500D01*
X171855Y191475D01*
X171302Y192302D01*
X170826Y192621D01*
Y194451D01*
X173409Y197035D01*
X173952Y196870D01*
X174041Y196424D01*
X174593Y195598D01*
X175420Y195045D01*
X176396Y194851D01*
X177371Y195045D01*
X178198Y195598D01*
X178751Y196424D01*
X178945Y197400D01*
X178751Y198375D01*
X178198Y199202D01*
X177925Y199385D01*
Y223119D01*
X178198Y223302D01*
X178751Y224129D01*
X178945Y225104D01*
X178751Y226080D01*
X178198Y226907D01*
X177371Y227459D01*
X176396Y227653D01*
D02*
G37*
G36*
X95953Y215453D02*
X92500D01*
Y212000D01*
X95953D01*
Y215453D01*
D02*
G37*
G36*
X91500D02*
X88047D01*
Y212000D01*
X91500D01*
Y215453D01*
D02*
G37*
G36*
X106949Y213500D02*
X105000D01*
Y211550D01*
X105475Y211645D01*
X106302Y212198D01*
X106855Y213024D01*
X106949Y213500D01*
D02*
G37*
G36*
X104000D02*
X102050D01*
X102145Y213024D01*
X102698Y212198D01*
X103524Y211645D01*
X104000Y211550D01*
Y213500D01*
D02*
G37*
G36*
X82000Y215487D02*
X80968Y215351D01*
X80007Y214953D01*
X79181Y214319D01*
X78547Y213493D01*
X78149Y212532D01*
X78013Y211500D01*
X78149Y210468D01*
X78547Y209507D01*
X79181Y208681D01*
X80007Y208047D01*
X80968Y207649D01*
X82000Y207513D01*
X83032Y207649D01*
X83993Y208047D01*
X84819Y208681D01*
X85453Y209507D01*
X85851Y210468D01*
X85987Y211500D01*
X85851Y212532D01*
X85453Y213493D01*
X84819Y214319D01*
X83993Y214953D01*
X83032Y215351D01*
X82000Y215487D01*
D02*
G37*
G36*
X129740Y232789D02*
X128765Y232595D01*
X127938Y232043D01*
X127385Y231216D01*
X127191Y230240D01*
X127385Y229265D01*
X127938Y228438D01*
X128211Y228255D01*
Y222874D01*
X124866Y219529D01*
X113086D01*
X112501Y219413D01*
X112004Y219081D01*
X111419Y218496D01*
X111087Y218000D01*
X110971Y217414D01*
Y210934D01*
X110544Y210649D01*
X109992Y209822D01*
X109798Y208846D01*
X109992Y207871D01*
X110544Y207044D01*
X111371Y206491D01*
X112346Y206297D01*
X113322Y206491D01*
X114149Y207044D01*
X114701Y207871D01*
X114895Y208846D01*
X114701Y209822D01*
X114149Y210649D01*
X114029Y210729D01*
Y216471D01*
X125500D01*
X126085Y216587D01*
X126581Y216919D01*
X130822Y221159D01*
X131153Y221655D01*
X131270Y222240D01*
Y228255D01*
X131543Y228438D01*
X132095Y229265D01*
X132289Y230240D01*
X132095Y231216D01*
X131543Y232043D01*
X130716Y232595D01*
X129740Y232789D01*
D02*
G37*
G36*
X149453Y208953D02*
X146000D01*
Y205500D01*
X149453D01*
Y208953D01*
D02*
G37*
G36*
X145000D02*
X141547D01*
Y205500D01*
X145000D01*
Y208953D01*
D02*
G37*
G36*
X210300Y204924D02*
Y203400D01*
X211824D01*
X211762Y203713D01*
X211301Y204401D01*
X210613Y204862D01*
X210300Y204924D01*
D02*
G37*
G36*
X204600Y204824D02*
X204287Y204762D01*
X203598Y204302D01*
X203138Y203613D01*
X203076Y203300D01*
X204600D01*
Y204824D01*
D02*
G37*
G36*
X209300Y204924D02*
X208987Y204862D01*
X208298Y204401D01*
X207838Y203713D01*
X207713Y203081D01*
X207500Y203123D01*
X207172Y203058D01*
X207062Y203613D01*
X206602Y204302D01*
X205913Y204762D01*
X205600Y204824D01*
Y202800D01*
X205100D01*
Y202300D01*
X203076D01*
X203138Y201987D01*
X203598Y201298D01*
Y200801D01*
X203138Y200113D01*
X203076Y199800D01*
X205100D01*
Y198800D01*
X203076D01*
X203138Y198487D01*
X203598Y197799D01*
Y197301D01*
X203138Y196613D01*
X203076Y196300D01*
X205100D01*
Y195800D01*
X205600D01*
Y193776D01*
X205913Y193838D01*
X206602Y194299D01*
X207062Y194987D01*
X207153Y195446D01*
X207500Y195377D01*
X207751Y195426D01*
X207838Y194987D01*
X208298Y194299D01*
X208987Y193838D01*
X209300Y193776D01*
Y195800D01*
X209800D01*
Y196300D01*
X211824D01*
X211762Y196613D01*
X211381Y197183D01*
X211389Y197790D01*
X211402Y197799D01*
X211862Y198487D01*
X211924Y198800D01*
X209900D01*
Y199800D01*
X211924D01*
X211862Y200113D01*
X211402Y200801D01*
X211279Y200883D01*
Y201275D01*
X211334Y201448D01*
X211762Y202087D01*
X211824Y202400D01*
X209800D01*
Y202900D01*
X209300D01*
Y204924D01*
D02*
G37*
G36*
X195500Y207549D02*
X194525Y207355D01*
X193698Y206802D01*
X193379Y206326D01*
X189500D01*
X188993Y206225D01*
X188563Y205937D01*
X186063Y203437D01*
X185775Y203007D01*
X185675Y202500D01*
Y173621D01*
X185198Y173302D01*
X184784Y172684D01*
X184216D01*
X183802Y173302D01*
X182975Y173855D01*
X182000Y174049D01*
X181025Y173855D01*
X180198Y173302D01*
X179645Y172476D01*
X179451Y171500D01*
X179645Y170525D01*
X180198Y169698D01*
X180675Y169379D01*
Y168500D01*
X180775Y167993D01*
X181063Y167563D01*
X182563Y166063D01*
X182993Y165775D01*
X183500Y165674D01*
X190500D01*
X191007Y165775D01*
X191437Y166063D01*
X194937Y169563D01*
X195225Y169993D01*
X195326Y170500D01*
Y192879D01*
X195802Y193198D01*
X196355Y194025D01*
X196549Y195000D01*
X196355Y195975D01*
X195802Y196802D01*
X194975Y197355D01*
X194000Y197549D01*
X193025Y197355D01*
X192198Y196802D01*
X191645Y195975D01*
X191451Y195000D01*
X191645Y194025D01*
X192198Y193198D01*
X192675Y192879D01*
Y171049D01*
X189951Y168325D01*
X184049D01*
X183443Y168931D01*
X183483Y169484D01*
X183802Y169698D01*
X184216Y170316D01*
X184784D01*
X185198Y169698D01*
X186024Y169145D01*
X187000Y168951D01*
X187976Y169145D01*
X188802Y169698D01*
X189355Y170525D01*
X189549Y171500D01*
X189355Y172476D01*
X188802Y173302D01*
X188326Y173621D01*
Y201951D01*
X190049Y203675D01*
X193379D01*
X193698Y203198D01*
X194525Y202645D01*
X195500Y202451D01*
X196476Y202645D01*
X197302Y203198D01*
X197855Y204025D01*
X198049Y205000D01*
X197855Y205976D01*
X197302Y206802D01*
X196476Y207355D01*
X195500Y207549D01*
D02*
G37*
G36*
X149453Y204500D02*
X146000D01*
Y201047D01*
X149453D01*
Y204500D01*
D02*
G37*
G36*
X145000D02*
X141547D01*
Y201047D01*
X145000D01*
Y204500D01*
D02*
G37*
G36*
X211824Y195300D02*
X210300D01*
Y193776D01*
X210613Y193838D01*
X211301Y194299D01*
X211762Y194987D01*
X211824Y195300D01*
D02*
G37*
G36*
X204600D02*
X203076D01*
X203138Y194987D01*
X203598Y194299D01*
X204287Y193838D01*
X204600Y193776D01*
Y195300D01*
D02*
G37*
G36*
X95953Y211000D02*
X92000D01*
X88047D01*
Y207547D01*
X90195D01*
X90208Y207470D01*
X90216Y207381D01*
Y190417D01*
X90212Y190384D01*
X90201Y190314D01*
X90198Y190303D01*
X90198Y190302D01*
X89645Y189476D01*
X89551Y189000D01*
X94450D01*
X94355Y189476D01*
X93802Y190302D01*
X93802Y190303D01*
X93799Y190314D01*
X93790Y190372D01*
X93784Y190438D01*
Y207381D01*
X93792Y207470D01*
X93805Y207547D01*
X95953D01*
Y211000D01*
D02*
G37*
G36*
X94450Y188000D02*
X89551D01*
X89645Y187524D01*
X90198Y186698D01*
X90198Y186697D01*
X90201Y186686D01*
X90210Y186628D01*
X90216Y186562D01*
Y183835D01*
X89716Y183684D01*
X89302Y184302D01*
X88476Y184855D01*
X87500Y185049D01*
X86524Y184855D01*
X85698Y184302D01*
X85145Y183475D01*
X84951Y182500D01*
X85145Y181525D01*
X85698Y180698D01*
X86174Y180379D01*
Y172121D01*
X85698Y171802D01*
X85145Y170975D01*
X84951Y170000D01*
X85145Y169025D01*
X85698Y168198D01*
X86524Y167645D01*
X87500Y167451D01*
X88476Y167645D01*
X89302Y168198D01*
X89716Y168816D01*
X90216Y168665D01*
Y159417D01*
X90212Y159384D01*
X90201Y159314D01*
X90198Y159303D01*
X90198Y159302D01*
X89645Y158475D01*
X89551Y158000D01*
X94450D01*
X94355Y158475D01*
X93802Y159302D01*
X93802Y159303D01*
X93799Y159314D01*
X93790Y159372D01*
X93784Y159438D01*
Y174583D01*
X93788Y174616D01*
X93799Y174686D01*
X93802Y174697D01*
X93802Y174698D01*
X94355Y175524D01*
X94450Y176000D01*
X92000D01*
Y177000D01*
X94450D01*
X94355Y177476D01*
X93802Y178302D01*
X93802Y178303D01*
X93799Y178314D01*
X93790Y178372D01*
X93784Y178438D01*
Y186583D01*
X93788Y186616D01*
X93799Y186686D01*
X93802Y186697D01*
X93802Y186698D01*
X94355Y187524D01*
X94450Y188000D01*
D02*
G37*
G36*
X127500Y159950D02*
X127024Y159855D01*
X126198Y159302D01*
X125645Y158475D01*
X125550Y158000D01*
X127500D01*
Y159950D01*
D02*
G37*
G36*
X167000Y176049D02*
X166024Y175855D01*
X165198Y175302D01*
X164645Y174476D01*
X164451Y173500D01*
X164645Y172524D01*
X165198Y171698D01*
X165674Y171379D01*
Y161621D01*
X165198Y161302D01*
X164645Y160476D01*
X164451Y159500D01*
X164645Y158525D01*
X165198Y157698D01*
X166024Y157145D01*
X167000Y156951D01*
X167975Y157145D01*
X168802Y157698D01*
X169355Y158525D01*
X169549Y159500D01*
X169355Y160476D01*
X168802Y161302D01*
X168325Y161621D01*
Y171379D01*
X168802Y171698D01*
X169355Y172524D01*
X169549Y173500D01*
X169355Y174476D01*
X168802Y175302D01*
X167975Y175855D01*
X167000Y176049D01*
D02*
G37*
G36*
X94450Y157000D02*
X92500D01*
Y155051D01*
X92975Y155145D01*
X93802Y155698D01*
X94355Y156525D01*
X94450Y157000D01*
D02*
G37*
G36*
X91500D02*
X89551D01*
X89645Y156525D01*
X90198Y155698D01*
X91025Y155145D01*
X91500Y155051D01*
Y157000D01*
D02*
G37*
G36*
X181500Y240049D02*
X180525Y239855D01*
X179698Y239302D01*
X179145Y238475D01*
X178951Y237500D01*
X179145Y236525D01*
X179698Y235698D01*
X180175Y235379D01*
Y187049D01*
X175063Y181937D01*
X174775Y181507D01*
X174674Y181000D01*
Y158549D01*
X171063Y154937D01*
X170775Y154507D01*
X170675Y154000D01*
Y150121D01*
X170198Y149802D01*
X169645Y148976D01*
X169451Y148000D01*
X169645Y147025D01*
X170198Y146198D01*
X171025Y145645D01*
X172000Y145451D01*
X172976Y145645D01*
X173802Y146198D01*
X174109Y146657D01*
X174640Y146551D01*
X174645Y146525D01*
X175198Y145698D01*
X176024Y145145D01*
X177000Y144951D01*
X177975Y145145D01*
X178802Y145698D01*
X179121Y146175D01*
X235879D01*
X236198Y145698D01*
X237024Y145145D01*
X238000Y144951D01*
X238976Y145145D01*
X239802Y145698D01*
X240355Y146525D01*
X240549Y147500D01*
X240355Y148476D01*
X239802Y149302D01*
X238976Y149855D01*
X238000Y150049D01*
X237024Y149855D01*
X236198Y149302D01*
X235879Y148826D01*
X179121D01*
X178802Y149302D01*
X177975Y149855D01*
X177000Y150049D01*
X176024Y149855D01*
X175198Y149302D01*
X174891Y148844D01*
X174360Y148949D01*
X174355Y148976D01*
X173802Y149802D01*
X173326Y150121D01*
Y153451D01*
X176937Y157063D01*
X177225Y157493D01*
X177325Y158000D01*
Y180451D01*
X182437Y185563D01*
X182725Y185993D01*
X182826Y186500D01*
Y235379D01*
X183302Y235698D01*
X183855Y236525D01*
X184049Y237500D01*
X183855Y238475D01*
X183302Y239302D01*
X182475Y239855D01*
X181500Y240049D01*
D02*
G37*
G36*
X114000Y137499D02*
Y128000D01*
X123499D01*
X123355Y129460D01*
X122784Y131345D01*
X121855Y133083D01*
X120605Y134605D01*
X119083Y135855D01*
X117345Y136784D01*
X115460Y137355D01*
X114000Y137499D01*
D02*
G37*
G36*
X113000D02*
X111540Y137355D01*
X109655Y136784D01*
X107917Y135855D01*
X106395Y134605D01*
X105145Y133083D01*
X104217Y131345D01*
X103645Y129460D01*
X103501Y128000D01*
X113000D01*
Y137499D01*
D02*
G37*
G36*
X174333Y123921D02*
Y120500D01*
X177754D01*
X177684Y121032D01*
X177285Y121993D01*
X176652Y122819D01*
X175826Y123453D01*
X174864Y123851D01*
X174333Y123921D01*
D02*
G37*
G36*
X173333D02*
X172801Y123851D01*
X171839Y123453D01*
X171013Y122819D01*
X170380Y121993D01*
X169982Y121032D01*
X169912Y120500D01*
X173333D01*
Y123921D01*
D02*
G37*
G36*
X123499Y127000D02*
X114000D01*
Y117501D01*
X115460Y117645D01*
X117345Y118217D01*
X119083Y119145D01*
X120605Y120395D01*
X121855Y121917D01*
X122784Y123655D01*
X123355Y125540D01*
X123499Y127000D01*
D02*
G37*
G36*
X113000D02*
X103501D01*
X103645Y125540D01*
X104217Y123655D01*
X105145Y121917D01*
X106395Y120395D01*
X107917Y119145D01*
X109655Y118217D01*
X111540Y117645D01*
X113000Y117501D01*
Y127000D01*
D02*
G37*
G36*
X193833Y123987D02*
X192801Y123851D01*
X191839Y123453D01*
X191013Y122819D01*
X190380Y121993D01*
X189982Y121032D01*
X189846Y120000D01*
X189982Y118968D01*
X190380Y118007D01*
X191013Y117181D01*
X191839Y116547D01*
X192801Y116149D01*
X193833Y116013D01*
X194864Y116149D01*
X195826Y116547D01*
X196652Y117181D01*
X197285Y118007D01*
X197684Y118968D01*
X197819Y120000D01*
X197684Y121032D01*
X197285Y121993D01*
X196652Y122819D01*
X195826Y123453D01*
X194864Y123851D01*
X193833Y123987D01*
D02*
G37*
G36*
X206500Y137549D02*
X205524Y137355D01*
X204698Y136802D01*
X204145Y135976D01*
X203951Y135000D01*
X204145Y134025D01*
X204698Y133198D01*
X205174Y132879D01*
Y120268D01*
X204645Y119475D01*
X204451Y118500D01*
X204645Y117525D01*
X205198Y116698D01*
X206025Y116145D01*
X207000Y115951D01*
X207976Y116145D01*
X208802Y116698D01*
X209355Y117525D01*
X209549Y118500D01*
X209355Y119475D01*
X208802Y120302D01*
X207976Y120855D01*
X207825Y120885D01*
Y132879D01*
X208302Y133198D01*
X208855Y134025D01*
X209049Y135000D01*
X208855Y135976D01*
X208302Y136802D01*
X207475Y137355D01*
X206500Y137549D01*
D02*
G37*
%LPD*%
G36*
X175993Y264865D02*
X175942Y264790D01*
X175897Y264704D01*
X175858Y264607D01*
X175825Y264500D01*
X175798Y264382D01*
X175777Y264253D01*
X175762Y264113D01*
X175750Y263801D01*
X174250D01*
X174247Y263962D01*
X174223Y264253D01*
X174202Y264382D01*
X174175Y264500D01*
X174142Y264607D01*
X174103Y264704D01*
X174058Y264790D01*
X174007Y264865D01*
X173950Y264929D01*
X176050D01*
X175993Y264865D01*
D02*
G37*
G36*
X175753Y233538D02*
X175777Y233247D01*
X175798Y233118D01*
X175825Y233000D01*
X175858Y232893D01*
X175897Y232796D01*
X175942Y232710D01*
X175993Y232635D01*
X176050Y232571D01*
X173950D01*
X174007Y232635D01*
X174058Y232710D01*
X174103Y232796D01*
X174142Y232893D01*
X174175Y233000D01*
X174202Y233118D01*
X174223Y233247D01*
X174238Y233387D01*
X174250Y233699D01*
X175750D01*
X175753Y233538D01*
D02*
G37*
G36*
X300323Y264865D02*
X300272Y264790D01*
X300227Y264704D01*
X300188Y264607D01*
X300155Y264500D01*
X300128Y264382D01*
X300107Y264253D01*
X300092Y264113D01*
X300080Y263801D01*
X298580D01*
X298577Y263962D01*
X298553Y264253D01*
X298532Y264382D01*
X298505Y264500D01*
X298472Y264607D01*
X298433Y264704D01*
X298388Y264790D01*
X298337Y264865D01*
X298280Y264929D01*
X300380D01*
X300323Y264865D01*
D02*
G37*
G36*
X297253Y218538D02*
X297277Y218247D01*
X297298Y218118D01*
X297325Y218000D01*
X297358Y217893D01*
X297397Y217796D01*
X297442Y217710D01*
X297493Y217635D01*
X297550Y217571D01*
X295450D01*
X295507Y217635D01*
X295558Y217710D01*
X295603Y217796D01*
X295642Y217893D01*
X295675Y218000D01*
X295702Y218118D01*
X295723Y218247D01*
X295738Y218387D01*
X295750Y218699D01*
X297250D01*
X297253Y218538D01*
D02*
G37*
G36*
X174407Y209283D02*
X174168Y209003D01*
X174070Y208868D01*
X173987Y208737D01*
X173920Y208609D01*
X173867Y208484D01*
X173830Y208363D01*
X173808Y208245D01*
X173800Y208130D01*
X173200D01*
X173193Y208245D01*
X173170Y208363D01*
X173133Y208484D01*
X173080Y208609D01*
X173012Y208737D01*
X172930Y208868D01*
X172833Y209003D01*
X172720Y209142D01*
X172450Y209429D01*
X174550D01*
X174407Y209283D01*
D02*
G37*
G36*
X162648Y191254D02*
X162667Y191024D01*
X162678Y190964D01*
X162692Y190912D01*
X162708Y190868D01*
X162726Y190833D01*
X162747Y190806D01*
X162771Y190787D01*
X161891Y190996D01*
X161920Y191002D01*
X161947Y191014D01*
X161970Y191032D01*
X161991Y191058D01*
X162008Y191089D01*
X162022Y191128D01*
X162033Y191173D01*
X162041Y191224D01*
X162046Y191282D01*
X162047Y191347D01*
X162647D01*
X162648Y191254D01*
D02*
G37*
G36*
X93357Y208544D02*
X93230Y208499D01*
X93117Y208424D01*
X93020Y208319D01*
X92937Y208184D01*
X92870Y208019D01*
X92817Y207824D01*
X92780Y207599D01*
X92757Y207344D01*
X92750Y207059D01*
X91250D01*
X91242Y207344D01*
X91220Y207599D01*
X91183Y207824D01*
X91130Y208019D01*
X91062Y208184D01*
X90980Y208319D01*
X90882Y208424D01*
X90770Y208499D01*
X90642Y208544D01*
X90500Y208559D01*
X93500D01*
X93357Y208544D01*
D02*
G37*
G36*
X92753Y190538D02*
X92777Y190247D01*
X92798Y190118D01*
X92825Y190000D01*
X92858Y189893D01*
X92897Y189796D01*
X92942Y189710D01*
X92993Y189635D01*
X93050Y189571D01*
X90950D01*
X91007Y189635D01*
X91058Y189710D01*
X91103Y189796D01*
X91142Y189893D01*
X91175Y190000D01*
X91202Y190118D01*
X91223Y190247D01*
X91238Y190387D01*
X91250Y190699D01*
X92750D01*
X92753Y190538D01*
D02*
G37*
G36*
X92993Y187365D02*
X92942Y187290D01*
X92897Y187204D01*
X92858Y187107D01*
X92825Y187000D01*
X92798Y186882D01*
X92777Y186753D01*
X92762Y186613D01*
X92750Y186301D01*
X91250D01*
X91247Y186462D01*
X91223Y186753D01*
X91202Y186882D01*
X91175Y187000D01*
X91142Y187107D01*
X91103Y187204D01*
X91058Y187290D01*
X91007Y187365D01*
X90950Y187429D01*
X93050D01*
X92993Y187365D01*
D02*
G37*
G36*
X92753Y178538D02*
X92777Y178247D01*
X92798Y178118D01*
X92825Y178000D01*
X92858Y177893D01*
X92897Y177796D01*
X92942Y177710D01*
X92993Y177635D01*
X93050Y177571D01*
X90950D01*
X91007Y177635D01*
X91058Y177710D01*
X91103Y177796D01*
X91142Y177893D01*
X91175Y178000D01*
X91202Y178118D01*
X91223Y178247D01*
X91238Y178387D01*
X91250Y178699D01*
X92750D01*
X92753Y178538D01*
D02*
G37*
G36*
X92993Y175365D02*
X92942Y175290D01*
X92897Y175204D01*
X92858Y175107D01*
X92825Y175000D01*
X92798Y174882D01*
X92777Y174753D01*
X92762Y174613D01*
X92750Y174301D01*
X91250D01*
X91247Y174462D01*
X91223Y174753D01*
X91202Y174882D01*
X91175Y175000D01*
X91142Y175107D01*
X91103Y175204D01*
X91058Y175290D01*
X91007Y175365D01*
X90950Y175429D01*
X93050D01*
X92993Y175365D01*
D02*
G37*
G36*
X92753Y159538D02*
X92777Y159247D01*
X92798Y159118D01*
X92825Y159000D01*
X92858Y158893D01*
X92897Y158796D01*
X92942Y158710D01*
X92993Y158635D01*
X93050Y158571D01*
X90950D01*
X91007Y158635D01*
X91058Y158710D01*
X91103Y158796D01*
X91142Y158893D01*
X91175Y159000D01*
X91202Y159118D01*
X91223Y159247D01*
X91238Y159387D01*
X91250Y159699D01*
X92750D01*
X92753Y159538D01*
D02*
G37*
%LPC*%
G36*
X303000Y140949D02*
Y139000D01*
X304949D01*
X304855Y139476D01*
X304302Y140302D01*
X303475Y140855D01*
X303000Y140949D01*
D02*
G37*
G36*
X302000D02*
X301524Y140855D01*
X300698Y140302D01*
X300145Y139476D01*
X300050Y139000D01*
X302000D01*
Y140949D01*
D02*
G37*
G36*
X267921Y133500D02*
X264500D01*
Y130079D01*
X265032Y130149D01*
X265993Y130547D01*
X266819Y131181D01*
X267453Y132007D01*
X267851Y132968D01*
X267921Y133500D01*
D02*
G37*
G36*
X263500D02*
X260079D01*
X260149Y132968D01*
X260547Y132007D01*
X261181Y131181D01*
X262007Y130547D01*
X262968Y130149D01*
X263500Y130079D01*
Y133500D01*
D02*
G37*
G36*
X284000Y137987D02*
X282968Y137851D01*
X282007Y137453D01*
X281181Y136819D01*
X280547Y135993D01*
X280149Y135032D01*
X280013Y134000D01*
X280149Y132968D01*
X280547Y132007D01*
X281181Y131181D01*
X282007Y130547D01*
X282968Y130149D01*
X284000Y130013D01*
X285032Y130149D01*
X285993Y130547D01*
X286819Y131181D01*
X287453Y132007D01*
X287851Y132968D01*
X287987Y134000D01*
X287851Y135032D01*
X287453Y135993D01*
X286819Y136819D01*
X285993Y137453D01*
X285032Y137851D01*
X284000Y137987D01*
D02*
G37*
G36*
X274000D02*
X272968Y137851D01*
X272007Y137453D01*
X271181Y136819D01*
X270547Y135993D01*
X270149Y135032D01*
X270013Y134000D01*
X270149Y132968D01*
X270547Y132007D01*
X271181Y131181D01*
X272007Y130547D01*
X272968Y130149D01*
X274000Y130013D01*
X275032Y130149D01*
X275993Y130547D01*
X276819Y131181D01*
X277453Y132007D01*
X277851Y132968D01*
X277987Y134000D01*
X277851Y135032D01*
X277453Y135993D01*
X276819Y136819D01*
X275993Y137453D01*
X275032Y137851D01*
X274000Y137987D01*
D02*
G37*
G36*
X312000Y137499D02*
Y128000D01*
X321499D01*
X321355Y129460D01*
X320783Y131345D01*
X319855Y133083D01*
X318605Y134605D01*
X317083Y135855D01*
X315345Y136784D01*
X313460Y137355D01*
X312000Y137499D01*
D02*
G37*
G36*
X311000D02*
X309540Y137355D01*
X307655Y136784D01*
X305917Y135855D01*
X304395Y134605D01*
X303145Y133083D01*
X302217Y131345D01*
X301645Y129460D01*
X301501Y128000D01*
X311000D01*
Y137499D01*
D02*
G37*
G36*
X287953Y127953D02*
X280047D01*
Y120047D01*
X287953D01*
Y127953D01*
D02*
G37*
G36*
X274000Y127987D02*
X272968Y127851D01*
X272007Y127453D01*
X271181Y126819D01*
X270547Y125993D01*
X270149Y125032D01*
X270013Y124000D01*
X270149Y122968D01*
X270547Y122007D01*
X271181Y121181D01*
X272007Y120547D01*
X272968Y120149D01*
X274000Y120013D01*
X275032Y120149D01*
X275993Y120547D01*
X276819Y121181D01*
X277453Y122007D01*
X277851Y122968D01*
X277987Y124000D01*
X277851Y125032D01*
X277453Y125993D01*
X276819Y126819D01*
X275993Y127453D01*
X275032Y127851D01*
X274000Y127987D01*
D02*
G37*
G36*
X321499Y127000D02*
X312000D01*
Y117501D01*
X313460Y117645D01*
X315345Y118217D01*
X317083Y119145D01*
X318605Y120395D01*
X319855Y121917D01*
X320783Y123655D01*
X321355Y125540D01*
X321499Y127000D01*
D02*
G37*
G36*
X311000D02*
X301501D01*
X301645Y125540D01*
X302217Y123655D01*
X303145Y121917D01*
X304395Y120395D01*
X305917Y119145D01*
X307655Y118217D01*
X309540Y117645D01*
X311000Y117501D01*
Y127000D01*
D02*
G37*
G36*
X304500Y114950D02*
Y113000D01*
X306450D01*
X306355Y113476D01*
X305802Y114302D01*
X304976Y114855D01*
X304500Y114950D01*
D02*
G37*
G36*
X284500Y114421D02*
Y111000D01*
X287921D01*
X287851Y111532D01*
X287453Y112493D01*
X286819Y113319D01*
X285993Y113953D01*
X285032Y114351D01*
X284500Y114421D01*
D02*
G37*
G36*
X283500D02*
X282968Y114351D01*
X282007Y113953D01*
X281181Y113319D01*
X280547Y112493D01*
X280149Y111532D01*
X280079Y111000D01*
X283500D01*
Y114421D01*
D02*
G37*
G36*
X306450Y112000D02*
X304500D01*
Y110050D01*
X304976Y110145D01*
X305802Y110698D01*
X306355Y111524D01*
X306450Y112000D01*
D02*
G37*
%LPD*%
G36*
X274021Y134353D02*
X273314D01*
X273324Y134373D01*
X273333Y134412D01*
X273341Y134470D01*
X273354Y134642D01*
X273359Y134950D01*
X272620D01*
X272639Y134978D01*
X272656Y135010D01*
X272671Y135045D01*
X272683Y135085D01*
X272694Y135128D01*
X272703Y135174D01*
X272715Y135279D01*
X272718Y135337D01*
X272719Y135399D01*
X273319D01*
X273320Y135337D01*
X273328Y135225D01*
X273335Y135174D01*
X273354Y135085D01*
X273361Y135063D01*
X273367Y135400D01*
X273967D01*
X274021Y134353D01*
D02*
G37*
D12*
X113086Y218000D02*
X125500D01*
X129740Y222240D02*
Y230240D01*
X125500Y218000D02*
X129740Y222240D01*
X112500Y208500D02*
Y217414D01*
X176396Y197400D02*
Y225104D01*
X138500Y154000D02*
Y224000D01*
Y153500D02*
Y154000D01*
X139500Y225000D02*
X145500D01*
X138500Y224000D02*
X139500Y225000D01*
X112500Y217414D02*
X113086Y218000D01*
X273019Y134649D02*
X273667Y134000D01*
D14*
X261649Y115500D02*
X264000Y117851D01*
Y124000D01*
X206500Y117649D02*
Y135000D01*
X188833Y115000D02*
X193833Y110000D01*
X161000Y115000D02*
X188833D01*
X155000Y121000D02*
X161000Y115000D01*
X237000Y117500D02*
X244000Y110500D01*
X254000D02*
Y131500D01*
X252500Y133000D02*
Y138000D01*
Y133000D02*
X254000Y131500D01*
X237000Y117500D02*
Y137000D01*
X207000Y118149D02*
Y118500D01*
X206500Y117649D02*
X207000Y118149D01*
X244500Y123125D02*
Y149705D01*
X244375Y123125D02*
X244500D01*
X249326Y130174D02*
Y149673D01*
Y130174D02*
X249500Y130000D01*
X249000Y129500D02*
X249500Y130000D01*
X259000Y115500D02*
X261649D01*
X273667Y134000D02*
Y136047D01*
X167000Y159500D02*
Y173500D01*
X177000Y147500D02*
X238000D01*
X172000Y148000D02*
Y154000D01*
X176000Y158000D02*
Y181000D01*
X172000Y154000D02*
X176000Y158000D01*
Y181000D02*
X181500Y186500D01*
X155000Y121000D02*
Y127000D01*
X152000Y147500D02*
Y198500D01*
X159500Y206000D02*
Y216000D01*
X152000Y198500D02*
X159500Y206000D01*
X230000Y237000D02*
Y245000D01*
X181500Y186500D02*
Y237500D01*
X221500Y259000D02*
X230000Y250500D01*
Y245000D02*
Y250500D01*
X224000Y217500D02*
Y246000D01*
X219000Y220000D02*
Y249500D01*
X214000Y226000D02*
Y253000D01*
X251500Y243000D02*
Y250000D01*
X242000Y212500D02*
Y233500D01*
X251500Y243000D01*
Y250000D02*
X254000Y252500D01*
X187000Y202500D02*
X189500Y205000D01*
X195500D01*
X166199Y218500D02*
X166897D01*
X167224Y218173D01*
X162500Y197000D02*
X166000Y200500D01*
Y216949D02*
X167224Y218173D01*
X166000Y200500D02*
Y216949D01*
X170500Y199500D02*
Y215000D01*
X162347Y191347D02*
X170500Y199500D01*
X163000Y203500D02*
Y222000D01*
X156000Y196500D02*
X163000Y203500D01*
X169500Y195000D02*
X173500Y199000D01*
Y210500D01*
X169500Y190500D02*
Y195000D01*
X162000Y189500D02*
X162347Y189847D01*
Y191347D01*
X87500Y170000D02*
Y182500D01*
X79500Y157852D02*
Y181000D01*
Y157852D02*
X79852Y157500D01*
X83000D01*
X74000Y182500D02*
X78000D01*
X79500Y181000D01*
X182000Y168500D02*
Y171500D01*
Y168500D02*
X183500Y167000D01*
X190500D01*
X194000Y170500D02*
Y195000D01*
X190500Y167000D02*
X194000Y170500D01*
X187000Y171500D02*
Y202500D01*
X273019Y134649D02*
Y135399D01*
X273667Y136047D01*
D33*
X284000Y124000D02*
D03*
X234000Y110500D02*
D03*
X193833Y110000D02*
D03*
X145500Y239000D02*
D03*
Y205000D02*
D03*
X92000Y211500D02*
D03*
D56*
X264000Y134000D02*
Y144000D01*
X268500Y148500D01*
X282121D02*
X283000Y149379D01*
Y164000D01*
X268500Y148500D02*
X282121D01*
X284500Y104500D02*
X296914D01*
X134000D02*
X284500D01*
X284000Y110500D02*
X284500Y110000D01*
Y104500D02*
Y110000D01*
X297500Y134500D02*
X301121D01*
X302213Y138213D02*
X302500Y138500D01*
X302213Y137152D02*
Y138213D01*
X302000Y136939D02*
X302213Y137152D01*
X302000Y135379D02*
Y136939D01*
X301121Y134500D02*
X302000Y135379D01*
X297500Y112000D02*
Y134500D01*
Y105086D02*
Y112000D01*
X303713Y112213D02*
X304000Y112500D01*
X302652Y112213D02*
X303713D01*
X302439Y112000D02*
X302652Y112213D01*
X297500Y112000D02*
X302439D01*
X110500Y235500D02*
X123000D01*
X126500Y239000D02*
X145500D01*
X123000Y235500D02*
X126500Y239000D01*
X104500Y229500D02*
X110500Y235500D01*
X104500Y214000D02*
Y229500D01*
X131500Y190500D02*
Y194500D01*
Y121500D02*
Y190500D01*
Y194500D02*
X135500Y198500D01*
Y216000D01*
X221500Y259000D02*
Y272000D01*
X236000Y259000D02*
Y272000D01*
Y217500D02*
Y259000D01*
X128000Y138500D02*
Y156223D01*
Y110500D02*
Y138500D01*
Y157308D02*
Y157500D01*
X127457Y156765D02*
X128000Y157308D01*
X127457Y156765D02*
X128000Y156223D01*
X145500Y259000D02*
X155914D01*
X156500Y258414D01*
Y220500D02*
Y258414D01*
X296500Y216500D02*
Y256500D01*
X299330Y259330D02*
Y266000D01*
X296500Y256500D02*
X299330Y259330D01*
X175000Y231500D02*
Y266000D01*
X92000Y176500D02*
Y188500D01*
Y158050D02*
Y176500D01*
Y188500D02*
Y211500D01*
X128000Y110500D02*
X134000Y104500D01*
X296914D02*
X297500Y105086D01*
X151000Y215000D02*
X156500Y220500D01*
X145500Y215000D02*
X151000D01*
D57*
X284000Y134000D02*
D03*
X274000Y124000D02*
D03*
Y134000D02*
D03*
X264000Y124000D02*
D03*
Y134000D02*
D03*
X284000Y110500D02*
D03*
X274000D02*
D03*
X264000D02*
D03*
X254000D02*
D03*
X244000D02*
D03*
X193833Y120000D02*
D03*
X183833Y110000D02*
D03*
Y120000D02*
D03*
X173833Y110000D02*
D03*
Y120000D02*
D03*
X145500Y259000D02*
D03*
Y249000D02*
D03*
Y225000D02*
D03*
Y215000D02*
D03*
X82000Y211500D02*
D03*
D58*
X209800Y195800D02*
D03*
X209900Y199300D02*
D03*
X207500Y197500D02*
D03*
X209800Y202900D02*
D03*
X207500Y201000D02*
D03*
X205100Y195800D02*
D03*
Y199300D02*
D03*
Y202800D02*
D03*
D59*
X113500Y127500D02*
D03*
Y247500D02*
D03*
X311500D02*
D03*
Y127500D02*
D03*
D60*
X252500Y138000D02*
D03*
X237000Y137000D02*
D03*
X207000Y118500D02*
D03*
X244375Y123125D02*
D03*
X249326Y149673D02*
D03*
X244500Y149705D02*
D03*
X259000Y115500D02*
D03*
X302500Y138500D02*
D03*
X304000Y112500D02*
D03*
X206500Y135000D02*
D03*
X167000Y159500D02*
D03*
X152000Y147500D02*
D03*
X162500Y197000D02*
D03*
X169500Y190500D02*
D03*
X187000Y171500D02*
D03*
X128000Y138500D02*
D03*
X172000Y148000D02*
D03*
X177000Y147500D02*
D03*
X156000Y196500D02*
D03*
X155000Y127000D02*
D03*
X162000Y189500D02*
D03*
X167000Y173500D02*
D03*
X182000Y171500D02*
D03*
X238000Y147500D02*
D03*
X249000Y129500D02*
D03*
X131500Y121500D02*
D03*
Y190500D02*
D03*
X135500Y216000D02*
D03*
X230000Y237000D02*
D03*
X181500Y237500D02*
D03*
X230000Y245000D02*
D03*
X221500Y259000D02*
D03*
X224000Y246000D02*
D03*
X221500Y272000D02*
D03*
X219000Y249500D02*
D03*
X214000Y253000D02*
D03*
Y226000D02*
D03*
X219000Y220000D02*
D03*
X224000Y217500D02*
D03*
X236000Y259000D02*
D03*
X242000Y231500D02*
D03*
X254000Y252500D02*
D03*
X236000Y272000D02*
D03*
X195500Y205000D02*
D03*
X159500Y216000D02*
D03*
X242000Y212500D02*
D03*
X236000Y217500D02*
D03*
X166199Y218500D02*
D03*
X173500Y210500D02*
D03*
X170500Y215000D02*
D03*
X163000Y222000D02*
D03*
X128000Y157500D02*
D03*
X296500Y216500D02*
D03*
X299330Y266000D02*
D03*
X175000Y231500D02*
D03*
Y266000D02*
D03*
X176396Y197400D02*
D03*
X92000Y157500D02*
D03*
X138500Y154000D02*
D03*
X92000Y176500D02*
D03*
X87500Y170000D02*
D03*
Y182500D02*
D03*
X176396Y225104D02*
D03*
X104500Y214000D02*
D03*
X112346Y208846D02*
D03*
X129740Y230240D02*
D03*
X92000Y188500D02*
D03*
X83000Y157500D02*
D03*
X74000Y182500D02*
D03*
X194000Y195000D02*
D03*
D61*
X283000Y164000D02*
D03*
M02*
