G04*
G04 #@! TF.GenerationSoftware,Altium Limited,Altium Designer,20.1.8 (145)*
G04*
G04 Layer_Color=16777215*
%FSLAX25Y25*%
%MOIN*%
G70*
G04*
G04 #@! TF.SameCoordinates,6F670A74-5D77-4B1B-A970-1CA094F5BC2F*
G04*
G04*
G04 #@! TF.FilePolarity,Positive*
G04*
G01*
G75*
%ADD10C,0.00984*%
%ADD11C,0.00787*%
%ADD12C,0.01000*%
%ADD13C,0.00394*%
%ADD14C,0.00600*%
%ADD15C,0.00500*%
%ADD16C,0.00700*%
D10*
X205839Y180760D02*
G03*
X205839Y180760I-492J0D01*
G01*
X121732Y219413D02*
G03*
X121732Y219413I-492J0D01*
G01*
X259252Y226087D02*
G03*
X259252Y226087I-492J0D01*
G01*
D11*
X205720Y162000D02*
G03*
X205720Y157000I0J-2500D01*
G01*
X151433Y256831D02*
G03*
X150181Y257637I-5932J-7831D01*
G01*
X139762Y256949D02*
G03*
X139874Y240972I5738J-7949D01*
G01*
X150133Y240387D02*
G03*
X151406Y241205I-4633J8613D01*
G01*
X151433Y222831D02*
G03*
X150181Y223637I-5932J-7831D01*
G01*
X139762Y222949D02*
G03*
X139874Y206972I5738J-7949D01*
G01*
X150133Y206387D02*
G03*
X151406Y207205I-4633J8613D01*
G01*
X197394Y239000D02*
G03*
X197394Y239000I-394J0D01*
G01*
X205720Y162000D02*
Y174854D01*
Y144146D02*
Y157000D01*
X133280Y144146D02*
Y174854D01*
X205720D01*
X133280Y144146D02*
X205720D01*
X231713Y225575D02*
X233287D01*
X231713Y222425D02*
X233287D01*
X108213Y204575D02*
X109787D01*
X108213Y201425D02*
X109787D01*
X108213Y197075D02*
X109787D01*
X108213Y193925D02*
X109787D01*
X74713Y184776D02*
X75213D01*
X74713D02*
Y195276D01*
Y195776D01*
X75213D01*
X83213Y184776D02*
X83713D01*
Y185276D01*
Y195776D01*
X83213D02*
X83713D01*
X151406Y241205D02*
Y256795D01*
Y207205D02*
Y222795D01*
X114744Y229256D02*
Y232405D01*
X116713D01*
X114744Y220595D02*
Y223744D01*
Y220595D02*
X116713D01*
X77000Y206500D02*
X97000D01*
Y216500D01*
X77000D02*
X97000D01*
X77000Y206500D02*
Y216500D01*
X200713Y221575D02*
X202287D01*
X200713Y218425D02*
X202287D01*
X200713Y211425D02*
X202287D01*
X200713Y214575D02*
X202287D01*
X200559Y227575D02*
X202134D01*
X200559Y224425D02*
X202134D01*
X226713Y124575D02*
X228287D01*
X226713Y121425D02*
X228287D01*
X226713Y131575D02*
X228287D01*
X226713Y128425D02*
X228287D01*
X160425Y269150D02*
X163575D01*
X160425Y262850D02*
X163575D01*
X78713Y161425D02*
X80287D01*
X78713Y164575D02*
X80287D01*
X78713Y168425D02*
X80287D01*
X78713Y171575D02*
X80287D01*
X257213Y142425D02*
X258787D01*
X257213Y145575D02*
X258787D01*
X231713Y233075D02*
X233287D01*
X231713Y229925D02*
X233287D01*
X200713Y230925D02*
X202287D01*
X200713Y234075D02*
X202287D01*
X265256Y213094D02*
Y216244D01*
X263287Y213094D02*
X265256D01*
Y221756D02*
Y224905D01*
X263287D02*
X265256D01*
X160425Y234650D02*
X163575D01*
X160425Y228350D02*
X163575D01*
X226713Y145575D02*
X228287D01*
X226713Y142425D02*
X228287D01*
X226713Y138575D02*
X228287D01*
X226713Y135425D02*
X228287D01*
X283425Y219650D02*
X286575D01*
X283425Y213350D02*
X286575D01*
X230075Y173713D02*
Y175287D01*
X226925Y173713D02*
Y175287D01*
X323331Y202516D02*
X323705D01*
X323331Y154484D02*
X323705D01*
X285929D02*
X313488D01*
X236717D02*
X241441D01*
X236717D02*
Y162752D01*
Y194248D02*
Y202516D01*
X241441D01*
X294591D02*
X313488D01*
X279870Y141472D02*
X286563D01*
X277902Y148953D02*
X279870Y150528D01*
X277902Y143047D02*
X279870Y141472D01*
Y150528D02*
X286563D01*
X277902Y143047D02*
Y148953D01*
X301917Y141472D02*
Y150528D01*
X294437Y141472D02*
X301917D01*
X294437Y150528D02*
X301917D01*
D12*
X213500Y266000D02*
G03*
X213500Y266000I-500J0D01*
G01*
X256500D02*
G03*
X256500Y266000I-500J0D01*
G01*
X91500Y202000D02*
X95499D01*
X80000Y202499D02*
X83999D01*
X81999Y204499D02*
Y200500D01*
D13*
X77047Y182992D02*
G03*
X77047Y182992I-197J0D01*
G01*
X200700Y205400D02*
X212900D01*
X200700Y193200D02*
X212900D01*
X200700Y204400D02*
Y205400D01*
X212900Y193200D02*
Y205400D01*
X200700Y193300D02*
Y194100D01*
D14*
X217360Y237700D02*
X240640D01*
X241300Y244967D02*
Y255033D01*
X217360Y262300D02*
X240640D01*
X216700Y244967D02*
Y255033D01*
X260360Y237700D02*
X283640D01*
X284300Y244967D02*
Y255033D01*
X260360Y262300D02*
X283640D01*
X259700Y244967D02*
Y255033D01*
D15*
X205906Y242807D02*
Y256193D01*
X194095Y242807D02*
Y256193D01*
D16*
X112722Y141700D02*
X108224D01*
X109723Y143200D01*
X108224Y144699D01*
X112722D01*
Y146199D02*
Y147698D01*
Y146948D01*
X109723D01*
Y146199D01*
Y152946D02*
Y150697D01*
X110473Y149947D01*
X111972D01*
X112722Y150697D01*
Y152946D01*
X109723Y154446D02*
X112722D01*
X111223D01*
X110473Y155196D01*
X109723Y155945D01*
Y156695D01*
X112722Y159694D02*
Y161194D01*
X111972Y161943D01*
X110473D01*
X109723Y161194D01*
Y159694D01*
X110473Y158944D01*
X111972D01*
X112722Y159694D01*
X109723Y166442D02*
Y164193D01*
X110473Y163443D01*
X111972D01*
X112722Y164193D01*
Y166442D01*
X108224Y167942D02*
X112722D01*
X110473D01*
X109723Y168691D01*
Y170191D01*
X110473Y170941D01*
X112722D01*
Y172440D02*
Y173940D01*
Y173190D01*
X109723D01*
Y172440D01*
X114222Y176189D02*
X109723D01*
Y178438D01*
X110473Y179188D01*
X111972D01*
X112722Y178438D01*
Y176189D01*
X121300Y141700D02*
X116801D01*
X118301Y143200D01*
X116801Y144699D01*
X121300D01*
Y148448D02*
Y146948D01*
X120550Y146199D01*
X119051D01*
X118301Y146948D01*
Y148448D01*
X119051Y149198D01*
X119800D01*
Y146199D01*
X121300Y150697D02*
Y152197D01*
Y151447D01*
X116801D01*
Y150697D01*
X121300Y156695D02*
Y155196D01*
X120550Y154446D01*
X119051D01*
X118301Y155196D01*
Y156695D01*
X119051Y157445D01*
X119800D01*
Y154446D01*
X118301Y158944D02*
X121300Y161943D01*
X119800Y160444D01*
X118301Y161943D01*
X121300Y158944D01*
Y163443D02*
Y164943D01*
Y164193D01*
X118301D01*
Y163443D01*
X121300Y167192D02*
Y169441D01*
X120550Y170191D01*
X119800Y169441D01*
Y167942D01*
X119051Y167192D01*
X118301Y167942D01*
Y170191D01*
X211200Y234199D02*
Y230700D01*
X212366Y231866D01*
X213533Y230700D01*
Y234199D01*
X215282Y233033D02*
X216448D01*
X217031Y232449D01*
Y230700D01*
X215282D01*
X214699Y231283D01*
X215282Y231866D01*
X217031D01*
X218198Y230700D02*
Y234199D01*
Y231866D02*
X219947Y233033D01*
X218198Y231866D02*
X219947Y230700D01*
X223446D02*
X222280D01*
X221697Y231283D01*
Y232449D01*
X222280Y233033D01*
X223446D01*
X224029Y232449D01*
Y231866D01*
X221697D01*
X256200Y230700D02*
Y234199D01*
X257949D01*
X258533Y233616D01*
Y232449D01*
X257949Y231866D01*
X256200D01*
X257366D02*
X258533Y230700D01*
X261448D02*
X260282D01*
X259699Y231283D01*
Y232449D01*
X260282Y233033D01*
X261448D01*
X262031Y232449D01*
Y231866D01*
X259699D01*
X263198Y230700D02*
X264947D01*
X265530Y231283D01*
X264947Y231866D01*
X263781D01*
X263198Y232449D01*
X263781Y233033D01*
X265530D01*
X268446Y230700D02*
X267280D01*
X266697Y231283D01*
Y232449D01*
X267280Y233033D01*
X268446D01*
X269029Y232449D01*
Y231866D01*
X266697D01*
X270779Y233616D02*
Y233033D01*
X270196D01*
X271362D01*
X270779D01*
Y231283D01*
X271362Y230700D01*
X109200Y110200D02*
Y113199D01*
X109950D01*
X110699Y112449D01*
Y110200D01*
Y112449D01*
X111449Y113199D01*
X112199Y112449D01*
Y110200D01*
X113699D02*
X115198D01*
X114448D01*
Y114699D01*
X113699D01*
X117447Y113199D02*
X120446Y110200D01*
X118947Y111699D01*
X120446Y113199D01*
X117447Y110200D01*
X121946Y112449D02*
X124945D01*
X129444Y114699D02*
Y110200D01*
X127194D01*
X126444Y110950D01*
Y112449D01*
X127194Y113199D01*
X129444D01*
X133192Y110200D02*
X131693D01*
X130943Y110950D01*
Y112449D01*
X131693Y113199D01*
X133192D01*
X133942Y112449D01*
Y111699D01*
X130943D01*
X135442Y110200D02*
Y113199D01*
X136191D01*
X136941Y112449D01*
Y110200D01*
Y112449D01*
X137691Y113199D01*
X138441Y112449D01*
Y110200D01*
X140690D02*
X142189D01*
X142939Y110950D01*
Y112449D01*
X142189Y113199D01*
X140690D01*
X139940Y112449D01*
Y110950D01*
X140690Y110200D01*
X148937D02*
X150437D01*
X149687D01*
Y114699D01*
X148937Y113949D01*
X78200Y222699D02*
Y219200D01*
X79949D01*
X80533Y219783D01*
Y220366D01*
X79949Y220949D01*
X78200D01*
X79949D01*
X80533Y221533D01*
Y222116D01*
X79949Y222699D01*
X78200D01*
X81699Y219200D02*
Y221533D01*
X82865Y222699D01*
X84031Y221533D01*
Y219200D01*
Y220949D01*
X81699D01*
X85198Y222699D02*
X87530D01*
X86364D01*
Y219200D01*
X92195Y222699D02*
X93362D01*
X92779D01*
Y219200D01*
X92195D01*
X93362D01*
X95111D02*
Y222699D01*
X97444Y219200D01*
Y222699D01*
X197167Y131009D02*
Y128094D01*
X197751Y127510D01*
X198917D01*
X199500Y128094D01*
Y131009D01*
X200666Y127510D02*
X201833D01*
X201249D01*
Y131009D01*
X200666Y130426D01*
X120042Y189666D02*
X119459Y190249D01*
X118293D01*
X117710Y189666D01*
Y187334D01*
X118293Y186751D01*
X119459D01*
X120042Y187334D01*
X121208Y186751D02*
X122375D01*
X121792D01*
Y190249D01*
X121208Y189666D01*
X124124Y186751D02*
X125290D01*
X124707D01*
Y190249D01*
X124124Y189666D01*
X142584Y233749D02*
Y230834D01*
X143167Y230251D01*
X144334D01*
X144917Y230834D01*
Y233749D01*
X148416D02*
X146083D01*
Y232000D01*
X147249Y232583D01*
X147833D01*
X148416Y232000D01*
Y230834D01*
X147833Y230251D01*
X146666D01*
X146083Y230834D01*
X142584Y200249D02*
Y197334D01*
X143167Y196751D01*
X144334D01*
X144917Y197334D01*
Y200249D01*
X147833Y196751D02*
Y200249D01*
X146083Y198500D01*
X148416D01*
X128834Y197959D02*
X128251Y197376D01*
Y196210D01*
X128834Y195626D01*
X131166D01*
X131749Y196210D01*
Y197376D01*
X131166Y197959D01*
X131749Y199125D02*
Y200292D01*
Y199708D01*
X128251D01*
X128834Y199125D01*
Y202041D02*
X128251Y202624D01*
Y203790D01*
X128834Y204374D01*
X131166D01*
X131749Y203790D01*
Y202624D01*
X131166Y202041D01*
X128834D01*
X113417Y213334D02*
Y215666D01*
X112834Y216249D01*
X111667D01*
X111084Y215666D01*
Y213334D01*
X111667Y212751D01*
X112834D01*
X112251Y213917D02*
X113417Y212751D01*
X112834D02*
X113417Y213334D01*
X116916Y212751D02*
X114583D01*
X116916Y215083D01*
Y215666D01*
X116333Y216249D01*
X115166D01*
X114583Y215666D01*
X230749Y154626D02*
X227251D01*
Y156376D01*
X227834Y156959D01*
X229000D01*
X229583Y156376D01*
Y154626D01*
Y155793D02*
X230749Y156959D01*
Y158125D02*
Y159292D01*
Y158708D01*
X227251D01*
X227834Y158125D01*
X227251Y163374D02*
X227834Y162207D01*
X229000Y161041D01*
X230166D01*
X230749Y161624D01*
Y162790D01*
X230166Y163374D01*
X229583D01*
X229000Y162790D01*
Y161041D01*
X86584Y195749D02*
Y192834D01*
X87167Y192251D01*
X88334D01*
X88917Y192834D01*
Y195749D01*
X90083Y195166D02*
X90666Y195749D01*
X91833D01*
X92416Y195166D01*
Y194583D01*
X91833Y194000D01*
X91249D01*
X91833D01*
X92416Y193417D01*
Y192834D01*
X91833Y192251D01*
X90666D01*
X90083Y192834D01*
X216084Y197049D02*
Y194134D01*
X216667Y193551D01*
X217834D01*
X218417Y194134D01*
Y197049D01*
X221916Y193551D02*
X219583D01*
X221916Y195883D01*
Y196466D01*
X221333Y197049D01*
X220166D01*
X219583Y196466D01*
X230749Y183170D02*
X227251D01*
Y184919D01*
X227834Y185502D01*
X229000D01*
X229583Y184919D01*
Y183170D01*
Y184336D02*
X230749Y185502D01*
X227251Y189001D02*
Y186669D01*
X229000D01*
Y187835D01*
Y186669D01*
X230749D01*
Y190167D02*
X227251D01*
X228417Y191334D01*
X227251Y192500D01*
X230749D01*
X227251Y195416D02*
Y194249D01*
X227834Y193666D01*
X230166D01*
X230749Y194249D01*
Y195416D01*
X230166Y195999D01*
X227834D01*
X227251Y195416D01*
Y197165D02*
X230749D01*
Y198915D01*
X230166Y199498D01*
X227834D01*
X227251Y198915D01*
Y197165D01*
X230749Y200664D02*
Y201830D01*
Y201247D01*
X227251D01*
X227834Y200664D01*
X95126Y161251D02*
Y164749D01*
X96876D01*
X97459Y164166D01*
Y163000D01*
X96876Y162417D01*
X95126D01*
X96293D02*
X97459Y161251D01*
X98625D02*
X99792D01*
X99208D01*
Y164749D01*
X98625Y164166D01*
X103874Y164749D02*
X101541D01*
Y163000D01*
X102707Y163583D01*
X103290D01*
X103874Y163000D01*
Y161834D01*
X103290Y161251D01*
X102124D01*
X101541Y161834D01*
X95126Y168251D02*
Y171749D01*
X96876D01*
X97459Y171166D01*
Y170000D01*
X96876Y169417D01*
X95126D01*
X96293D02*
X97459Y168251D01*
X98625D02*
X99792D01*
X99208D01*
Y171749D01*
X98625Y171166D01*
X103290Y168251D02*
Y171749D01*
X101541Y170000D01*
X103874D01*
X266126Y142251D02*
Y145749D01*
X267876D01*
X268459Y145166D01*
Y144000D01*
X267876Y143417D01*
X266126D01*
X267293D02*
X268459Y142251D01*
X269625D02*
X270792D01*
X270208D01*
Y145749D01*
X269625Y145166D01*
X272541D02*
X273124Y145749D01*
X274290D01*
X274874Y145166D01*
Y144583D01*
X274290Y144000D01*
X273707D01*
X274290D01*
X274874Y143417D01*
Y142834D01*
X274290Y142251D01*
X273124D01*
X272541Y142834D01*
X184126Y231251D02*
Y234749D01*
X185876D01*
X186459Y234166D01*
Y233000D01*
X185876Y232417D01*
X184126D01*
X185293D02*
X186459Y231251D01*
X187625D02*
X188792D01*
X188208D01*
Y234749D01*
X187625Y234166D01*
X192874Y231251D02*
X190541D01*
X192874Y233583D01*
Y234166D01*
X192290Y234749D01*
X191124D01*
X190541Y234166D01*
X236210Y142251D02*
Y145749D01*
X237959D01*
X238542Y145166D01*
Y144000D01*
X237959Y143417D01*
X236210D01*
X237376D02*
X238542Y142251D01*
X239708D02*
X240875D01*
X240292D01*
Y145749D01*
X239708Y145166D01*
X242624Y142251D02*
X243790D01*
X243207D01*
Y145749D01*
X242624Y145166D01*
X236126Y135251D02*
Y138749D01*
X237876D01*
X238459Y138166D01*
Y137000D01*
X237876Y136417D01*
X236126D01*
X237293D02*
X238459Y135251D01*
X239625D02*
X240792D01*
X240208D01*
Y138749D01*
X239625Y138166D01*
X242541D02*
X243124Y138749D01*
X244290D01*
X244874Y138166D01*
Y135834D01*
X244290Y135251D01*
X243124D01*
X242541Y135834D01*
Y138166D01*
X184584Y224251D02*
Y227749D01*
X186334D01*
X186917Y227166D01*
Y226000D01*
X186334Y225417D01*
X184584D01*
X185751D02*
X186917Y224251D01*
X188083Y224834D02*
X188666Y224251D01*
X189833D01*
X190416Y224834D01*
Y227166D01*
X189833Y227749D01*
X188666D01*
X188083Y227166D01*
Y226583D01*
X188666Y226000D01*
X190416D01*
X184584Y218251D02*
Y221749D01*
X186334D01*
X186917Y221166D01*
Y220000D01*
X186334Y219417D01*
X184584D01*
X185751D02*
X186917Y218251D01*
X188083Y221166D02*
X188666Y221749D01*
X189833D01*
X190416Y221166D01*
Y220583D01*
X189833Y220000D01*
X190416Y219417D01*
Y218834D01*
X189833Y218251D01*
X188666D01*
X188083Y218834D01*
Y219417D01*
X188666Y220000D01*
X188083Y220583D01*
Y221166D01*
X188666Y220000D02*
X189833D01*
X210584Y211751D02*
Y215249D01*
X212334D01*
X212917Y214666D01*
Y213500D01*
X212334Y212917D01*
X210584D01*
X211751D02*
X212917Y211751D01*
X214083Y215249D02*
X216416D01*
Y214666D01*
X214083Y212334D01*
Y211751D01*
X236084Y128251D02*
Y131749D01*
X237834D01*
X238417Y131166D01*
Y130000D01*
X237834Y129417D01*
X236084D01*
X237251D02*
X238417Y128251D01*
X241916Y131749D02*
X240749Y131166D01*
X239583Y130000D01*
Y128834D01*
X240166Y128251D01*
X241333D01*
X241916Y128834D01*
Y129417D01*
X241333Y130000D01*
X239583D01*
X236084Y121751D02*
Y125249D01*
X237834D01*
X238417Y124666D01*
Y123500D01*
X237834Y122917D01*
X236084D01*
X237251D02*
X238417Y121751D01*
X241916Y125249D02*
X239583D01*
Y123500D01*
X240749Y124083D01*
X241333D01*
X241916Y123500D01*
Y122334D01*
X241333Y121751D01*
X240166D01*
X239583Y122334D01*
X117584Y193751D02*
Y197249D01*
X119334D01*
X119917Y196666D01*
Y195500D01*
X119334Y194917D01*
X117584D01*
X118751D02*
X119917Y193751D01*
X122833D02*
Y197249D01*
X121083Y195500D01*
X123416D01*
X117584Y201251D02*
Y204749D01*
X119334D01*
X119917Y204166D01*
Y203000D01*
X119334Y202417D01*
X117584D01*
X118751D02*
X119917Y201251D01*
X121083Y204166D02*
X121666Y204749D01*
X122833D01*
X123416Y204166D01*
Y203583D01*
X122833Y203000D01*
X122249D01*
X122833D01*
X123416Y202417D01*
Y201834D01*
X122833Y201251D01*
X121666D01*
X121083Y201834D01*
X241084Y222251D02*
Y225749D01*
X242834D01*
X243417Y225166D01*
Y224000D01*
X242834Y223417D01*
X241084D01*
X242251D02*
X243417Y222251D01*
X246916D02*
X244583D01*
X246916Y224583D01*
Y225166D01*
X246333Y225749D01*
X245166D01*
X244583Y225166D01*
X241667Y230251D02*
Y233749D01*
X243417D01*
X244000Y233166D01*
Y232000D01*
X243417Y231417D01*
X241667D01*
X242834D02*
X244000Y230251D01*
X245166D02*
X246333D01*
X245749D01*
Y233749D01*
X245166Y233166D01*
X252000Y206834D02*
Y209166D01*
X251417Y209749D01*
X250251D01*
X249667Y209166D01*
Y206834D01*
X250251Y206251D01*
X251417D01*
X250834Y207417D02*
X252000Y206251D01*
X251417D02*
X252000Y206834D01*
X253166Y206251D02*
X254333D01*
X253749D01*
Y209749D01*
X253166Y209166D01*
X261087Y265751D02*
Y269249D01*
X262836D01*
X263419Y268666D01*
Y267500D01*
X262836Y266917D01*
X261087D01*
X264585Y269249D02*
Y265751D01*
X266335D01*
X266918Y266334D01*
Y266917D01*
X266335Y267500D01*
X264585D01*
X266335D01*
X266918Y268083D01*
Y268666D01*
X266335Y269249D01*
X264585D01*
X268084Y267500D02*
X270417D01*
X273916Y268666D02*
X273333Y269249D01*
X272166D01*
X271583Y268666D01*
Y268083D01*
X272166Y267500D01*
X273333D01*
X273916Y266917D01*
Y266334D01*
X273333Y265751D01*
X272166D01*
X271583Y266334D01*
X275082Y269249D02*
Y265751D01*
X276248Y266917D01*
X277415Y265751D01*
Y269249D01*
X280913Y265751D02*
X278581D01*
X280913Y268083D01*
Y268666D01*
X280330Y269249D01*
X279164D01*
X278581Y268666D01*
X219170Y265751D02*
Y269249D01*
X220919D01*
X221502Y268666D01*
Y267500D01*
X220919Y266917D01*
X219170D01*
X222669Y269249D02*
Y265751D01*
X224418D01*
X225001Y266334D01*
Y266917D01*
X224418Y267500D01*
X222669D01*
X224418D01*
X225001Y268083D01*
Y268666D01*
X224418Y269249D01*
X222669D01*
X226167Y267500D02*
X228500D01*
X231999Y268666D02*
X231416Y269249D01*
X230249D01*
X229666Y268666D01*
Y268083D01*
X230249Y267500D01*
X231416D01*
X231999Y266917D01*
Y266334D01*
X231416Y265751D01*
X230249D01*
X229666Y266334D01*
X233165Y269249D02*
Y265751D01*
X234331Y266917D01*
X235498Y265751D01*
Y269249D01*
X236664Y265751D02*
X237830D01*
X237247D01*
Y269249D01*
X236664Y268666D01*
X99084Y207751D02*
Y211249D01*
X100834D01*
X101417Y210666D01*
Y209500D01*
X100834Y208917D01*
X99084D01*
X104916Y207751D02*
X102583D01*
X104916Y210083D01*
Y210666D01*
X104333Y211249D01*
X103166D01*
X102583Y210666D01*
X305585Y148249D02*
Y144751D01*
X307918D01*
X311417Y148249D02*
X309084D01*
Y144751D01*
X311417D01*
X309084Y146500D02*
X310251D01*
X312583Y148249D02*
Y144751D01*
X314333D01*
X314916Y145334D01*
Y147666D01*
X314333Y148249D01*
X312583D01*
X318415Y144751D02*
X316082D01*
X318415Y147083D01*
Y147666D01*
X317831Y148249D01*
X316665D01*
X316082Y147666D01*
X189669Y264749D02*
Y261251D01*
X192001D01*
X195500Y264749D02*
X193167D01*
Y261251D01*
X195500D01*
X193167Y263000D02*
X194334D01*
X196666Y264749D02*
Y261251D01*
X198416D01*
X198999Y261834D01*
Y264166D01*
X198416Y264749D01*
X196666D01*
X200165Y261251D02*
X201331D01*
X200748D01*
Y264749D01*
X200165Y264166D01*
X150917Y190666D02*
X150334Y191249D01*
X149167D01*
X148584Y190666D01*
Y188334D01*
X149167Y187751D01*
X150334D01*
X150917Y188334D01*
X152083D02*
X152666Y187751D01*
X153833D01*
X154416Y188334D01*
Y190666D01*
X153833Y191249D01*
X152666D01*
X152083Y190666D01*
Y190083D01*
X152666Y189500D01*
X154416D01*
X175917Y129666D02*
X175334Y130249D01*
X174167D01*
X173584Y129666D01*
Y127334D01*
X174167Y126751D01*
X175334D01*
X175917Y127334D01*
X177083Y129666D02*
X177666Y130249D01*
X178833D01*
X179416Y129666D01*
Y129083D01*
X178833Y128500D01*
X179416Y127917D01*
Y127334D01*
X178833Y126751D01*
X177666D01*
X177083Y127334D01*
Y127917D01*
X177666Y128500D01*
X177083Y129083D01*
Y129666D01*
X177666Y128500D02*
X178833D01*
X189917Y191166D02*
X189334Y191749D01*
X188167D01*
X187584Y191166D01*
Y188834D01*
X188167Y188251D01*
X189334D01*
X189917Y188834D01*
X191083Y191749D02*
X193416D01*
Y191166D01*
X191083Y188834D01*
Y188251D01*
X183334Y210417D02*
X182751Y209834D01*
Y208667D01*
X183334Y208084D01*
X185666D01*
X186249Y208667D01*
Y209834D01*
X185666Y210417D01*
X182751Y213916D02*
X183334Y212749D01*
X184500Y211583D01*
X185666D01*
X186249Y212166D01*
Y213333D01*
X185666Y213916D01*
X185083D01*
X184500Y213333D01*
Y211583D01*
X97417Y177666D02*
X96834Y178249D01*
X95667D01*
X95084Y177666D01*
Y175334D01*
X95667Y174751D01*
X96834D01*
X97417Y175334D01*
X100916Y178249D02*
X98583D01*
Y176500D01*
X99749Y177083D01*
X100333D01*
X100916Y176500D01*
Y175334D01*
X100333Y174751D01*
X99166D01*
X98583Y175334D01*
X146917Y270166D02*
X146334Y270749D01*
X145167D01*
X144584Y270166D01*
Y267834D01*
X145167Y267251D01*
X146334D01*
X146917Y267834D01*
X149833Y267251D02*
Y270749D01*
X148083Y269000D01*
X150416D01*
X278417Y210666D02*
X277834Y211249D01*
X276667D01*
X276084Y210666D01*
Y208334D01*
X276667Y207751D01*
X277834D01*
X278417Y208334D01*
X279583Y210666D02*
X280166Y211249D01*
X281333D01*
X281916Y210666D01*
Y210083D01*
X281333Y209500D01*
X280749D01*
X281333D01*
X281916Y208917D01*
Y208334D01*
X281333Y207751D01*
X280166D01*
X279583Y208334D01*
X175917Y238666D02*
X175334Y239249D01*
X174167D01*
X173584Y238666D01*
Y236334D01*
X174167Y235751D01*
X175334D01*
X175917Y236334D01*
X179416Y235751D02*
X177083D01*
X179416Y238083D01*
Y238666D01*
X178833Y239249D01*
X177666D01*
X177083Y238666D01*
X128834Y256500D02*
X128251Y255917D01*
Y254751D01*
X128834Y254167D01*
X131166D01*
X131749Y254751D01*
Y255917D01*
X131166Y256500D01*
X131749Y257666D02*
Y258833D01*
Y258249D01*
X128251D01*
X128834Y257666D01*
M02*
