M48
;Layer_Color=8323857
;FILE_FORMAT=2:5
INCH,LZ
;TYPE=PLATED
T1F00S00C0.01378
T2F00S00C0.01500
T3F00S00C0.02800
T4F00S00C0.03543
T5F00S00C0.12500
%
T01
X02051Y01958
Y01993
Y02028
X02075Y0201
Y01975
X02098Y01958
X02099Y01993
X02098Y02029
T02
X01315Y01215
X0128Y01385
X01385Y0154
X0152Y01475
X0155Y0127
X0172Y0148
X0177Y01475
X02065Y0135
X0207Y01185
X0244375Y0123125
X0249Y01295
X02525Y0138
X0249326Y0149673
X02445Y0149705
X0238Y01475
X0237Y0137
X0259Y01155
X0304Y01125
X03025Y01385
X02965Y02165
X029933Y0266
X0254Y02525
X0236Y0259
Y0272
X02215
Y0259
X0219Y02495
X0224Y0246
X023Y0245
Y0237
X0242Y02315
Y02125
X0236Y02175
X0224
X0219Y022
X0214Y0226
Y0253
X01815Y02375
X0175Y02315
X0176396Y0225104
X01705Y0215
X01735Y02105
X0166199Y02185
X0163Y0222
X01595Y0216
X01625Y0197
X0162Y01895
X01695Y01905
X0176396Y01974
X0194Y0195
X01955Y0205
X0187Y01715
X0182
X0167Y01735
Y01595
X0175Y0266
X012974Y023024
X01355Y0216
X01315Y01905
X0156Y01965
X0112346Y0208846
X01045Y0214
X0092Y01885
X00875Y01825
X0092Y01765
X00875Y017
X0092Y01575
X0083
X0074Y01825
X0128Y01575
T03
X0283Y0164
T04
X0173833Y011
X0183833
X0193833
Y012
X0183833
X0173833
X0234Y01105
X0244
X0254
X0264
X0274
X0284
Y0124
Y0134
X0274
Y0124
X0264
Y0134
X01455Y0205
Y0215
Y0225
Y0239
Y0249
Y0259
X0092Y02115
X0082
T05
X01135Y01275
X03115
Y02475
X01135
M30
