M48
;Layer_Color=8323857
;FILE_FORMAT=2:5
INCH,LZ
;TYPE=PLATED
T1F00S00C0.01378
T2F00S00C0.01500
T3F00S00C0.03543
T4F00S00C0.12500
%
T01
X0212Y0196
Y0202
T02
X01315Y01215
X0128Y01385
X01385Y0154
X0152Y01475
X0155Y0127
X0172Y0148
X0212Y01525
X02165Y0155
Y01445
X0212Y0141
X02045Y013
X02385Y01225
X0249Y0132
X02525Y0138
X0249326Y0149673
X02445Y0149705
X0238Y01425
X03025Y01385
X0307Y0146
X0283Y0165
X0279854Y0208939
X02725Y022
X0266Y0241
X0254Y02525
X0236Y0259
Y0272
X02215
Y0259
X0219Y02495
X0224Y0246
X023Y0245
Y0237
X0242Y02315
X0236Y02215
X0224Y02175
X0219Y022
X0214Y0226
Y0253
X01815Y02375
X0175Y02315
X0176396Y0225104
X01705Y0215
X01735Y02105
X0166199Y02185
X0163Y0222
X01595Y0216
X01625Y0197
X0162Y01895
X01695Y01905
X0176396Y01974
X0194Y0195
X01955Y0205
X0187Y01715
X0182
X0167Y01735
Y01595
X01995Y016
X02225Y01875
X0242Y021
X02965Y02165
X029933Y0266
X0175
X0156Y01965
X01315Y01905
X01355Y0216
X01045Y0214
X01015Y01985
X0092Y02
Y01885
X00875Y01825
X0092Y01765
X00875Y017
X0092Y01575
X0083
X0107Y0162
X01125Y0166
Y01735
X0128Y01575
X0074Y01825
T03
X0173833Y011
X0183833
X0193833
Y012
X0183833
X0173833
X0234Y01105
X0244
X0254
X0264
X0274
X0284
X02855Y0127
X02755
X02655
X01455Y0205
Y0215
Y0225
Y0239
Y0249
Y0259
X0092Y02115
X0082
T04
X01135Y01275
X03115
Y02475
X01135
M30
