G04*
G04 #@! TF.GenerationSoftware,Altium Limited,Altium Designer,20.1.8 (145)*
G04*
G04 Layer_Physical_Order=2*
G04 Layer_Color=16711680*
%FSLAX25Y25*%
%MOIN*%
G70*
G04*
G04 #@! TF.SameCoordinates,9FEF0589-292D-4462-8DC4-F6EDC39D71BC*
G04*
G04*
G04 #@! TF.FilePolarity,Positive*
G04*
G01*
G75*
%ADD10C,0.01000*%
%ADD14C,0.00600*%
%ADD34R,0.05906X0.05906*%
%ADD55C,0.01500*%
%ADD56C,0.05906*%
%ADD57C,0.02165*%
%ADD58C,0.18000*%
%ADD59C,0.03000*%
%ADD60R,0.06000X0.04500*%
G36*
X236993Y270865D02*
X236942Y270790D01*
X236897Y270704D01*
X236858Y270607D01*
X236825Y270500D01*
X236798Y270382D01*
X236777Y270253D01*
X236762Y270113D01*
X236750Y269801D01*
X235250D01*
X235247Y269962D01*
X235223Y270253D01*
X235202Y270382D01*
X235175Y270500D01*
X235142Y270607D01*
X235103Y270704D01*
X235058Y270790D01*
X235007Y270865D01*
X234950Y270929D01*
X237050D01*
X236993Y270865D01*
D02*
G37*
G36*
X222493D02*
X222442Y270790D01*
X222397Y270704D01*
X222358Y270607D01*
X222325Y270500D01*
X222298Y270382D01*
X222277Y270253D01*
X222262Y270113D01*
X222250Y269801D01*
X220750D01*
X220747Y269962D01*
X220723Y270253D01*
X220702Y270382D01*
X220675Y270500D01*
X220642Y270607D01*
X220603Y270704D01*
X220558Y270790D01*
X220507Y270865D01*
X220450Y270929D01*
X222550D01*
X222493Y270865D01*
D02*
G37*
G36*
X236753Y261038D02*
X236777Y260747D01*
X236798Y260618D01*
X236825Y260500D01*
X236858Y260393D01*
X236897Y260296D01*
X236942Y260210D01*
X236993Y260135D01*
X237050Y260071D01*
X234950D01*
X235007Y260135D01*
X235058Y260210D01*
X235103Y260296D01*
X235142Y260393D01*
X235175Y260500D01*
X235202Y260618D01*
X235223Y260747D01*
X235238Y260887D01*
X235250Y261199D01*
X236750D01*
X236753Y261038D01*
D02*
G37*
G36*
X222253D02*
X222277Y260747D01*
X222298Y260618D01*
X222325Y260500D01*
X222358Y260393D01*
X222397Y260296D01*
X222442Y260210D01*
X222493Y260135D01*
X222550Y260071D01*
X220450D01*
X220507Y260135D01*
X220558Y260210D01*
X220603Y260296D01*
X220642Y260393D01*
X220675Y260500D01*
X220702Y260618D01*
X220723Y260747D01*
X220738Y260887D01*
X220750Y261199D01*
X222250D01*
X222253Y261038D01*
D02*
G37*
G36*
X222260Y258928D02*
X222290Y258843D01*
X222341Y258743D01*
X222411Y258630D01*
X222502Y258504D01*
X222510Y258495D01*
X223000Y258985D01*
X223002Y258782D01*
X223030Y258414D01*
X223057Y258249D01*
X223092Y258098D01*
X223134Y257960D01*
X223186Y257834D01*
X223245Y257722D01*
X223312Y257623D01*
X223388Y257537D01*
X222964Y257112D01*
X222877Y257188D01*
X222778Y257255D01*
X222666Y257314D01*
X222540Y257365D01*
X222402Y257408D01*
X222251Y257443D01*
X222086Y257470D01*
X221909Y257488D01*
X221515Y257500D01*
X222005Y257990D01*
X221996Y257998D01*
X221870Y258088D01*
X221757Y258159D01*
X221657Y258210D01*
X221572Y258240D01*
X221499Y258250D01*
X222250Y259000D01*
X222260Y258928D01*
D02*
G37*
G36*
X236993Y257865D02*
X236942Y257790D01*
X236897Y257704D01*
X236858Y257607D01*
X236825Y257500D01*
X236798Y257382D01*
X236777Y257253D01*
X236762Y257113D01*
X236750Y256801D01*
X235250D01*
X235247Y256962D01*
X235223Y257253D01*
X235202Y257382D01*
X235175Y257500D01*
X235142Y257607D01*
X235103Y257704D01*
X235058Y257790D01*
X235007Y257865D01*
X234950Y257929D01*
X237050D01*
X236993Y257865D01*
D02*
G37*
G36*
X230308Y247255D02*
X230330Y247137D01*
X230367Y247016D01*
X230420Y246891D01*
X230487Y246763D01*
X230570Y246632D01*
X230667Y246497D01*
X230780Y246358D01*
X231050Y246071D01*
X228950D01*
X229093Y246217D01*
X229332Y246497D01*
X229430Y246632D01*
X229513Y246763D01*
X229580Y246891D01*
X229632Y247016D01*
X229670Y247137D01*
X229693Y247255D01*
X229700Y247370D01*
X230300D01*
X230308Y247255D01*
D02*
G37*
G36*
X230908Y243783D02*
X230667Y243503D01*
X230570Y243368D01*
X230487Y243237D01*
X230420Y243109D01*
X230367Y242984D01*
X230330Y242863D01*
X230308Y242745D01*
X230300Y242630D01*
X229700D01*
X229693Y242745D01*
X229670Y242863D01*
X229632Y242984D01*
X229580Y243109D01*
X229513Y243237D01*
X229430Y243368D01*
X229332Y243503D01*
X229220Y243642D01*
X228950Y243929D01*
X231050D01*
X230908Y243783D01*
D02*
G37*
G36*
X230308Y239255D02*
X230330Y239138D01*
X230367Y239016D01*
X230420Y238892D01*
X230487Y238763D01*
X230570Y238632D01*
X230667Y238497D01*
X230780Y238358D01*
X231050Y238071D01*
X228950D01*
X229093Y238216D01*
X229332Y238497D01*
X229430Y238632D01*
X229513Y238763D01*
X229580Y238892D01*
X229632Y239016D01*
X229670Y239138D01*
X229693Y239255D01*
X229700Y239370D01*
X230300D01*
X230308Y239255D01*
D02*
G37*
G36*
X143391Y222933D02*
X143089Y223231D01*
X142515Y223732D01*
X142242Y223936D01*
X141980Y224108D01*
X141728Y224249D01*
X141485Y224359D01*
X141253Y224437D01*
X141031Y224484D01*
X140818Y224500D01*
Y225500D01*
X141031Y225516D01*
X141253Y225563D01*
X141485Y225641D01*
X141728Y225751D01*
X141980Y225892D01*
X142242Y226064D01*
X142515Y226268D01*
X143089Y226769D01*
X143391Y227067D01*
Y222933D01*
D02*
G37*
G36*
X236753Y223538D02*
X236777Y223247D01*
X236798Y223118D01*
X236825Y223000D01*
X236858Y222893D01*
X236897Y222796D01*
X236942Y222710D01*
X236993Y222635D01*
X237050Y222571D01*
X234950D01*
X235007Y222635D01*
X235058Y222710D01*
X235103Y222796D01*
X235142Y222893D01*
X235175Y223000D01*
X235202Y223118D01*
X235223Y223247D01*
X235238Y223387D01*
X235250Y223699D01*
X236750D01*
X236753Y223538D01*
D02*
G37*
G36*
X322500Y204000D02*
X281638D01*
Y207023D01*
X281642Y207055D01*
X281653Y207125D01*
X281656Y207137D01*
X281656Y207137D01*
X282209Y207964D01*
X282403Y208939D01*
X282209Y209915D01*
X281656Y210742D01*
X280829Y211294D01*
X279854Y211488D01*
X278878Y211294D01*
X278052Y210742D01*
X277499Y209915D01*
X277305Y208939D01*
X277499Y207964D01*
X278052Y207137D01*
X278052Y207137D01*
X278055Y207125D01*
X278064Y207068D01*
X278070Y207001D01*
Y204000D01*
X236000D01*
Y189284D01*
X224417D01*
X224384Y189288D01*
X224314Y189299D01*
X224303Y189302D01*
X224302Y189302D01*
X223476Y189855D01*
X222500Y190049D01*
X221525Y189855D01*
X220698Y189302D01*
X220145Y188476D01*
X219951Y187500D01*
X220145Y186524D01*
X220698Y185698D01*
X221525Y185145D01*
X222500Y184951D01*
X223476Y185145D01*
X224302Y185698D01*
X224303Y185698D01*
X224314Y185701D01*
X224372Y185710D01*
X224438Y185716D01*
X236000D01*
Y152000D01*
X242573D01*
X242718Y151522D01*
X242698Y151508D01*
X242145Y150681D01*
X241951Y149705D01*
X242145Y148730D01*
X242698Y147903D01*
X242806Y147830D01*
X242952Y147676D01*
X243023Y147588D01*
X243084Y147504D01*
X243128Y147433D01*
X243157Y147378D01*
X243173Y147340D01*
X243175Y147336D01*
Y129049D01*
X239238Y125113D01*
X239235Y125111D01*
X239197Y125095D01*
X239137Y125077D01*
X239056Y125058D01*
X238966Y125044D01*
X238674Y125021D01*
X238642Y125021D01*
X238500Y125049D01*
X237525Y124855D01*
X237266Y124682D01*
X236825Y124918D01*
Y139451D01*
X237262Y139887D01*
X237265Y139889D01*
X237303Y139905D01*
X237363Y139923D01*
X237444Y139942D01*
X237534Y139956D01*
X237826Y139979D01*
X237858Y139979D01*
X238000Y139951D01*
X238976Y140145D01*
X239802Y140698D01*
X240355Y141525D01*
X240549Y142500D01*
X240355Y143475D01*
X239802Y144302D01*
X238976Y144855D01*
X238000Y145049D01*
X237024Y144855D01*
X236198Y144302D01*
X235645Y143475D01*
X235451Y142500D01*
X235476Y142372D01*
X235470Y142159D01*
X235458Y142047D01*
X235442Y141944D01*
X235423Y141863D01*
X235405Y141803D01*
X235389Y141765D01*
X235387Y141762D01*
X234563Y140937D01*
X234275Y140507D01*
X234174Y140000D01*
Y119000D01*
X234275Y118493D01*
X234563Y118063D01*
X237673Y114953D01*
X237466Y114453D01*
X230047D01*
Y106784D01*
X230047Y106547D01*
X229656Y106284D01*
X197785D01*
Y113953D01*
X191758D01*
X191736Y113971D01*
X189770Y115937D01*
X189340Y116225D01*
X188833Y116325D01*
X186358D01*
X186189Y116825D01*
X186652Y117181D01*
X187285Y118007D01*
X187684Y118968D01*
X187819Y120000D01*
X187684Y121032D01*
X187285Y121993D01*
X186652Y122819D01*
X185826Y123453D01*
X184864Y123851D01*
X183833Y123987D01*
X182801Y123851D01*
X181839Y123453D01*
X181013Y122819D01*
X180380Y121993D01*
X179982Y121032D01*
X179846Y120000D01*
X179982Y118968D01*
X180380Y118007D01*
X181013Y117181D01*
X181477Y116825D01*
X181307Y116325D01*
X176358D01*
X176189Y116825D01*
X176652Y117181D01*
X177285Y118007D01*
X177684Y118968D01*
X177754Y119500D01*
X173833D01*
X169912D01*
X169982Y118968D01*
X170380Y118007D01*
X171013Y117181D01*
X171477Y116825D01*
X171307Y116325D01*
X161549D01*
X156325Y121549D01*
Y124630D01*
X156327Y124635D01*
X156343Y124672D01*
X156372Y124727D01*
X156416Y124798D01*
X156469Y124872D01*
X156660Y125094D01*
X156682Y125117D01*
X156802Y125198D01*
X157355Y126024D01*
X157549Y127000D01*
X157355Y127975D01*
X156802Y128802D01*
X155975Y129355D01*
X155000Y129549D01*
X154025Y129355D01*
X153198Y128802D01*
X152645Y127975D01*
X152451Y127000D01*
X152645Y126024D01*
X153198Y125198D01*
X153306Y125125D01*
X153452Y124970D01*
X153523Y124883D01*
X153584Y124798D01*
X153628Y124727D01*
X153657Y124672D01*
X153673Y124635D01*
X153674Y124630D01*
Y121000D01*
X153775Y120493D01*
X154063Y120063D01*
X160063Y114063D01*
X160493Y113775D01*
X161000Y113674D01*
X171307D01*
X171477Y113174D01*
X171013Y112819D01*
X170380Y111993D01*
X169982Y111032D01*
X169846Y110000D01*
X169982Y108968D01*
X170380Y108007D01*
X171013Y107181D01*
X171530Y106784D01*
X171361Y106284D01*
X134739D01*
X129784Y111239D01*
Y119109D01*
X130225Y119345D01*
X130525Y119145D01*
X131500Y118951D01*
X132475Y119145D01*
X133302Y119698D01*
X133855Y120525D01*
X134049Y121500D01*
X133855Y122476D01*
X133302Y123302D01*
X133302Y123303D01*
X133299Y123314D01*
X133290Y123372D01*
X133284Y123438D01*
Y188583D01*
X133288Y188616D01*
X133299Y188686D01*
X133302Y188697D01*
X133302Y188698D01*
X133855Y189524D01*
X134049Y190500D01*
X133855Y191475D01*
X133302Y192302D01*
X133302Y192303D01*
X133299Y192314D01*
X133290Y192372D01*
X133284Y192438D01*
Y193761D01*
X136471Y196947D01*
X136971Y196740D01*
Y156203D01*
X136961Y156156D01*
X136947Y156110D01*
X136929Y156064D01*
X136906Y156017D01*
X136876Y155968D01*
X136839Y155915D01*
X136805Y155874D01*
X136698Y155802D01*
X136145Y154975D01*
X135951Y154000D01*
X136145Y153024D01*
X136698Y152198D01*
X137524Y151645D01*
X138500Y151451D01*
X139476Y151645D01*
X140302Y152198D01*
X140855Y153024D01*
X141049Y154000D01*
X140855Y154975D01*
X140302Y155802D01*
X140195Y155874D01*
X140161Y155915D01*
X140124Y155968D01*
X140094Y156017D01*
X140071Y156064D01*
X140053Y156110D01*
X140039Y156156D01*
X140029Y156203D01*
Y223366D01*
X140134Y223471D01*
X140896D01*
X140984Y223452D01*
X141111Y223409D01*
X141268Y223338D01*
X141451Y223236D01*
X141657Y223101D01*
X141873Y222939D01*
X142395Y222483D01*
X142615Y222266D01*
X142681Y222181D01*
X143507Y221547D01*
X144468Y221149D01*
X145500Y221013D01*
X146532Y221149D01*
X147493Y221547D01*
X148319Y222181D01*
X148953Y223007D01*
X149351Y223968D01*
X149487Y225000D01*
X149351Y226032D01*
X148953Y226993D01*
X148319Y227819D01*
X147493Y228453D01*
X146532Y228851D01*
X145500Y228987D01*
X144468Y228851D01*
X143507Y228453D01*
X142681Y227819D01*
X142615Y227734D01*
X142395Y227517D01*
X141873Y227061D01*
X141656Y226899D01*
X141451Y226764D01*
X141268Y226662D01*
X141111Y226591D01*
X140984Y226548D01*
X140896Y226529D01*
X139500D01*
X138915Y226413D01*
X138419Y226081D01*
X137419Y225081D01*
X137087Y224585D01*
X136971Y224000D01*
Y218554D01*
X136530Y218319D01*
X136476Y218355D01*
X135500Y218549D01*
X134525Y218355D01*
X133698Y217802D01*
X133145Y216975D01*
X132951Y216000D01*
X133145Y215024D01*
X133698Y214198D01*
X133698Y214197D01*
X133701Y214186D01*
X133710Y214128D01*
X133716Y214062D01*
Y199239D01*
X130238Y195762D01*
X129851Y195183D01*
X129716Y194500D01*
Y192417D01*
X129712Y192384D01*
X129701Y192314D01*
X129698Y192303D01*
X129698Y192302D01*
X129145Y191475D01*
X128951Y190500D01*
X129145Y189524D01*
X129698Y188698D01*
X129698Y188697D01*
X129701Y188686D01*
X129710Y188628D01*
X129716Y188562D01*
Y159891D01*
X129275Y159655D01*
X128975Y159855D01*
X128500Y159950D01*
Y157500D01*
X128000D01*
Y157000D01*
X125550D01*
X125645Y156525D01*
X125753Y156363D01*
X125809Y156083D01*
X126195Y155504D01*
X126216Y155483D01*
Y152056D01*
X126199Y151961D01*
X126176Y151891D01*
X126159Y151860D01*
X126151Y151849D01*
X126140Y151841D01*
X126109Y151824D01*
X126039Y151801D01*
X125944Y151784D01*
X124163D01*
X124071Y151792D01*
X124000Y151804D01*
Y152750D01*
X120500D01*
Y149500D01*
Y146250D01*
X124000D01*
Y148196D01*
X124071Y148208D01*
X124163Y148216D01*
X125944D01*
X126039Y148199D01*
X126109Y148176D01*
X126140Y148159D01*
X126151Y148151D01*
X126159Y148140D01*
X126176Y148109D01*
X126199Y148039D01*
X126216Y147944D01*
Y140417D01*
X126212Y140384D01*
X126201Y140314D01*
X126198Y140303D01*
X126198Y140302D01*
X125645Y139476D01*
X125550Y139000D01*
X128000D01*
Y138000D01*
X125550D01*
X125645Y137524D01*
X126198Y136698D01*
X126198Y136697D01*
X126201Y136686D01*
X126210Y136628D01*
X126216Y136562D01*
Y110500D01*
X126351Y109817D01*
X126738Y109238D01*
X132738Y103238D01*
X133095Y103000D01*
X132943Y102500D01*
X102500D01*
Y152500D01*
X72500D01*
Y179965D01*
X72941Y180201D01*
X73024Y180145D01*
X74000Y179951D01*
X74976Y180145D01*
X75802Y180698D01*
X75875Y180806D01*
X76030Y180952D01*
X76117Y181023D01*
X76202Y181084D01*
X76273Y181128D01*
X76328Y181157D01*
X76366Y181173D01*
X76370Y181175D01*
X77451D01*
X78175Y180451D01*
Y157852D01*
X78275Y157344D01*
X78563Y156914D01*
X78914Y156563D01*
X79344Y156275D01*
X79852Y156175D01*
X80630D01*
X80634Y156173D01*
X80672Y156157D01*
X80727Y156128D01*
X80798Y156084D01*
X80872Y156031D01*
X81094Y155840D01*
X81117Y155818D01*
X81198Y155698D01*
X82025Y155145D01*
X83000Y154951D01*
X83975Y155145D01*
X84802Y155698D01*
X85355Y156525D01*
X85549Y157500D01*
X85355Y158475D01*
X84802Y159302D01*
X83975Y159855D01*
X83000Y160049D01*
X82025Y159855D01*
X81326Y159388D01*
X80898Y159549D01*
X80826Y159609D01*
Y181000D01*
X80725Y181507D01*
X80437Y181937D01*
X78937Y183437D01*
X78507Y183725D01*
X78000Y183826D01*
X76370D01*
X76366Y183827D01*
X76328Y183843D01*
X76272Y183872D01*
X76202Y183916D01*
X76128Y183969D01*
X75906Y184160D01*
X75883Y184182D01*
X75802Y184302D01*
X74976Y184855D01*
X74000Y185049D01*
X73024Y184855D01*
X72941Y184799D01*
X72500Y185035D01*
Y222500D01*
X102500D01*
Y272500D01*
X218656D01*
X218974Y272113D01*
X218951Y272000D01*
X219145Y271024D01*
X219698Y270198D01*
X219698Y270197D01*
X219701Y270186D01*
X219710Y270128D01*
X219716Y270062D01*
Y260917D01*
X219712Y260884D01*
X219701Y260814D01*
X219698Y260803D01*
X219698Y260802D01*
X219145Y259976D01*
X218951Y259000D01*
X219145Y258025D01*
X219698Y257198D01*
X220525Y256645D01*
X221500Y256451D01*
X221628Y256476D01*
X221841Y256470D01*
X221953Y256458D01*
X222056Y256442D01*
X222137Y256423D01*
X222197Y256405D01*
X222235Y256389D01*
X222238Y256387D01*
X228675Y249951D01*
Y247370D01*
X228673Y247365D01*
X228657Y247328D01*
X228628Y247272D01*
X228584Y247202D01*
X228531Y247128D01*
X228340Y246906D01*
X228318Y246883D01*
X228198Y246802D01*
X227645Y245975D01*
X227451Y245000D01*
X227645Y244024D01*
X228198Y243198D01*
X228306Y243125D01*
X228452Y242970D01*
X228523Y242883D01*
X228584Y242798D01*
X228628Y242727D01*
X228657Y242672D01*
X228673Y242635D01*
X228675Y242631D01*
Y239370D01*
X228673Y239366D01*
X228657Y239328D01*
X228628Y239272D01*
X228584Y239202D01*
X228531Y239128D01*
X228340Y238906D01*
X228318Y238883D01*
X228198Y238802D01*
X227645Y237976D01*
X227451Y237000D01*
X227645Y236024D01*
X228198Y235198D01*
X229025Y234645D01*
X230000Y234451D01*
X230976Y234645D01*
X231802Y235198D01*
X232355Y236024D01*
X232549Y237000D01*
X232355Y237976D01*
X231802Y238802D01*
X231694Y238875D01*
X231548Y239030D01*
X231477Y239117D01*
X231416Y239202D01*
X231372Y239273D01*
X231343Y239328D01*
X231327Y239366D01*
X231326Y239370D01*
Y242631D01*
X231327Y242635D01*
X231343Y242672D01*
X231372Y242727D01*
X231416Y242798D01*
X231469Y242872D01*
X231660Y243094D01*
X231682Y243117D01*
X231802Y243198D01*
X232355Y244024D01*
X232549Y245000D01*
X232355Y245975D01*
X231802Y246802D01*
X231694Y246875D01*
X231548Y247030D01*
X231477Y247117D01*
X231416Y247202D01*
X231372Y247273D01*
X231343Y247328D01*
X231327Y247365D01*
X231326Y247370D01*
Y250500D01*
X231225Y251007D01*
X230937Y251437D01*
X224113Y258262D01*
X224111Y258265D01*
X224095Y258303D01*
X224077Y258363D01*
X224058Y258444D01*
X224044Y258534D01*
X224021Y258826D01*
X224021Y258858D01*
X224049Y259000D01*
X223855Y259976D01*
X223302Y260802D01*
X223302Y260803D01*
X223299Y260814D01*
X223290Y260872D01*
X223284Y260938D01*
Y270083D01*
X223288Y270116D01*
X223299Y270186D01*
X223302Y270197D01*
X223302Y270198D01*
X223855Y271024D01*
X224049Y272000D01*
X224026Y272113D01*
X224344Y272500D01*
X233156D01*
X233474Y272113D01*
X233451Y272000D01*
X233645Y271024D01*
X234198Y270198D01*
X234198Y270197D01*
X234201Y270186D01*
X234210Y270128D01*
X234216Y270062D01*
Y260917D01*
X234212Y260884D01*
X234201Y260814D01*
X234198Y260803D01*
X234198Y260802D01*
X233645Y259976D01*
X233451Y259000D01*
X233645Y258025D01*
X234198Y257198D01*
X234198Y257197D01*
X234201Y257186D01*
X234210Y257128D01*
X234216Y257062D01*
Y223417D01*
X234212Y223384D01*
X234201Y223314D01*
X234198Y223303D01*
X234198Y223302D01*
X233645Y222476D01*
X233451Y221500D01*
X233645Y220525D01*
X234198Y219698D01*
X235024Y219145D01*
X236000Y218951D01*
X236976Y219145D01*
X237802Y219698D01*
X238355Y220525D01*
X238549Y221500D01*
X238355Y222476D01*
X237802Y223302D01*
X237802Y223303D01*
X237799Y223314D01*
X237790Y223372D01*
X237784Y223438D01*
Y257083D01*
X237788Y257116D01*
X237799Y257186D01*
X237802Y257197D01*
X237802Y257198D01*
X238355Y258025D01*
X238549Y259000D01*
X238355Y259976D01*
X237802Y260802D01*
X237802Y260803D01*
X237799Y260814D01*
X237790Y260872D01*
X237784Y260938D01*
Y270083D01*
X237788Y270116D01*
X237799Y270186D01*
X237802Y270197D01*
X237802Y270198D01*
X238355Y271024D01*
X238549Y272000D01*
X238526Y272113D01*
X238844Y272500D01*
X322500D01*
Y204000D01*
D02*
G37*
G36*
X136493Y214865D02*
X136442Y214790D01*
X136397Y214704D01*
X136358Y214607D01*
X136325Y214500D01*
X136298Y214382D01*
X136277Y214253D01*
X136262Y214113D01*
X136250Y213801D01*
X134750D01*
X134747Y213962D01*
X134723Y214253D01*
X134702Y214382D01*
X134675Y214500D01*
X134642Y214607D01*
X134603Y214704D01*
X134558Y214790D01*
X134507Y214865D01*
X134450Y214929D01*
X136550D01*
X136493Y214865D01*
D02*
G37*
G36*
X280847Y207804D02*
X280796Y207729D01*
X280751Y207643D01*
X280712Y207546D01*
X280679Y207439D01*
X280652Y207321D01*
X280631Y207192D01*
X280616Y207052D01*
X280604Y206740D01*
X279104D01*
X279101Y206902D01*
X279077Y207192D01*
X279056Y207321D01*
X279029Y207439D01*
X278996Y207546D01*
X278957Y207643D01*
X278912Y207729D01*
X278861Y207804D01*
X278804Y207868D01*
X280904D01*
X280847Y207804D01*
D02*
G37*
G36*
X132253Y192538D02*
X132277Y192247D01*
X132298Y192118D01*
X132325Y192000D01*
X132358Y191893D01*
X132397Y191796D01*
X132442Y191710D01*
X132493Y191635D01*
X132550Y191571D01*
X130450D01*
X130507Y191635D01*
X130558Y191710D01*
X130603Y191796D01*
X130642Y191893D01*
X130675Y192000D01*
X130702Y192118D01*
X130723Y192247D01*
X130738Y192387D01*
X130750Y192699D01*
X132250D01*
X132253Y192538D01*
D02*
G37*
G36*
X132493Y189365D02*
X132442Y189290D01*
X132397Y189204D01*
X132358Y189107D01*
X132325Y189000D01*
X132298Y188882D01*
X132277Y188753D01*
X132262Y188613D01*
X132250Y188301D01*
X130750D01*
X130747Y188462D01*
X130723Y188753D01*
X130702Y188882D01*
X130675Y189000D01*
X130642Y189107D01*
X130603Y189204D01*
X130558Y189290D01*
X130507Y189365D01*
X130450Y189429D01*
X132550D01*
X132493Y189365D01*
D02*
G37*
G36*
X223635Y188493D02*
X223710Y188442D01*
X223796Y188397D01*
X223893Y188358D01*
X224000Y188325D01*
X224118Y188298D01*
X224247Y188277D01*
X224387Y188262D01*
X224699Y188250D01*
Y186750D01*
X224538Y186747D01*
X224247Y186723D01*
X224118Y186702D01*
X224000Y186675D01*
X223893Y186642D01*
X223796Y186603D01*
X223710Y186558D01*
X223635Y186507D01*
X223571Y186450D01*
Y188550D01*
X223635Y188493D01*
D02*
G37*
G36*
X298750Y187500D02*
X297250Y185250D01*
X297235Y185535D01*
X297190Y185790D01*
X297115Y186015D01*
X297010Y186210D01*
X296875Y186375D01*
X296710Y186510D01*
X296515Y186615D01*
X296290Y186690D01*
X296035Y186735D01*
X295750Y186750D01*
Y188250D01*
X296035Y188265D01*
X296290Y188310D01*
X296515Y188385D01*
X296710Y188490D01*
X296875Y188625D01*
X297010Y188790D01*
X297115Y188985D01*
X297190Y189210D01*
X297235Y189465D01*
X297250Y189750D01*
X298750Y187500D01*
D02*
G37*
G36*
X75217Y183407D02*
X75497Y183168D01*
X75632Y183070D01*
X75763Y182987D01*
X75892Y182920D01*
X76016Y182868D01*
X76138Y182830D01*
X76255Y182808D01*
X76370Y182800D01*
Y182200D01*
X76255Y182193D01*
X76138Y182170D01*
X76016Y182132D01*
X75892Y182080D01*
X75763Y182012D01*
X75632Y181930D01*
X75497Y181833D01*
X75358Y181720D01*
X75071Y181450D01*
Y183550D01*
X75217Y183407D01*
D02*
G37*
G36*
X284135Y165993D02*
X284210Y165942D01*
X284296Y165897D01*
X284393Y165858D01*
X284500Y165825D01*
X284618Y165798D01*
X284747Y165777D01*
X284887Y165762D01*
X285199Y165750D01*
Y164250D01*
X285038Y164247D01*
X284747Y164223D01*
X284618Y164202D01*
X284500Y164175D01*
X284393Y164142D01*
X284296Y164103D01*
X284210Y164058D01*
X284135Y164007D01*
X284071Y163950D01*
Y166050D01*
X284135Y165993D01*
D02*
G37*
G36*
X81929Y156450D02*
X81783Y156593D01*
X81503Y156833D01*
X81368Y156930D01*
X81237Y157012D01*
X81108Y157080D01*
X80984Y157132D01*
X80862Y157170D01*
X80745Y157193D01*
X80630Y157200D01*
Y157800D01*
X80745Y157808D01*
X80862Y157830D01*
X80984Y157868D01*
X81108Y157920D01*
X81237Y157987D01*
X81368Y158070D01*
X81503Y158168D01*
X81642Y158280D01*
X81929Y158550D01*
Y156450D01*
D02*
G37*
G36*
X128993Y156365D02*
X128942Y156290D01*
X128897Y156204D01*
X128858Y156107D01*
X128825Y156000D01*
X128798Y155882D01*
X128777Y155753D01*
X128762Y155613D01*
X128750Y155301D01*
X127250D01*
X127247Y155462D01*
X127223Y155753D01*
X127202Y155882D01*
X127175Y156000D01*
X127142Y156107D01*
X127103Y156204D01*
X127058Y156290D01*
X127007Y156365D01*
X126950Y156429D01*
X129050D01*
X128993Y156365D01*
D02*
G37*
G36*
X139005Y156175D02*
X139022Y156039D01*
X139049Y155907D01*
X139088Y155778D01*
X139137Y155651D01*
X139198Y155529D01*
X139269Y155410D01*
X139352Y155294D01*
X139445Y155181D01*
X139550Y155071D01*
X137450D01*
X137555Y155181D01*
X137648Y155294D01*
X137731Y155410D01*
X137802Y155529D01*
X137863Y155651D01*
X137912Y155778D01*
X137951Y155907D01*
X137978Y156039D01*
X137995Y156175D01*
X138000Y156314D01*
X139000D01*
X139005Y156175D01*
D02*
G37*
G36*
X122991Y151357D02*
X123037Y151230D01*
X123112Y151118D01*
X123218Y151020D01*
X123354Y150937D01*
X123520Y150870D01*
X123717Y150818D01*
X123944Y150780D01*
X124201Y150758D01*
X124488Y150750D01*
Y149250D01*
X124201Y149242D01*
X123944Y149220D01*
X123717Y149182D01*
X123520Y149130D01*
X123354Y149063D01*
X123218Y148980D01*
X123112Y148882D01*
X123037Y148770D01*
X122991Y148643D01*
X122976Y148500D01*
Y151500D01*
X122991Y151357D01*
D02*
G37*
G36*
X128750Y150000D02*
X127250Y147750D01*
X127235Y148035D01*
X127190Y148290D01*
X127115Y148515D01*
X127010Y148710D01*
X126875Y148875D01*
X126710Y149010D01*
X126515Y149115D01*
X126290Y149190D01*
X126035Y149235D01*
X125750Y149250D01*
Y150750D01*
X126035Y150765D01*
X126290Y150810D01*
X126515Y150885D01*
X126710Y150990D01*
X126875Y151125D01*
X127010Y151290D01*
X127115Y151485D01*
X127190Y151710D01*
X127235Y151965D01*
X127250Y152250D01*
X128750Y150000D01*
D02*
G37*
G36*
X245408Y148489D02*
X245167Y148209D01*
X245070Y148074D01*
X244988Y147942D01*
X244920Y147814D01*
X244867Y147689D01*
X244830Y147568D01*
X244808Y147450D01*
X244800Y147336D01*
X244200D01*
X244193Y147450D01*
X244170Y147568D01*
X244132Y147689D01*
X244080Y147814D01*
X244012Y147942D01*
X243930Y148074D01*
X243832Y148209D01*
X243720Y148347D01*
X243450Y148634D01*
X245550D01*
X245408Y148489D01*
D02*
G37*
G36*
X250234Y148457D02*
X249994Y148177D01*
X249897Y148042D01*
X249814Y147910D01*
X249746Y147782D01*
X249694Y147657D01*
X249657Y147536D01*
X249634Y147418D01*
X249626Y147304D01*
X249026D01*
X249019Y147418D01*
X248996Y147536D01*
X248959Y147657D01*
X248906Y147782D01*
X248839Y147910D01*
X248757Y148042D01*
X248659Y148177D01*
X248547Y148315D01*
X248276Y148602D01*
X250377D01*
X250234Y148457D01*
D02*
G37*
G36*
X305929Y144950D02*
X305865Y145007D01*
X305790Y145058D01*
X305704Y145103D01*
X305607Y145142D01*
X305500Y145175D01*
X305382Y145202D01*
X305253Y145223D01*
X305113Y145238D01*
X304801Y145250D01*
Y146750D01*
X304962Y146753D01*
X305253Y146777D01*
X305382Y146798D01*
X305500Y146825D01*
X305607Y146858D01*
X305704Y146897D01*
X305790Y146942D01*
X305865Y146993D01*
X305929Y147050D01*
Y144950D01*
D02*
G37*
G36*
X322500Y102500D02*
X297971D01*
X297819Y103000D01*
X298176Y103238D01*
X298762Y103824D01*
X298762Y103824D01*
X299149Y104403D01*
X299284Y105086D01*
Y127000D01*
Y136444D01*
X299301Y136539D01*
X299324Y136609D01*
X299341Y136640D01*
X299349Y136651D01*
X299360Y136659D01*
X299391Y136676D01*
X299461Y136699D01*
X299556Y136716D01*
X300583D01*
X300616Y136712D01*
X300686Y136701D01*
X300697Y136698D01*
X300698Y136698D01*
X301524Y136145D01*
X302000Y136050D01*
Y138500D01*
Y140949D01*
X301524Y140855D01*
X300698Y140302D01*
X300697Y140302D01*
X300686Y140299D01*
X300628Y140290D01*
X300562Y140284D01*
X292784D01*
Y152000D01*
X296216D01*
Y149000D01*
X296352Y148317D01*
X296738Y147738D01*
X299738Y144738D01*
X300317Y144351D01*
X301000Y144216D01*
X305083D01*
X305116Y144212D01*
X305186Y144201D01*
X305197Y144198D01*
X305198Y144198D01*
X306025Y143645D01*
X307000Y143451D01*
X307976Y143645D01*
X308802Y144198D01*
X309355Y145025D01*
X309549Y146000D01*
X309355Y146976D01*
X308802Y147802D01*
X307976Y148355D01*
X307000Y148549D01*
X306025Y148355D01*
X305198Y147802D01*
X305197Y147802D01*
X305186Y147799D01*
X305128Y147790D01*
X305062Y147784D01*
X301739D01*
X299784Y149739D01*
Y152000D01*
X322500D01*
Y102500D01*
D02*
G37*
G36*
X237985Y141000D02*
X237782Y140998D01*
X237414Y140970D01*
X237249Y140943D01*
X237098Y140908D01*
X236960Y140866D01*
X236834Y140814D01*
X236722Y140755D01*
X236623Y140688D01*
X236537Y140612D01*
X236112Y141036D01*
X236188Y141123D01*
X236255Y141222D01*
X236314Y141334D01*
X236366Y141460D01*
X236408Y141598D01*
X236443Y141749D01*
X236470Y141914D01*
X236488Y142091D01*
X236500Y142485D01*
X237985Y141000D01*
D02*
G37*
G36*
X128753Y140538D02*
X128777Y140247D01*
X128798Y140118D01*
X128825Y140000D01*
X128858Y139893D01*
X128897Y139796D01*
X128942Y139710D01*
X128993Y139635D01*
X129050Y139571D01*
X126950D01*
X127007Y139635D01*
X127058Y139710D01*
X127103Y139796D01*
X127142Y139893D01*
X127175Y140000D01*
X127202Y140118D01*
X127223Y140247D01*
X127238Y140387D01*
X127250Y140699D01*
X128750D01*
X128753Y140538D01*
D02*
G37*
G36*
X301429Y137450D02*
X301365Y137507D01*
X301290Y137558D01*
X301204Y137603D01*
X301107Y137642D01*
X301000Y137675D01*
X300882Y137702D01*
X300753Y137723D01*
X300613Y137738D01*
X300301Y137750D01*
Y139250D01*
X300462Y139253D01*
X300753Y139277D01*
X300882Y139298D01*
X301000Y139325D01*
X301107Y139358D01*
X301204Y139397D01*
X301290Y139442D01*
X301365Y139493D01*
X301429Y139550D01*
Y137450D01*
D02*
G37*
G36*
X128993Y137365D02*
X128942Y137290D01*
X128897Y137204D01*
X128858Y137107D01*
X128825Y137000D01*
X128798Y136882D01*
X128777Y136753D01*
X128762Y136613D01*
X128750Y136301D01*
X127250D01*
X127247Y136462D01*
X127223Y136753D01*
X127202Y136882D01*
X127175Y137000D01*
X127142Y137107D01*
X127103Y137204D01*
X127058Y137290D01*
X127007Y137365D01*
X126950Y137429D01*
X129050D01*
X128993Y137365D01*
D02*
G37*
G36*
X299750Y137750D02*
X299465Y137735D01*
X299210Y137690D01*
X298985Y137615D01*
X298790Y137510D01*
X298625Y137375D01*
X298490Y137210D01*
X298385Y137015D01*
X298310Y136790D01*
X298265Y136535D01*
X298250Y136250D01*
X296750D01*
X296735Y136535D01*
X296690Y136790D01*
X296615Y137015D01*
X296510Y137210D01*
X296375Y137375D01*
X296210Y137510D01*
X296015Y137615D01*
X295790Y137690D01*
X295535Y137735D01*
X295250Y137750D01*
X297500Y139250D01*
X299750Y137750D01*
D02*
G37*
G36*
X253408Y136784D02*
X253168Y136503D01*
X253070Y136368D01*
X252988Y136237D01*
X252920Y136109D01*
X252868Y135984D01*
X252830Y135863D01*
X252807Y135745D01*
X252800Y135630D01*
X252200D01*
X252192Y135745D01*
X252170Y135863D01*
X252133Y135984D01*
X252080Y136109D01*
X252012Y136237D01*
X251930Y136368D01*
X251833Y136503D01*
X251720Y136642D01*
X251450Y136929D01*
X253550D01*
X253408Y136784D01*
D02*
G37*
G36*
X249307Y134255D02*
X249330Y134137D01*
X249367Y134016D01*
X249420Y133891D01*
X249487Y133763D01*
X249570Y133632D01*
X249668Y133497D01*
X249780Y133358D01*
X250050Y133071D01*
X247950D01*
X248093Y133217D01*
X248333Y133497D01*
X248430Y133632D01*
X248513Y133763D01*
X248580Y133891D01*
X248633Y134016D01*
X248670Y134137D01*
X248692Y134255D01*
X248700Y134370D01*
X249300D01*
X249307Y134255D01*
D02*
G37*
G36*
X289216Y139379D02*
X289352Y138696D01*
X289738Y138117D01*
X290617Y137238D01*
X291196Y136852D01*
X291879Y136716D01*
X295444D01*
X295539Y136699D01*
X295609Y136676D01*
X295640Y136659D01*
X295651Y136651D01*
X295659Y136640D01*
X295676Y136609D01*
X295699Y136539D01*
X295716Y136444D01*
Y128529D01*
X290104D01*
X290016Y128548D01*
X289889Y128591D01*
X289732Y128662D01*
X289549Y128764D01*
X289343Y128899D01*
X289127Y129061D01*
X288604Y129517D01*
X288385Y129734D01*
X288319Y129819D01*
X287493Y130453D01*
X286532Y130851D01*
X286000Y130921D01*
Y127000D01*
Y123079D01*
X286532Y123149D01*
X287493Y123547D01*
X288319Y124181D01*
X288385Y124266D01*
X288605Y124483D01*
X289127Y124939D01*
X289343Y125101D01*
X289549Y125236D01*
X289732Y125338D01*
X289889Y125409D01*
X290016Y125452D01*
X290104Y125471D01*
X295716D01*
Y106284D01*
X286791D01*
X286724Y106317D01*
X286463Y106621D01*
X286437Y106715D01*
X286433Y106790D01*
X286477Y106905D01*
X286578Y107129D01*
X286699Y107359D01*
X287031Y107902D01*
X287231Y108189D01*
X287260Y108255D01*
X287453Y108507D01*
X287851Y109468D01*
X287921Y110000D01*
X280079D01*
X280149Y109468D01*
X280547Y108507D01*
X281181Y107681D01*
X281654Y107318D01*
X281714Y107252D01*
X281957Y107072D01*
X282144Y106913D01*
X282273Y106784D01*
X282267Y106697D01*
X282050Y106290D01*
X282043Y106284D01*
X275458D01*
X275359Y106784D01*
X275993Y107047D01*
X276819Y107681D01*
X277453Y108507D01*
X277851Y109468D01*
X277987Y110500D01*
X277851Y111532D01*
X277453Y112493D01*
X276819Y113319D01*
X275993Y113953D01*
X275032Y114351D01*
X274000Y114487D01*
X272968Y114351D01*
X272007Y113953D01*
X271181Y113319D01*
X270547Y112493D01*
X270149Y111532D01*
X270013Y110500D01*
X270149Y109468D01*
X270547Y108507D01*
X271181Y107681D01*
X272007Y107047D01*
X272641Y106784D01*
X272542Y106284D01*
X265458D01*
X265358Y106784D01*
X265993Y107047D01*
X266819Y107681D01*
X267453Y108507D01*
X267851Y109468D01*
X267987Y110500D01*
X267851Y111532D01*
X267453Y112493D01*
X266819Y113319D01*
X265993Y113953D01*
X265032Y114351D01*
X264000Y114487D01*
X262968Y114351D01*
X262007Y113953D01*
X261181Y113319D01*
X260547Y112493D01*
X260149Y111532D01*
X260013Y110500D01*
X260149Y109468D01*
X260547Y108507D01*
X261181Y107681D01*
X262007Y107047D01*
X262642Y106784D01*
X262542Y106284D01*
X255458D01*
X255359Y106784D01*
X255993Y107047D01*
X256819Y107681D01*
X257453Y108507D01*
X257851Y109468D01*
X257987Y110500D01*
X257851Y111532D01*
X257453Y112493D01*
X256819Y113319D01*
X256732Y113386D01*
X256465Y113655D01*
X256194Y113944D01*
X255740Y114484D01*
X255587Y114697D01*
X255466Y114888D01*
X255384Y115042D01*
X255339Y115152D01*
X255326Y115204D01*
Y131500D01*
X255225Y132007D01*
X254937Y132437D01*
X253825Y133549D01*
Y135631D01*
X253827Y135635D01*
X253843Y135672D01*
X253872Y135728D01*
X253916Y135798D01*
X253969Y135872D01*
X254160Y136094D01*
X254182Y136117D01*
X254302Y136198D01*
X254855Y137024D01*
X255049Y138000D01*
X254855Y138976D01*
X254302Y139802D01*
X253475Y140355D01*
X252500Y140549D01*
X251524Y140355D01*
X251152Y140106D01*
X250652Y140373D01*
Y147304D01*
X250653Y147308D01*
X250669Y147346D01*
X250698Y147401D01*
X250743Y147472D01*
X250796Y147546D01*
X250986Y147768D01*
X251009Y147791D01*
X251129Y147871D01*
X251681Y148698D01*
X251875Y149673D01*
X251681Y150649D01*
X251129Y151476D01*
X251061Y151522D01*
X251206Y152000D01*
X289216D01*
Y139379D01*
D02*
G37*
G36*
X296970Y126469D02*
X296949Y126475D01*
X296899Y126480D01*
X296711Y126489D01*
X295441Y126500D01*
Y127500D01*
X296970Y127531D01*
Y126469D01*
D02*
G37*
G36*
X287911Y128769D02*
X288485Y128268D01*
X288758Y128064D01*
X289020Y127892D01*
X289272Y127751D01*
X289515Y127641D01*
X289747Y127563D01*
X289969Y127516D01*
X290182Y127500D01*
Y126500D01*
X289969Y126484D01*
X289747Y126437D01*
X289515Y126359D01*
X289272Y126249D01*
X289020Y126108D01*
X288758Y125936D01*
X288485Y125732D01*
X287911Y125231D01*
X287609Y124933D01*
Y129067D01*
X287911Y128769D01*
D02*
G37*
G36*
X155907Y125784D02*
X155667Y125503D01*
X155570Y125368D01*
X155488Y125237D01*
X155420Y125109D01*
X155368Y124984D01*
X155330Y124863D01*
X155307Y124745D01*
X155300Y124630D01*
X154700D01*
X154692Y124745D01*
X154670Y124863D01*
X154632Y124984D01*
X154580Y125109D01*
X154513Y125237D01*
X154430Y125368D01*
X154332Y125503D01*
X154220Y125642D01*
X153950Y125929D01*
X156050D01*
X155907Y125784D01*
D02*
G37*
G36*
X132253Y123538D02*
X132277Y123247D01*
X132298Y123118D01*
X132325Y123000D01*
X132358Y122893D01*
X132397Y122796D01*
X132442Y122710D01*
X132493Y122635D01*
X132550Y122571D01*
X130450D01*
X130507Y122635D01*
X130558Y122710D01*
X130603Y122796D01*
X130642Y122893D01*
X130675Y123000D01*
X130702Y123118D01*
X130723Y123247D01*
X130738Y123387D01*
X130750Y123699D01*
X132250D01*
X132253Y123538D01*
D02*
G37*
G36*
X240388Y123963D02*
X240312Y123877D01*
X240245Y123778D01*
X240186Y123666D01*
X240135Y123540D01*
X240092Y123402D01*
X240057Y123251D01*
X240030Y123086D01*
X240012Y122909D01*
X240000Y122515D01*
X238515Y124000D01*
X238719Y124002D01*
X239086Y124030D01*
X239251Y124057D01*
X239402Y124092D01*
X239541Y124135D01*
X239666Y124186D01*
X239778Y124245D01*
X239877Y124312D01*
X239964Y124388D01*
X240388Y123963D01*
D02*
G37*
G36*
X247524Y147871D02*
X247633Y147799D01*
X247778Y147644D01*
X247849Y147556D01*
X247910Y147472D01*
X247955Y147401D01*
X247984Y147346D01*
X248000Y147308D01*
X248001Y147304D01*
Y136845D01*
X247775Y136507D01*
X247674Y136000D01*
Y134370D01*
X247673Y134365D01*
X247657Y134328D01*
X247628Y134273D01*
X247584Y134202D01*
X247531Y134128D01*
X247340Y133906D01*
X247318Y133883D01*
X247198Y133802D01*
X246645Y132975D01*
X246451Y132000D01*
X246645Y131025D01*
X247198Y130198D01*
X248025Y129645D01*
X249000Y129451D01*
X249975Y129645D01*
X250802Y130198D01*
X251355Y131025D01*
X251444Y131474D01*
X251987Y131639D01*
X252675Y130951D01*
Y115204D01*
X252661Y115152D01*
X252616Y115042D01*
X252534Y114888D01*
X252414Y114697D01*
X252265Y114492D01*
X251523Y113642D01*
X251269Y113386D01*
X251181Y113319D01*
X250547Y112493D01*
X250149Y111532D01*
X250013Y110500D01*
X250149Y109468D01*
X250547Y108507D01*
X251181Y107681D01*
X252007Y107047D01*
X252642Y106784D01*
X252542Y106284D01*
X245458D01*
X245358Y106784D01*
X245993Y107047D01*
X246819Y107681D01*
X247453Y108507D01*
X247851Y109468D01*
X247987Y110500D01*
X247851Y111532D01*
X247453Y112493D01*
X246819Y113319D01*
X245993Y113953D01*
X245032Y114351D01*
X244000Y114487D01*
X243891Y114472D01*
X243512Y114474D01*
X243116Y114486D01*
X242414Y114548D01*
X242154Y114589D01*
X241934Y114639D01*
X241767Y114690D01*
X241658Y114736D01*
X241611Y114764D01*
X236825Y119549D01*
Y120082D01*
X237266Y120317D01*
X237525Y120145D01*
X238500Y119951D01*
X239475Y120145D01*
X240302Y120698D01*
X240855Y121525D01*
X241049Y122500D01*
X241023Y122628D01*
X241030Y122841D01*
X241042Y122953D01*
X241058Y123056D01*
X241077Y123137D01*
X241095Y123197D01*
X241111Y123235D01*
X241113Y123238D01*
X245437Y127563D01*
X245725Y127993D01*
X245826Y128500D01*
Y147336D01*
X245827Y147340D01*
X245843Y147378D01*
X245872Y147433D01*
X245916Y147504D01*
X245969Y147578D01*
X246160Y147800D01*
X246182Y147823D01*
X246302Y147903D01*
X246602Y148351D01*
X247203D01*
X247524Y147871D01*
D02*
G37*
G36*
X254318Y115027D02*
X254371Y114827D01*
X254459Y114610D01*
X254583Y114376D01*
X254742Y114125D01*
X254936Y113856D01*
X255431Y113267D01*
X255731Y112946D01*
X256067Y112609D01*
X251933D01*
X252269Y112946D01*
X253064Y113856D01*
X253258Y114125D01*
X253417Y114376D01*
X253541Y114610D01*
X253629Y114827D01*
X253682Y115027D01*
X253700Y115209D01*
X254300D01*
X254318Y115027D01*
D02*
G37*
G36*
X191016Y113245D02*
X191238Y113056D01*
X191336Y112987D01*
X191425Y112935D01*
X191506Y112900D01*
X191577Y112881D01*
X191640Y112880D01*
X191695Y112896D01*
X191740Y112929D01*
X190904Y112092D01*
X190937Y112138D01*
X190952Y112192D01*
X190951Y112255D01*
X190933Y112327D01*
X190898Y112407D01*
X190846Y112497D01*
X190777Y112595D01*
X190691Y112701D01*
X190468Y112941D01*
X190892Y113365D01*
X191016Y113245D01*
D02*
G37*
G36*
X241024Y113926D02*
X241202Y113822D01*
X241418Y113731D01*
X241671Y113653D01*
X241961Y113588D01*
X242289Y113535D01*
X243055Y113468D01*
X243494Y113454D01*
X243970Y113453D01*
X241047Y110529D01*
X241046Y111006D01*
X240965Y112211D01*
X240912Y112539D01*
X240847Y112829D01*
X240769Y113082D01*
X240678Y113298D01*
X240574Y113476D01*
X240458Y113618D01*
X240882Y114042D01*
X241024Y113926D01*
D02*
G37*
G36*
X286177Y108459D02*
X285811Y107861D01*
X285662Y107576D01*
X285536Y107300D01*
X285433Y107032D01*
X285353Y106774D01*
X285296Y106525D01*
X285277Y106395D01*
X285310Y106210D01*
X285385Y105985D01*
X285490Y105790D01*
X285625Y105625D01*
X285790Y105490D01*
X285985Y105385D01*
X286210Y105310D01*
X286465Y105265D01*
X286750Y105250D01*
X284500Y103750D01*
X282250Y105250D01*
X282535Y105265D01*
X282790Y105310D01*
X283015Y105385D01*
X283210Y105490D01*
X283375Y105625D01*
X283510Y105790D01*
X283615Y105985D01*
X283690Y106210D01*
X283699Y106259D01*
X283693Y106292D01*
X283621Y106536D01*
X283521Y106774D01*
X283393Y107006D01*
X283235Y107231D01*
X283049Y107450D01*
X282835Y107664D01*
X282592Y107871D01*
X282320Y108072D01*
X286394Y108772D01*
X286177Y108459D01*
D02*
G37*
%LPC*%
G36*
X299830Y268449D02*
Y266500D01*
X301780D01*
X301685Y266975D01*
X301133Y267802D01*
X300306Y268355D01*
X299830Y268449D01*
D02*
G37*
G36*
X298830D02*
X298355Y268355D01*
X297528Y267802D01*
X296975Y266975D01*
X296881Y266500D01*
X298830D01*
Y268449D01*
D02*
G37*
G36*
X175500D02*
Y266500D01*
X177450D01*
X177355Y266975D01*
X176802Y267802D01*
X175976Y268355D01*
X175500Y268449D01*
D02*
G37*
G36*
X174500D02*
X174024Y268355D01*
X173198Y267802D01*
X172645Y266975D01*
X172550Y266500D01*
X174500D01*
Y268449D01*
D02*
G37*
G36*
X254000Y255049D02*
X253025Y254855D01*
X252198Y254302D01*
X251645Y253475D01*
X251451Y252500D01*
X251477Y252372D01*
X251470Y252159D01*
X251458Y252047D01*
X251442Y251944D01*
X251423Y251863D01*
X251405Y251803D01*
X251389Y251765D01*
X251387Y251762D01*
X250563Y250937D01*
X250275Y250507D01*
X250174Y250000D01*
Y243549D01*
X241063Y234437D01*
X240775Y234007D01*
X240702Y233640D01*
X240198Y233302D01*
X239645Y232475D01*
X239451Y231500D01*
X239645Y230524D01*
X240198Y229698D01*
X240306Y229625D01*
X240452Y229470D01*
X240523Y229383D01*
X240584Y229298D01*
X240628Y229227D01*
X240657Y229172D01*
X240673Y229134D01*
X240674Y229131D01*
Y212369D01*
X240673Y212366D01*
X240657Y212328D01*
X240628Y212273D01*
X240584Y212202D01*
X240531Y212128D01*
X240340Y211906D01*
X240318Y211883D01*
X240198Y211802D01*
X239645Y210976D01*
X239451Y210000D01*
X239645Y209025D01*
X240198Y208198D01*
X241024Y207645D01*
X242000Y207451D01*
X242975Y207645D01*
X243802Y208198D01*
X244355Y209025D01*
X244549Y210000D01*
X244355Y210976D01*
X243802Y211802D01*
X243694Y211875D01*
X243548Y212030D01*
X243477Y212117D01*
X243416Y212202D01*
X243372Y212273D01*
X243343Y212328D01*
X243327Y212366D01*
X243325Y212369D01*
Y229131D01*
X243327Y229134D01*
X243343Y229172D01*
X243372Y229227D01*
X243416Y229298D01*
X243469Y229372D01*
X243660Y229594D01*
X243682Y229617D01*
X243802Y229698D01*
X244355Y230524D01*
X244549Y231500D01*
X244355Y232475D01*
X243802Y233302D01*
X243791Y233417D01*
X252437Y242063D01*
X252725Y242493D01*
X252825Y243000D01*
Y249451D01*
X253262Y249887D01*
X253266Y249889D01*
X253303Y249905D01*
X253363Y249923D01*
X253444Y249942D01*
X253534Y249956D01*
X253826Y249979D01*
X253858Y249979D01*
X254000Y249951D01*
X254976Y250145D01*
X255802Y250698D01*
X256355Y251524D01*
X256549Y252500D01*
X256355Y253475D01*
X255802Y254302D01*
X254976Y254855D01*
X254000Y255049D01*
D02*
G37*
G36*
X145500Y252987D02*
X144468Y252851D01*
X143507Y252453D01*
X142681Y251819D01*
X142047Y250993D01*
X141649Y250032D01*
X141513Y249000D01*
X141649Y247968D01*
X142047Y247007D01*
X142681Y246181D01*
X143507Y245547D01*
X144468Y245149D01*
X145500Y245013D01*
X146532Y245149D01*
X147493Y245547D01*
X148319Y246181D01*
X148953Y247007D01*
X149351Y247968D01*
X149487Y249000D01*
X149351Y250032D01*
X148953Y250993D01*
X148319Y251819D01*
X147493Y252453D01*
X146532Y252851D01*
X145500Y252987D01*
D02*
G37*
G36*
X266500Y243449D02*
Y241500D01*
X268449D01*
X268355Y241975D01*
X267802Y242802D01*
X266975Y243355D01*
X266500Y243449D01*
D02*
G37*
G36*
X265500D02*
X265024Y243355D01*
X264198Y242802D01*
X263645Y241975D01*
X263550Y241500D01*
X265500D01*
Y243449D01*
D02*
G37*
G36*
X145000Y242953D02*
X141547D01*
Y240804D01*
X141476Y240792D01*
X141384Y240784D01*
X138000D01*
X138000Y240784D01*
X137317Y240649D01*
X136738Y240262D01*
X112261Y215784D01*
X106417D01*
X106384Y215788D01*
X106314Y215799D01*
X106303Y215802D01*
X106302Y215802D01*
X105475Y216355D01*
X105000Y216449D01*
Y214000D01*
Y211550D01*
X105475Y211645D01*
X106302Y212198D01*
X106303Y212198D01*
X106314Y212201D01*
X106372Y212210D01*
X106438Y212216D01*
X113000D01*
X113683Y212351D01*
X114262Y212738D01*
X138739Y237216D01*
X141384D01*
X141476Y237208D01*
X141547Y237196D01*
Y235047D01*
X145000D01*
Y239000D01*
Y242953D01*
D02*
G37*
G36*
X149453D02*
X146000D01*
Y239500D01*
X149453D01*
Y242953D01*
D02*
G37*
G36*
X311500Y257548D02*
X309540Y257355D01*
X307655Y256784D01*
X305917Y255855D01*
X304395Y254605D01*
X303145Y253083D01*
X302217Y251345D01*
X301645Y249460D01*
X301452Y247500D01*
X301645Y245540D01*
X302217Y243655D01*
X303145Y241917D01*
X304395Y240395D01*
X305917Y239145D01*
X307655Y238216D01*
X309540Y237645D01*
X311500Y237452D01*
X313460Y237645D01*
X315345Y238216D01*
X317083Y239145D01*
X318605Y240395D01*
X319855Y241917D01*
X320783Y243655D01*
X321355Y245540D01*
X321548Y247500D01*
X321355Y249460D01*
X320783Y251345D01*
X319855Y253083D01*
X318605Y254605D01*
X317083Y255855D01*
X315345Y256784D01*
X313460Y257355D01*
X311500Y257548D01*
D02*
G37*
G36*
X113500D02*
X111540Y257355D01*
X109655Y256784D01*
X107917Y255855D01*
X106395Y254605D01*
X105145Y253083D01*
X104217Y251345D01*
X103645Y249460D01*
X103452Y247500D01*
X103645Y245540D01*
X104217Y243655D01*
X105145Y241917D01*
X106395Y240395D01*
X107917Y239145D01*
X109655Y238216D01*
X111540Y237645D01*
X113500Y237452D01*
X115460Y237645D01*
X117345Y238216D01*
X119083Y239145D01*
X120605Y240395D01*
X121855Y241917D01*
X122784Y243655D01*
X123355Y245540D01*
X123548Y247500D01*
X123355Y249460D01*
X122784Y251345D01*
X121855Y253083D01*
X120605Y254605D01*
X119083Y255855D01*
X117345Y256784D01*
X115460Y257355D01*
X113500Y257548D01*
D02*
G37*
G36*
X149453Y238500D02*
X146000D01*
Y235047D01*
X149453D01*
Y238500D01*
D02*
G37*
G36*
X177450Y265500D02*
X172550D01*
X172645Y265024D01*
X173198Y264198D01*
X173198Y264197D01*
X173201Y264186D01*
X173210Y264128D01*
X173216Y264062D01*
Y233417D01*
X173212Y233384D01*
X173201Y233314D01*
X173198Y233303D01*
X173198Y233302D01*
X172645Y232475D01*
X172550Y232000D01*
X177450D01*
X177355Y232475D01*
X176802Y233302D01*
X176802Y233303D01*
X176799Y233314D01*
X176790Y233372D01*
X176784Y233438D01*
Y264083D01*
X176788Y264116D01*
X176799Y264186D01*
X176802Y264197D01*
X176802Y264198D01*
X177355Y265024D01*
X177450Y265500D01*
D02*
G37*
G36*
Y231000D02*
X175500D01*
Y229050D01*
X175976Y229145D01*
X176802Y229698D01*
X177355Y230524D01*
X177450Y231000D01*
D02*
G37*
G36*
X174500D02*
X172550D01*
X172645Y230524D01*
X173198Y229698D01*
X174024Y229145D01*
X174500Y229050D01*
Y231000D01*
D02*
G37*
G36*
X214000Y255549D02*
X213024Y255355D01*
X212198Y254802D01*
X211645Y253976D01*
X211451Y253000D01*
X211645Y252025D01*
X212198Y251198D01*
X212306Y251125D01*
X212452Y250970D01*
X212523Y250883D01*
X212584Y250798D01*
X212628Y250727D01*
X212657Y250672D01*
X212673Y250635D01*
X212674Y250630D01*
Y228369D01*
X212673Y228365D01*
X212657Y228328D01*
X212628Y228273D01*
X212584Y228202D01*
X212531Y228128D01*
X212340Y227906D01*
X212318Y227883D01*
X212198Y227802D01*
X211645Y226975D01*
X211451Y226000D01*
X211645Y225025D01*
X212198Y224198D01*
X213024Y223645D01*
X214000Y223451D01*
X214976Y223645D01*
X215802Y224198D01*
X216355Y225025D01*
X216549Y226000D01*
X216355Y226975D01*
X215802Y227802D01*
X215694Y227875D01*
X215548Y228030D01*
X215477Y228117D01*
X215416Y228202D01*
X215372Y228273D01*
X215343Y228328D01*
X215327Y228365D01*
X215325Y228369D01*
Y250630D01*
X215327Y250635D01*
X215343Y250672D01*
X215372Y250728D01*
X215416Y250798D01*
X215469Y250872D01*
X215660Y251094D01*
X215682Y251117D01*
X215802Y251198D01*
X216355Y252025D01*
X216549Y253000D01*
X216355Y253976D01*
X215802Y254802D01*
X214976Y255355D01*
X214000Y255549D01*
D02*
G37*
G36*
X268449Y240500D02*
X263550D01*
X263645Y240024D01*
X264198Y239198D01*
X264305Y239126D01*
X264339Y239085D01*
X264376Y239032D01*
X264406Y238983D01*
X264429Y238936D01*
X264447Y238890D01*
X264461Y238844D01*
X264471Y238797D01*
Y237500D01*
X264587Y236915D01*
X264919Y236419D01*
X270971Y230366D01*
Y222203D01*
X270961Y222156D01*
X270947Y222110D01*
X270929Y222064D01*
X270906Y222017D01*
X270876Y221968D01*
X270839Y221915D01*
X270805Y221874D01*
X270698Y221802D01*
X270145Y220975D01*
X270051Y220500D01*
X274950D01*
X274855Y220975D01*
X274302Y221802D01*
X274195Y221874D01*
X274161Y221915D01*
X274124Y221968D01*
X274094Y222017D01*
X274071Y222064D01*
X274053Y222110D01*
X274039Y222156D01*
X274029Y222203D01*
Y231000D01*
X273913Y231585D01*
X273581Y232081D01*
X267529Y238134D01*
Y238797D01*
X267539Y238844D01*
X267553Y238890D01*
X267571Y238936D01*
X267594Y238983D01*
X267624Y239032D01*
X267661Y239085D01*
X267695Y239126D01*
X267802Y239198D01*
X268355Y240024D01*
X268449Y240500D01*
D02*
G37*
G36*
X274950Y219500D02*
X273000D01*
Y217550D01*
X273476Y217645D01*
X274302Y218198D01*
X274855Y219024D01*
X274950Y219500D01*
D02*
G37*
G36*
X272000D02*
X270051D01*
X270145Y219024D01*
X270698Y218198D01*
X271525Y217645D01*
X272000Y217550D01*
Y219500D01*
D02*
G37*
G36*
X219000Y252049D02*
X218024Y251855D01*
X217198Y251302D01*
X216645Y250476D01*
X216451Y249500D01*
X216645Y248524D01*
X217198Y247698D01*
X217306Y247625D01*
X217452Y247470D01*
X217523Y247383D01*
X217584Y247298D01*
X217628Y247227D01*
X217657Y247172D01*
X217673Y247134D01*
X217674Y247130D01*
Y222370D01*
X217673Y222365D01*
X217657Y222328D01*
X217628Y222272D01*
X217584Y222202D01*
X217531Y222128D01*
X217340Y221906D01*
X217318Y221883D01*
X217198Y221802D01*
X216645Y220975D01*
X216451Y220000D01*
X216645Y219024D01*
X217198Y218198D01*
X218024Y217645D01*
X219000Y217451D01*
X219975Y217645D01*
X220802Y218198D01*
X221355Y219024D01*
X221549Y220000D01*
X221355Y220975D01*
X220802Y221802D01*
X220694Y221875D01*
X220548Y222030D01*
X220477Y222117D01*
X220416Y222202D01*
X220372Y222273D01*
X220343Y222328D01*
X220327Y222365D01*
X220325Y222370D01*
Y247130D01*
X220327Y247134D01*
X220343Y247172D01*
X220372Y247228D01*
X220416Y247298D01*
X220469Y247372D01*
X220660Y247594D01*
X220682Y247617D01*
X220802Y247698D01*
X221355Y248524D01*
X221549Y249500D01*
X221355Y250476D01*
X220802Y251302D01*
X219975Y251855D01*
X219000Y252049D01*
D02*
G37*
G36*
X301780Y265500D02*
X296881D01*
X296975Y265024D01*
X297528Y264198D01*
X297529Y264197D01*
X297531Y264186D01*
X297541Y264128D01*
X297546Y264062D01*
Y260069D01*
X295238Y257762D01*
X294851Y257183D01*
X294716Y256500D01*
Y218417D01*
X294712Y218384D01*
X294701Y218314D01*
X294698Y218303D01*
X294698Y218302D01*
X294145Y217476D01*
X294051Y217000D01*
X298950D01*
X298855Y217476D01*
X298302Y218302D01*
X298302Y218303D01*
X298299Y218314D01*
X298290Y218372D01*
X298284Y218438D01*
Y255761D01*
X300592Y258069D01*
X300979Y258648D01*
X301115Y259330D01*
Y264083D01*
X301118Y264116D01*
X301130Y264186D01*
X301132Y264197D01*
X301133Y264198D01*
X301685Y265024D01*
X301780Y265500D01*
D02*
G37*
G36*
X145500Y262987D02*
X144468Y262851D01*
X143507Y262453D01*
X142681Y261819D01*
X142047Y260993D01*
X141649Y260032D01*
X141513Y259000D01*
X141649Y257968D01*
X142047Y257007D01*
X142681Y256181D01*
X143507Y255547D01*
X144468Y255149D01*
X145500Y255013D01*
X146532Y255149D01*
X147493Y255547D01*
X148319Y256181D01*
X148382Y256263D01*
X148557Y256433D01*
X148771Y256620D01*
X148975Y256778D01*
X149171Y256910D01*
X149356Y257016D01*
X149530Y257098D01*
X149693Y257158D01*
X149845Y257199D01*
X149953Y257216D01*
X154716D01*
Y221239D01*
X150261Y216784D01*
X149953D01*
X149845Y216801D01*
X149693Y216842D01*
X149530Y216902D01*
X149356Y216984D01*
X149171Y217090D01*
X148975Y217222D01*
X148771Y217380D01*
X148557Y217567D01*
X148382Y217737D01*
X148319Y217819D01*
X147493Y218453D01*
X146532Y218851D01*
X145500Y218987D01*
X144468Y218851D01*
X143507Y218453D01*
X142681Y217819D01*
X142047Y216993D01*
X141649Y216032D01*
X141513Y215000D01*
X141649Y213968D01*
X142047Y213007D01*
X142681Y212181D01*
X143507Y211547D01*
X144468Y211149D01*
X145500Y211013D01*
X146532Y211149D01*
X147493Y211547D01*
X148319Y212181D01*
X148382Y212263D01*
X148557Y212433D01*
X148771Y212619D01*
X148975Y212778D01*
X149171Y212910D01*
X149356Y213016D01*
X149530Y213098D01*
X149693Y213158D01*
X149845Y213199D01*
X149953Y213216D01*
X151000D01*
X151683Y213351D01*
X152262Y213738D01*
X157762Y219238D01*
X157762Y219238D01*
X158149Y219817D01*
X158284Y220500D01*
Y258414D01*
X158149Y259097D01*
X157762Y259676D01*
X157762Y259676D01*
X157176Y260262D01*
X156597Y260648D01*
X155914Y260784D01*
X149953D01*
X149845Y260801D01*
X149693Y260842D01*
X149530Y260902D01*
X149356Y260984D01*
X149171Y261090D01*
X148975Y261222D01*
X148771Y261380D01*
X148557Y261567D01*
X148382Y261737D01*
X148319Y261819D01*
X147493Y262453D01*
X146532Y262851D01*
X145500Y262987D01*
D02*
G37*
G36*
X104000Y216449D02*
X103524Y216355D01*
X102698Y215802D01*
X102697Y215802D01*
X102686Y215799D01*
X102628Y215790D01*
X102562Y215784D01*
X98500D01*
X98500Y215784D01*
X97817Y215649D01*
X97238Y215262D01*
X97238Y215262D01*
X96415Y214438D01*
X95953Y214629D01*
Y215453D01*
X92500D01*
Y211500D01*
X92000D01*
Y211000D01*
X88047D01*
Y207547D01*
X90195D01*
X90208Y207470D01*
X90216Y207381D01*
Y201917D01*
X90212Y201884D01*
X90201Y201814D01*
X90198Y201803D01*
X90198Y201802D01*
X89645Y200975D01*
X89551Y200500D01*
X94450D01*
X94355Y200975D01*
X93802Y201802D01*
X93802Y201803D01*
X93799Y201814D01*
X93790Y201872D01*
X93784Y201938D01*
Y207381D01*
X93792Y207470D01*
X93805Y207547D01*
X95953D01*
Y210036D01*
X95995Y210040D01*
X96324D01*
X97007Y210176D01*
X97586Y210562D01*
X99239Y212216D01*
X102583D01*
X102616Y212212D01*
X102686Y212201D01*
X102697Y212198D01*
X102698Y212198D01*
X103524Y211645D01*
X104000Y211550D01*
Y214000D01*
Y216449D01*
D02*
G37*
G36*
X224000Y248549D02*
X223025Y248355D01*
X222198Y247802D01*
X221645Y246975D01*
X221451Y246000D01*
X221645Y245024D01*
X222198Y244198D01*
X222306Y244125D01*
X222452Y243970D01*
X222523Y243883D01*
X222584Y243798D01*
X222628Y243727D01*
X222657Y243672D01*
X222673Y243635D01*
X222674Y243631D01*
Y219869D01*
X222673Y219865D01*
X222657Y219828D01*
X222628Y219773D01*
X222584Y219702D01*
X222531Y219628D01*
X222340Y219406D01*
X222318Y219383D01*
X222198Y219302D01*
X221645Y218476D01*
X221451Y217500D01*
X221645Y216525D01*
X222198Y215698D01*
X223025Y215145D01*
X224000Y214951D01*
X224975Y215145D01*
X225802Y215698D01*
X226355Y216525D01*
X226549Y217500D01*
X226355Y218476D01*
X225802Y219302D01*
X225694Y219375D01*
X225548Y219530D01*
X225477Y219617D01*
X225416Y219702D01*
X225372Y219773D01*
X225343Y219828D01*
X225327Y219865D01*
X225325Y219869D01*
Y243631D01*
X225327Y243635D01*
X225343Y243672D01*
X225372Y243727D01*
X225416Y243798D01*
X225469Y243872D01*
X225660Y244094D01*
X225682Y244117D01*
X225802Y244198D01*
X226355Y245024D01*
X226549Y246000D01*
X226355Y246975D01*
X225802Y247802D01*
X224975Y248355D01*
X224000Y248549D01*
D02*
G37*
G36*
X298950Y216000D02*
X297000D01*
Y214051D01*
X297476Y214145D01*
X298302Y214698D01*
X298855Y215525D01*
X298950Y216000D01*
D02*
G37*
G36*
X296000D02*
X294051D01*
X294145Y215525D01*
X294698Y214698D01*
X295525Y214145D01*
X296000Y214051D01*
Y216000D01*
D02*
G37*
G36*
X176396Y227653D02*
X175420Y227459D01*
X174593Y226907D01*
X174041Y226080D01*
X173847Y225104D01*
X174041Y224129D01*
X174593Y223302D01*
X174701Y223230D01*
X174735Y223189D01*
X174772Y223137D01*
X174802Y223087D01*
X174825Y223040D01*
X174843Y222994D01*
X174857Y222948D01*
X174866Y222902D01*
Y213149D01*
X174366Y212877D01*
X173500Y213049D01*
X172662Y212882D01*
X172380Y213314D01*
X172855Y214024D01*
X173049Y215000D01*
X172855Y215975D01*
X172302Y216802D01*
X171476Y217355D01*
X170500Y217549D01*
X169525Y217355D01*
X168698Y216802D01*
X168145Y215975D01*
X167951Y215000D01*
X168145Y214024D01*
X168698Y213198D01*
X168806Y213125D01*
X168952Y212970D01*
X169023Y212883D01*
X169084Y212798D01*
X169128Y212727D01*
X169157Y212672D01*
X169173Y212634D01*
X169175Y212631D01*
Y200049D01*
X165418Y196293D01*
X164957Y196539D01*
X165049Y197000D01*
X165024Y197128D01*
X165030Y197341D01*
X165042Y197453D01*
X165058Y197556D01*
X165077Y197637D01*
X165095Y197697D01*
X165111Y197734D01*
X165113Y197738D01*
X166937Y199563D01*
X167225Y199993D01*
X167325Y200500D01*
Y216246D01*
X168001Y216698D01*
X168553Y217525D01*
X168747Y218500D01*
X168553Y219476D01*
X168001Y220302D01*
X167174Y220855D01*
X166199Y221049D01*
X165856Y220981D01*
X165431Y221406D01*
X165549Y222000D01*
X165355Y222975D01*
X164802Y223802D01*
X163976Y224355D01*
X163000Y224549D01*
X162024Y224355D01*
X161198Y223802D01*
X160645Y222975D01*
X160451Y222000D01*
X160645Y221024D01*
X161198Y220198D01*
X161306Y220125D01*
X161452Y219970D01*
X161523Y219883D01*
X161584Y219798D01*
X161628Y219727D01*
X161657Y219672D01*
X161673Y219635D01*
X161674Y219631D01*
Y218077D01*
X161174Y217888D01*
X160476Y218355D01*
X159500Y218549D01*
X158525Y218355D01*
X157698Y217802D01*
X157145Y216975D01*
X156951Y216000D01*
X157145Y215024D01*
X157698Y214198D01*
X157806Y214125D01*
X157952Y213970D01*
X158023Y213883D01*
X158084Y213798D01*
X158128Y213727D01*
X158157Y213672D01*
X158173Y213634D01*
X158175Y213631D01*
Y206549D01*
X151063Y199437D01*
X150775Y199007D01*
X150674Y198500D01*
Y149870D01*
X150673Y149865D01*
X150657Y149828D01*
X150628Y149773D01*
X150584Y149702D01*
X150531Y149628D01*
X150340Y149406D01*
X150318Y149383D01*
X150198Y149302D01*
X149645Y148476D01*
X149451Y147500D01*
X149645Y146525D01*
X150198Y145698D01*
X151024Y145145D01*
X152000Y144951D01*
X152975Y145145D01*
X153802Y145698D01*
X154355Y146525D01*
X154549Y147500D01*
X154355Y148476D01*
X153802Y149302D01*
X153694Y149375D01*
X153548Y149530D01*
X153477Y149617D01*
X153416Y149702D01*
X153372Y149773D01*
X153343Y149828D01*
X153327Y149865D01*
X153325Y149870D01*
Y195103D01*
X153825Y195255D01*
X154198Y194698D01*
X155025Y194145D01*
X156000Y193951D01*
X156975Y194145D01*
X157802Y194698D01*
X158355Y195525D01*
X158549Y196500D01*
X158523Y196628D01*
X158530Y196841D01*
X158542Y196953D01*
X158558Y197056D01*
X158577Y197137D01*
X158595Y197197D01*
X158611Y197234D01*
X158613Y197238D01*
X159934Y198559D01*
X160322Y198241D01*
X160145Y197976D01*
X159951Y197000D01*
X160145Y196025D01*
X160698Y195198D01*
X161524Y194645D01*
X162500Y194451D01*
X162961Y194543D01*
X163207Y194082D01*
X161410Y192284D01*
X161138Y191877D01*
X161024Y191855D01*
X160198Y191302D01*
X159645Y190475D01*
X159451Y189500D01*
X159645Y188524D01*
X160198Y187698D01*
X161024Y187145D01*
X162000Y186951D01*
X162976Y187145D01*
X163802Y187698D01*
X164355Y188524D01*
X164549Y189500D01*
X164355Y190475D01*
X163952Y191078D01*
X167675Y194800D01*
X168175Y194593D01*
Y192869D01*
X168173Y192866D01*
X168157Y192828D01*
X168128Y192772D01*
X168084Y192702D01*
X168031Y192628D01*
X167840Y192406D01*
X167818Y192383D01*
X167698Y192302D01*
X167145Y191475D01*
X166951Y190500D01*
X167145Y189524D01*
X167698Y188698D01*
X168525Y188145D01*
X169500Y187951D01*
X170475Y188145D01*
X171302Y188698D01*
X171855Y189524D01*
X172049Y190500D01*
X171855Y191475D01*
X171302Y192302D01*
X171194Y192375D01*
X171048Y192530D01*
X170977Y192617D01*
X170916Y192702D01*
X170872Y192773D01*
X170843Y192828D01*
X170827Y192866D01*
X170826Y192869D01*
Y194451D01*
X173409Y197035D01*
X173952Y196870D01*
X174041Y196424D01*
X174593Y195598D01*
X175420Y195045D01*
X176396Y194851D01*
X177371Y195045D01*
X178198Y195598D01*
X178751Y196424D01*
X178945Y197400D01*
X178751Y198375D01*
X178198Y199202D01*
X178091Y199274D01*
X178057Y199315D01*
X178019Y199368D01*
X177990Y199417D01*
X177966Y199464D01*
X177948Y199510D01*
X177935Y199556D01*
X177925Y199603D01*
Y222902D01*
X177935Y222948D01*
X177948Y222994D01*
X177966Y223040D01*
X177990Y223087D01*
X178019Y223137D01*
X178057Y223189D01*
X178091Y223230D01*
X178198Y223302D01*
X178751Y224129D01*
X178945Y225104D01*
X178751Y226080D01*
X178198Y226907D01*
X177371Y227459D01*
X176396Y227653D01*
D02*
G37*
G36*
X91500Y215453D02*
X88047D01*
Y212000D01*
X91500D01*
Y215453D01*
D02*
G37*
G36*
X82000Y215487D02*
X80968Y215351D01*
X80007Y214953D01*
X79181Y214319D01*
X78547Y213493D01*
X78149Y212532D01*
X78013Y211500D01*
X78149Y210468D01*
X78547Y209507D01*
X79181Y208681D01*
X80007Y208047D01*
X80968Y207649D01*
X82000Y207513D01*
X83032Y207649D01*
X83993Y208047D01*
X84819Y208681D01*
X85453Y209507D01*
X85851Y210468D01*
X85987Y211500D01*
X85851Y212532D01*
X85453Y213493D01*
X84819Y214319D01*
X83993Y214953D01*
X83032Y215351D01*
X82000Y215487D01*
D02*
G37*
G36*
X149453Y208953D02*
X146000D01*
Y205500D01*
X149453D01*
Y208953D01*
D02*
G37*
G36*
X145000D02*
X141547D01*
Y205500D01*
X145000D01*
Y208953D01*
D02*
G37*
G36*
X212500Y204024D02*
Y202500D01*
X214024D01*
X213962Y202813D01*
X213502Y203502D01*
X212813Y203962D01*
X212500Y204024D01*
D02*
G37*
G36*
X211500D02*
X211187Y203962D01*
X210498Y203502D01*
X210038Y202813D01*
X209976Y202500D01*
X211500D01*
Y204024D01*
D02*
G37*
G36*
X195500Y207549D02*
X194525Y207355D01*
X193698Y206802D01*
X193625Y206694D01*
X193470Y206548D01*
X193383Y206477D01*
X193298Y206416D01*
X193227Y206372D01*
X193172Y206343D01*
X193134Y206327D01*
X193131Y206326D01*
X189500D01*
X188993Y206225D01*
X188563Y205937D01*
X186063Y203437D01*
X185775Y203007D01*
X185675Y202500D01*
Y173870D01*
X185673Y173865D01*
X185657Y173828D01*
X185628Y173773D01*
X185584Y173702D01*
X185531Y173628D01*
X185340Y173406D01*
X185318Y173383D01*
X185198Y173302D01*
X184784Y172684D01*
X184216D01*
X183802Y173302D01*
X182975Y173855D01*
X182000Y174049D01*
X181025Y173855D01*
X180198Y173302D01*
X179645Y172476D01*
X179451Y171500D01*
X179645Y170525D01*
X180198Y169698D01*
X180306Y169625D01*
X180452Y169470D01*
X180523Y169383D01*
X180584Y169298D01*
X180628Y169227D01*
X180657Y169172D01*
X180673Y169134D01*
X180675Y169131D01*
Y168500D01*
X180775Y167993D01*
X181063Y167563D01*
X182563Y166063D01*
X182993Y165775D01*
X183500Y165674D01*
X190500D01*
X191007Y165775D01*
X191437Y166063D01*
X194937Y169563D01*
X195225Y169993D01*
X195326Y170500D01*
Y192631D01*
X195327Y192634D01*
X195343Y192672D01*
X195372Y192727D01*
X195416Y192798D01*
X195469Y192872D01*
X195660Y193094D01*
X195682Y193117D01*
X195802Y193198D01*
X196355Y194025D01*
X196549Y195000D01*
X196355Y195975D01*
X195802Y196802D01*
X194975Y197355D01*
X194000Y197549D01*
X193025Y197355D01*
X192198Y196802D01*
X191645Y195975D01*
X191451Y195000D01*
X191645Y194025D01*
X192198Y193198D01*
X192306Y193125D01*
X192452Y192970D01*
X192523Y192883D01*
X192584Y192798D01*
X192628Y192727D01*
X192657Y192672D01*
X192673Y192634D01*
X192675Y192631D01*
Y171049D01*
X189951Y168325D01*
X184049D01*
X183326Y169049D01*
Y169131D01*
X183327Y169134D01*
X183343Y169172D01*
X183372Y169228D01*
X183416Y169298D01*
X183469Y169372D01*
X183660Y169594D01*
X183682Y169617D01*
X183802Y169698D01*
X184216Y170316D01*
X184784D01*
X185198Y169698D01*
X186024Y169145D01*
X187000Y168951D01*
X187976Y169145D01*
X188802Y169698D01*
X189355Y170525D01*
X189549Y171500D01*
X189355Y172476D01*
X188802Y173302D01*
X188694Y173375D01*
X188548Y173530D01*
X188477Y173617D01*
X188416Y173702D01*
X188372Y173773D01*
X188343Y173828D01*
X188327Y173865D01*
X188326Y173870D01*
Y201951D01*
X190049Y203675D01*
X193131D01*
X193134Y203673D01*
X193172Y203657D01*
X193228Y203628D01*
X193298Y203584D01*
X193372Y203531D01*
X193594Y203340D01*
X193617Y203318D01*
X193698Y203198D01*
X194525Y202645D01*
X195500Y202451D01*
X196476Y202645D01*
X197302Y203198D01*
X197855Y204025D01*
X198049Y205000D01*
X197855Y205976D01*
X197302Y206802D01*
X196476Y207355D01*
X195500Y207549D01*
D02*
G37*
G36*
X149453Y204500D02*
X146000D01*
Y201047D01*
X149453D01*
Y204500D01*
D02*
G37*
G36*
X145000D02*
X141547D01*
Y201047D01*
X145000D01*
Y204500D01*
D02*
G37*
G36*
X214024Y201500D02*
X212500D01*
Y199976D01*
X212813Y200038D01*
X213502Y200499D01*
X213962Y201187D01*
X214024Y201500D01*
D02*
G37*
G36*
X211500D02*
X209976D01*
X210038Y201187D01*
X210498Y200499D01*
X211187Y200038D01*
X211500Y199976D01*
Y201500D01*
D02*
G37*
G36*
X212500Y198024D02*
Y196500D01*
X214024D01*
X213962Y196813D01*
X213502Y197502D01*
X212813Y197962D01*
X212500Y198024D01*
D02*
G37*
G36*
X211500D02*
X211187Y197962D01*
X210498Y197502D01*
X210038Y196813D01*
X209976Y196500D01*
X211500D01*
Y198024D01*
D02*
G37*
G36*
X214024Y195500D02*
X212500D01*
Y193976D01*
X212813Y194038D01*
X213502Y194499D01*
X213962Y195187D01*
X214024Y195500D01*
D02*
G37*
G36*
X211500D02*
X209976D01*
X210038Y195187D01*
X210498Y194499D01*
X211187Y194038D01*
X211500Y193976D01*
Y195500D01*
D02*
G37*
G36*
X94450Y199500D02*
X89551D01*
X89645Y199024D01*
X90198Y198198D01*
X90198Y198197D01*
X90201Y198186D01*
X90210Y198128D01*
X90216Y198062D01*
Y190417D01*
X90212Y190384D01*
X90201Y190314D01*
X90198Y190303D01*
X90198Y190302D01*
X89645Y189476D01*
X89551Y189000D01*
X94450D01*
X94355Y189476D01*
X93802Y190302D01*
X93802Y190303D01*
X93799Y190314D01*
X93790Y190372D01*
X93784Y190438D01*
Y198083D01*
X93788Y198116D01*
X93799Y198186D01*
X93802Y198197D01*
X93802Y198198D01*
X94355Y199024D01*
X94450Y199500D01*
D02*
G37*
G36*
Y188000D02*
X89551D01*
X89645Y187524D01*
X90198Y186698D01*
X90198Y186697D01*
X90201Y186686D01*
X90210Y186628D01*
X90216Y186562D01*
Y183835D01*
X89716Y183684D01*
X89302Y184302D01*
X88476Y184855D01*
X87500Y185049D01*
X86524Y184855D01*
X85698Y184302D01*
X85145Y183475D01*
X84951Y182500D01*
X85145Y181525D01*
X85698Y180698D01*
X85806Y180625D01*
X85952Y180470D01*
X86023Y180383D01*
X86084Y180298D01*
X86128Y180227D01*
X86157Y180172D01*
X86173Y180134D01*
X86174Y180131D01*
Y172370D01*
X86173Y172365D01*
X86157Y172328D01*
X86128Y172273D01*
X86084Y172202D01*
X86031Y172128D01*
X85840Y171906D01*
X85818Y171883D01*
X85698Y171802D01*
X85145Y170975D01*
X84951Y170000D01*
X85145Y169025D01*
X85698Y168198D01*
X86524Y167645D01*
X87500Y167451D01*
X88476Y167645D01*
X89302Y168198D01*
X89716Y168816D01*
X90216Y168665D01*
Y159417D01*
X90212Y159384D01*
X90201Y159314D01*
X90198Y159303D01*
X90198Y159302D01*
X89645Y158475D01*
X89551Y158000D01*
X94450D01*
X94355Y158475D01*
X93802Y159302D01*
X93802Y159303D01*
X93799Y159314D01*
X93790Y159372D01*
X93784Y159438D01*
Y174583D01*
X93788Y174616D01*
X93799Y174686D01*
X93802Y174697D01*
X93802Y174698D01*
X94355Y175524D01*
X94450Y176000D01*
X92000D01*
Y177000D01*
X94450D01*
X94355Y177476D01*
X93802Y178302D01*
X93802Y178303D01*
X93799Y178314D01*
X93790Y178372D01*
X93784Y178438D01*
Y186583D01*
X93788Y186616D01*
X93799Y186686D01*
X93802Y186697D01*
X93802Y186698D01*
X94355Y187524D01*
X94450Y188000D01*
D02*
G37*
G36*
X126600Y181850D02*
X119400D01*
Y176150D01*
X121598D01*
X121606Y176134D01*
X121649Y176099D01*
X121675Y176060D01*
Y175049D01*
X121451Y174826D01*
X114869D01*
X114866Y174827D01*
X114828Y174843D01*
X114772Y174872D01*
X114702Y174916D01*
X114628Y174969D01*
X114406Y175160D01*
X114383Y175182D01*
X114302Y175302D01*
X113476Y175855D01*
X112500Y176049D01*
X111524Y175855D01*
X110698Y175302D01*
X110145Y174476D01*
X109951Y173500D01*
X110145Y172524D01*
X110698Y171698D01*
X111524Y171145D01*
X112500Y170951D01*
X113476Y171145D01*
X114302Y171698D01*
X114375Y171806D01*
X114530Y171952D01*
X114617Y172023D01*
X114702Y172084D01*
X114773Y172128D01*
X114828Y172157D01*
X114866Y172173D01*
X114869Y172175D01*
X122000D01*
X122507Y172275D01*
X122937Y172563D01*
X123937Y173563D01*
X124225Y173993D01*
X124326Y174500D01*
Y176060D01*
X124352Y176099D01*
X124394Y176134D01*
X124402Y176150D01*
X126600D01*
Y181850D01*
D02*
G37*
G36*
Y170850D02*
X119400D01*
Y169402D01*
X119384Y169394D01*
X119349Y169351D01*
X119310Y169325D01*
X117000D01*
X116493Y169225D01*
X116063Y168937D01*
X114846Y167720D01*
X114302Y167802D01*
X113476Y168355D01*
X112500Y168549D01*
X111524Y168355D01*
X110698Y167802D01*
X110145Y166975D01*
X109951Y166000D01*
X110145Y165024D01*
X110698Y164198D01*
X111524Y163645D01*
X112500Y163451D01*
X113476Y163645D01*
X114302Y164198D01*
X114375Y164306D01*
X114530Y164452D01*
X114617Y164523D01*
X114702Y164584D01*
X114773Y164628D01*
X114828Y164657D01*
X114866Y164673D01*
X114869Y164674D01*
X115000D01*
X115507Y164775D01*
X115937Y165063D01*
X117549Y166674D01*
X119310D01*
X119349Y166648D01*
X119384Y166606D01*
X119400Y166598D01*
Y165150D01*
X126600D01*
Y170850D01*
D02*
G37*
G36*
X101500Y201049D02*
X100524Y200855D01*
X99698Y200302D01*
X99145Y199476D01*
X98951Y198500D01*
X99145Y197524D01*
X99698Y196698D01*
X100524Y196145D01*
X101500Y195951D01*
X102476Y196145D01*
X103302Y196698D01*
X103375Y196806D01*
X103530Y196952D01*
X103617Y197023D01*
X103702Y197084D01*
X103773Y197128D01*
X103828Y197157D01*
X103866Y197173D01*
X103869Y197175D01*
X104951D01*
X105675Y196451D01*
Y164369D01*
X105673Y164365D01*
X105657Y164328D01*
X105628Y164272D01*
X105584Y164202D01*
X105531Y164128D01*
X105340Y163906D01*
X105318Y163883D01*
X105198Y163802D01*
X104645Y162976D01*
X104451Y162000D01*
X104645Y161024D01*
X105198Y160198D01*
X106025Y159645D01*
X107000Y159451D01*
X107975Y159645D01*
X108802Y160198D01*
X109355Y161024D01*
X109549Y162000D01*
X109355Y162976D01*
X108802Y163802D01*
X108694Y163875D01*
X108548Y164030D01*
X108477Y164117D01*
X108416Y164202D01*
X108372Y164273D01*
X108343Y164328D01*
X108327Y164365D01*
X108326Y164369D01*
Y197000D01*
X108225Y197507D01*
X107937Y197937D01*
X106437Y199437D01*
X106007Y199725D01*
X105500Y199826D01*
X103869D01*
X103866Y199827D01*
X103828Y199843D01*
X103772Y199872D01*
X103702Y199916D01*
X103628Y199969D01*
X103406Y200160D01*
X103383Y200182D01*
X103302Y200302D01*
X102476Y200855D01*
X101500Y201049D01*
D02*
G37*
G36*
X127500Y159950D02*
X127024Y159855D01*
X126198Y159302D01*
X125645Y158475D01*
X125550Y158000D01*
X127500D01*
Y159950D01*
D02*
G37*
G36*
X167000Y176049D02*
X166024Y175855D01*
X165198Y175302D01*
X164645Y174476D01*
X164451Y173500D01*
X164645Y172524D01*
X165198Y171698D01*
X165306Y171625D01*
X165452Y171470D01*
X165523Y171383D01*
X165584Y171298D01*
X165628Y171227D01*
X165657Y171172D01*
X165673Y171134D01*
X165674Y171131D01*
Y161870D01*
X165673Y161865D01*
X165657Y161828D01*
X165628Y161773D01*
X165584Y161702D01*
X165531Y161628D01*
X165340Y161406D01*
X165318Y161383D01*
X165198Y161302D01*
X164645Y160476D01*
X164451Y159500D01*
X164645Y158525D01*
X165198Y157698D01*
X166024Y157145D01*
X167000Y156951D01*
X167975Y157145D01*
X168802Y157698D01*
X169355Y158525D01*
X169549Y159500D01*
X169355Y160476D01*
X168802Y161302D01*
X168694Y161375D01*
X168548Y161530D01*
X168477Y161617D01*
X168416Y161702D01*
X168372Y161773D01*
X168343Y161828D01*
X168327Y161865D01*
X168325Y161870D01*
Y171131D01*
X168327Y171134D01*
X168343Y171172D01*
X168372Y171228D01*
X168416Y171298D01*
X168469Y171372D01*
X168660Y171594D01*
X168682Y171617D01*
X168802Y171698D01*
X169355Y172524D01*
X169549Y173500D01*
X169355Y174476D01*
X168802Y175302D01*
X167975Y175855D01*
X167000Y176049D01*
D02*
G37*
G36*
X94450Y157000D02*
X92500D01*
Y155051D01*
X92975Y155145D01*
X93802Y155698D01*
X94355Y156525D01*
X94450Y157000D01*
D02*
G37*
G36*
X91500D02*
X89551D01*
X89645Y156525D01*
X90198Y155698D01*
X91025Y155145D01*
X91500Y155051D01*
Y157000D01*
D02*
G37*
G36*
X216500Y157549D02*
X215525Y157355D01*
X214698Y156802D01*
X214145Y155975D01*
X213951Y155000D01*
X213996Y154774D01*
X213546Y154474D01*
X212976Y154855D01*
X212000Y155049D01*
X211024Y154855D01*
X210198Y154302D01*
X209645Y153475D01*
X209451Y152500D01*
X209645Y151524D01*
X210198Y150698D01*
X210306Y150625D01*
X210452Y150470D01*
X210523Y150383D01*
X210584Y150298D01*
X210628Y150227D01*
X210657Y150172D01*
X210673Y150135D01*
X210675Y150130D01*
Y143369D01*
X210673Y143366D01*
X210657Y143328D01*
X210628Y143272D01*
X210584Y143202D01*
X210531Y143128D01*
X210340Y142906D01*
X210318Y142883D01*
X210198Y142802D01*
X209645Y141975D01*
X209451Y141000D01*
X209645Y140024D01*
X210198Y139198D01*
X211024Y138645D01*
X212000Y138451D01*
X212976Y138645D01*
X213802Y139198D01*
X214355Y140024D01*
X214549Y141000D01*
X214355Y141975D01*
X213802Y142802D01*
X213694Y142875D01*
X213548Y143030D01*
X213477Y143117D01*
X213416Y143202D01*
X213372Y143273D01*
X213343Y143328D01*
X213327Y143366D01*
X213326Y143369D01*
Y150130D01*
X213327Y150135D01*
X213343Y150172D01*
X213372Y150227D01*
X213416Y150298D01*
X213469Y150372D01*
X213660Y150594D01*
X213682Y150617D01*
X213802Y150698D01*
X214355Y151524D01*
X214515Y152330D01*
X214749Y152561D01*
X215030Y152646D01*
X215175Y152521D01*
Y146870D01*
X215173Y146865D01*
X215157Y146828D01*
X215128Y146773D01*
X215084Y146702D01*
X215031Y146628D01*
X214840Y146406D01*
X214818Y146383D01*
X214698Y146302D01*
X214145Y145475D01*
X213951Y144500D01*
X214145Y143525D01*
X214698Y142698D01*
X215525Y142145D01*
X216500Y141951D01*
X217476Y142145D01*
X218302Y142698D01*
X218855Y143525D01*
X219049Y144500D01*
X218855Y145475D01*
X218302Y146302D01*
X218194Y146375D01*
X218048Y146530D01*
X217977Y146617D01*
X217916Y146702D01*
X217872Y146773D01*
X217843Y146828D01*
X217827Y146865D01*
X217826Y146870D01*
Y152630D01*
X217827Y152635D01*
X217843Y152672D01*
X217872Y152727D01*
X217916Y152798D01*
X217969Y152872D01*
X218160Y153094D01*
X218182Y153117D01*
X218302Y153198D01*
X218855Y154025D01*
X219049Y155000D01*
X218855Y155975D01*
X218302Y156802D01*
X217476Y157355D01*
X216500Y157549D01*
D02*
G37*
G36*
X119500Y152750D02*
X116000D01*
Y150000D01*
X119500D01*
Y152750D01*
D02*
G37*
G36*
Y149000D02*
X116000D01*
Y146250D01*
X119500D01*
Y149000D01*
D02*
G37*
G36*
X181500Y240049D02*
X180525Y239855D01*
X179698Y239302D01*
X179145Y238475D01*
X178951Y237500D01*
X179145Y236525D01*
X179698Y235698D01*
X179806Y235625D01*
X179952Y235470D01*
X180023Y235383D01*
X180084Y235298D01*
X180128Y235227D01*
X180157Y235172D01*
X180173Y235135D01*
X180175Y235131D01*
Y187049D01*
X175063Y181937D01*
X174775Y181507D01*
X174674Y181000D01*
Y158549D01*
X171063Y154937D01*
X170775Y154507D01*
X170675Y154000D01*
Y150370D01*
X170673Y150365D01*
X170657Y150328D01*
X170628Y150273D01*
X170584Y150202D01*
X170531Y150128D01*
X170340Y149906D01*
X170318Y149883D01*
X170198Y149802D01*
X169645Y148976D01*
X169451Y148000D01*
X169645Y147025D01*
X170198Y146198D01*
X171025Y145645D01*
X172000Y145451D01*
X172976Y145645D01*
X173802Y146198D01*
X174355Y147025D01*
X174549Y148000D01*
X174355Y148976D01*
X173802Y149802D01*
X173694Y149875D01*
X173548Y150030D01*
X173477Y150117D01*
X173416Y150202D01*
X173372Y150273D01*
X173343Y150328D01*
X173327Y150365D01*
X173326Y150370D01*
Y153451D01*
X176937Y157063D01*
X177225Y157493D01*
X177325Y158000D01*
Y180451D01*
X182437Y185563D01*
X182725Y185993D01*
X182826Y186500D01*
Y235131D01*
X182827Y235135D01*
X182843Y235172D01*
X182872Y235227D01*
X182916Y235298D01*
X182969Y235372D01*
X183160Y235594D01*
X183182Y235617D01*
X183302Y235698D01*
X183855Y236525D01*
X184049Y237500D01*
X183855Y238475D01*
X183302Y239302D01*
X182475Y239855D01*
X181500Y240049D01*
D02*
G37*
G36*
X199500Y162549D02*
X198524Y162355D01*
X197698Y161802D01*
X197145Y160976D01*
X196951Y160000D01*
X197145Y159025D01*
X197698Y158198D01*
X197806Y158125D01*
X197952Y157970D01*
X198023Y157883D01*
X198084Y157798D01*
X198128Y157727D01*
X198157Y157672D01*
X198173Y157634D01*
X198175Y157631D01*
Y135000D01*
X198275Y134493D01*
X198563Y134063D01*
X201887Y130738D01*
X201889Y130735D01*
X201905Y130697D01*
X201923Y130637D01*
X201942Y130556D01*
X201956Y130466D01*
X201979Y130174D01*
X201979Y130142D01*
X201951Y130000D01*
X202145Y129025D01*
X202698Y128198D01*
X203524Y127645D01*
X204500Y127451D01*
X205475Y127645D01*
X206302Y128198D01*
X206855Y129025D01*
X207049Y130000D01*
X206855Y130975D01*
X206302Y131802D01*
X205475Y132355D01*
X204500Y132549D01*
X204372Y132524D01*
X204159Y132530D01*
X204047Y132542D01*
X203944Y132558D01*
X203863Y132577D01*
X203803Y132595D01*
X203766Y132611D01*
X203762Y132613D01*
X200826Y135549D01*
Y157631D01*
X200827Y157634D01*
X200843Y157672D01*
X200872Y157728D01*
X200916Y157798D01*
X200969Y157872D01*
X201160Y158094D01*
X201182Y158117D01*
X201302Y158198D01*
X201855Y159025D01*
X202049Y160000D01*
X201855Y160976D01*
X201302Y161802D01*
X200476Y162355D01*
X199500Y162549D01*
D02*
G37*
G36*
X174333Y123921D02*
Y120500D01*
X177754D01*
X177684Y121032D01*
X177285Y121993D01*
X176652Y122819D01*
X175826Y123453D01*
X174864Y123851D01*
X174333Y123921D01*
D02*
G37*
G36*
X173333D02*
X172801Y123851D01*
X171839Y123453D01*
X171013Y122819D01*
X170380Y121993D01*
X169982Y121032D01*
X169912Y120500D01*
X173333D01*
Y123921D01*
D02*
G37*
G36*
X113500Y137548D02*
X111540Y137355D01*
X109655Y136784D01*
X107917Y135855D01*
X106395Y134605D01*
X105145Y133083D01*
X104217Y131345D01*
X103645Y129460D01*
X103452Y127500D01*
X103645Y125540D01*
X104217Y123655D01*
X105145Y121917D01*
X106395Y120395D01*
X107917Y119145D01*
X109655Y118217D01*
X111540Y117645D01*
X113500Y117452D01*
X115460Y117645D01*
X117345Y118217D01*
X119083Y119145D01*
X120605Y120395D01*
X121855Y121917D01*
X122784Y123655D01*
X123355Y125540D01*
X123548Y127500D01*
X123355Y129460D01*
X122784Y131345D01*
X121855Y133083D01*
X120605Y134605D01*
X119083Y135855D01*
X117345Y136784D01*
X115460Y137355D01*
X113500Y137548D01*
D02*
G37*
G36*
X193833Y123987D02*
X192801Y123851D01*
X191839Y123453D01*
X191013Y122819D01*
X190380Y121993D01*
X189982Y121032D01*
X189846Y120000D01*
X189982Y118968D01*
X190380Y118007D01*
X191013Y117181D01*
X191839Y116547D01*
X192801Y116149D01*
X193833Y116013D01*
X194864Y116149D01*
X195826Y116547D01*
X196652Y117181D01*
X197285Y118007D01*
X197684Y118968D01*
X197819Y120000D01*
X197684Y121032D01*
X197285Y121993D01*
X196652Y122819D01*
X195826Y123453D01*
X194864Y123851D01*
X193833Y123987D01*
D02*
G37*
%LPD*%
G36*
X253985Y251000D02*
X253782Y250998D01*
X253414Y250970D01*
X253249Y250943D01*
X253098Y250908D01*
X252959Y250866D01*
X252834Y250814D01*
X252722Y250755D01*
X252623Y250688D01*
X252537Y250612D01*
X252112Y251037D01*
X252188Y251123D01*
X252255Y251222D01*
X252314Y251334D01*
X252365Y251460D01*
X252408Y251598D01*
X252443Y251749D01*
X252470Y251914D01*
X252488Y252091D01*
X252500Y252485D01*
X253985Y251000D01*
D02*
G37*
G36*
X242303Y233404D02*
X242311Y233316D01*
X242325Y233235D01*
X242345Y233162D01*
X242371Y233096D01*
X242402Y233038D01*
X242439Y232988D01*
X242481Y232945D01*
X242530Y232910D01*
X242583Y232882D01*
X241417D01*
X241471Y232910D01*
X241519Y232945D01*
X241561Y232988D01*
X241598Y233038D01*
X241629Y233096D01*
X241655Y233162D01*
X241674Y233235D01*
X241689Y233316D01*
X241697Y233404D01*
X241700Y233500D01*
X242300D01*
X242303Y233404D01*
D02*
G37*
G36*
X242908Y230283D02*
X242668Y230003D01*
X242570Y229868D01*
X242488Y229737D01*
X242420Y229608D01*
X242368Y229484D01*
X242330Y229363D01*
X242307Y229245D01*
X242300Y229130D01*
X241700D01*
X241692Y229245D01*
X241670Y229363D01*
X241633Y229484D01*
X241580Y229608D01*
X241512Y229737D01*
X241430Y229868D01*
X241333Y230003D01*
X241220Y230142D01*
X240950Y230429D01*
X243050D01*
X242908Y230283D01*
D02*
G37*
G36*
X242307Y212255D02*
X242330Y212138D01*
X242368Y212016D01*
X242420Y211892D01*
X242488Y211763D01*
X242570Y211632D01*
X242668Y211497D01*
X242780Y211358D01*
X243050Y211071D01*
X240950D01*
X241092Y211216D01*
X241333Y211497D01*
X241430Y211632D01*
X241512Y211763D01*
X241580Y211892D01*
X241633Y212016D01*
X241670Y212138D01*
X241692Y212255D01*
X241700Y212370D01*
X242300D01*
X242307Y212255D01*
D02*
G37*
G36*
X142571Y237500D02*
X142556Y237643D01*
X142511Y237770D01*
X142435Y237882D01*
X142329Y237980D01*
X142193Y238063D01*
X142027Y238130D01*
X141830Y238182D01*
X141604Y238220D01*
X141347Y238243D01*
X141059Y238250D01*
Y239750D01*
X141347Y239757D01*
X141604Y239780D01*
X141830Y239818D01*
X142027Y239870D01*
X142193Y239937D01*
X142329Y240020D01*
X142435Y240118D01*
X142511Y240230D01*
X142556Y240357D01*
X142571Y240500D01*
Y237500D01*
D02*
G37*
G36*
X105635Y214993D02*
X105710Y214942D01*
X105796Y214897D01*
X105893Y214858D01*
X106000Y214825D01*
X106118Y214798D01*
X106247Y214777D01*
X106387Y214762D01*
X106699Y214750D01*
Y213250D01*
X106538Y213247D01*
X106247Y213223D01*
X106118Y213202D01*
X106000Y213175D01*
X105893Y213142D01*
X105796Y213103D01*
X105710Y213058D01*
X105635Y213007D01*
X105571Y212950D01*
Y215050D01*
X105635Y214993D01*
D02*
G37*
G36*
X175993Y264865D02*
X175942Y264790D01*
X175897Y264704D01*
X175858Y264607D01*
X175825Y264500D01*
X175798Y264382D01*
X175777Y264253D01*
X175762Y264113D01*
X175750Y263801D01*
X174250D01*
X174247Y263962D01*
X174223Y264253D01*
X174202Y264382D01*
X174175Y264500D01*
X174142Y264607D01*
X174103Y264704D01*
X174058Y264790D01*
X174007Y264865D01*
X173950Y264929D01*
X176050D01*
X175993Y264865D01*
D02*
G37*
G36*
X175753Y233538D02*
X175777Y233247D01*
X175798Y233118D01*
X175825Y233000D01*
X175858Y232893D01*
X175897Y232796D01*
X175942Y232710D01*
X175993Y232635D01*
X176050Y232571D01*
X173950D01*
X174007Y232635D01*
X174058Y232710D01*
X174103Y232796D01*
X174142Y232893D01*
X174175Y233000D01*
X174202Y233118D01*
X174223Y233247D01*
X174238Y233387D01*
X174250Y233699D01*
X175750D01*
X175753Y233538D01*
D02*
G37*
G36*
X214908Y251783D02*
X214668Y251503D01*
X214570Y251368D01*
X214488Y251237D01*
X214420Y251109D01*
X214368Y250984D01*
X214330Y250863D01*
X214307Y250745D01*
X214300Y250630D01*
X213700D01*
X213692Y250745D01*
X213670Y250863D01*
X213632Y250984D01*
X213580Y251109D01*
X213512Y251237D01*
X213430Y251368D01*
X213333Y251503D01*
X213220Y251642D01*
X212950Y251929D01*
X215050D01*
X214908Y251783D01*
D02*
G37*
G36*
X214307Y228255D02*
X214330Y228137D01*
X214368Y228016D01*
X214420Y227891D01*
X214488Y227763D01*
X214570Y227632D01*
X214668Y227497D01*
X214780Y227358D01*
X215050Y227071D01*
X212950D01*
X213092Y227217D01*
X213333Y227497D01*
X213430Y227632D01*
X213512Y227763D01*
X213580Y227891D01*
X213632Y228016D01*
X213670Y228137D01*
X213692Y228255D01*
X213700Y228370D01*
X214300D01*
X214307Y228255D01*
D02*
G37*
G36*
X266946Y239819D02*
X266852Y239707D01*
X266770Y239591D01*
X266698Y239471D01*
X266637Y239349D01*
X266588Y239223D01*
X266549Y239093D01*
X266522Y238961D01*
X266506Y238825D01*
X266500Y238686D01*
X265500D01*
X265494Y238825D01*
X265478Y238961D01*
X265451Y239093D01*
X265412Y239223D01*
X265363Y239349D01*
X265302Y239471D01*
X265230Y239591D01*
X265148Y239707D01*
X265054Y239819D01*
X264950Y239929D01*
X267050D01*
X266946Y239819D01*
D02*
G37*
G36*
X273006Y222175D02*
X273022Y222039D01*
X273049Y221907D01*
X273088Y221778D01*
X273137Y221652D01*
X273198Y221529D01*
X273270Y221410D01*
X273352Y221293D01*
X273446Y221181D01*
X273550Y221071D01*
X271450D01*
X271554Y221181D01*
X271648Y221293D01*
X271730Y221410D01*
X271802Y221529D01*
X271863Y221652D01*
X271912Y221778D01*
X271951Y221907D01*
X271978Y222039D01*
X271994Y222175D01*
X272000Y222314D01*
X273000D01*
X273006Y222175D01*
D02*
G37*
G36*
X219907Y248284D02*
X219668Y248003D01*
X219570Y247868D01*
X219488Y247737D01*
X219420Y247608D01*
X219368Y247484D01*
X219330Y247362D01*
X219307Y247245D01*
X219300Y247130D01*
X218700D01*
X218692Y247245D01*
X218670Y247362D01*
X218633Y247484D01*
X218580Y247608D01*
X218513Y247737D01*
X218430Y247868D01*
X218333Y248003D01*
X218220Y248142D01*
X217950Y248429D01*
X220050D01*
X219907Y248284D01*
D02*
G37*
G36*
X219307Y222255D02*
X219330Y222137D01*
X219368Y222016D01*
X219420Y221891D01*
X219488Y221763D01*
X219570Y221632D01*
X219668Y221497D01*
X219780Y221358D01*
X220050Y221071D01*
X217950D01*
X218092Y221217D01*
X218333Y221497D01*
X218430Y221632D01*
X218513Y221763D01*
X218580Y221891D01*
X218633Y222016D01*
X218670Y222137D01*
X218692Y222255D01*
X218700Y222370D01*
X219300D01*
X219307Y222255D01*
D02*
G37*
G36*
X300323Y264865D02*
X300272Y264790D01*
X300227Y264704D01*
X300188Y264607D01*
X300155Y264500D01*
X300128Y264382D01*
X300107Y264253D01*
X300092Y264113D01*
X300080Y263801D01*
X298580D01*
X298577Y263962D01*
X298553Y264253D01*
X298532Y264382D01*
X298505Y264500D01*
X298472Y264607D01*
X298433Y264704D01*
X298388Y264790D01*
X298337Y264865D01*
X298280Y264929D01*
X300380D01*
X300323Y264865D01*
D02*
G37*
G36*
X297253Y218538D02*
X297277Y218247D01*
X297298Y218118D01*
X297325Y218000D01*
X297358Y217893D01*
X297397Y217796D01*
X297442Y217710D01*
X297493Y217635D01*
X297550Y217571D01*
X295450D01*
X295507Y217635D01*
X295558Y217710D01*
X295603Y217796D01*
X295642Y217893D01*
X295675Y218000D01*
X295702Y218118D01*
X295723Y218247D01*
X295738Y218387D01*
X295750Y218699D01*
X297250D01*
X297253Y218538D01*
D02*
G37*
G36*
X147866Y260817D02*
X148123Y260593D01*
X148378Y260395D01*
X148631Y260224D01*
X148884Y260079D01*
X149135Y259961D01*
X149385Y259869D01*
X149634Y259803D01*
X149881Y259763D01*
X150128Y259750D01*
Y258250D01*
X149881Y258237D01*
X149634Y258197D01*
X149385Y258132D01*
X149135Y258039D01*
X148884Y257921D01*
X148631Y257776D01*
X148378Y257605D01*
X148123Y257407D01*
X147866Y257183D01*
X147609Y256933D01*
Y261067D01*
X147866Y260817D01*
D02*
G37*
G36*
Y216817D02*
X148123Y216593D01*
X148378Y216395D01*
X148631Y216224D01*
X148884Y216079D01*
X149135Y215961D01*
X149385Y215868D01*
X149634Y215803D01*
X149881Y215763D01*
X150128Y215750D01*
Y214250D01*
X149881Y214237D01*
X149634Y214197D01*
X149385Y214131D01*
X149135Y214039D01*
X148884Y213921D01*
X148631Y213776D01*
X148378Y213605D01*
X148123Y213407D01*
X147866Y213183D01*
X147609Y212933D01*
Y217067D01*
X147866Y216817D01*
D02*
G37*
G36*
X103429Y212950D02*
X103365Y213007D01*
X103290Y213058D01*
X103204Y213103D01*
X103107Y213142D01*
X103000Y213175D01*
X102882Y213202D01*
X102753Y213223D01*
X102613Y213238D01*
X102301Y213250D01*
Y214750D01*
X102462Y214753D01*
X102753Y214777D01*
X102882Y214798D01*
X103000Y214825D01*
X103107Y214858D01*
X103204Y214897D01*
X103290Y214942D01*
X103365Y214993D01*
X103429Y215050D01*
Y212950D01*
D02*
G37*
G36*
X94943Y213087D02*
X94985Y212979D01*
X95054Y212884D01*
X95152Y212802D01*
X95278Y212732D01*
X95431Y212675D01*
X95613Y212631D01*
X95822Y212599D01*
X96059Y212580D01*
X96324Y212574D01*
Y211074D01*
X96059Y211068D01*
X95822Y211049D01*
X95613Y211017D01*
X95431Y210973D01*
X95278Y210916D01*
X95152Y210846D01*
X95054Y210764D01*
X94985Y210669D01*
X94943Y210561D01*
X94929Y210441D01*
Y213207D01*
X94943Y213087D01*
D02*
G37*
G36*
X93357Y208544D02*
X93230Y208499D01*
X93117Y208424D01*
X93020Y208319D01*
X92937Y208184D01*
X92870Y208019D01*
X92817Y207824D01*
X92780Y207599D01*
X92757Y207344D01*
X92750Y207059D01*
X91250D01*
X91242Y207344D01*
X91220Y207599D01*
X91183Y207824D01*
X91130Y208019D01*
X91062Y208184D01*
X90980Y208319D01*
X90882Y208424D01*
X90770Y208499D01*
X90642Y208544D01*
X90500Y208559D01*
X93500D01*
X93357Y208544D01*
D02*
G37*
G36*
X92753Y202038D02*
X92777Y201747D01*
X92798Y201618D01*
X92825Y201500D01*
X92858Y201393D01*
X92897Y201296D01*
X92942Y201210D01*
X92993Y201135D01*
X93050Y201071D01*
X90950D01*
X91007Y201135D01*
X91058Y201210D01*
X91103Y201296D01*
X91142Y201393D01*
X91175Y201500D01*
X91202Y201618D01*
X91223Y201747D01*
X91238Y201887D01*
X91250Y202199D01*
X92750D01*
X92753Y202038D01*
D02*
G37*
G36*
X224907Y244783D02*
X224668Y244503D01*
X224570Y244368D01*
X224487Y244237D01*
X224420Y244109D01*
X224367Y243984D01*
X224330Y243863D01*
X224307Y243745D01*
X224300Y243630D01*
X223700D01*
X223692Y243745D01*
X223670Y243863D01*
X223633Y243984D01*
X223580Y244109D01*
X223513Y244237D01*
X223430Y244368D01*
X223333Y244503D01*
X223220Y244642D01*
X222950Y244929D01*
X225050D01*
X224907Y244783D01*
D02*
G37*
G36*
X224307Y219755D02*
X224330Y219637D01*
X224367Y219516D01*
X224420Y219391D01*
X224487Y219263D01*
X224570Y219132D01*
X224668Y218997D01*
X224780Y218858D01*
X225050Y218571D01*
X222950D01*
X223093Y218717D01*
X223333Y218997D01*
X223430Y219132D01*
X223513Y219263D01*
X223580Y219391D01*
X223633Y219516D01*
X223670Y219637D01*
X223692Y219755D01*
X223700Y219870D01*
X224300D01*
X224307Y219755D01*
D02*
G37*
G36*
X177341Y223924D02*
X177248Y223811D01*
X177165Y223695D01*
X177094Y223575D01*
X177033Y223453D01*
X176984Y223327D01*
X176945Y223198D01*
X176918Y223065D01*
X176901Y222929D01*
X176896Y222790D01*
X175896D01*
X175890Y222929D01*
X175874Y223065D01*
X175846Y223198D01*
X175808Y223327D01*
X175758Y223453D01*
X175698Y223575D01*
X175626Y223695D01*
X175544Y223811D01*
X175450Y223924D01*
X175346Y224033D01*
X177446D01*
X177341Y223924D01*
D02*
G37*
G36*
X163908Y220783D02*
X163668Y220503D01*
X163570Y220368D01*
X163488Y220237D01*
X163420Y220109D01*
X163367Y219984D01*
X163330Y219863D01*
X163307Y219745D01*
X163300Y219630D01*
X162700D01*
X162692Y219745D01*
X162670Y219863D01*
X162633Y219984D01*
X162580Y220109D01*
X162513Y220237D01*
X162430Y220368D01*
X162332Y220503D01*
X162220Y220642D01*
X161950Y220929D01*
X164050D01*
X163908Y220783D01*
D02*
G37*
G36*
X160407Y214784D02*
X160168Y214503D01*
X160070Y214368D01*
X159987Y214237D01*
X159920Y214108D01*
X159868Y213984D01*
X159830Y213862D01*
X159808Y213745D01*
X159800Y213630D01*
X159200D01*
X159193Y213745D01*
X159170Y213862D01*
X159133Y213984D01*
X159080Y214108D01*
X159012Y214237D01*
X158930Y214368D01*
X158833Y214503D01*
X158720Y214642D01*
X158450Y214929D01*
X160550D01*
X160407Y214784D01*
D02*
G37*
G36*
X171407Y213784D02*
X171168Y213503D01*
X171070Y213368D01*
X170987Y213237D01*
X170920Y213108D01*
X170868Y212984D01*
X170830Y212862D01*
X170808Y212745D01*
X170800Y212630D01*
X170200D01*
X170193Y212745D01*
X170170Y212862D01*
X170133Y212984D01*
X170080Y213108D01*
X170012Y213237D01*
X169930Y213368D01*
X169833Y213503D01*
X169720Y213642D01*
X169450Y213929D01*
X171550D01*
X171407Y213784D01*
D02*
G37*
G36*
X174407Y209283D02*
X174168Y209003D01*
X174070Y208868D01*
X173987Y208737D01*
X173920Y208609D01*
X173867Y208484D01*
X173830Y208363D01*
X173808Y208245D01*
X173800Y208130D01*
X173200D01*
X173193Y208245D01*
X173170Y208363D01*
X173133Y208484D01*
X173080Y208609D01*
X173012Y208737D01*
X172930Y208868D01*
X172833Y209003D01*
X172720Y209142D01*
X172450Y209429D01*
X174550D01*
X174407Y209283D01*
D02*
G37*
G36*
X176901Y199575D02*
X176918Y199439D01*
X176945Y199307D01*
X176984Y199178D01*
X177033Y199051D01*
X177094Y198929D01*
X177165Y198810D01*
X177248Y198694D01*
X177341Y198581D01*
X177446Y198471D01*
X175346D01*
X175450Y198581D01*
X175544Y198694D01*
X175626Y198810D01*
X175698Y198929D01*
X175758Y199051D01*
X175808Y199178D01*
X175846Y199307D01*
X175874Y199439D01*
X175890Y199575D01*
X175896Y199714D01*
X176896D01*
X176901Y199575D01*
D02*
G37*
G36*
X164388Y198463D02*
X164312Y198377D01*
X164245Y198278D01*
X164186Y198166D01*
X164135Y198040D01*
X164092Y197902D01*
X164057Y197751D01*
X164030Y197586D01*
X164012Y197409D01*
X164000Y197015D01*
X162515Y198500D01*
X162718Y198502D01*
X163086Y198530D01*
X163251Y198557D01*
X163402Y198592D01*
X163540Y198635D01*
X163666Y198686D01*
X163778Y198745D01*
X163877Y198812D01*
X163963Y198888D01*
X164388Y198463D01*
D02*
G37*
G36*
X157888Y197964D02*
X157812Y197877D01*
X157745Y197778D01*
X157685Y197666D01*
X157634Y197540D01*
X157592Y197402D01*
X157557Y197251D01*
X157530Y197086D01*
X157512Y196909D01*
X157500Y196515D01*
X156015Y198000D01*
X156219Y198002D01*
X156586Y198030D01*
X156751Y198057D01*
X156902Y198092D01*
X157041Y198135D01*
X157166Y198186D01*
X157278Y198245D01*
X157377Y198312D01*
X157464Y198388D01*
X157888Y197964D01*
D02*
G37*
G36*
X169808Y192755D02*
X169830Y192638D01*
X169868Y192516D01*
X169920Y192392D01*
X169987Y192263D01*
X170070Y192132D01*
X170168Y191997D01*
X170280Y191858D01*
X170550Y191571D01*
X168450D01*
X168593Y191717D01*
X168833Y191997D01*
X168930Y192132D01*
X169012Y192263D01*
X169080Y192392D01*
X169132Y192516D01*
X169170Y192638D01*
X169193Y192755D01*
X169200Y192870D01*
X169800D01*
X169808Y192755D01*
D02*
G37*
G36*
X162648Y191254D02*
X162667Y191024D01*
X162678Y190964D01*
X162692Y190912D01*
X162708Y190868D01*
X162726Y190833D01*
X162747Y190806D01*
X162771Y190787D01*
X161891Y190996D01*
X161920Y191002D01*
X161947Y191014D01*
X161970Y191032D01*
X161991Y191058D01*
X162008Y191089D01*
X162022Y191128D01*
X162033Y191173D01*
X162041Y191224D01*
X162046Y191282D01*
X162047Y191347D01*
X162647D01*
X162648Y191254D01*
D02*
G37*
G36*
X152307Y149755D02*
X152330Y149637D01*
X152367Y149516D01*
X152420Y149391D01*
X152488Y149263D01*
X152570Y149132D01*
X152667Y148997D01*
X152780Y148858D01*
X153050Y148571D01*
X150950D01*
X151093Y148716D01*
X151332Y148997D01*
X151430Y149132D01*
X151513Y149263D01*
X151580Y149391D01*
X151632Y149516D01*
X151670Y149637D01*
X151692Y149755D01*
X151700Y149870D01*
X152300D01*
X152307Y149755D01*
D02*
G37*
G36*
X194429Y203950D02*
X194283Y204093D01*
X194003Y204332D01*
X193868Y204430D01*
X193737Y204513D01*
X193608Y204580D01*
X193484Y204632D01*
X193362Y204670D01*
X193245Y204693D01*
X193130Y204700D01*
Y205300D01*
X193245Y205308D01*
X193362Y205330D01*
X193484Y205367D01*
X193608Y205420D01*
X193737Y205487D01*
X193868Y205570D01*
X194003Y205667D01*
X194142Y205780D01*
X194429Y206050D01*
Y203950D01*
D02*
G37*
G36*
X194907Y193783D02*
X194667Y193503D01*
X194570Y193368D01*
X194488Y193237D01*
X194420Y193108D01*
X194368Y192984D01*
X194330Y192862D01*
X194307Y192745D01*
X194300Y192630D01*
X193700D01*
X193693Y192745D01*
X193670Y192862D01*
X193632Y192984D01*
X193580Y193108D01*
X193512Y193237D01*
X193430Y193368D01*
X193333Y193503D01*
X193220Y193642D01*
X192950Y193929D01*
X195050D01*
X194907Y193783D01*
D02*
G37*
G36*
X187308Y173755D02*
X187330Y173637D01*
X187367Y173516D01*
X187420Y173391D01*
X187487Y173263D01*
X187570Y173132D01*
X187668Y172997D01*
X187780Y172858D01*
X188050Y172571D01*
X185950D01*
X186092Y172716D01*
X186332Y172997D01*
X186430Y173132D01*
X186512Y173263D01*
X186580Y173391D01*
X186633Y173516D01*
X186670Y173637D01*
X186693Y173755D01*
X186700Y173870D01*
X187300D01*
X187308Y173755D01*
D02*
G37*
G36*
X182907Y170283D02*
X182668Y170003D01*
X182570Y169868D01*
X182487Y169737D01*
X182420Y169608D01*
X182368Y169484D01*
X182330Y169362D01*
X182308Y169245D01*
X182300Y169130D01*
X181700D01*
X181693Y169245D01*
X181670Y169362D01*
X181632Y169484D01*
X181580Y169608D01*
X181512Y169737D01*
X181430Y169868D01*
X181333Y170003D01*
X181220Y170142D01*
X180950Y170429D01*
X183050D01*
X182907Y170283D01*
D02*
G37*
G36*
X92993Y198865D02*
X92942Y198790D01*
X92897Y198704D01*
X92858Y198607D01*
X92825Y198500D01*
X92798Y198382D01*
X92777Y198253D01*
X92762Y198113D01*
X92750Y197801D01*
X91250D01*
X91247Y197962D01*
X91223Y198253D01*
X91202Y198382D01*
X91175Y198500D01*
X91142Y198607D01*
X91103Y198704D01*
X91058Y198790D01*
X91007Y198865D01*
X90950Y198929D01*
X93050D01*
X92993Y198865D01*
D02*
G37*
G36*
X92753Y190538D02*
X92777Y190247D01*
X92798Y190118D01*
X92825Y190000D01*
X92858Y189893D01*
X92897Y189796D01*
X92942Y189710D01*
X92993Y189635D01*
X93050Y189571D01*
X90950D01*
X91007Y189635D01*
X91058Y189710D01*
X91103Y189796D01*
X91142Y189893D01*
X91175Y190000D01*
X91202Y190118D01*
X91223Y190247D01*
X91238Y190387D01*
X91250Y190699D01*
X92750D01*
X92753Y190538D01*
D02*
G37*
G36*
X92993Y187365D02*
X92942Y187290D01*
X92897Y187204D01*
X92858Y187107D01*
X92825Y187000D01*
X92798Y186882D01*
X92777Y186753D01*
X92762Y186613D01*
X92750Y186301D01*
X91250D01*
X91247Y186462D01*
X91223Y186753D01*
X91202Y186882D01*
X91175Y187000D01*
X91142Y187107D01*
X91103Y187204D01*
X91058Y187290D01*
X91007Y187365D01*
X90950Y187429D01*
X93050D01*
X92993Y187365D01*
D02*
G37*
G36*
X88407Y181283D02*
X88168Y181003D01*
X88070Y180868D01*
X87988Y180737D01*
X87920Y180608D01*
X87867Y180484D01*
X87830Y180362D01*
X87808Y180245D01*
X87800Y180130D01*
X87200D01*
X87192Y180245D01*
X87170Y180362D01*
X87133Y180484D01*
X87080Y180608D01*
X87012Y180737D01*
X86930Y180868D01*
X86832Y181003D01*
X86720Y181142D01*
X86450Y181429D01*
X88550D01*
X88407Y181283D01*
D02*
G37*
G36*
X92753Y178538D02*
X92777Y178247D01*
X92798Y178118D01*
X92825Y178000D01*
X92858Y177893D01*
X92897Y177796D01*
X92942Y177710D01*
X92993Y177635D01*
X93050Y177571D01*
X90950D01*
X91007Y177635D01*
X91058Y177710D01*
X91103Y177796D01*
X91142Y177893D01*
X91175Y178000D01*
X91202Y178118D01*
X91223Y178247D01*
X91238Y178387D01*
X91250Y178699D01*
X92750D01*
X92753Y178538D01*
D02*
G37*
G36*
X92993Y175365D02*
X92942Y175290D01*
X92897Y175204D01*
X92858Y175107D01*
X92825Y175000D01*
X92798Y174882D01*
X92777Y174753D01*
X92762Y174613D01*
X92750Y174301D01*
X91250D01*
X91247Y174462D01*
X91223Y174753D01*
X91202Y174882D01*
X91175Y175000D01*
X91142Y175107D01*
X91103Y175204D01*
X91058Y175290D01*
X91007Y175365D01*
X90950Y175429D01*
X93050D01*
X92993Y175365D01*
D02*
G37*
G36*
X87808Y172255D02*
X87830Y172137D01*
X87867Y172016D01*
X87920Y171891D01*
X87988Y171763D01*
X88070Y171632D01*
X88168Y171497D01*
X88280Y171358D01*
X88550Y171071D01*
X86450D01*
X86593Y171216D01*
X86832Y171497D01*
X86930Y171632D01*
X87012Y171763D01*
X87080Y171891D01*
X87133Y172016D01*
X87170Y172137D01*
X87192Y172255D01*
X87200Y172370D01*
X87800D01*
X87808Y172255D01*
D02*
G37*
G36*
X92753Y159538D02*
X92777Y159247D01*
X92798Y159118D01*
X92825Y159000D01*
X92858Y158893D01*
X92897Y158796D01*
X92942Y158710D01*
X92993Y158635D01*
X93050Y158571D01*
X90950D01*
X91007Y158635D01*
X91058Y158710D01*
X91103Y158796D01*
X91142Y158893D01*
X91175Y159000D01*
X91202Y159118D01*
X91223Y159247D01*
X91238Y159387D01*
X91250Y159699D01*
X92750D01*
X92753Y159538D01*
D02*
G37*
G36*
X123543Y176768D02*
X123492Y176750D01*
X123447Y176719D01*
X123408Y176676D01*
X123375Y176621D01*
X123348Y176554D01*
X123327Y176474D01*
X123312Y176382D01*
X123303Y176278D01*
X123300Y176162D01*
X122700D01*
X122697Y176278D01*
X122688Y176382D01*
X122673Y176474D01*
X122652Y176554D01*
X122625Y176621D01*
X122592Y176676D01*
X122553Y176719D01*
X122508Y176750D01*
X122457Y176768D01*
X122400Y176774D01*
X123600D01*
X123543Y176768D01*
D02*
G37*
G36*
X113716Y174407D02*
X113997Y174168D01*
X114132Y174070D01*
X114263Y173987D01*
X114392Y173920D01*
X114516Y173867D01*
X114637Y173830D01*
X114755Y173808D01*
X114870Y173800D01*
Y173200D01*
X114755Y173193D01*
X114637Y173170D01*
X114516Y173133D01*
X114392Y173080D01*
X114263Y173012D01*
X114132Y172930D01*
X113997Y172833D01*
X113858Y172720D01*
X113571Y172450D01*
Y174550D01*
X113716Y174407D01*
D02*
G37*
G36*
X120024Y167400D02*
X120018Y167457D01*
X120000Y167508D01*
X119969Y167553D01*
X119926Y167592D01*
X119871Y167625D01*
X119804Y167652D01*
X119724Y167673D01*
X119632Y167688D01*
X119528Y167697D01*
X119412Y167700D01*
Y168300D01*
X119528Y168303D01*
X119632Y168312D01*
X119724Y168327D01*
X119804Y168348D01*
X119871Y168375D01*
X119926Y168408D01*
X119969Y168447D01*
X120000Y168492D01*
X120018Y168543D01*
X120024Y168600D01*
Y167400D01*
D02*
G37*
G36*
X113716Y166908D02*
X113997Y166667D01*
X114132Y166570D01*
X114263Y166488D01*
X114392Y166420D01*
X114516Y166367D01*
X114637Y166330D01*
X114755Y166307D01*
X114870Y166300D01*
Y165700D01*
X114755Y165692D01*
X114637Y165670D01*
X114516Y165632D01*
X114392Y165580D01*
X114263Y165513D01*
X114132Y165430D01*
X113997Y165332D01*
X113858Y165220D01*
X113571Y164950D01*
Y167050D01*
X113716Y166908D01*
D02*
G37*
G36*
X102717Y199407D02*
X102997Y199168D01*
X103132Y199070D01*
X103263Y198987D01*
X103392Y198920D01*
X103516Y198867D01*
X103638Y198830D01*
X103755Y198808D01*
X103870Y198800D01*
Y198200D01*
X103755Y198193D01*
X103638Y198170D01*
X103516Y198133D01*
X103392Y198080D01*
X103263Y198012D01*
X103132Y197930D01*
X102997Y197833D01*
X102858Y197720D01*
X102571Y197450D01*
Y199550D01*
X102717Y199407D01*
D02*
G37*
G36*
X107308Y164255D02*
X107330Y164137D01*
X107368Y164016D01*
X107420Y163891D01*
X107487Y163763D01*
X107570Y163632D01*
X107668Y163497D01*
X107780Y163358D01*
X108050Y163071D01*
X105950D01*
X106093Y163216D01*
X106333Y163497D01*
X106430Y163632D01*
X106512Y163763D01*
X106580Y163891D01*
X106632Y164016D01*
X106670Y164137D01*
X106693Y164255D01*
X106700Y164370D01*
X107300D01*
X107308Y164255D01*
D02*
G37*
G36*
X167908Y172283D02*
X167667Y172003D01*
X167570Y171868D01*
X167488Y171737D01*
X167420Y171608D01*
X167367Y171484D01*
X167330Y171362D01*
X167307Y171245D01*
X167300Y171130D01*
X166700D01*
X166692Y171245D01*
X166670Y171362D01*
X166632Y171484D01*
X166580Y171608D01*
X166513Y171737D01*
X166430Y171868D01*
X166332Y172003D01*
X166220Y172142D01*
X165950Y172429D01*
X168050D01*
X167908Y172283D01*
D02*
G37*
G36*
X167307Y161755D02*
X167330Y161637D01*
X167367Y161516D01*
X167420Y161391D01*
X167488Y161263D01*
X167570Y161132D01*
X167667Y160997D01*
X167780Y160858D01*
X168050Y160571D01*
X165950D01*
X166093Y160716D01*
X166332Y160997D01*
X166430Y161132D01*
X166513Y161263D01*
X166580Y161391D01*
X166632Y161516D01*
X166670Y161637D01*
X166692Y161755D01*
X166700Y161870D01*
X167300D01*
X167307Y161755D01*
D02*
G37*
G36*
X217407Y153784D02*
X217167Y153503D01*
X217070Y153368D01*
X216987Y153237D01*
X216920Y153109D01*
X216867Y152984D01*
X216830Y152863D01*
X216808Y152745D01*
X216800Y152630D01*
X216200D01*
X216193Y152745D01*
X216170Y152863D01*
X216132Y152984D01*
X216080Y153109D01*
X216013Y153237D01*
X215930Y153368D01*
X215832Y153503D01*
X215720Y153642D01*
X215450Y153929D01*
X217550D01*
X217407Y153784D01*
D02*
G37*
G36*
X212908Y151284D02*
X212667Y151003D01*
X212570Y150868D01*
X212488Y150737D01*
X212420Y150609D01*
X212368Y150484D01*
X212330Y150363D01*
X212308Y150245D01*
X212300Y150130D01*
X211700D01*
X211693Y150245D01*
X211670Y150363D01*
X211632Y150484D01*
X211580Y150609D01*
X211512Y150737D01*
X211430Y150868D01*
X211333Y151003D01*
X211220Y151142D01*
X210950Y151429D01*
X213050D01*
X212908Y151284D01*
D02*
G37*
G36*
X216808Y146755D02*
X216830Y146637D01*
X216867Y146516D01*
X216920Y146391D01*
X216987Y146263D01*
X217070Y146132D01*
X217167Y145997D01*
X217280Y145858D01*
X217550Y145571D01*
X215450D01*
X215593Y145717D01*
X215832Y145997D01*
X215930Y146132D01*
X216013Y146263D01*
X216080Y146391D01*
X216132Y146516D01*
X216170Y146637D01*
X216193Y146755D01*
X216200Y146870D01*
X216800D01*
X216808Y146755D01*
D02*
G37*
G36*
X212308Y143255D02*
X212330Y143138D01*
X212368Y143016D01*
X212420Y142892D01*
X212488Y142763D01*
X212570Y142632D01*
X212667Y142497D01*
X212780Y142358D01*
X213050Y142071D01*
X210950D01*
X211092Y142217D01*
X211333Y142497D01*
X211430Y142632D01*
X211512Y142763D01*
X211580Y142892D01*
X211632Y143016D01*
X211670Y143138D01*
X211693Y143255D01*
X211700Y143370D01*
X212300D01*
X212308Y143255D01*
D02*
G37*
G36*
X182407Y236283D02*
X182167Y236003D01*
X182070Y235868D01*
X181988Y235737D01*
X181920Y235609D01*
X181868Y235484D01*
X181830Y235363D01*
X181807Y235245D01*
X181800Y235130D01*
X181200D01*
X181193Y235245D01*
X181170Y235363D01*
X181132Y235484D01*
X181080Y235609D01*
X181012Y235737D01*
X180930Y235868D01*
X180833Y236003D01*
X180720Y236142D01*
X180450Y236429D01*
X182550D01*
X182407Y236283D01*
D02*
G37*
G36*
X172308Y150255D02*
X172330Y150137D01*
X172368Y150016D01*
X172420Y149891D01*
X172487Y149763D01*
X172570Y149632D01*
X172668Y149497D01*
X172780Y149358D01*
X173050Y149071D01*
X170950D01*
X171092Y149216D01*
X171333Y149497D01*
X171430Y149632D01*
X171512Y149763D01*
X171580Y149891D01*
X171633Y150016D01*
X171670Y150137D01*
X171693Y150255D01*
X171700Y150370D01*
X172300D01*
X172308Y150255D01*
D02*
G37*
G36*
X200408Y158783D02*
X200167Y158503D01*
X200070Y158368D01*
X199987Y158237D01*
X199920Y158108D01*
X199867Y157984D01*
X199830Y157862D01*
X199808Y157745D01*
X199800Y157630D01*
X199200D01*
X199193Y157745D01*
X199170Y157862D01*
X199133Y157984D01*
X199080Y158108D01*
X199012Y158237D01*
X198930Y158368D01*
X198832Y158503D01*
X198720Y158642D01*
X198450Y158929D01*
X200550D01*
X200408Y158783D01*
D02*
G37*
G36*
X203123Y131812D02*
X203222Y131745D01*
X203334Y131685D01*
X203460Y131634D01*
X203598Y131592D01*
X203749Y131557D01*
X203914Y131530D01*
X204091Y131512D01*
X204485Y131500D01*
X203000Y130015D01*
X202998Y130219D01*
X202970Y130586D01*
X202943Y130751D01*
X202908Y130902D01*
X202866Y131041D01*
X202815Y131166D01*
X202755Y131278D01*
X202688Y131377D01*
X202612Y131464D01*
X203036Y131888D01*
X203123Y131812D01*
D02*
G37*
%LPC*%
G36*
X303000Y140949D02*
Y139000D01*
X304949D01*
X304855Y139476D01*
X304302Y140302D01*
X303475Y140855D01*
X303000Y140949D01*
D02*
G37*
G36*
X304949Y138000D02*
X303000D01*
Y136050D01*
X303475Y136145D01*
X304302Y136698D01*
X304855Y137524D01*
X304949Y138000D01*
D02*
G37*
G36*
X311500Y137548D02*
X309540Y137355D01*
X307655Y136784D01*
X305917Y135855D01*
X304395Y134605D01*
X303145Y133083D01*
X302217Y131345D01*
X301645Y129460D01*
X301452Y127500D01*
X301645Y125540D01*
X302217Y123655D01*
X303145Y121917D01*
X304395Y120395D01*
X305917Y119145D01*
X307655Y118217D01*
X309540Y117645D01*
X311500Y117452D01*
X313460Y117645D01*
X315345Y118217D01*
X317083Y119145D01*
X318605Y120395D01*
X319855Y121917D01*
X320783Y123655D01*
X321355Y125540D01*
X321548Y127500D01*
X321355Y129460D01*
X320783Y131345D01*
X319855Y133083D01*
X318605Y134605D01*
X317083Y135855D01*
X315345Y136784D01*
X313460Y137355D01*
X311500Y137548D01*
D02*
G37*
G36*
X285000Y130921D02*
X284468Y130851D01*
X283507Y130453D01*
X282681Y129819D01*
X282047Y128993D01*
X281649Y128032D01*
X281579Y127500D01*
X285000D01*
Y130921D01*
D02*
G37*
G36*
Y126500D02*
X281579D01*
X281649Y125968D01*
X282047Y125007D01*
X282681Y124181D01*
X283507Y123547D01*
X284468Y123149D01*
X285000Y123079D01*
Y126500D01*
D02*
G37*
G36*
X269453Y130953D02*
X261547D01*
Y123047D01*
X269453D01*
Y130953D01*
D02*
G37*
G36*
X275500Y130987D02*
X274468Y130851D01*
X273507Y130453D01*
X272681Y129819D01*
X272047Y128993D01*
X271649Y128032D01*
X271513Y127000D01*
X271649Y125968D01*
X272047Y125007D01*
X272681Y124181D01*
X273507Y123547D01*
X274468Y123149D01*
X275500Y123013D01*
X276532Y123149D01*
X277493Y123547D01*
X278319Y124181D01*
X278953Y125007D01*
X279351Y125968D01*
X279487Y127000D01*
X279351Y128032D01*
X278953Y128993D01*
X278319Y129819D01*
X277493Y130453D01*
X276532Y130851D01*
X275500Y130987D01*
D02*
G37*
G36*
X284500Y114421D02*
Y111000D01*
X287921D01*
X287851Y111532D01*
X287453Y112493D01*
X286819Y113319D01*
X285993Y113953D01*
X285032Y114351D01*
X284500Y114421D01*
D02*
G37*
G36*
X283500D02*
X282968Y114351D01*
X282007Y113953D01*
X281181Y113319D01*
X280547Y112493D01*
X280149Y111532D01*
X280079Y111000D01*
X283500D01*
Y114421D01*
D02*
G37*
%LPD*%
D10*
X285500Y127000D02*
X297500D01*
X266000Y237500D02*
X272500Y231000D01*
Y220000D02*
Y231000D01*
X266000Y237500D02*
Y241000D01*
X176396Y197400D02*
Y225104D01*
X138500Y154000D02*
Y224000D01*
Y153500D02*
Y154000D01*
X139500Y225000D02*
X145500D01*
X138500Y224000D02*
X139500Y225000D01*
D14*
X117000Y168000D02*
X121000D01*
X115000Y166000D02*
X117000Y168000D01*
X112500Y173500D02*
X122000D01*
X123000Y174500D01*
Y179000D01*
X112500Y166000D02*
X115000D01*
X101500Y198500D02*
X105500D01*
X107000Y162000D02*
Y197000D01*
X105500Y198500D02*
X107000Y197000D01*
X199500Y135000D02*
X204500Y130000D01*
X199500Y135000D02*
Y160000D01*
X216500Y144500D02*
Y155000D01*
X212000Y141000D02*
Y152500D01*
X235500Y119000D02*
Y140000D01*
X238000Y142500D01*
X249000Y132000D02*
Y136000D01*
X249326Y136327D02*
Y149673D01*
X249000Y136000D02*
X249326Y136327D01*
X242000Y210000D02*
Y231500D01*
X166000Y216949D02*
X167224Y218173D01*
X242000Y231500D02*
Y233500D01*
X238500Y122500D02*
X238500D01*
X244500Y128500D02*
Y149705D01*
X238500Y122500D02*
X244500Y128500D01*
X235500Y119000D02*
X244000Y110500D01*
X87500Y170000D02*
Y182500D01*
X182000Y168500D02*
Y171500D01*
Y168500D02*
X183500Y167000D01*
X190500D01*
X194000Y170500D01*
Y195000D01*
X187000Y171500D02*
Y202500D01*
X189500Y205000D01*
X195500D01*
X188833Y115000D02*
X193833Y110000D01*
X161000Y115000D02*
X188833D01*
X155000Y121000D02*
X161000Y115000D01*
X254000Y110500D02*
Y131500D01*
X252500Y133000D02*
Y138000D01*
Y133000D02*
X254000Y131500D01*
X167000Y159500D02*
Y173500D01*
X172000Y148000D02*
Y154000D01*
X176000Y158000D02*
Y181000D01*
X172000Y154000D02*
X176000Y158000D01*
Y181000D02*
X181500Y186500D01*
X155000Y121000D02*
Y127000D01*
X152000Y147500D02*
Y198500D01*
X159500Y206000D02*
Y216000D01*
X152000Y198500D02*
X159500Y206000D01*
X230000Y237000D02*
Y245000D01*
X181500Y186500D02*
Y237500D01*
X221500Y259000D02*
X230000Y250500D01*
Y245000D02*
Y250500D01*
X224000Y217500D02*
Y246000D01*
X219000Y220000D02*
Y249500D01*
X214000Y226000D02*
Y253000D01*
X251500Y243000D02*
Y250000D01*
X242000Y233500D02*
X251500Y243000D01*
Y250000D02*
X254000Y252500D01*
X166199Y218500D02*
X166897D01*
X167224Y218173D01*
X162500Y197000D02*
X166000Y200500D01*
Y216949D01*
X170500Y199500D02*
Y215000D01*
X162347Y191347D02*
X170500Y199500D01*
X163000Y203500D02*
Y222000D01*
X156000Y196500D02*
X163000Y203500D01*
X169500Y195000D02*
X173500Y199000D01*
Y210500D01*
X169500Y190500D02*
Y195000D01*
X162000Y189500D02*
X162347Y189847D01*
Y191347D01*
X79500Y157852D02*
Y181000D01*
Y157852D02*
X79852Y157500D01*
X83000D01*
X74000Y182500D02*
X78000D01*
X79500Y181000D01*
D34*
X265500Y127000D02*
D03*
X234000Y110500D02*
D03*
X193833Y110000D02*
D03*
X145500Y239000D02*
D03*
Y205000D02*
D03*
X92000Y211500D02*
D03*
D55*
X104500Y214000D02*
X113000D01*
X138000Y239000D02*
X145500D01*
X113000Y214000D02*
X138000Y239000D01*
X92000Y200000D02*
Y211500D01*
Y188500D02*
Y200000D01*
X98500Y214000D02*
X104500D01*
X128000Y150000D02*
Y156223D01*
Y138500D02*
Y150000D01*
X120000Y149500D02*
X120500Y150000D01*
X128000D01*
X96324Y211824D02*
X98500Y214000D01*
X92000Y211500D02*
X92324Y211824D01*
X96324D01*
X297500Y127000D02*
Y138500D01*
Y105086D02*
Y127000D01*
X291000Y139379D02*
Y164121D01*
Y139379D02*
X291879Y138500D01*
X297500D01*
X236000Y221500D02*
Y259000D01*
X283000Y165000D02*
X290121D01*
X291000Y164121D01*
X298000Y187500D02*
Y192500D01*
Y149000D02*
Y187500D01*
X222500Y187500D02*
X298000Y187500D01*
X301000Y146000D02*
X307000D01*
X298000Y149000D02*
X301000Y146000D01*
X293000Y197500D02*
X298000Y192500D01*
X279854Y202646D02*
X285000Y197500D01*
X293000D01*
X279854Y202646D02*
Y208939D01*
X297500Y138500D02*
X302500D01*
X284500Y104500D02*
X296914D01*
X134000D02*
X284500D01*
X284000Y110500D02*
X284500Y110000D01*
Y104500D02*
Y110000D01*
X131500Y190500D02*
Y194500D01*
Y121500D02*
Y190500D01*
Y194500D02*
X135500Y198500D01*
Y216000D01*
X221500Y259000D02*
Y272000D01*
X236000Y259000D02*
Y272000D01*
X128000Y110500D02*
Y138500D01*
Y157308D02*
Y157500D01*
X127457Y156765D02*
X128000Y157308D01*
X127457Y156765D02*
X128000Y156223D01*
X145500Y259000D02*
X155914D01*
X156500Y258414D01*
Y220500D02*
Y258414D01*
X296500Y216500D02*
Y256500D01*
X299330Y259330D02*
Y266000D01*
X296500Y256500D02*
X299330Y259330D01*
X175000Y231500D02*
Y266000D01*
X92000Y176500D02*
Y188500D01*
Y158050D02*
Y176500D01*
X128000Y110500D02*
X134000Y104500D01*
X296914D02*
X297500Y105086D01*
X151000Y215000D02*
X156500Y220500D01*
X145500Y215000D02*
X151000D01*
D56*
X285500Y127000D02*
D03*
X275500D02*
D03*
X284000Y110500D02*
D03*
X274000D02*
D03*
X264000D02*
D03*
X254000D02*
D03*
X244000D02*
D03*
X193833Y120000D02*
D03*
X183833Y110000D02*
D03*
Y120000D02*
D03*
X173833Y110000D02*
D03*
Y120000D02*
D03*
X145500Y259000D02*
D03*
Y249000D02*
D03*
Y225000D02*
D03*
Y215000D02*
D03*
X82000Y211500D02*
D03*
D57*
X212000Y196000D02*
D03*
Y202000D02*
D03*
D58*
X113500Y127500D02*
D03*
Y247500D02*
D03*
X311500D02*
D03*
Y127500D02*
D03*
D59*
X92000Y200000D02*
D03*
X112500Y173500D02*
D03*
Y166000D02*
D03*
X107000Y162000D02*
D03*
X101500Y198500D02*
D03*
X199500Y160000D02*
D03*
X204500Y130000D02*
D03*
X238000Y142500D02*
D03*
X212000Y141000D02*
D03*
X216500Y144500D02*
D03*
Y155000D02*
D03*
X212000Y152500D02*
D03*
X249000Y132000D02*
D03*
X266000Y241000D02*
D03*
X272500Y220000D02*
D03*
X242000Y210000D02*
D03*
X236000Y221500D02*
D03*
X238500Y122500D02*
D03*
X249326Y149673D02*
D03*
X302500Y138500D02*
D03*
X283000Y165000D02*
D03*
X244500Y149705D02*
D03*
X222500Y187500D02*
D03*
X307000Y146000D02*
D03*
X279854Y208939D02*
D03*
X87500Y170000D02*
D03*
Y182500D02*
D03*
X182000Y171500D02*
D03*
X194000Y195000D02*
D03*
X187000Y171500D02*
D03*
X195500Y205000D02*
D03*
X252500Y138000D02*
D03*
X167000Y159500D02*
D03*
X152000Y147500D02*
D03*
X162500Y197000D02*
D03*
X169500Y190500D02*
D03*
X128000Y138500D02*
D03*
X172000Y148000D02*
D03*
X156000Y196500D02*
D03*
X155000Y127000D02*
D03*
X162000Y189500D02*
D03*
X167000Y173500D02*
D03*
X131500Y121500D02*
D03*
Y190500D02*
D03*
X135500Y216000D02*
D03*
X230000Y237000D02*
D03*
X181500Y237500D02*
D03*
X230000Y245000D02*
D03*
X221500Y259000D02*
D03*
X224000Y246000D02*
D03*
X221500Y272000D02*
D03*
X219000Y249500D02*
D03*
X214000Y253000D02*
D03*
Y226000D02*
D03*
X219000Y220000D02*
D03*
X224000Y217500D02*
D03*
X236000Y259000D02*
D03*
X242000Y231500D02*
D03*
X254000Y252500D02*
D03*
X236000Y272000D02*
D03*
X159500Y216000D02*
D03*
X166199Y218500D02*
D03*
X173500Y210500D02*
D03*
X170500Y215000D02*
D03*
X163000Y222000D02*
D03*
X128000Y157500D02*
D03*
X296500Y216500D02*
D03*
X299330Y266000D02*
D03*
X175000Y231500D02*
D03*
Y266000D02*
D03*
X176396Y197400D02*
D03*
X92000Y157500D02*
D03*
X138500Y154000D02*
D03*
X92000Y176500D02*
D03*
X176396Y225104D02*
D03*
X104500Y214000D02*
D03*
X92000Y188500D02*
D03*
X83000Y157500D02*
D03*
X74000Y182500D02*
D03*
D60*
X123000Y179000D02*
D03*
Y168000D02*
D03*
X120000Y149500D02*
D03*
M02*
