G04*
G04 #@! TF.GenerationSoftware,Altium Limited,Altium Designer,20.1.8 (145)*
G04*
G04 Layer_Color=8388736*
%FSLAX25Y25*%
%MOIN*%
G70*
G04*
G04 #@! TF.SameCoordinates,9FEF0589-292D-4462-8DC4-F6EDC39D71BC*
G04*
G04*
G04 #@! TF.FilePolarity,Negative*
G04*
G01*
G75*
%ADD17R,0.04250X0.01400*%
%ADD28R,0.06100X0.05100*%
%ADD35R,0.03556X0.06706*%
%ADD36R,0.06706X0.03556*%
%ADD37R,0.04737X0.04343*%
%ADD38R,0.05524X0.01981*%
G04:AMPARAMS|DCode=39|XSize=19.81mil|YSize=55.24mil|CornerRadius=6.95mil|HoleSize=0mil|Usage=FLASHONLY|Rotation=90.000|XOffset=0mil|YOffset=0mil|HoleType=Round|Shape=RoundedRectangle|*
%AMROUNDEDRECTD39*
21,1,0.01981,0.04134,0,0,90.0*
21,1,0.00591,0.05524,0,0,90.0*
1,1,0.01391,0.02067,0.00295*
1,1,0.01391,0.02067,-0.00295*
1,1,0.01391,-0.02067,-0.00295*
1,1,0.01391,-0.02067,0.00295*
%
%ADD39ROUNDEDRECTD39*%
%ADD40R,0.04300X0.09800*%
%ADD41R,0.01300X0.03300*%
G04:AMPARAMS|DCode=42|XSize=58mil|YSize=27.69mil|CornerRadius=6.46mil|HoleSize=0mil|Usage=FLASHONLY|Rotation=0.000|XOffset=0mil|YOffset=0mil|HoleType=Round|Shape=RoundedRectangle|*
%AMROUNDEDRECTD42*
21,1,0.05800,0.01476,0,0,0.0*
21,1,0.04508,0.02769,0,0,0.0*
1,1,0.01292,0.02254,-0.00738*
1,1,0.01292,-0.02254,-0.00738*
1,1,0.01292,-0.02254,0.00738*
1,1,0.01292,0.02254,0.00738*
%
%ADD42ROUNDEDRECTD42*%
%ADD43R,0.03162X0.09461*%
%ADD44R,0.04737X0.04737*%
%ADD45R,0.04343X0.04737*%
%ADD46R,0.04737X0.04737*%
%ADD47R,0.06706X0.03162*%
%ADD48R,0.05918X0.07887*%
G04:AMPARAMS|DCode=49|XSize=62.72mil|YSize=39.1mil|CornerRadius=7.89mil|HoleSize=0mil|Usage=FLASHONLY|Rotation=270.000|XOffset=0mil|YOffset=0mil|HoleType=Round|Shape=RoundedRectangle|*
%AMROUNDEDRECTD49*
21,1,0.06272,0.02333,0,0,270.0*
21,1,0.04695,0.03910,0,0,270.0*
1,1,0.01578,-0.01166,-0.02347*
1,1,0.01578,-0.01166,0.02347*
1,1,0.01578,0.01166,0.02347*
1,1,0.01578,0.01166,-0.02347*
%
%ADD49ROUNDEDRECTD49*%
%ADD50R,0.06706X0.06706*%
%ADD51C,0.06706*%
%ADD52C,0.02965*%
%ADD53C,0.18800*%
%ADD54C,0.03800*%
D17*
X104725Y201441D02*
D03*
Y204000D02*
D03*
Y206559D02*
D03*
X114275D02*
D03*
Y204000D02*
D03*
Y201441D02*
D03*
X257225Y214941D02*
D03*
Y217500D02*
D03*
Y220059D02*
D03*
X266775D02*
D03*
Y217500D02*
D03*
Y214941D02*
D03*
D28*
X213350Y258858D02*
D03*
Y241142D02*
D03*
X244650D02*
D03*
Y258858D02*
D03*
X256350D02*
D03*
Y241142D02*
D03*
X287650D02*
D03*
Y258858D02*
D03*
D35*
X320658Y201106D02*
D03*
X316327D02*
D03*
X320658Y155862D02*
D03*
X316327D02*
D03*
X244280D02*
D03*
X248610D02*
D03*
X265933D02*
D03*
X261603D02*
D03*
X257272D02*
D03*
X252941Y201137D02*
D03*
X274595Y155862D02*
D03*
X270264D02*
D03*
X252941D02*
D03*
X265933Y201137D02*
D03*
X257272D02*
D03*
X283256D02*
D03*
X278925Y155862D02*
D03*
X287587Y201137D02*
D03*
X261603D02*
D03*
X278925D02*
D03*
X248610D02*
D03*
X244280D02*
D03*
X274595D02*
D03*
X270264D02*
D03*
X283256Y155862D02*
D03*
X291917Y201137D02*
D03*
D36*
X238177Y191492D02*
D03*
Y182830D02*
D03*
Y178500D02*
D03*
Y174169D02*
D03*
Y187161D02*
D03*
Y169838D02*
D03*
Y165508D02*
D03*
D37*
X229500Y181846D02*
D03*
Y175154D02*
D03*
X222500Y181846D02*
D03*
Y175154D02*
D03*
D38*
X205000Y195163D02*
D03*
X204998Y197132D02*
D03*
X205000Y199100D02*
D03*
Y201031D02*
D03*
D39*
X204900Y203000D02*
D03*
D40*
X212000Y199000D02*
D03*
D41*
X76850Y185551D02*
D03*
X78425D02*
D03*
X80000D02*
D03*
X81575D02*
D03*
Y195000D02*
D03*
X80000D02*
D03*
X78425D02*
D03*
X76850D02*
D03*
D42*
X79213Y190276D02*
D03*
D43*
X202000Y180760D02*
D03*
X197000D02*
D03*
X192000D02*
D03*
X187000D02*
D03*
X182000D02*
D03*
X177000D02*
D03*
X172000D02*
D03*
X167000D02*
D03*
X162000D02*
D03*
X157000D02*
D03*
X152000D02*
D03*
X147000D02*
D03*
X142000D02*
D03*
X137000D02*
D03*
X202000Y138240D02*
D03*
X197000D02*
D03*
X192000D02*
D03*
X187000D02*
D03*
X182000D02*
D03*
X177000D02*
D03*
X172000D02*
D03*
X167000D02*
D03*
X162000D02*
D03*
X157000D02*
D03*
X152000D02*
D03*
X147000D02*
D03*
X142000D02*
D03*
X137000D02*
D03*
D44*
X144150Y190500D02*
D03*
X137850D02*
D03*
X161350Y128500D02*
D03*
X167650D02*
D03*
X113150Y179500D02*
D03*
X106850D02*
D03*
X76350Y176500D02*
D03*
X82650D02*
D03*
X182650Y190500D02*
D03*
X176350D02*
D03*
D45*
X106653Y193500D02*
D03*
X113347D02*
D03*
X106653Y186500D02*
D03*
X113347D02*
D03*
X198153Y220000D02*
D03*
X204847D02*
D03*
X204847Y213000D02*
D03*
X198153D02*
D03*
X198000Y226000D02*
D03*
X204693D02*
D03*
X224153Y123000D02*
D03*
X230847D02*
D03*
X224153Y130000D02*
D03*
X230847D02*
D03*
X82846Y163000D02*
D03*
X76153D02*
D03*
X82846Y170000D02*
D03*
X76153D02*
D03*
X261347Y144000D02*
D03*
X254654D02*
D03*
X229153Y231500D02*
D03*
X235846D02*
D03*
X204847Y232500D02*
D03*
X198153D02*
D03*
X224153Y137500D02*
D03*
X230847D02*
D03*
X224153Y144500D02*
D03*
X230847D02*
D03*
D46*
X131500Y231650D02*
D03*
Y225350D02*
D03*
X130000Y216150D02*
D03*
Y209850D02*
D03*
X188000Y203150D02*
D03*
Y196850D02*
D03*
D47*
X113760Y226500D02*
D03*
X121240Y230240D02*
D03*
Y222760D02*
D03*
D48*
X156291Y266000D02*
D03*
X167709D02*
D03*
X156291Y231500D02*
D03*
X167709D02*
D03*
X279291Y216500D02*
D03*
X290709D02*
D03*
D49*
X197047Y255465D02*
D03*
X202953D02*
D03*
Y243535D02*
D03*
X197047D02*
D03*
D50*
X296890Y146000D02*
D03*
X283110D02*
D03*
X265500Y127000D02*
D03*
X234000Y110500D02*
D03*
X193833Y110000D02*
D03*
X145500Y239000D02*
D03*
Y205000D02*
D03*
X92000Y211500D02*
D03*
D51*
X285500Y127000D02*
D03*
X275500D02*
D03*
X284000Y110500D02*
D03*
X274000D02*
D03*
X264000D02*
D03*
X254000D02*
D03*
X244000D02*
D03*
X193833Y120000D02*
D03*
X183833Y110000D02*
D03*
Y120000D02*
D03*
X173833Y110000D02*
D03*
Y120000D02*
D03*
X145500Y259000D02*
D03*
Y249000D02*
D03*
Y225000D02*
D03*
Y215000D02*
D03*
X82000Y211500D02*
D03*
D52*
X212000Y196000D02*
D03*
Y202000D02*
D03*
D53*
X113500Y127500D02*
D03*
Y247500D02*
D03*
X311500D02*
D03*
Y127500D02*
D03*
D54*
X92000Y200000D02*
D03*
X112500Y173500D02*
D03*
Y166000D02*
D03*
X107000Y162000D02*
D03*
X101500Y198500D02*
D03*
X199500Y160000D02*
D03*
X204500Y130000D02*
D03*
X238000Y142500D02*
D03*
X212000Y141000D02*
D03*
X216500Y144500D02*
D03*
Y155000D02*
D03*
X212000Y152500D02*
D03*
X249000Y132000D02*
D03*
X266000Y241000D02*
D03*
X272500Y220000D02*
D03*
X242000Y210000D02*
D03*
X236000Y221500D02*
D03*
X238500Y122500D02*
D03*
X249326Y149673D02*
D03*
X302500Y138500D02*
D03*
X283000Y165000D02*
D03*
X244500Y149705D02*
D03*
X222500Y187500D02*
D03*
X307000Y146000D02*
D03*
X279854Y208939D02*
D03*
X87500Y170000D02*
D03*
Y182500D02*
D03*
X182000Y171500D02*
D03*
X194000Y195000D02*
D03*
X187000Y171500D02*
D03*
X195500Y205000D02*
D03*
X252500Y138000D02*
D03*
X167000Y159500D02*
D03*
X152000Y147500D02*
D03*
X162500Y197000D02*
D03*
X169500Y190500D02*
D03*
X128000Y138500D02*
D03*
X172000Y148000D02*
D03*
X156000Y196500D02*
D03*
X155000Y127000D02*
D03*
X162000Y189500D02*
D03*
X167000Y173500D02*
D03*
X131500Y121500D02*
D03*
Y190500D02*
D03*
X135500Y216000D02*
D03*
X230000Y237000D02*
D03*
X181500Y237500D02*
D03*
X230000Y245000D02*
D03*
X221500Y259000D02*
D03*
X224000Y246000D02*
D03*
X221500Y272000D02*
D03*
X219000Y249500D02*
D03*
X214000Y253000D02*
D03*
Y226000D02*
D03*
X219000Y220000D02*
D03*
X224000Y217500D02*
D03*
X236000Y259000D02*
D03*
X242000Y231500D02*
D03*
X254000Y252500D02*
D03*
X236000Y272000D02*
D03*
X159500Y216000D02*
D03*
X166199Y218500D02*
D03*
X173500Y210500D02*
D03*
X170500Y215000D02*
D03*
X163000Y222000D02*
D03*
X128000Y157500D02*
D03*
X296500Y216500D02*
D03*
X299330Y266000D02*
D03*
X175000Y231500D02*
D03*
Y266000D02*
D03*
X176396Y197400D02*
D03*
X92000Y157500D02*
D03*
X138500Y154000D02*
D03*
X92000Y176500D02*
D03*
X176396Y225104D02*
D03*
X104500Y214000D02*
D03*
X92000Y188500D02*
D03*
X83000Y157500D02*
D03*
X74000Y182500D02*
D03*
M02*
